<?xml version="1.0" encoding="UTF-8"?>
<svg id="_レイヤー_1" data-name="レイヤー 1" xmlns="http://www.w3.org/2000/svg" viewBox="0 0 301.97 163.37">
  <defs>
    <style>
      .cls-1 {
        fill: none;
      }

      .cls-2 {
        opacity: .9;
      }

      .cls-3 {
        fill: #fff3f3;
      }
    </style>
  </defs>
  <g class="cls-2">
    <path class="cls-3" d="M99.28,63.04l16.87-10.93,7.48,2.83c3.02,1.68,2.26,4.29.41,6.62-6.35,3.58-13.92,7.32-19.5,12-6.46,5.42-4.97,7.01-5.24,14.76-.08,2.4-1.1,4.65-.3,7.26,1.43,4.63,18.26,11.56,22.74,15.26,1.62,1.34,4.53,4.34,1.07,5.48s-9.48-2.39-12.54-4.01c-4.78-2.55-12.27-10.34-12.01.02.31,12.18,2.01,24.34,1.02,36.47-.44,5.39-2.26,14.58-9.67,10.18-7.95-4.72-.8-17.65-.3-24.65s-.72-14.43-1.04-21.5c-.2-4.33.45-9.25-.03-13.47-.95-8.26-10.51-10.83-9.46-19.57.76-6.26,8.09-1.35,8.95-8.54,1.08-9.04-.42-18.9-.46-27.92-.06-11.47-.18-24.7,1.02-36.03.42-4.02,5.4-2.94,8.14-1.63,6.24,3,2.67,18.11,2.37,23.64-.36,6.55-.08,12.98.02,19.47.03,2.09-.39,13.63.49,14.27Z"/>
    <path class="cls-3" d="M48.43,86.89c-.88-.74-1.16-2.82-3.15-2.34-2.87,13.79-9.88,30.12-26.75,28.5-25.85-2.49-12.88-49.84,0-60.48,5.58-4.61,14.13-2.29,19.7,1.28,4.54,2.91,4.62,4.96,4.78,10.22,1.08,1.3,3.25.55,4.29,1.71,1.44,1.59,2.92,9.98,4.36,12.64,1.18,2.17,6.93,6.08,4.87,9.17-1.14,1.72-6.71.49-8.11-.68ZM32.77,59.05c-6.66-.69-10.42,4.9-13.17,10.07-3.84,7.22-9.54,25.09-5.72,32.57,1.81,3.54,8.59-.03,10.9-1.89,9.36-7.54,15.75-26.09,11.94-37.7-1.89-.85-7.01,2.3-6.44,4.17.23.75,3.08.65.48,2.5-1.27.9-3.44,1.2-4.98,1.26.2-2.58,1.74-5.42,3.48-7.27.47-.5,4.36-3,3.52-3.73Z"/>
    <path class="cls-3" d="M178.62,81.2c-.5-.42-1.18-.68-1.84-.66-1,3.2-2.33,6.81-4.09,9.66-1.29,2.08-7.33,9.31-9.3,10.21-3,1.36-12.7-1.11-15.11-3.62-7.73-8.03-.3-29.64,5.29-37.7,3.5-5.05,5.46-6.88,11.81-5.4,7.14,1.67,5.74,4.25,9.4,8.6,1,1.19,2.91,2.05,3.53,2.97.73,1.1,1.14,3.34,2.07,4.93,2.11,3.6,9.37,14.27,13.04,15.46,2.88.94,7.82-1.03,6.78,4.02-1.57,7.66-13.45.25-16.65-2.65-1.89-1.71-3.48-4.62-4.92-5.83ZM163.02,64.55c-1.25.48-4.15,5.55-1.99,5.99,1.82.37,3.59-6.03,1.99-5.99ZM166.27,69.55c-1.43-.03-1.91,1.59-3.13,2.12-1.66.72-3.71.26-5.05,2-2.89,3.75-2.92,11.79-3.82,16.38,7.74-1.1,13.23-13.41,11.99-20.5Z"/>
    <path class="cls-3" d="M293.14,133.42c-.76.94-7.44,2.84-8.75,1.5-1.33-1.55-.37-14.7-.12-17.62.73-8.49,2.58-16.96,2.99-25.51.49-10.28.31-20.07,1-30.5.14-2.19-.51-8.76.46-10.04,1.33-1.76,7.88,2.07,9.05,3.53,3.75,4.64.32,20.36,0,26.52-.45,8.64.55,17.37-.51,25.99-.53,4.34-2.48,8.67-2.94,12.56-.4,3.38.94,10.93-1.18,13.57Z"/>
    <path class="cls-3" d="M224.12,50.19c2.85,3.15,2.28,15.16,5.16,16.63.84.43,4.58-2.2,5.86-2.67,4.13-1.51,11.99-2,15.81.47.93.6,3.5,2.62,1.69,3.54-3.4,1.74-8.26,2.06-12.02,3.97-8.2,4.17-9.28,11.14-8.84,19.65.12,2.29,2.55,13.25-.74,13.6l-6.05-1.31c-4.64-5.42-3.16-11.97-3.72-18.28-.7-7.98-1.63-16.95-3.23-24.77-.48-2.35-3.9-12.82-3.05-14.01,1.18-1.66,8.14,2.08,9.13,3.18Z"/>
    <path class="cls-3" d="M276.6,19.67c1.26-.12,6.9,2.51,7.62,3.67,1.23,1.98,1.04,7.52-2.07,7.11-4.92-.66-10.55-10.31-5.55-10.78Z"/>
    <path class="cls-1" d="M32.77,59.05c.84.73-3.05,3.22-3.52,3.73-1.73,1.85-3.27,4.69-3.48,7.27,1.54-.07,3.71-.36,4.98-1.26,2.61-1.85-.25-1.76-.48-2.5-.57-1.87,4.55-5.02,6.44-4.17,3.82,11.61-2.58,30.15-11.94,37.7-2.31,1.86-9.09,5.42-10.9,1.89-3.83-7.47,1.88-25.34,5.72-32.57,2.75-5.18,6.51-10.77,13.17-10.07Z"/>
    <path class="cls-1" d="M166.27,69.55c1.24,7.08-4.26,19.4-11.99,20.5.9-4.58.93-12.63,3.82-16.38,1.34-1.74,3.39-1.28,5.05-2,1.21-.53,1.7-2.15,3.13-2.12Z"/>
    <path class="cls-1" d="M163.02,64.55c1.6-.04-.17,6.36-1.99,5.99-2.15-.44.75-5.5,1.99-5.99Z"/>
  </g>
</svg>