<svg width="422" height="513" viewBox="0 0 422 513" fill="none" xmlns="http://www.w3.org/2000/svg">
<rect width="422" height="513" fill="#FFF3F3"/>
<path fill-rule="evenodd" clip-rule="evenodd" d="M328.984 441.936C325.41 441.936 325.053 442.326 323.203 442.326C321.663 442.326 317.036 438.449 314.725 438.449C312.414 438.449 309.714 439.845 309.714 443.876V448.526C309.719 449.747 310.149 453.487 311.839 452.488C309.842 454.913 309.642 457.743 309.668 460.482C309.13 460.64 308.581 460.822 308.048 461.008C306.396 461.588 304.643 462.327 303.853 462.853C303.45 463.121 303.166 463.542 303.065 464.024C302.964 464.507 303.054 465.011 303.315 465.425C303.575 465.839 303.986 466.131 304.455 466.234C304.925 466.338 305.415 466.246 305.819 465.978C306.196 465.728 307.56 465.11 309.219 464.527L309.77 464.341C309.881 465.415 310.158 466.4 310.571 467.293L310.513 467.325C309.523 467.861 308.606 468.478 308.021 468.87L307.748 469.054C307.345 469.322 307.061 469.743 306.96 470.225C306.86 470.708 306.949 471.211 307.21 471.626C307.471 472.04 307.881 472.331 308.35 472.435C308.82 472.539 309.311 472.447 309.714 472.179L310.03 471.966C310.622 471.569 311.38 471.06 312.206 470.614C312.399 470.508 312.585 470.412 312.764 470.326C316.942 474.352 324.444 475.654 328.984 475.654C333.524 475.654 341.027 474.352 345.205 470.326C345.382 470.412 345.568 470.508 345.763 470.614C346.588 471.06 347.347 471.569 347.938 471.966L348.255 472.179C348.658 472.447 349.149 472.539 349.618 472.435C350.088 472.331 350.498 472.04 350.759 471.626C351.019 471.211 351.109 470.708 351.008 470.225C350.907 469.743 350.624 469.322 350.22 469.054L349.947 468.87C349.14 468.316 348.309 467.8 347.455 467.325L347.397 467.293C347.81 466.4 348.088 465.415 348.199 464.341L348.75 464.527C350.409 465.11 351.773 465.728 352.152 465.978C352.555 466.231 353.039 466.312 353.499 466.203C353.96 466.095 354.361 465.806 354.617 465.399C354.873 464.991 354.964 464.497 354.87 464.021C354.777 463.545 354.506 463.126 354.115 462.853C353.326 462.327 351.573 461.588 349.923 461.008C349.386 460.819 348.845 460.643 348.3 460.479C348.329 457.741 348.127 454.913 346.127 452.488C347.818 453.487 348.252 449.747 348.255 448.524V443.876C348.255 439.845 345.557 438.449 343.244 438.449C340.933 438.449 336.306 442.326 334.768 442.326C332.916 442.326 332.558 441.936 328.984 441.936ZM327.354 464.74C327.842 464.569 328.419 464.492 328.984 464.492C329.549 464.492 330.127 464.569 330.617 464.74C330.858 464.825 331.148 464.959 331.409 465.172C331.587 465.311 331.734 465.489 331.836 465.693C331.939 465.897 331.996 466.123 332.003 466.353C332.003 466.923 331.667 467.32 331.409 467.533C331.15 467.747 330.856 467.881 330.617 467.965C330.127 468.136 329.549 468.213 328.984 468.213C328.419 468.213 327.842 468.136 327.354 467.965C327.068 467.868 326.799 467.723 326.56 467.533C326.381 467.395 326.235 467.217 326.132 467.012C326.029 466.808 325.973 466.583 325.966 466.353C325.966 465.782 326.301 465.385 326.56 465.172C326.818 464.959 327.115 464.825 327.354 464.74ZM334.224 457.051C334.555 456.486 335.205 455.811 336.18 455.811C337.156 455.811 337.808 456.486 338.137 457.051C338.479 457.644 338.644 458.359 338.644 459.068C338.644 459.777 338.479 460.489 338.137 461.079C337.808 461.647 337.156 462.322 336.18 462.322C335.205 462.322 334.555 461.647 334.224 461.082C333.884 460.469 333.709 459.774 333.717 459.068C333.717 458.359 333.882 457.644 334.224 457.054M319.832 457.054C320.163 456.488 320.813 455.814 321.788 455.814C322.764 455.814 323.416 456.488 323.744 457.054C324.087 457.647 324.251 458.361 324.251 459.07C324.251 459.78 324.087 460.492 323.744 461.082C323.416 461.65 322.764 462.325 321.788 462.325C320.813 462.325 320.163 461.65 319.832 461.084C319.492 460.471 319.317 459.776 319.325 459.07C319.325 458.361 319.489 457.644 319.832 457.054Z" fill="#F29A98" fill-opacity="0.2"/>
<path fill-rule="evenodd" clip-rule="evenodd" d="M93.06 40.8333C89.4861 40.8333 89.1287 41.2227 87.2789 41.2227C85.7383 41.2227 81.1115 37.3459 78.8005 37.3459C76.4895 37.3459 73.7897 38.7424 73.7897 42.773V47.4236C73.7946 48.644 74.2244 52.3843 75.9148 51.3847C73.9177 53.8105 73.7173 56.6406 73.7438 59.3789C73.2053 59.5377 72.6572 59.7187 72.1235 59.9048C70.4718 60.4852 68.7186 61.2243 67.929 61.7501C67.5255 62.0179 67.2421 62.4393 67.1411 62.9216C67.0401 63.404 67.1298 63.9078 67.3905 64.3223C67.6511 64.7367 68.0614 65.0278 68.531 65.1315C69.0006 65.2353 69.4911 65.1431 69.8946 64.8754C70.2713 64.6249 71.6357 64.0073 73.2947 63.4244L73.8453 63.2383C73.9564 64.3123 74.2341 65.297 74.647 66.19L74.589 66.2222C73.599 66.758 72.6813 67.3756 72.0969 67.7675L71.8241 67.951C71.4206 68.2188 71.1372 68.6402 71.0362 69.1225C70.9352 69.6049 71.0249 70.1087 71.2856 70.5231C71.5462 70.9376 71.9565 71.2287 72.4261 71.3324C72.8957 71.4361 73.3862 71.344 73.7897 71.0763L74.1061 70.8629C74.6977 70.4661 75.456 69.9576 76.2818 69.5112C76.475 69.4053 76.661 69.3094 76.8396 69.2234C81.0173 73.249 88.5201 74.5512 93.06 74.5512C97.5999 74.5512 105.103 73.249 109.28 69.2234C109.457 69.3094 109.643 69.4053 109.838 69.5112C110.664 69.9576 111.422 70.4661 112.014 70.8629L112.33 71.0763C112.734 71.344 113.224 71.4361 113.694 71.3324C114.164 71.2287 114.574 70.9376 114.834 70.5231C115.095 70.1087 115.185 69.6049 115.084 69.1225C114.983 68.6402 114.699 68.2188 114.296 67.951L114.023 67.7675C113.216 67.2131 112.385 66.6974 111.531 66.2222L111.473 66.19C111.886 65.297 112.164 64.3123 112.275 63.2383L112.825 63.4244C114.484 64.0073 115.849 64.6249 116.228 64.8754C116.631 65.1281 117.115 65.209 117.575 65.1007C118.036 64.9924 118.437 64.7036 118.693 64.2959C118.949 63.8882 119.04 63.3938 118.946 62.9182C118.852 62.4426 118.581 62.0234 118.191 61.7501C117.401 61.2243 115.648 60.4852 113.999 59.9048C113.462 59.7164 112.921 59.5403 112.376 59.3764C112.405 56.6381 112.202 53.8105 110.203 51.3847C111.893 52.3843 112.328 48.644 112.33 47.4211V42.773C112.33 38.7424 109.633 37.3459 107.32 37.3459C105.009 37.3459 100.382 41.2227 98.8435 41.2227C96.9913 41.2227 96.6339 40.8333 93.06 40.8333ZM91.43 63.6377C91.9178 63.4665 92.4949 63.3896 93.06 63.3896C93.6251 63.3896 94.2022 63.4665 94.6924 63.6377C94.9339 63.722 95.2237 63.856 95.4845 64.0693C95.6632 64.2079 95.8093 64.3859 95.9121 64.5903C96.0149 64.7946 96.0718 65.02 96.0785 65.2499C96.0785 65.8204 95.7429 66.2172 95.4845 66.4306C95.2261 66.6439 94.9315 66.7778 94.6924 66.8621C94.2022 67.0333 93.6251 67.1102 93.06 67.1102C92.4949 67.1102 91.9178 67.0333 91.43 66.8621C91.1432 66.7657 90.8746 66.6197 90.6355 66.4306C90.4569 66.2919 90.3107 66.1139 90.2079 65.9095C90.1051 65.7052 90.0482 65.4798 90.0415 65.2499C90.0415 64.6794 90.3771 64.2826 90.6355 64.0693C90.8939 63.856 91.1909 63.722 91.43 63.6377ZM98.3002 55.9486C98.631 55.3831 99.2806 54.7084 100.256 54.7084C101.232 54.7084 101.884 55.3831 102.212 55.9486C102.555 56.5414 102.719 57.2557 102.719 57.9651C102.719 58.6745 102.555 59.3864 102.212 59.9767C101.884 60.5447 101.232 61.2193 100.256 61.2193C99.2806 61.2193 98.631 60.5447 98.3002 59.9792C97.9598 59.3661 97.7847 58.6708 97.7931 57.9651C97.7931 57.2557 97.9573 56.5414 98.3002 55.9511M83.9078 55.9511C84.2387 55.3855 84.8883 54.7109 85.8638 54.7109C86.8394 54.7109 87.4914 55.3855 87.8198 55.9511C88.1627 56.5439 88.327 57.2582 88.327 57.9676C88.327 58.677 88.1627 59.3888 87.8198 59.9792C87.4914 60.5472 86.8394 61.2218 85.8638 61.2218C84.8883 61.2218 84.2387 60.5472 83.9078 59.9816C83.5674 59.3686 83.3924 58.6733 83.4007 57.9676C83.4007 57.2582 83.5649 56.5414 83.9078 55.9511Z" fill="#F29A98" fill-opacity="0.2"/>
<path fill-rule="evenodd" clip-rule="evenodd" d="M329.01 106.936C325.436 106.936 325.079 107.326 323.229 107.326C321.688 107.326 317.062 103.449 314.751 103.449C312.44 103.449 309.74 104.845 309.74 108.876V113.526C309.745 114.747 310.175 118.487 311.865 117.488C309.868 119.913 309.667 122.743 309.694 125.482C309.156 125.64 308.607 125.822 308.074 126.008C306.422 126.588 304.669 127.327 303.879 127.853C303.476 128.121 303.192 128.542 303.091 129.024C302.99 129.507 303.08 130.011 303.341 130.425C303.601 130.839 304.012 131.131 304.481 131.234C304.951 131.338 305.441 131.246 305.845 130.978C306.222 130.728 307.586 130.11 309.245 129.527L309.795 129.341C309.907 130.415 310.184 131.4 310.597 132.293L310.539 132.325C309.549 132.861 308.632 133.478 308.047 133.87L307.774 134.054C307.371 134.322 307.087 134.743 306.986 135.225C306.885 135.708 306.975 136.211 307.236 136.626C307.496 137.04 307.907 137.331 308.376 137.435C308.846 137.539 309.336 137.447 309.74 137.179L310.056 136.966C310.648 136.569 311.406 136.06 312.232 135.614C312.425 135.508 312.611 135.412 312.79 135.326C316.967 139.352 324.47 140.654 329.01 140.654C333.55 140.654 341.053 139.352 345.231 135.326C345.408 135.412 345.594 135.508 345.788 135.614C346.614 136.06 347.373 136.569 347.964 136.966L348.28 137.179C348.684 137.447 349.174 137.539 349.644 137.435C350.114 137.331 350.524 137.04 350.785 136.626C351.045 136.211 351.135 135.708 351.034 135.225C350.933 134.743 350.65 134.322 350.246 134.054L349.973 133.87C349.166 133.316 348.335 132.8 347.481 132.325L347.423 132.293C347.836 131.4 348.114 130.415 348.225 129.341L348.776 129.527C350.435 130.11 351.799 130.728 352.178 130.978C352.581 131.231 353.065 131.312 353.525 131.203C353.986 131.095 354.387 130.806 354.643 130.399C354.899 129.991 354.99 129.497 354.896 129.021C354.803 128.545 354.532 128.126 354.141 127.853C353.352 127.327 351.598 126.588 349.949 126.008C349.412 125.819 348.871 125.643 348.326 125.479C348.355 122.741 348.153 119.913 346.153 117.488C347.843 118.487 348.278 114.747 348.28 113.524V108.876C348.28 104.845 345.583 103.449 343.27 103.449C340.959 103.449 336.332 107.326 334.794 107.326C332.942 107.326 332.584 106.936 329.01 106.936ZM327.38 129.74C327.868 129.569 328.445 129.492 329.01 129.492C329.575 129.492 330.152 129.569 330.643 129.74C330.884 129.825 331.174 129.959 331.435 130.172C331.613 130.311 331.759 130.489 331.862 130.693C331.965 130.897 332.022 131.123 332.029 131.353C332.029 131.923 331.693 132.32 331.435 132.533C331.176 132.747 330.882 132.881 330.643 132.965C330.152 133.136 329.575 133.213 329.01 133.213C328.445 133.213 327.868 133.136 327.38 132.965C327.093 132.868 326.825 132.723 326.586 132.533C326.407 132.395 326.261 132.217 326.158 132.012C326.055 131.808 325.998 131.583 325.992 131.353C325.992 130.782 326.327 130.385 326.586 130.172C326.844 129.959 327.141 129.825 327.38 129.74ZM334.25 122.051C334.581 121.486 335.231 120.811 336.206 120.811C337.182 120.811 337.834 121.486 338.162 122.051C338.505 122.644 338.669 123.359 338.669 124.068C338.669 124.777 338.505 125.489 338.162 126.079C337.834 126.647 337.182 127.322 336.206 127.322C335.231 127.322 334.581 126.647 334.25 126.082C333.91 125.469 333.735 124.774 333.743 124.068C333.743 123.359 333.907 122.644 334.25 122.054M319.858 122.054C320.189 121.488 320.838 120.814 321.814 120.814C322.79 120.814 323.442 121.488 323.77 122.054C324.113 122.647 324.277 123.361 324.277 124.07C324.277 124.78 324.113 125.492 323.77 126.082C323.442 126.65 322.79 127.325 321.814 127.325C320.838 127.325 320.189 126.65 319.858 126.084C319.518 125.471 319.343 124.776 319.351 124.07C319.351 123.361 319.515 122.644 319.858 122.054Z" fill="#F29A98" fill-opacity="0.2"/>
<path fill-rule="evenodd" clip-rule="evenodd" d="M210.959 241.487C207.385 241.487 207.028 241.877 205.178 241.877C203.638 241.877 199.011 238 196.7 238C194.389 238 191.689 239.396 191.689 243.427V248.078C191.694 249.298 192.124 253.038 193.814 252.039C191.817 254.465 191.617 257.295 191.643 260.033C191.105 260.192 190.557 260.373 190.023 260.559C188.371 261.139 186.618 261.878 185.828 262.404C185.425 262.672 185.141 263.093 185.04 263.576C184.939 264.058 185.029 264.562 185.29 264.976C185.551 265.391 185.961 265.682 186.43 265.786C186.9 265.889 187.391 265.797 187.794 265.529C188.171 265.279 189.535 264.661 191.194 264.078L191.745 263.892C191.856 264.966 192.133 265.951 192.546 266.844L192.488 266.876C191.498 267.412 190.581 268.03 189.996 268.422L189.723 268.605C189.32 268.873 189.037 269.294 188.936 269.777C188.835 270.259 188.924 270.763 189.185 271.177C189.446 271.592 189.856 271.883 190.326 271.986C190.795 272.09 191.286 271.998 191.689 271.73L192.005 271.517C192.597 271.12 193.355 270.612 194.181 270.165C194.374 270.059 194.56 269.963 194.739 269.877C198.917 273.903 206.42 275.205 210.959 275.205C215.499 275.205 223.002 273.903 227.18 269.877C227.357 269.963 227.543 270.059 227.738 270.165C228.563 270.612 229.322 271.12 229.913 271.517L230.23 271.73C230.633 271.998 231.124 272.09 231.593 271.986C232.063 271.883 232.473 271.592 232.734 271.177C232.995 270.763 233.084 270.259 232.983 269.777C232.882 269.294 232.599 268.873 232.195 268.605L231.922 268.422C231.116 267.867 230.284 267.351 229.43 266.876L229.372 266.844C229.785 265.951 230.063 264.966 230.174 263.892L230.725 264.078C232.384 264.661 233.748 265.279 234.127 265.529C234.531 265.782 235.014 265.863 235.475 265.755C235.935 265.646 236.336 265.358 236.592 264.95C236.848 264.542 236.939 264.048 236.846 263.572C236.752 263.097 236.481 262.677 236.09 262.404C235.301 261.878 233.548 261.139 231.898 260.559C231.361 260.37 230.82 260.194 230.276 260.03C230.305 257.292 230.102 254.465 228.102 252.039C229.793 253.038 230.227 249.298 230.23 248.075V243.427C230.23 239.396 227.532 238 225.219 238C222.908 238 218.281 241.877 216.743 241.877C214.891 241.877 214.533 241.487 210.959 241.487ZM209.329 264.292C209.817 264.121 210.394 264.044 210.959 264.044C211.524 264.044 212.102 264.121 212.592 264.292C212.833 264.376 213.123 264.51 213.384 264.723C213.563 264.862 213.709 265.04 213.812 265.244C213.914 265.449 213.971 265.674 213.978 265.904C213.978 266.474 213.642 266.871 213.384 267.085C213.126 267.298 212.831 267.432 212.592 267.516C212.102 267.687 211.524 267.764 210.959 267.764C210.394 267.764 209.817 267.687 209.329 267.516C209.043 267.42 208.774 267.274 208.535 267.085C208.356 266.946 208.21 266.768 208.107 266.564C208.005 266.359 207.948 266.134 207.941 265.904C207.941 265.333 208.277 264.937 208.535 264.723C208.793 264.51 209.09 264.376 209.329 264.292ZM216.2 256.603C216.53 256.037 217.18 255.362 218.156 255.362C219.131 255.362 219.783 256.037 220.112 256.603C220.455 257.195 220.619 257.91 220.619 258.619C220.619 259.329 220.455 260.04 220.112 260.631C219.783 261.199 219.131 261.873 218.156 261.873C217.18 261.873 216.53 261.199 216.2 260.633C215.859 260.02 215.684 259.325 215.692 258.619C215.692 257.91 215.857 257.195 216.2 256.605M201.807 256.605C202.138 256.04 202.788 255.365 203.763 255.365C204.739 255.365 205.391 256.04 205.719 256.605C206.062 257.198 206.226 257.912 206.226 258.622C206.226 259.331 206.062 260.043 205.719 260.633C205.391 261.201 204.739 261.876 203.763 261.876C202.788 261.876 202.138 261.201 201.807 260.636C201.467 260.023 201.292 259.327 201.3 258.622C201.3 257.912 201.464 257.195 201.807 256.605Z" fill="#F29A98" fill-opacity="0.2"/>
<path fill-rule="evenodd" clip-rule="evenodd" d="M93.0268 355.936C89.4529 355.936 89.0955 356.326 87.2457 356.326C85.7051 356.326 81.0783 352.449 78.7673 352.449C76.4563 352.449 73.7565 353.845 73.7565 357.876V362.527C73.7614 363.747 74.1912 367.487 75.8816 366.488C73.8845 368.913 73.6841 371.744 73.7106 374.482C73.1721 374.641 72.624 374.822 72.0903 375.008C70.4386 375.588 68.6854 376.327 67.8958 376.853C67.4923 377.121 67.2089 377.542 67.1079 378.025C67.0069 378.507 67.0966 379.011 67.3572 379.425C67.6179 379.84 68.0282 380.131 68.4978 380.234C68.9674 380.338 69.4579 380.246 69.8614 379.978C70.2381 379.728 71.6025 379.11 73.2615 378.527L73.8121 378.341C73.9231 379.415 74.2009 380.4 74.6138 381.293L74.5558 381.325C73.5658 381.861 72.6481 382.478 72.0637 382.87L71.7909 383.054C71.3874 383.322 71.104 383.743 71.003 384.225C70.902 384.708 70.9917 385.212 71.2524 385.626C71.513 386.04 71.9233 386.332 72.3929 386.435C72.8625 386.539 73.353 386.447 73.7565 386.179L74.0729 385.966C74.6645 385.569 75.4228 385.061 76.2486 384.614C76.4418 384.508 76.6277 384.412 76.8064 384.326C80.9841 388.352 88.4869 389.654 93.0268 389.654C97.5667 389.654 105.07 388.352 109.247 384.326C109.424 384.412 109.61 384.508 109.805 384.614C110.631 385.061 111.389 385.569 111.981 385.966L112.297 386.179C112.701 386.447 113.191 386.539 113.661 386.435C114.13 386.332 114.541 386.04 114.801 385.626C115.062 385.212 115.152 384.708 115.051 384.225C114.95 383.743 114.666 383.322 114.263 383.054L113.99 382.87C113.183 382.316 112.351 381.8 111.498 381.325L111.44 381.293C111.853 380.4 112.13 379.415 112.242 378.341L112.792 378.527C114.451 379.11 115.815 379.728 116.195 379.978C116.598 380.231 117.081 380.312 117.542 380.204C118.002 380.095 118.404 379.807 118.66 379.399C118.916 378.991 119.007 378.497 118.913 378.021C118.819 377.545 118.548 377.126 118.158 376.853C117.368 376.327 115.615 375.588 113.966 375.008C113.429 374.819 112.888 374.643 112.343 374.479C112.372 371.741 112.169 368.913 110.17 366.488C111.86 367.487 112.295 363.747 112.297 362.524V357.876C112.297 353.845 109.6 352.449 107.286 352.449C104.975 352.449 100.349 356.326 98.8103 356.326C96.9581 356.326 96.6007 355.936 93.0268 355.936ZM91.3968 378.741C91.8846 378.569 92.4617 378.493 93.0268 378.493C93.5919 378.493 94.169 378.569 94.6592 378.741C94.9007 378.825 95.1905 378.959 95.4513 379.172C95.63 379.311 95.7761 379.489 95.8789 379.693C95.9817 379.898 96.0386 380.123 96.0453 380.353C96.0453 380.923 95.7097 381.32 95.4513 381.533C95.1929 381.747 94.8983 381.881 94.6592 381.965C94.169 382.136 93.5919 382.213 93.0268 382.213C92.4617 382.213 91.8846 382.136 91.3968 381.965C91.11 381.869 90.8414 381.723 90.6023 381.533C90.4237 381.395 90.2775 381.217 90.1747 381.012C90.0719 380.808 90.015 380.583 90.0083 380.353C90.0083 379.782 90.3439 379.385 90.6023 379.172C90.8607 378.959 91.1577 378.825 91.3968 378.741ZM98.267 371.051C98.5978 370.486 99.2474 369.811 100.223 369.811C101.199 369.811 101.851 370.486 102.179 371.051C102.522 371.644 102.686 372.359 102.686 373.068C102.686 373.777 102.522 374.489 102.179 375.08C101.851 375.648 101.199 376.322 100.223 376.322C99.2474 376.322 98.5978 375.648 98.267 375.082C97.9266 374.469 97.7515 373.774 97.7599 373.068C97.7599 372.359 97.9241 371.644 98.267 371.054M83.8746 371.054C84.2055 370.488 84.855 369.814 85.8306 369.814C86.8062 369.814 87.4582 370.488 87.7866 371.054C88.1295 371.647 88.2938 372.361 88.2938 373.071C88.2938 373.78 88.1295 374.492 87.7866 375.082C87.4582 375.65 86.8062 376.325 85.8306 376.325C84.855 376.325 84.2055 375.65 83.8746 375.085C83.5342 374.471 83.3592 373.776 83.3675 373.071C83.3675 372.361 83.5317 371.644 83.8746 371.054Z" fill="#F29A98" fill-opacity="0.2"/>
</svg>
