<svg width="60" height="209" viewBox="0 0 60 209" fill="none" xmlns="http://www.w3.org/2000/svg">
<path d="M55.667 71.8333H51.4087L50.7903 70.2467C50.7057 70.0274 50.5569 69.8388 50.3633 69.7056C50.1697 69.5724 49.9403 69.5007 49.7053 69.5H45.2953C45.0593 69.4995 44.8287 69.5706 44.634 69.7039C44.4392 69.8372 44.2895 70.0265 44.2045 70.2467L43.592 71.8333H39.3337C39.0242 71.8333 38.7275 71.9563 38.5087 72.175C38.2899 72.3938 38.167 72.6906 38.167 73V84.6667C38.167 84.9761 38.2899 85.2728 38.5087 85.4916C38.7275 85.7104 39.0242 85.8333 39.3337 85.8333H55.667C55.9764 85.8333 56.2732 85.7104 56.492 85.4916C56.7107 85.2728 56.8337 84.9761 56.8337 84.6667V73C56.8337 72.6906 56.7107 72.3938 56.492 72.175C56.2732 71.9563 55.9764 71.8333 55.667 71.8333ZM40.5995 75.1175C40.4757 75.1175 40.357 75.0683 40.2695 74.9808C40.182 74.8933 40.1328 74.7746 40.1328 74.6508C40.1328 74.5271 40.182 74.4084 40.2695 74.3209C40.357 74.2333 40.4757 74.1842 40.5995 74.1842H41.9995C42.1233 74.1842 42.242 74.2333 42.3295 74.3209C42.417 74.4084 42.4662 74.5271 42.4662 74.6508C42.4662 74.7746 42.417 74.8933 42.3295 74.9808C42.242 75.0683 42.1233 75.1175 41.9995 75.1175H40.5995ZM47.5003 83.5C46.462 83.5 45.4469 83.1921 44.5836 82.6152C43.7202 82.0383 43.0473 81.2184 42.65 80.2591C42.2526 79.2998 42.1486 78.2442 42.3512 77.2258C42.5538 76.2074 43.0538 75.2719 43.788 74.5377C44.5222 73.8035 45.4577 73.3035 46.4761 73.1009C47.4945 72.8983 48.5501 73.0023 49.5094 73.3996C50.4687 73.797 51.2887 74.4699 51.8655 75.3333C52.4424 76.1966 52.7503 77.2117 52.7503 78.25C52.7503 79.6424 52.1972 80.9777 51.2126 81.9623C50.2281 82.9469 48.8927 83.5 47.5003 83.5Z" fill="#FFF3F3"/>
<path d="M43.4805 77.6187C43.4816 78.4058 43.708 79.1761 44.1328 79.8387C44.5577 80.5012 45.1632 81.0284 45.878 81.3579L46.5138 80.3429C46.1265 80.1781 45.7795 79.9314 45.4965 79.6198C45.2136 79.3082 45.0014 78.939 44.8747 78.5376C44.7479 78.1363 44.7095 77.7122 44.7621 77.2946C44.8147 76.877 44.9571 76.4757 45.1794 76.1184C45.4018 75.761 45.6988 75.456 46.0502 75.2242C46.4016 74.9925 46.799 74.8396 47.2151 74.776C47.6311 74.7124 48.056 74.7396 48.4606 74.8557C48.8652 74.9718 49.2398 75.1741 49.5588 75.4487L50.1946 74.4221C49.5905 73.9315 48.8597 73.6222 48.0869 73.53C47.3142 73.4378 46.5311 73.5664 45.8284 73.9009C45.1258 74.2355 44.5323 74.7622 44.1167 75.4202C43.7012 76.0782 43.4806 76.8405 43.4805 77.6187Z" fill="#FFF3F3"/>
<path d="M55.667 179.833H51.4087L50.7903 178.247C50.7057 178.027 50.5569 177.839 50.3633 177.706C50.1697 177.572 49.9403 177.501 49.7053 177.5H45.2953C45.0593 177.5 44.8287 177.571 44.634 177.704C44.4392 177.837 44.2895 178.026 44.2045 178.247L43.592 179.833H39.3337C39.0242 179.833 38.7275 179.956 38.5087 180.175C38.2899 180.394 38.167 180.691 38.167 181V192.667C38.167 192.976 38.2899 193.273 38.5087 193.492C38.7275 193.71 39.0242 193.833 39.3337 193.833H55.667C55.9764 193.833 56.2732 193.71 56.492 193.492C56.7107 193.273 56.8337 192.976 56.8337 192.667V181C56.8337 180.691 56.7107 180.394 56.492 180.175C56.2732 179.956 55.9764 179.833 55.667 179.833ZM40.5995 183.118C40.4757 183.118 40.357 183.068 40.2695 182.981C40.182 182.893 40.1328 182.775 40.1328 182.651C40.1328 182.527 40.182 182.408 40.2695 182.321C40.357 182.233 40.4757 182.184 40.5995 182.184H41.9995C42.1233 182.184 42.242 182.233 42.3295 182.321C42.417 182.408 42.4662 182.527 42.4662 182.651C42.4662 182.775 42.417 182.893 42.3295 182.981C42.242 183.068 42.1233 183.118 41.9995 183.118H40.5995ZM47.5003 191.5C46.462 191.5 45.4469 191.192 44.5836 190.615C43.7202 190.038 43.0473 189.218 42.65 188.259C42.2526 187.3 42.1486 186.244 42.3512 185.226C42.5538 184.207 43.0538 183.272 43.788 182.538C44.5222 181.803 45.4577 181.303 46.4761 181.101C47.4945 180.898 48.5501 181.002 49.5094 181.4C50.4687 181.797 51.2887 182.47 51.8655 183.333C52.4424 184.197 52.7503 185.212 52.7503 186.25C52.7503 187.642 52.1972 188.978 51.2126 189.962C50.2281 190.947 48.8927 191.5 47.5003 191.5Z" fill="#FFF3F3"/>
<path d="M43.4805 185.619C43.4816 186.406 43.708 187.176 44.1328 187.839C44.5577 188.501 45.1632 189.028 45.878 189.358L46.5138 188.343C46.1265 188.178 45.7795 187.931 45.4965 187.62C45.2136 187.308 45.0014 186.939 44.8747 186.538C44.7479 186.136 44.7095 185.712 44.7621 185.295C44.8147 184.877 44.9571 184.476 45.1794 184.118C45.4018 183.761 45.6988 183.456 46.0502 183.224C46.4016 182.993 46.799 182.84 47.2151 182.776C47.6311 182.712 48.056 182.74 48.4606 182.856C48.8652 182.972 49.2398 183.174 49.5588 183.449L50.1946 182.422C49.5905 181.932 48.8597 181.622 48.0869 181.53C47.3142 181.438 46.5311 181.566 45.8284 181.901C45.1258 182.235 44.5323 182.762 44.1167 183.42C43.7012 184.078 43.4806 184.841 43.4805 185.619Z" fill="#FFF3F3"/>
<path d="M19.875 23.0333H16.5V21.3333C16.5 19.7682 13.4782 18.5 9.75 18.5C6.02175 18.5 3 19.7682 3 21.3333V32.6667C3 34.2318 6.02175 35.5 9.75 35.5C13.4782 35.5 16.5 34.2318 16.5 32.6667V30.9667H19.875C20.1734 30.9667 20.4595 30.8473 20.6705 30.6347C20.8815 30.4222 21 30.1339 21 29.8333V24.1667C21 23.8661 20.8815 23.5778 20.6705 23.3653C20.4595 23.1527 20.1734 23.0333 19.875 23.0333ZM6.09487 21.9419C5.44462 21.7266 5.05087 21.4954 4.83938 21.3333C5.05087 21.1713 5.44462 20.9401 6.09487 20.7247C7.113 20.387 8.41125 20.2 9.75 20.2C11.0887 20.2 12.387 20.3859 13.4051 20.7247C14.0554 20.9401 14.4491 21.1713 14.6606 21.3333C14.4491 21.4954 14.0554 21.7266 13.4051 21.9419C12.387 22.2797 11.0887 22.4667 9.75 22.4667C8.41125 22.4667 7.113 22.2808 6.09487 21.9419ZM18.75 28.7H16.5V25.3H18.75V28.7Z" fill="#FFF3F3"/>
<path d="M19.875 126.033H16.5V124.333C16.5 122.768 13.4782 121.5 9.75 121.5C6.02175 121.5 3 122.768 3 124.333V135.667C3 137.232 6.02175 138.5 9.75 138.5C13.4782 138.5 16.5 137.232 16.5 135.667V133.967H19.875C20.1734 133.967 20.4595 133.847 20.6705 133.635C20.8815 133.422 21 133.134 21 132.833V127.167C21 126.866 20.8815 126.578 20.6705 126.365C20.4595 126.153 20.1734 126.033 19.875 126.033ZM6.09487 124.942C5.44462 124.727 5.05087 124.495 4.83938 124.333C5.05087 124.171 5.44462 123.94 6.09487 123.725C7.113 123.387 8.41125 123.2 9.75 123.2C11.0887 123.2 12.387 123.386 13.4051 123.725C14.0554 123.94 14.4491 124.171 14.6606 124.333C14.4491 124.495 14.0554 124.727 13.4051 124.942C12.387 125.28 11.0887 125.467 9.75 125.467C8.41125 125.467 7.113 125.281 6.09487 124.942ZM18.75 131.7H16.5V128.3H18.75V131.7Z" fill="#FFF3F3"/>
<path fill-rule="evenodd" clip-rule="evenodd" d="M11.739 105.038L11.7299 105.04L11.6714 105.069L11.6549 105.072L11.6433 105.069L11.5847 105.04C11.5759 105.037 11.5693 105.039 11.5649 105.044L11.5617 105.052L11.5476 105.405L11.5517 105.422L11.56 105.433L11.6458 105.494L11.6582 105.497L11.6681 105.494L11.7539 105.433L11.7638 105.419L11.7671 105.405L11.753 105.053C11.7508 105.044 11.7462 105.039 11.739 105.038ZM11.9576 104.945L11.9469 104.947L11.7943 105.023L11.786 105.032L11.7836 105.041L11.7984 105.396L11.8025 105.405L11.8092 105.411L11.975 105.488C11.9854 105.491 11.9934 105.488 11.9989 105.481L12.0022 105.47L11.9742 104.963C11.9714 104.953 11.9659 104.947 11.9576 104.945ZM11.3678 104.947C11.3641 104.945 11.3598 104.944 11.3556 104.945C11.3515 104.946 11.3479 104.948 11.3455 104.952L11.3405 104.963L11.3125 105.47C11.313 105.48 11.3177 105.486 11.3265 105.49L11.3389 105.488L11.5047 105.411L11.513 105.405L11.5163 105.396L11.5303 105.041L11.5278 105.031L11.5196 105.023L11.3678 104.947Z" fill="#FFF3F3"/>
<path fill-rule="evenodd" clip-rule="evenodd" d="M3 95.75C3 91.1935 6.69353 87.5 11.25 87.5C15.8065 87.5 19.5 91.1935 19.5 95.75C19.5 100.306 15.8065 104 11.25 104C6.69353 104 3 100.306 3 95.75ZM7.32877 101.06L7.70827 98.7786C7.77253 98.3933 7.97137 98.0433 8.26942 97.7909C8.56747 97.5385 8.94541 97.4 9.336 97.4H13.164C13.5544 97.4001 13.9322 97.5387 14.2301 97.7912C14.528 98.0436 14.7267 98.3934 14.7909 98.7786L15.1712 101.06C14.0366 101.9 12.6617 102.352 11.25 102.35C9.83821 102.353 8.46317 101.9 7.32877 101.06ZM8.775 95.75V93.8607C8.775 93.7842 8.7963 93.7092 8.83651 93.644C8.87673 93.5789 8.93427 93.5263 9.0027 93.492L13.1277 91.4295C13.1906 91.398 13.2605 91.3831 13.3308 91.3862C13.401 91.3893 13.4693 91.4103 13.5292 91.4473C13.5891 91.4842 13.6385 91.5359 13.6727 91.5973C13.707 91.6587 13.725 91.7279 13.725 91.7983V95.75H8.775Z" fill="#FFF3F3"/>
<path fill-rule="evenodd" clip-rule="evenodd" d="M11.739 208.038L11.7299 208.04L11.6714 208.069L11.6549 208.072L11.6433 208.069L11.5847 208.04C11.5759 208.037 11.5693 208.039 11.5649 208.044L11.5617 208.052L11.5476 208.405L11.5517 208.422L11.56 208.433L11.6458 208.494L11.6582 208.497L11.6681 208.494L11.7539 208.433L11.7638 208.419L11.7671 208.405L11.753 208.053C11.7508 208.044 11.7462 208.039 11.739 208.038ZM11.9576 207.945L11.9469 207.947L11.7943 208.023L11.786 208.032L11.7836 208.041L11.7984 208.396L11.8025 208.405L11.8092 208.411L11.975 208.488C11.9854 208.491 11.9934 208.488 11.9989 208.481L12.0022 208.47L11.9742 207.963C11.9714 207.953 11.9659 207.947 11.9576 207.945ZM11.3678 207.947C11.3641 207.945 11.3598 207.944 11.3556 207.945C11.3515 207.946 11.3479 207.948 11.3455 207.952L11.3405 207.963L11.3125 208.47C11.313 208.48 11.3177 208.486 11.3265 208.49L11.3389 208.488L11.5047 208.411L11.513 208.405L11.5163 208.396L11.5303 208.041L11.5278 208.031L11.5196 208.023L11.3678 207.947Z" fill="#FFF3F3"/>
<path fill-rule="evenodd" clip-rule="evenodd" d="M3 198.75C3 194.194 6.69353 190.5 11.25 190.5C15.8065 190.5 19.5 194.194 19.5 198.75C19.5 203.306 15.8065 207 11.25 207C6.69353 207 3 203.306 3 198.75ZM7.32877 204.06L7.70827 201.779C7.77253 201.393 7.97137 201.043 8.26942 200.791C8.56747 200.538 8.94541 200.4 9.336 200.4H13.164C13.5544 200.4 13.9322 200.539 14.2301 200.791C14.528 201.044 14.7267 201.393 14.7909 201.779L15.1712 204.06C14.0366 204.9 12.6617 205.352 11.25 205.35C9.83821 205.353 8.46317 204.9 7.32877 204.06ZM8.775 198.75V196.861C8.775 196.784 8.7963 196.709 8.83651 196.644C8.87673 196.579 8.93427 196.526 9.0027 196.492L13.1277 194.429C13.1906 194.398 13.2605 194.383 13.3308 194.386C13.401 194.389 13.4693 194.41 13.5292 194.447C13.5891 194.484 13.6385 194.536 13.6727 194.597C13.707 194.659 13.725 194.728 13.725 194.798V198.75H8.775Z" fill="#FFF3F3"/>
<path d="M54 17L50 13L54 9L55.4 10.4L53.825 12H58V14H53.825L55.4 15.6L54 17ZM40 16.5C39.45 16.5 38.9793 16.3043 38.588 15.913C38.1967 15.5217 38.0007 15.0507 38 14.5V11.5C38 10.95 38.196 10.4793 38.588 10.088C38.98 9.69667 39.4507 9.50067 40 9.5H46C46.55 9.5 47.021 9.696 47.413 10.088C47.805 10.48 48.0007 10.9507 48 11.5V14.5C48 15.05 47.8043 15.521 47.413 15.913C47.0217 16.305 46.5507 16.5007 46 16.5H40ZM42 8L40.6 6.6L42.175 5H38V3H42.175L40.6 1.4L42 0L46 4L42 8ZM50 7.5C49.45 7.5 48.9793 7.30433 48.588 6.913C48.1967 6.52167 48.0007 6.05067 48 5.5V2.5C48 1.95 48.196 1.47933 48.588 1.088C48.98 0.696666 49.4507 0.500667 50 0.5H56C56.55 0.5 57.021 0.696 57.413 1.088C57.805 1.48 58.0007 1.95067 58 2.5V5.5C58 6.05 57.8043 6.521 57.413 6.913C57.0217 7.305 56.5507 7.50067 56 7.5H50Z" fill="#FFF3F3"/>
<path d="M54 125L50 121L54 117L55.4 118.4L53.825 120H58V122H53.825L55.4 123.6L54 125ZM40 124.5C39.45 124.5 38.9793 124.304 38.588 123.913C38.1967 123.522 38.0007 123.051 38 122.5V119.5C38 118.95 38.196 118.479 38.588 118.088C38.98 117.697 39.4507 117.501 40 117.5H46C46.55 117.5 47.021 117.696 47.413 118.088C47.805 118.48 48.0007 118.951 48 119.5V122.5C48 123.05 47.8043 123.521 47.413 123.913C47.0217 124.305 46.5507 124.501 46 124.5H40ZM42 116L40.6 114.6L42.175 113H38V111H42.175L40.6 109.4L42 108L46 112L42 116ZM50 115.5C49.45 115.5 48.9793 115.304 48.588 114.913C48.1967 114.522 48.0007 114.051 48 113.5V110.5C48 109.95 48.196 109.479 48.588 109.088C48.98 108.697 49.4507 108.501 50 108.5H56C56.55 108.5 57.021 108.696 57.413 109.088C57.805 109.48 58.0007 109.951 58 110.5V113.5C58 114.05 57.8043 114.521 57.413 114.913C57.0217 115.305 56.5507 115.501 56 115.5H50Z" fill="#FFF3F3"/>
<path fill-rule="evenodd" clip-rule="evenodd" d="M16.5056 58.0912C18.4871 57.7338 19.7715 56.3183 19.7202 55.2458C19.6379 53.5143 18.3951 52.6441 15.716 52.6331H15.6815C15.5376 52.6334 15.3986 52.5801 15.2913 52.4836C15.184 52.3871 15.116 52.2541 15.1003 52.1102C15.0927 52.0421 15.0991 51.9731 15.1189 51.9076C15.1388 51.842 15.1717 51.7812 15.2157 51.7289C15.2596 51.6766 15.3138 51.6338 15.3747 51.6032C15.4357 51.5726 15.5022 51.5548 15.5702 51.5509L15.6677 51.545C16.4648 51.4943 17.346 51.4647 17.8214 51.5779C19.8038 52.0506 20.9042 53.2528 20.9966 55.1841C21.0701 56.72 19.934 58.2213 18.3351 59.4083L18.2885 59.4421C18.5979 59.9867 18.796 60.5953 18.8828 61.2678C19.1843 63.2143 18.9038 64.4249 19.1188 65.2267C19.3343 66.0288 20.3141 66.4686 20.7009 67.3645C21.0878 68.2605 21.0159 68.6529 20.9025 69.3583C20.8356 69.7768 20.6847 70.3882 20.4498 71.1925C20.4238 71.2813 20.37 71.3592 20.2963 71.4146C20.2227 71.4701 20.1331 71.5 20.0411 71.5H18.6253C18.3901 71.5 18.1994 71.3082 18.1994 71.0717V70.8562C18.1994 70.7996 18.2106 70.7435 18.2323 70.6912C18.254 70.639 18.2858 70.5915 18.3258 70.5517C18.3658 70.5119 18.4133 70.4804 18.4655 70.4592C18.5177 70.4379 18.5736 70.4273 18.6299 70.4279C18.8212 70.4304 18.9841 70.3797 19.1188 70.2758C19.4594 70.0139 19.4876 69.8678 19.4876 69.3583C19.4876 69.0187 19.3646 68.677 19.1188 68.3331C18.1318 67.6877 17.3065 67.1833 16.5782 66.8124C16.5032 67.5567 16.3558 68.2334 16.136 68.8426C15.905 69.483 15.5036 70.2977 14.9318 71.2867C14.8945 71.3517 14.8408 71.4056 14.7761 71.4431C14.7115 71.4805 14.6381 71.5002 14.5635 71.5H13.4429C13.2119 71.5 13.0229 71.315 13.0175 71.0826L13.0124 70.8883C13.0095 70.7763 13.0503 70.6675 13.1261 70.5854C13.202 70.5032 13.3068 70.4543 13.4182 70.449L14.0041 70.4211C14.1771 70.4127 14.3279 70.2999 14.3854 70.1356C14.5795 69.5814 14.6593 69.0367 14.6248 68.5017C14.5856 67.8982 14.386 67.075 14.0259 66.0322C12.5307 66.0187 9.49746 66.6713 8.799 66.7296C8.63436 66.7434 8.46524 66.7426 8.29164 66.7271C8.15115 67.1711 8.06332 67.6302 8.02998 68.0949C7.98686 68.6573 7.98294 69.646 8.01822 71.0611C8.01962 71.1182 8.00964 71.1751 7.98886 71.2283C7.96809 71.2815 7.93694 71.3299 7.89725 71.3708C7.85757 71.4117 7.81014 71.4442 7.75778 71.4664C7.70541 71.4886 7.64916 71.5 7.59234 71.5H6.42852C6.19332 71.5 6.00264 71.3082 6.00264 71.0717V70.7777C6.00264 70.5411 6.19332 70.3493 6.42852 70.3493H6.60786C6.67435 70.3493 6.73985 70.3332 6.79881 70.3023C6.85778 70.2714 6.90845 70.2266 6.94654 70.1718C6.98463 70.117 7.00901 70.0537 7.01761 69.9874C7.02621 69.9211 7.01877 69.8537 6.99594 69.7909C6.77565 69.1907 6.60415 68.5735 6.48312 67.9454L5.08368 71.2402C5.01648 71.3978 4.86234 71.5 4.69182 71.5H3.14622C2.91102 71.5 2.71992 71.3082 2.71992 71.0717V70.8529C2.71992 70.645 2.86818 70.4672 3.07146 70.4313L3.8073 70.2999C3.8997 70.283 3.98454 70.2365 4.04796 70.1664C4.34672 69.8355 4.53936 69.4234 4.62588 68.93C4.83924 67.713 4.97448 67.5812 4.62588 66.4111C4.51248 66.0288 3.68004 65.6563 3.14748 63.9628C2.80616 62.8789 2.50348 61.0376 2.23944 58.4388C2.22994 58.3451 2.18997 58.2572 2.12574 58.1886C2.0615 58.12 1.97658 58.0746 1.88412 58.0595L1.06596 57.9265C0.93996 57.9058 0.8295 57.8293 0.76524 57.7182L0.1176 56.5929L0.0999599 56.5646C0.0365412 56.4771 0.00162041 56.3721 0 56.2638C0 56.181 0.02142 56.0956 0.06426 56.0074C0.08722 55.9604 0.1176 55.919 0.1554 55.8832L1.0017 55.0836C1.0605 55.0274 1.10292 54.9556 1.12308 54.8766L1.17096 54.6852C1.2138 54.515 1.30788 54.3617 1.43976 54.2468C1.69428 54.0263 1.88216 53.8784 2.0034 53.8032C2.1546 53.7097 2.46848 53.5977 2.94504 53.467C2.70312 53.1265 2.5704 52.8286 2.54688 52.5732C2.51118 52.19 2.48094 51.8107 2.63508 51.7959C2.7384 51.7863 2.99978 52.0719 3.41922 52.6526C3.38646 51.9187 3.46024 51.5946 3.64056 51.6802C3.82088 51.7658 4.21708 52.2604 4.82916 53.1641L5.4264 53.8484C5.71649 54.1808 5.92991 54.5736 6.05136 54.9987C6.3532 56.0547 6.6402 56.8149 6.91236 57.2793C7.39914 58.1081 7.99596 59.1287 9.93551 58.9774C11.8747 58.8266 12.5269 58.4317 13.8188 58.2272C14.4801 58.126 15.1464 58.061 15.8147 58.0325C16.0465 58.0215 16.2788 58.0412 16.5056 58.0912Z" fill="#FFF3F3"/>
<path fill-rule="evenodd" clip-rule="evenodd" d="M16.5056 161.091C18.4871 160.734 19.7715 159.318 19.7202 158.246C19.6379 156.514 18.3951 155.644 15.716 155.633H15.6815C15.5376 155.633 15.3986 155.58 15.2913 155.484C15.184 155.387 15.116 155.254 15.1003 155.11C15.0927 155.042 15.0991 154.973 15.1189 154.908C15.1388 154.842 15.1717 154.781 15.2157 154.729C15.2596 154.677 15.3138 154.634 15.3747 154.603C15.4357 154.573 15.5022 154.555 15.5702 154.551L15.6677 154.545C16.4648 154.494 17.346 154.465 17.8214 154.578C19.8038 155.051 20.9042 156.253 20.9966 158.184C21.0701 159.72 19.934 161.221 18.3351 162.408L18.2885 162.442C18.5979 162.987 18.796 163.595 18.8828 164.268C19.1843 166.214 18.9038 167.425 19.1188 168.227C19.3343 169.029 20.3141 169.469 20.7009 170.365C21.0878 171.26 21.0159 171.653 20.9025 172.358C20.8356 172.777 20.6847 173.388 20.4498 174.192C20.4238 174.281 20.37 174.359 20.2963 174.415C20.2227 174.47 20.1331 174.5 20.0411 174.5H18.6253C18.3901 174.5 18.1994 174.308 18.1994 174.072V173.856C18.1994 173.8 18.2106 173.744 18.2323 173.691C18.254 173.639 18.2858 173.592 18.3258 173.552C18.3658 173.512 18.4133 173.48 18.4655 173.459C18.5177 173.438 18.5736 173.427 18.6299 173.428C18.8212 173.43 18.9841 173.38 19.1188 173.276C19.4594 173.014 19.4876 172.868 19.4876 172.358C19.4876 172.019 19.3646 171.677 19.1188 171.333C18.1318 170.688 17.3065 170.183 16.5782 169.812C16.5032 170.557 16.3558 171.233 16.136 171.843C15.905 172.483 15.5036 173.298 14.9318 174.287C14.8945 174.352 14.8408 174.406 14.7761 174.443C14.7115 174.481 14.6381 174.5 14.5635 174.5H13.4429C13.2119 174.5 13.0229 174.315 13.0175 174.083L13.0124 173.888C13.0095 173.776 13.0503 173.668 13.1261 173.585C13.202 173.503 13.3068 173.454 13.4182 173.449L14.0041 173.421C14.1771 173.413 14.3279 173.3 14.3854 173.136C14.5795 172.581 14.6593 172.037 14.6248 171.502C14.5856 170.898 14.386 170.075 14.0259 169.032C12.5307 169.019 9.49746 169.671 8.799 169.73C8.63436 169.743 8.46524 169.743 8.29164 169.727C8.15115 170.171 8.06332 170.63 8.02998 171.095C7.98686 171.657 7.98294 172.646 8.01822 174.061C8.01962 174.118 8.00964 174.175 7.98886 174.228C7.96809 174.281 7.93694 174.33 7.89725 174.371C7.85757 174.412 7.81014 174.444 7.75778 174.466C7.70541 174.489 7.64916 174.5 7.59234 174.5H6.42852C6.19332 174.5 6.00264 174.308 6.00264 174.072V173.778C6.00264 173.541 6.19332 173.349 6.42852 173.349H6.60786C6.67435 173.349 6.73985 173.333 6.79881 173.302C6.85778 173.271 6.90845 173.227 6.94654 173.172C6.98463 173.117 7.00901 173.054 7.01761 172.987C7.02621 172.921 7.01877 172.854 6.99594 172.791C6.77565 172.191 6.60415 171.573 6.48312 170.945L5.08368 174.24C5.01648 174.398 4.86234 174.5 4.69182 174.5H3.14622C2.91102 174.5 2.71992 174.308 2.71992 174.072V173.853C2.71992 173.645 2.86818 173.467 3.07146 173.431L3.8073 173.3C3.8997 173.283 3.98454 173.237 4.04796 173.166C4.34672 172.836 4.53936 172.423 4.62588 171.93C4.83924 170.713 4.97448 170.581 4.62588 169.411C4.51248 169.029 3.68004 168.656 3.14748 166.963C2.80616 165.879 2.50348 164.038 2.23944 161.439C2.22994 161.345 2.18997 161.257 2.12574 161.189C2.0615 161.12 1.97658 161.075 1.88412 161.06L1.06596 160.926C0.93996 160.906 0.8295 160.829 0.76524 160.718L0.1176 159.593L0.0999599 159.565C0.0365412 159.477 0.00162041 159.372 0 159.264C0 159.181 0.02142 159.096 0.06426 159.007C0.08722 158.96 0.1176 158.919 0.1554 158.883L1.0017 158.084C1.0605 158.027 1.10292 157.956 1.12308 157.877L1.17096 157.685C1.2138 157.515 1.30788 157.362 1.43976 157.247C1.69428 157.026 1.88216 156.878 2.0034 156.803C2.1546 156.71 2.46848 156.598 2.94504 156.467C2.70312 156.127 2.5704 155.829 2.54688 155.573C2.51118 155.19 2.48094 154.811 2.63508 154.796C2.7384 154.786 2.99978 155.072 3.41922 155.653C3.38646 154.919 3.46024 154.595 3.64056 154.68C3.82088 154.766 4.21708 155.26 4.82916 156.164L5.4264 156.848C5.71649 157.181 5.92991 157.574 6.05136 157.999C6.3532 159.055 6.6402 159.815 6.91236 160.279C7.39914 161.108 7.99596 162.129 9.93551 161.977C11.8747 161.827 12.5269 161.432 13.8188 161.227C14.4801 161.126 15.1464 161.061 15.8147 161.032C16.0465 161.021 16.2788 161.041 16.5056 161.091Z" fill="#FFF3F3"/>
<path fill-rule="evenodd" clip-rule="evenodd" d="M49.6287 46.0306C49.2356 47.4991 49.225 48.724 49.597 49.7051C50.2806 51.5086 52.6827 52.0276 52.7959 52.5003C52.909 52.973 49.597 53.2147 47.725 53.2147C45.8534 53.2147 43.5576 52.8577 43.5576 52.5003C43.5576 52.1433 45.7364 51.6693 46.3986 49.6717C46.7843 48.5071 46.742 47.1698 46.2717 45.6598C46.1545 45.6966 46.0324 45.7151 45.9096 45.7147C45.3991 45.7147 44.974 45.4018 44.8823 44.9887C44.53 45.2201 44.0886 45.3573 43.6099 45.3573C42.577 45.3573 41.7194 44.7178 41.5497 43.877C41.4027 43.9118 41.2521 43.9292 41.101 43.9288C40.1774 43.9288 39.4287 43.2894 39.4287 42.5004C39.4287 41.9677 39.7699 41.5031 40.276 41.2576C40.0159 41.0951 39.847 40.8324 39.847 40.5363C39.8476 40.4328 39.8669 40.3348 39.9049 40.2423C39.6181 40.115 39.4287 39.8947 39.4287 39.6431C39.4287 39.3316 39.721 39.0667 40.1281 38.969C39.7017 38.7076 39.4287 38.3064 39.4287 37.8577C39.4287 37.145 40.1157 36.5548 41.014 36.4464C40.8022 36.1901 40.6854 35.8686 40.6831 35.5361C40.6831 34.6486 41.5253 33.929 42.5646 33.929C42.6691 33.929 42.7717 33.9361 42.8723 33.9504C43.123 33.3148 43.8267 32.8576 44.6551 32.8576C44.8853 32.8576 45.1056 32.8927 45.3096 32.9574C45.451 32.2914 46.1341 31.7861 46.9544 31.7861C47.7936 31.7861 48.4887 32.3141 48.6087 33.002C48.9151 32.6951 49.3716 32.5006 49.8816 32.5006C50.8051 32.5006 51.5539 33.14 51.5539 33.929C51.5539 34.1947 51.4686 34.4437 51.3207 34.6571C51.3967 34.648 51.4744 34.6434 51.5539 34.6434C52.4136 34.6434 53.1224 35.1976 53.2159 35.9111C53.4789 35.7807 53.7687 35.7135 54.0623 35.7148C54.9863 35.7148 55.735 36.3543 55.735 37.1433C55.735 37.6811 55.387 38.1496 54.8727 38.3934C55.387 38.6368 55.735 39.1053 55.735 39.6431C55.735 40.1103 55.4723 40.5256 55.0664 40.7861C55.2233 40.9653 55.3167 41.1877 55.3167 41.429C55.3164 41.5218 55.3033 41.611 55.2773 41.6964C56.0487 42.062 56.5711 42.7648 56.5711 43.5718C56.5711 44.7551 55.4483 45.7147 54.0623 45.7147C53.7167 45.7155 53.3737 45.654 53.05 45.533C52.6703 45.8656 52.1401 46.0717 51.5539 46.0717C51.1053 46.0756 50.6653 45.949 50.2874 45.7074C50.1074 45.8604 49.8816 45.9736 49.6287 46.0306Z" fill="#FFF3F3"/>
<path fill-rule="evenodd" clip-rule="evenodd" d="M49.6287 154.031C49.2356 155.499 49.225 156.724 49.597 157.705C50.2806 159.509 52.6827 160.028 52.7959 160.5C52.909 160.973 49.597 161.215 47.725 161.215C45.8534 161.215 43.5576 160.858 43.5576 160.5C43.5576 160.143 45.7364 159.669 46.3986 157.672C46.7843 156.507 46.742 155.17 46.2717 153.66C46.1545 153.697 46.0324 153.715 45.9096 153.715C45.3991 153.715 44.974 153.402 44.8823 152.989C44.53 153.22 44.0886 153.357 43.6099 153.357C42.577 153.357 41.7194 152.718 41.5497 151.877C41.4027 151.912 41.2521 151.929 41.101 151.929C40.1774 151.929 39.4287 151.289 39.4287 150.5C39.4287 149.968 39.7699 149.503 40.276 149.258C40.0159 149.095 39.847 148.832 39.847 148.536C39.8476 148.433 39.8669 148.335 39.9049 148.242C39.6181 148.115 39.4287 147.895 39.4287 147.643C39.4287 147.332 39.721 147.067 40.1281 146.969C39.7017 146.708 39.4287 146.306 39.4287 145.858C39.4287 145.145 40.1157 144.555 41.014 144.446C40.8022 144.19 40.6854 143.869 40.6831 143.536C40.6831 142.649 41.5253 141.929 42.5646 141.929C42.6691 141.929 42.7717 141.936 42.8723 141.95C43.123 141.315 43.8267 140.858 44.6551 140.858C44.8853 140.858 45.1056 140.893 45.3096 140.957C45.451 140.291 46.1341 139.786 46.9544 139.786C47.7936 139.786 48.4887 140.314 48.6087 141.002C48.9151 140.695 49.3716 140.501 49.8816 140.501C50.8051 140.501 51.5539 141.14 51.5539 141.929C51.5539 142.195 51.4686 142.444 51.3207 142.657C51.3967 142.648 51.4744 142.643 51.5539 142.643C52.4136 142.643 53.1224 143.198 53.2159 143.911C53.4789 143.781 53.7687 143.713 54.0623 143.715C54.9863 143.715 55.735 144.354 55.735 145.143C55.735 145.681 55.387 146.15 54.8727 146.393C55.387 146.637 55.735 147.105 55.735 147.643C55.735 148.11 55.4723 148.526 55.0664 148.786C55.2233 148.965 55.3167 149.188 55.3167 149.429C55.3164 149.522 55.3033 149.611 55.2773 149.696C56.0487 150.062 56.5711 150.765 56.5711 151.572C56.5711 152.755 55.4483 153.715 54.0623 153.715C53.7167 153.716 53.3737 153.654 53.05 153.533C52.6703 153.866 52.1401 154.072 51.5539 154.072C51.1053 154.076 50.6653 153.949 50.2874 153.707C50.1074 153.86 49.8816 153.974 49.6287 154.031Z" fill="#FFF3F3"/>
</svg>
