<svg width="22" height="12" viewBox="0 0 22 12" fill="none" xmlns="http://www.w3.org/2000/svg">
<path d="M19.6751 6.22465L14.6501 11.1506L9.61758 6.20665C9.3105 5.90652 9.06667 5.54792 8.90047 5.152C8.73427 4.75609 8.64907 4.33088 8.64991 3.9015C8.65075 3.47211 8.7376 3.04725 8.90535 2.65198C9.0731 2.25672 9.31833 1.89907 9.62658 1.60015C10.2553 0.989307 11.0978 0.648349 11.9744 0.650031C12.851 0.651712 13.6922 0.995898 14.3186 1.60915L14.6531 1.93915L14.9891 1.60915C15.6179 0.997856 16.4607 0.656617 17.3377 0.658299C18.2146 0.659981 19.0561 1.00445 19.6826 1.61815C19.9898 1.91817 20.2337 2.2767 20.4 2.67256C20.5664 3.06842 20.6517 3.49359 20.651 3.92298C20.6503 4.35236 20.5636 4.77726 20.396 5.17258C20.2283 5.5679 19.9832 5.92562 19.6751 6.22465Z" stroke="#6A6869" stroke-width="1.3" stroke-linecap="round" stroke-linejoin="round"/>
<path d="M0.649902 6.15002C1.1499 6.15002 5.6499 6.15002 6.1499 6.15002M0.76492 10.15C1.26492 10.15 8.1499 10.15 8.6499 10.15M0.649902 1.65002C1.1499 1.65002 5.6499 1.65002 6.1499 1.65002" stroke="#6A6869" stroke-width="1.3" stroke-linecap="round" stroke-linejoin="round"/>
</svg>
