<svg width="36" height="36" viewBox="0 0 36 36" fill="none" xmlns="http://www.w3.org/2000/svg">
<path d="M15.75 30H7.5C6.70435 30 5.94129 29.6839 5.37868 29.1213C4.81607 28.5587 4.5 27.7956 4.5 27V13.5C4.5 12.7044 4.81607 11.9413 5.37868 11.3787C5.94129 10.8161 6.70435 10.5 7.5 10.5H9C9.79565 10.5 10.5587 10.1839 11.1213 9.62132C11.6839 9.05871 12 8.29565 12 7.5C12 7.10218 12.158 6.72064 12.4393 6.43934C12.7206 6.15804 13.1022 6 13.5 6H22.5C22.8978 6 23.2794 6.15804 23.5607 6.43934C23.842 6.72064 24 7.10218 24 7.5C24 8.29565 24.3161 9.05871 24.8787 9.62132C25.4413 10.1839 26.2044 10.5 27 10.5H28.5C29.2956 10.5 30.0587 10.8161 30.6213 11.3787C31.1839 11.9413 31.5 12.7044 31.5 13.5V16.5" stroke="#F3F3F3" stroke-width="2" stroke-linecap="round" stroke-linejoin="round"/>
<path d="M21.615 16.818C21.2275 16.2958 20.7313 15.8637 20.1608 15.5517C19.5903 15.2396 18.9588 15.0549 18.3101 15.0103C17.6613 14.9657 17.0105 15.0622 16.4026 15.2932C15.7947 15.5243 15.2441 15.8843 14.7888 16.3486C14.3334 16.8129 13.984 17.3703 13.7648 17.9826C13.5455 18.5948 13.4616 19.2473 13.5188 19.8951C13.5759 20.5429 13.7728 21.1706 14.0958 21.735C14.4189 22.2994 14.8604 22.7871 15.39 23.1645M27 33L32.025 28.074C32.3332 27.775 32.5783 27.4172 32.7459 27.0219C32.9135 26.6266 33.0002 26.2017 33.0009 25.7723C33.0016 25.3429 32.9163 24.9178 32.75 24.5219C32.5836 24.126 32.3397 23.7675 32.0325 23.4675C31.4061 22.8538 30.5645 22.5093 29.6876 22.5076C28.8107 22.506 27.9678 22.8472 27.339 23.4585L27.003 23.7885L26.6685 23.4585C26.0422 22.8452 25.2009 22.5011 24.3243 22.4994C23.4478 22.4977 22.6052 22.8387 21.9765 23.4495C21.6683 23.7484 21.423 24.1061 21.2553 24.5013C21.0875 24.8966 21.0007 25.3215 20.9998 25.7508C20.999 26.1802 21.0842 26.6054 21.2504 27.0013C21.4166 27.3973 21.6604 27.7559 21.9675 28.056L27 33Z" stroke="#F3F3F3" stroke-width="2" stroke-linecap="round" stroke-linejoin="round"/>
</svg>
