<?xml version="1.0" encoding="UTF-8"?>
<svg id="_レイヤー_1" data-name="レイヤー 1" xmlns="http://www.w3.org/2000/svg" width="476" height="108" xmlns:xlink="http://www.w3.org/1999/xlink" viewBox="0 0 476 108">
  <defs>
    <style>
      .cls-1 {
        fill: none;
      }

      .cls-2 {
        mask: url(#mask);
      }

      .cls-3 {
        clip-path: url(#clippath-1);
      }

      .cls-4 {
        clip-path: url(#clippath);
      }

      .cls-5 {
        fill: #6a6869;
      }
    </style>
    <clipPath id="clippath">
      <rect class="cls-1" x="245.2633" y="-69.9809" width="251.731" height="180.5896"/>
    </clipPath>
    <clipPath id="clippath-1">
      <rect class="cls-1" x="-10.3683" y="-69.9809" width="251.731" height="180.5896"/>
    </clipPath>
    <mask id="mask" x="-10.3684" y="-72.2945" width="507.3627" height="184.8099" maskUnits="userSpaceOnUse">
      <g>
        <g class="cls-4">
          <g>
            <ellipse class="cls-5" cx="246.76" cy=".1541" rx="1.4967" ry="1.4927"/>
            <ellipse class="cls-5" cx="255.6374" cy="4.5888" rx="1.4967" ry="1.4927"/>
            <ellipse class="cls-5" cx="264.5148" cy=".1541" rx="1.4967" ry="1.4927"/>
            <ellipse class="cls-5" cx="273.3922" cy="4.5888" rx="1.4967" ry="1.4927"/>
            <ellipse class="cls-5" cx="282.2696" cy=".1541" rx="1.4967" ry="1.4927"/>
            <ellipse class="cls-5" cx="291.147" cy="4.5888" rx="1.4967" ry="1.4927"/>
            <ellipse class="cls-5" cx="300.0244" cy=".1541" rx="1.4967" ry="1.4927"/>
            <ellipse class="cls-5" cx="308.9018" cy="4.5888" rx="1.4967" ry="1.4927"/>
            <ellipse class="cls-5" cx="317.7792" cy=".1541" rx="1.4967" ry="1.4927"/>
            <ellipse class="cls-5" cx="326.6566" cy="4.5888" rx="1.4967" ry="1.4927"/>
            <ellipse class="cls-5" cx="335.534" cy=".1541" rx="1.4967" ry="1.4927"/>
            <ellipse class="cls-5" cx="344.4114" cy="4.5888" rx="1.4967" ry="1.4927"/>
            <ellipse class="cls-5" cx="353.2888" cy=".1541" rx="1.4967" ry="1.4927"/>
            <ellipse class="cls-5" cx="362.1662" cy="4.5888" rx="1.4967" ry="1.4927"/>
            <ellipse class="cls-5" cx="371.0436" cy=".1541" rx="1.4967" ry="1.4927"/>
            <ellipse class="cls-5" cx="379.921" cy="4.5888" rx="1.4967" ry="1.4927"/>
            <ellipse class="cls-5" cx="388.7984" cy=".1541" rx="1.4967" ry="1.4927"/>
            <ellipse class="cls-5" cx="397.6758" cy="4.5888" rx="1.4967" ry="1.4927"/>
            <ellipse class="cls-5" cx="406.5532" cy=".1541" rx="1.4967" ry="1.4927"/>
            <ellipse class="cls-5" cx="415.4306" cy="4.5888" rx="1.4967" ry="1.4927"/>
            <ellipse class="cls-5" cx="424.308" cy=".1541" rx="1.4967" ry="1.4927"/>
            <ellipse class="cls-5" cx="433.1854" cy="4.5888" rx="1.4967" ry="1.4927"/>
            <ellipse class="cls-5" cx="442.0628" cy=".1541" rx="1.4967" ry="1.4927"/>
            <ellipse class="cls-5" cx="450.9402" cy="4.5888" rx="1.4967" ry="1.4927"/>
            <ellipse class="cls-5" cx="459.8176" cy=".1541" rx="1.4967" ry="1.4927"/>
            <ellipse class="cls-5" cx="468.695" cy="4.5888" rx="1.4967" ry="1.4927"/>
            <ellipse class="cls-5" cx="246.76" cy="9.0236" rx="1.4967" ry="1.4927"/>
            <ellipse class="cls-5" cx="255.6374" cy="13.4583" rx="1.4967" ry="1.4927"/>
            <ellipse class="cls-5" cx="264.5148" cy="9.0236" rx="1.4967" ry="1.4927"/>
            <ellipse class="cls-5" cx="273.3922" cy="13.4583" rx="1.4967" ry="1.4927"/>
            <ellipse class="cls-5" cx="282.2696" cy="9.0236" rx="1.4967" ry="1.4927"/>
            <ellipse class="cls-5" cx="291.147" cy="13.4583" rx="1.4967" ry="1.4927"/>
            <ellipse class="cls-5" cx="300.0244" cy="9.0236" rx="1.4967" ry="1.4927"/>
            <ellipse class="cls-5" cx="308.9018" cy="13.4583" rx="1.4967" ry="1.4927"/>
            <ellipse class="cls-5" cx="317.7792" cy="9.0236" rx="1.4967" ry="1.4927"/>
            <ellipse class="cls-5" cx="326.6566" cy="13.4583" rx="1.4967" ry="1.4927"/>
            <ellipse class="cls-5" cx="335.534" cy="9.0236" rx="1.4967" ry="1.4927"/>
            <ellipse class="cls-5" cx="344.4114" cy="13.4583" rx="1.4967" ry="1.4927"/>
            <ellipse class="cls-5" cx="353.2888" cy="9.0236" rx="1.4967" ry="1.4927"/>
            <ellipse class="cls-5" cx="362.1662" cy="13.4583" rx="1.4967" ry="1.4927"/>
            <ellipse class="cls-5" cx="371.0436" cy="9.0236" rx="1.4967" ry="1.4927"/>
            <ellipse class="cls-5" cx="379.921" cy="13.4583" rx="1.4967" ry="1.4927"/>
            <ellipse class="cls-5" cx="388.7984" cy="9.0236" rx="1.4967" ry="1.4927"/>
            <ellipse class="cls-5" cx="397.6758" cy="13.4583" rx="1.4967" ry="1.4927"/>
            <ellipse class="cls-5" cx="406.5532" cy="9.0236" rx="1.4967" ry="1.4927"/>
            <ellipse class="cls-5" cx="415.4306" cy="13.4583" rx="1.4967" ry="1.4927"/>
            <ellipse class="cls-5" cx="424.308" cy="9.0236" rx="1.4967" ry="1.4927"/>
            <ellipse class="cls-5" cx="433.1854" cy="13.4583" rx="1.4967" ry="1.4927"/>
            <ellipse class="cls-5" cx="442.0628" cy="9.0236" rx="1.4967" ry="1.4927"/>
            <ellipse class="cls-5" cx="450.9402" cy="13.4583" rx="1.4967" ry="1.4927"/>
            <ellipse class="cls-5" cx="459.8176" cy="9.0236" rx="1.4967" ry="1.4927"/>
            <ellipse class="cls-5" cx="468.695" cy="13.4583" rx="1.4967" ry="1.4927"/>
            <ellipse class="cls-5" cx="246.76" cy="17.893" rx="1.4967" ry="1.4927"/>
            <ellipse class="cls-5" cx="255.6374" cy="22.3278" rx="1.4967" ry="1.4927"/>
            <ellipse class="cls-5" cx="264.5148" cy="17.893" rx="1.4967" ry="1.4927"/>
            <ellipse class="cls-5" cx="273.3922" cy="22.3278" rx="1.4967" ry="1.4927"/>
            <ellipse class="cls-5" cx="282.2696" cy="17.893" rx="1.4967" ry="1.4927"/>
            <ellipse class="cls-5" cx="291.147" cy="22.3278" rx="1.4967" ry="1.4927"/>
            <ellipse class="cls-5" cx="300.0244" cy="17.893" rx="1.4967" ry="1.4927"/>
            <ellipse class="cls-5" cx="308.9018" cy="22.3278" rx="1.4967" ry="1.4927"/>
            <ellipse class="cls-5" cx="317.7792" cy="17.893" rx="1.4967" ry="1.4927"/>
            <ellipse class="cls-5" cx="326.6566" cy="22.3278" rx="1.4967" ry="1.4927"/>
            <ellipse class="cls-5" cx="335.534" cy="17.893" rx="1.4967" ry="1.4927"/>
            <ellipse class="cls-5" cx="344.4114" cy="22.3278" rx="1.4967" ry="1.4927"/>
            <ellipse class="cls-5" cx="353.2888" cy="17.893" rx="1.4967" ry="1.4927"/>
            <ellipse class="cls-5" cx="362.1662" cy="22.3278" rx="1.4967" ry="1.4927"/>
            <ellipse class="cls-5" cx="371.0436" cy="17.893" rx="1.4967" ry="1.4927"/>
            <ellipse class="cls-5" cx="379.921" cy="22.3278" rx="1.4967" ry="1.4927"/>
            <ellipse class="cls-5" cx="388.7984" cy="17.893" rx="1.4967" ry="1.4927"/>
            <ellipse class="cls-5" cx="397.6758" cy="22.3278" rx="1.4967" ry="1.4927"/>
            <ellipse class="cls-5" cx="406.5532" cy="17.893" rx="1.4967" ry="1.4927"/>
            <ellipse class="cls-5" cx="415.4306" cy="22.3278" rx="1.4967" ry="1.4927"/>
            <ellipse class="cls-5" cx="424.308" cy="17.893" rx="1.4967" ry="1.4927"/>
            <ellipse class="cls-5" cx="433.1854" cy="22.3278" rx="1.4967" ry="1.4927"/>
            <ellipse class="cls-5" cx="442.0628" cy="17.893" rx="1.4967" ry="1.4927"/>
            <ellipse class="cls-5" cx="450.9402" cy="22.3278" rx="1.4967" ry="1.4927"/>
            <ellipse class="cls-5" cx="459.8176" cy="17.893" rx="1.4967" ry="1.4927"/>
            <ellipse class="cls-5" cx="468.695" cy="22.3278" rx="1.4967" ry="1.4927"/>
            <ellipse class="cls-5" cx="246.76" cy="26.7625" rx="1.4967" ry="1.4927"/>
            <ellipse class="cls-5" cx="255.6374" cy="31.1973" rx="1.4967" ry="1.4927"/>
            <ellipse class="cls-5" cx="264.5148" cy="26.7625" rx="1.4967" ry="1.4927"/>
            <ellipse class="cls-5" cx="273.3922" cy="31.1973" rx="1.4967" ry="1.4927"/>
            <ellipse class="cls-5" cx="282.2696" cy="26.7625" rx="1.4967" ry="1.4927"/>
            <ellipse class="cls-5" cx="291.147" cy="31.1973" rx="1.4967" ry="1.4927"/>
            <ellipse class="cls-5" cx="300.0244" cy="26.7625" rx="1.4967" ry="1.4927"/>
            <ellipse class="cls-5" cx="308.9018" cy="31.1973" rx="1.4967" ry="1.4927"/>
            <ellipse class="cls-5" cx="317.7792" cy="26.7625" rx="1.4967" ry="1.4927"/>
            <ellipse class="cls-5" cx="326.6566" cy="31.1973" rx="1.4967" ry="1.4927"/>
            <ellipse class="cls-5" cx="335.534" cy="26.7625" rx="1.4967" ry="1.4927"/>
            <ellipse class="cls-5" cx="344.4114" cy="31.1973" rx="1.4967" ry="1.4927"/>
            <ellipse class="cls-5" cx="353.2888" cy="26.7625" rx="1.4967" ry="1.4927"/>
            <ellipse class="cls-5" cx="362.1662" cy="31.1973" rx="1.4967" ry="1.4927"/>
            <ellipse class="cls-5" cx="371.0436" cy="26.7625" rx="1.4967" ry="1.4927"/>
            <ellipse class="cls-5" cx="379.921" cy="31.1973" rx="1.4967" ry="1.4927"/>
            <ellipse class="cls-5" cx="388.7984" cy="26.7625" rx="1.4967" ry="1.4927"/>
            <ellipse class="cls-5" cx="397.6758" cy="31.1973" rx="1.4967" ry="1.4927"/>
            <ellipse class="cls-5" cx="406.5532" cy="26.7625" rx="1.4967" ry="1.4927"/>
            <ellipse class="cls-5" cx="415.4306" cy="31.1973" rx="1.4967" ry="1.4927"/>
            <ellipse class="cls-5" cx="424.308" cy="26.7625" rx="1.4967" ry="1.4927"/>
            <ellipse class="cls-5" cx="433.1854" cy="31.1973" rx="1.4967" ry="1.4927"/>
            <ellipse class="cls-5" cx="442.0628" cy="26.7625" rx="1.4967" ry="1.4927"/>
            <ellipse class="cls-5" cx="450.9402" cy="31.1973" rx="1.4967" ry="1.4927"/>
            <ellipse class="cls-5" cx="459.8176" cy="26.7625" rx="1.4967" ry="1.4927"/>
            <ellipse class="cls-5" cx="468.695" cy="31.1973" rx="1.4967" ry="1.4927"/>
            <ellipse class="cls-5" cx="246.76" cy="35.632" rx="1.4967" ry="1.4927"/>
            <ellipse class="cls-5" cx="255.6374" cy="40.0668" rx="1.4967" ry="1.4927"/>
            <ellipse class="cls-5" cx="264.5148" cy="35.632" rx="1.4967" ry="1.4927"/>
            <ellipse class="cls-5" cx="273.3922" cy="40.0668" rx="1.4967" ry="1.4927"/>
            <ellipse class="cls-5" cx="282.2696" cy="35.632" rx="1.4967" ry="1.4927"/>
            <ellipse class="cls-5" cx="291.147" cy="40.0668" rx="1.4967" ry="1.4927"/>
            <ellipse class="cls-5" cx="300.0244" cy="35.632" rx="1.4967" ry="1.4927"/>
            <ellipse class="cls-5" cx="308.9018" cy="40.0668" rx="1.4967" ry="1.4927"/>
            <ellipse class="cls-5" cx="317.7792" cy="35.632" rx="1.4967" ry="1.4927"/>
            <ellipse class="cls-5" cx="326.6566" cy="40.0668" rx="1.4967" ry="1.4927"/>
            <ellipse class="cls-5" cx="335.534" cy="35.632" rx="1.4967" ry="1.4927"/>
            <ellipse class="cls-5" cx="344.4114" cy="40.0668" rx="1.4967" ry="1.4927"/>
            <ellipse class="cls-5" cx="353.2888" cy="35.632" rx="1.4967" ry="1.4927"/>
            <ellipse class="cls-5" cx="362.1662" cy="40.0668" rx="1.4967" ry="1.4927"/>
            <ellipse class="cls-5" cx="371.0436" cy="35.632" rx="1.4967" ry="1.4927"/>
            <ellipse class="cls-5" cx="379.921" cy="40.0668" rx="1.4967" ry="1.4927"/>
            <ellipse class="cls-5" cx="388.7984" cy="35.632" rx="1.4967" ry="1.4927"/>
            <ellipse class="cls-5" cx="397.6758" cy="40.0668" rx="1.4967" ry="1.4927"/>
            <ellipse class="cls-5" cx="406.5532" cy="35.632" rx="1.4967" ry="1.4927"/>
            <ellipse class="cls-5" cx="415.4306" cy="40.0668" rx="1.4967" ry="1.4927"/>
            <ellipse class="cls-5" cx="424.308" cy="35.632" rx="1.4967" ry="1.4927"/>
            <ellipse class="cls-5" cx="433.1854" cy="40.0668" rx="1.4967" ry="1.4927"/>
            <ellipse class="cls-5" cx="442.0628" cy="35.632" rx="1.4967" ry="1.4927"/>
            <ellipse class="cls-5" cx="450.9402" cy="40.0668" rx="1.4967" ry="1.4927"/>
            <ellipse class="cls-5" cx="459.8176" cy="35.632" rx="1.4967" ry="1.4927"/>
            <ellipse class="cls-5" cx="468.695" cy="40.0668" rx="1.4967" ry="1.4927"/>
            <ellipse class="cls-5" cx="246.76" cy="44.5015" rx="1.4967" ry="1.4927"/>
            <ellipse class="cls-5" cx="255.6374" cy="48.9363" rx="1.4967" ry="1.4927"/>
            <ellipse class="cls-5" cx="264.5148" cy="44.5015" rx="1.4967" ry="1.4927"/>
            <ellipse class="cls-5" cx="273.3922" cy="48.9363" rx="1.4967" ry="1.4927"/>
            <ellipse class="cls-5" cx="282.2696" cy="44.5015" rx="1.4967" ry="1.4927"/>
            <ellipse class="cls-5" cx="291.147" cy="48.9363" rx="1.4967" ry="1.4927"/>
            <ellipse class="cls-5" cx="300.0244" cy="44.5015" rx="1.4967" ry="1.4927"/>
            <ellipse class="cls-5" cx="308.9018" cy="48.9363" rx="1.4967" ry="1.4927"/>
            <ellipse class="cls-5" cx="317.7792" cy="44.5015" rx="1.4967" ry="1.4927"/>
            <ellipse class="cls-5" cx="326.6566" cy="48.9363" rx="1.4967" ry="1.4927"/>
            <ellipse class="cls-5" cx="335.534" cy="44.5015" rx="1.4967" ry="1.4927"/>
            <ellipse class="cls-5" cx="344.4114" cy="48.9363" rx="1.4967" ry="1.4927"/>
            <ellipse class="cls-5" cx="353.2888" cy="44.5015" rx="1.4967" ry="1.4927"/>
            <ellipse class="cls-5" cx="362.1662" cy="48.9363" rx="1.4967" ry="1.4927"/>
            <ellipse class="cls-5" cx="371.0436" cy="44.5015" rx="1.4967" ry="1.4927"/>
            <ellipse class="cls-5" cx="379.921" cy="48.9363" rx="1.4967" ry="1.4927"/>
            <ellipse class="cls-5" cx="388.7984" cy="44.5015" rx="1.4967" ry="1.4927"/>
            <ellipse class="cls-5" cx="397.6758" cy="48.9363" rx="1.4967" ry="1.4927"/>
            <ellipse class="cls-5" cx="406.5532" cy="44.5015" rx="1.4967" ry="1.4927"/>
            <ellipse class="cls-5" cx="415.4306" cy="48.9363" rx="1.4967" ry="1.4927"/>
            <ellipse class="cls-5" cx="424.308" cy="44.5015" rx="1.4967" ry="1.4927"/>
            <ellipse class="cls-5" cx="433.1854" cy="48.9363" rx="1.4967" ry="1.4927"/>
            <ellipse class="cls-5" cx="442.0628" cy="44.5015" rx="1.4967" ry="1.4927"/>
            <ellipse class="cls-5" cx="450.9402" cy="48.9363" rx="1.4967" ry="1.4927"/>
            <ellipse class="cls-5" cx="459.8176" cy="44.5015" rx="1.4967" ry="1.4927"/>
            <ellipse class="cls-5" cx="468.695" cy="48.9363" rx="1.4967" ry="1.4927"/>
            <ellipse class="cls-5" cx="246.76" cy="53.371" rx="1.4967" ry="1.4927"/>
            <ellipse class="cls-5" cx="255.6374" cy="57.8057" rx="1.4967" ry="1.4927"/>
            <ellipse class="cls-5" cx="264.5148" cy="53.371" rx="1.4967" ry="1.4927"/>
            <ellipse class="cls-5" cx="273.3922" cy="57.8057" rx="1.4967" ry="1.4927"/>
            <ellipse class="cls-5" cx="282.2696" cy="53.371" rx="1.4967" ry="1.4927"/>
            <ellipse class="cls-5" cx="291.147" cy="57.8057" rx="1.4967" ry="1.4927"/>
            <ellipse class="cls-5" cx="300.0244" cy="53.371" rx="1.4967" ry="1.4927"/>
            <ellipse class="cls-5" cx="308.9018" cy="57.8057" rx="1.4967" ry="1.4927"/>
            <ellipse class="cls-5" cx="317.7792" cy="53.371" rx="1.4967" ry="1.4927"/>
            <ellipse class="cls-5" cx="326.6566" cy="57.8057" rx="1.4967" ry="1.4927"/>
            <ellipse class="cls-5" cx="335.534" cy="53.371" rx="1.4967" ry="1.4927"/>
            <ellipse class="cls-5" cx="344.4114" cy="57.8057" rx="1.4967" ry="1.4927"/>
            <ellipse class="cls-5" cx="353.2888" cy="53.371" rx="1.4967" ry="1.4927"/>
            <ellipse class="cls-5" cx="362.1662" cy="57.8057" rx="1.4967" ry="1.4927"/>
            <ellipse class="cls-5" cx="371.0436" cy="53.371" rx="1.4967" ry="1.4927"/>
            <ellipse class="cls-5" cx="379.921" cy="57.8057" rx="1.4967" ry="1.4927"/>
            <ellipse class="cls-5" cx="388.7984" cy="53.371" rx="1.4967" ry="1.4927"/>
            <ellipse class="cls-5" cx="397.6758" cy="57.8057" rx="1.4967" ry="1.4927"/>
            <ellipse class="cls-5" cx="406.5532" cy="53.371" rx="1.4967" ry="1.4927"/>
            <ellipse class="cls-5" cx="415.4306" cy="57.8057" rx="1.4967" ry="1.4927"/>
            <ellipse class="cls-5" cx="424.308" cy="53.371" rx="1.4967" ry="1.4927"/>
            <ellipse class="cls-5" cx="433.1854" cy="57.8057" rx="1.4967" ry="1.4927"/>
            <ellipse class="cls-5" cx="442.0628" cy="53.371" rx="1.4967" ry="1.4927"/>
            <ellipse class="cls-5" cx="450.9402" cy="57.8057" rx="1.4967" ry="1.4927"/>
            <ellipse class="cls-5" cx="459.8176" cy="53.371" rx="1.4967" ry="1.4927"/>
            <ellipse class="cls-5" cx="468.695" cy="57.8057" rx="1.4967" ry="1.4927"/>
            <ellipse class="cls-5" cx="246.76" cy="62.2405" rx="1.4967" ry="1.4927"/>
            <ellipse class="cls-5" cx="255.6374" cy="66.6752" rx="1.4967" ry="1.4927"/>
            <ellipse class="cls-5" cx="264.5148" cy="62.2405" rx="1.4967" ry="1.4927"/>
            <ellipse class="cls-5" cx="273.3922" cy="66.6752" rx="1.4967" ry="1.4927"/>
            <ellipse class="cls-5" cx="282.2696" cy="62.2405" rx="1.4967" ry="1.4927"/>
            <ellipse class="cls-5" cx="291.147" cy="66.6752" rx="1.4967" ry="1.4927"/>
            <ellipse class="cls-5" cx="300.0244" cy="62.2405" rx="1.4967" ry="1.4927"/>
            <ellipse class="cls-5" cx="308.9018" cy="66.6752" rx="1.4967" ry="1.4927"/>
            <ellipse class="cls-5" cx="317.7792" cy="62.2405" rx="1.4967" ry="1.4927"/>
            <ellipse class="cls-5" cx="326.6566" cy="66.6752" rx="1.4967" ry="1.4927"/>
            <ellipse class="cls-5" cx="335.534" cy="62.2405" rx="1.4967" ry="1.4927"/>
            <ellipse class="cls-5" cx="344.4114" cy="66.6752" rx="1.4967" ry="1.4927"/>
            <ellipse class="cls-5" cx="353.2888" cy="62.2405" rx="1.4967" ry="1.4927"/>
            <ellipse class="cls-5" cx="362.1662" cy="66.6752" rx="1.4967" ry="1.4927"/>
            <ellipse class="cls-5" cx="371.0436" cy="62.2405" rx="1.4967" ry="1.4927"/>
            <ellipse class="cls-5" cx="379.921" cy="66.6752" rx="1.4967" ry="1.4927"/>
            <ellipse class="cls-5" cx="388.7984" cy="62.2405" rx="1.4967" ry="1.4927"/>
            <ellipse class="cls-5" cx="397.6758" cy="66.6752" rx="1.4967" ry="1.4927"/>
            <ellipse class="cls-5" cx="406.5532" cy="62.2405" rx="1.4967" ry="1.4927"/>
            <ellipse class="cls-5" cx="415.4306" cy="66.6752" rx="1.4967" ry="1.4927"/>
            <ellipse class="cls-5" cx="424.308" cy="62.2405" rx="1.4967" ry="1.4927"/>
            <ellipse class="cls-5" cx="433.1854" cy="66.6752" rx="1.4967" ry="1.4927"/>
            <ellipse class="cls-5" cx="442.0628" cy="62.2405" rx="1.4967" ry="1.4927"/>
            <ellipse class="cls-5" cx="450.9402" cy="66.6752" rx="1.4967" ry="1.4927"/>
            <ellipse class="cls-5" cx="459.8176" cy="62.2405" rx="1.4967" ry="1.4927"/>
            <ellipse class="cls-5" cx="468.695" cy="66.6752" rx="1.4967" ry="1.4927"/>
            <ellipse class="cls-5" cx="246.76" cy="71.11" rx="1.4967" ry="1.4927"/>
            <ellipse class="cls-5" cx="255.6374" cy="75.5447" rx="1.4967" ry="1.4927"/>
            <ellipse class="cls-5" cx="264.5148" cy="71.11" rx="1.4967" ry="1.4927"/>
            <ellipse class="cls-5" cx="273.3922" cy="75.5447" rx="1.4967" ry="1.4927"/>
            <ellipse class="cls-5" cx="282.2696" cy="71.11" rx="1.4967" ry="1.4927"/>
            <ellipse class="cls-5" cx="291.147" cy="75.5447" rx="1.4967" ry="1.4927"/>
            <ellipse class="cls-5" cx="300.0244" cy="71.11" rx="1.4967" ry="1.4927"/>
            <ellipse class="cls-5" cx="308.9018" cy="75.5447" rx="1.4967" ry="1.4927"/>
            <ellipse class="cls-5" cx="317.7792" cy="71.11" rx="1.4967" ry="1.4927"/>
            <ellipse class="cls-5" cx="326.6566" cy="75.5447" rx="1.4967" ry="1.4927"/>
            <ellipse class="cls-5" cx="335.534" cy="71.11" rx="1.4967" ry="1.4927"/>
            <ellipse class="cls-5" cx="344.4114" cy="75.5447" rx="1.4967" ry="1.4927"/>
            <ellipse class="cls-5" cx="353.2888" cy="71.11" rx="1.4967" ry="1.4927"/>
            <ellipse class="cls-5" cx="362.1662" cy="75.5447" rx="1.4967" ry="1.4927"/>
            <ellipse class="cls-5" cx="371.0436" cy="71.11" rx="1.4967" ry="1.4927"/>
            <ellipse class="cls-5" cx="379.921" cy="75.5447" rx="1.4967" ry="1.4927"/>
            <ellipse class="cls-5" cx="388.7984" cy="71.11" rx="1.4967" ry="1.4927"/>
            <ellipse class="cls-5" cx="397.6758" cy="75.5447" rx="1.4967" ry="1.4927"/>
            <ellipse class="cls-5" cx="406.5532" cy="71.11" rx="1.4967" ry="1.4927"/>
            <ellipse class="cls-5" cx="415.4306" cy="75.5447" rx="1.4967" ry="1.4927"/>
            <ellipse class="cls-5" cx="424.308" cy="71.11" rx="1.4967" ry="1.4927"/>
            <ellipse class="cls-5" cx="433.1854" cy="75.5447" rx="1.4967" ry="1.4927"/>
            <ellipse class="cls-5" cx="442.0628" cy="71.11" rx="1.4967" ry="1.4927"/>
            <ellipse class="cls-5" cx="450.9402" cy="75.5447" rx="1.4967" ry="1.4927"/>
            <ellipse class="cls-5" cx="459.8176" cy="71.11" rx="1.4967" ry="1.4927"/>
            <ellipse class="cls-5" cx="468.695" cy="75.5447" rx="1.4967" ry="1.4927"/>
            <ellipse class="cls-5" cx="246.76" cy="79.9795" rx="1.4967" ry="1.4927"/>
            <ellipse class="cls-5" cx="255.6374" cy="84.4142" rx="1.4967" ry="1.4927"/>
            <ellipse class="cls-5" cx="264.5148" cy="79.9795" rx="1.4967" ry="1.4927"/>
            <ellipse class="cls-5" cx="273.3922" cy="84.4142" rx="1.4967" ry="1.4927"/>
            <ellipse class="cls-5" cx="282.2696" cy="79.9795" rx="1.4967" ry="1.4927"/>
            <ellipse class="cls-5" cx="291.147" cy="84.4142" rx="1.4967" ry="1.4927"/>
            <ellipse class="cls-5" cx="300.0244" cy="79.9795" rx="1.4967" ry="1.4927"/>
            <ellipse class="cls-5" cx="308.9018" cy="84.4142" rx="1.4967" ry="1.4927"/>
            <ellipse class="cls-5" cx="317.7792" cy="79.9795" rx="1.4967" ry="1.4927"/>
            <ellipse class="cls-5" cx="326.6566" cy="84.4142" rx="1.4967" ry="1.4927"/>
            <ellipse class="cls-5" cx="335.534" cy="79.9795" rx="1.4967" ry="1.4927"/>
            <ellipse class="cls-5" cx="344.4114" cy="84.4142" rx="1.4967" ry="1.4927"/>
            <ellipse class="cls-5" cx="353.2888" cy="79.9795" rx="1.4967" ry="1.4927"/>
            <ellipse class="cls-5" cx="362.1662" cy="84.4142" rx="1.4967" ry="1.4927"/>
            <ellipse class="cls-5" cx="371.0436" cy="79.9795" rx="1.4967" ry="1.4927"/>
            <ellipse class="cls-5" cx="379.921" cy="84.4142" rx="1.4967" ry="1.4927"/>
            <ellipse class="cls-5" cx="388.7984" cy="79.9795" rx="1.4967" ry="1.4927"/>
            <ellipse class="cls-5" cx="397.6758" cy="84.4142" rx="1.4967" ry="1.4927"/>
            <ellipse class="cls-5" cx="406.5532" cy="79.9795" rx="1.4967" ry="1.4927"/>
            <ellipse class="cls-5" cx="415.4306" cy="84.4142" rx="1.4967" ry="1.4927"/>
            <ellipse class="cls-5" cx="424.308" cy="79.9795" rx="1.4967" ry="1.4927"/>
            <ellipse class="cls-5" cx="433.1854" cy="84.4142" rx="1.4967" ry="1.4927"/>
            <ellipse class="cls-5" cx="442.0628" cy="79.9795" rx="1.4967" ry="1.4927"/>
            <ellipse class="cls-5" cx="450.9402" cy="84.4142" rx="1.4967" ry="1.4927"/>
            <ellipse class="cls-5" cx="459.8176" cy="79.9795" rx="1.4967" ry="1.4927"/>
            <ellipse class="cls-5" cx="468.695" cy="84.4142" rx="1.4967" ry="1.4927"/>
            <ellipse class="cls-5" cx="246.76" cy="88.849" rx="1.4967" ry="1.4927"/>
            <ellipse class="cls-5" cx="255.6374" cy="93.2837" rx="1.4967" ry="1.4927"/>
            <ellipse class="cls-5" cx="264.5148" cy="88.849" rx="1.4967" ry="1.4927"/>
            <ellipse class="cls-5" cx="273.3922" cy="93.2837" rx="1.4967" ry="1.4927"/>
            <ellipse class="cls-5" cx="282.2696" cy="88.849" rx="1.4967" ry="1.4927"/>
            <ellipse class="cls-5" cx="291.147" cy="93.2837" rx="1.4967" ry="1.4927"/>
            <ellipse class="cls-5" cx="300.0244" cy="88.849" rx="1.4967" ry="1.4927"/>
            <ellipse class="cls-5" cx="308.9018" cy="93.2837" rx="1.4967" ry="1.4927"/>
            <ellipse class="cls-5" cx="317.7792" cy="88.849" rx="1.4967" ry="1.4927"/>
            <ellipse class="cls-5" cx="326.6566" cy="93.2837" rx="1.4967" ry="1.4927"/>
            <ellipse class="cls-5" cx="335.534" cy="88.849" rx="1.4967" ry="1.4927"/>
            <ellipse class="cls-5" cx="344.4114" cy="93.2837" rx="1.4967" ry="1.4927"/>
            <ellipse class="cls-5" cx="353.2888" cy="88.849" rx="1.4967" ry="1.4927"/>
            <ellipse class="cls-5" cx="362.1662" cy="93.2837" rx="1.4967" ry="1.4927"/>
            <ellipse class="cls-5" cx="371.0436" cy="88.849" rx="1.4967" ry="1.4927"/>
            <ellipse class="cls-5" cx="379.921" cy="93.2837" rx="1.4967" ry="1.4927"/>
            <ellipse class="cls-5" cx="388.7984" cy="88.849" rx="1.4967" ry="1.4927"/>
            <ellipse class="cls-5" cx="397.6758" cy="93.2837" rx="1.4967" ry="1.4927"/>
            <ellipse class="cls-5" cx="406.5532" cy="88.849" rx="1.4967" ry="1.4927"/>
            <ellipse class="cls-5" cx="415.4306" cy="93.2837" rx="1.4967" ry="1.4927"/>
            <ellipse class="cls-5" cx="424.308" cy="88.849" rx="1.4967" ry="1.4927"/>
            <ellipse class="cls-5" cx="433.1854" cy="93.2837" rx="1.4967" ry="1.4927"/>
            <ellipse class="cls-5" cx="442.0628" cy="88.849" rx="1.4967" ry="1.4927"/>
            <ellipse class="cls-5" cx="450.9402" cy="93.2837" rx="1.4967" ry="1.4927"/>
            <ellipse class="cls-5" cx="459.8176" cy="88.849" rx="1.4967" ry="1.4927"/>
            <ellipse class="cls-5" cx="468.695" cy="93.2837" rx="1.4967" ry="1.4927"/>
            <ellipse class="cls-5" cx="246.76" cy="97.7184" rx="1.4967" ry="1.4927"/>
            <ellipse class="cls-5" cx="255.6374" cy="102.1532" rx="1.4967" ry="1.4927"/>
            <ellipse class="cls-5" cx="264.5148" cy="97.7184" rx="1.4967" ry="1.4927"/>
            <ellipse class="cls-5" cx="273.3922" cy="102.1532" rx="1.4967" ry="1.4927"/>
            <ellipse class="cls-5" cx="282.2696" cy="97.7184" rx="1.4967" ry="1.4927"/>
            <ellipse class="cls-5" cx="291.147" cy="102.1532" rx="1.4967" ry="1.4927"/>
            <ellipse class="cls-5" cx="300.0244" cy="97.7184" rx="1.4967" ry="1.4927"/>
            <ellipse class="cls-5" cx="308.9018" cy="102.1532" rx="1.4967" ry="1.4927"/>
            <ellipse class="cls-5" cx="317.7792" cy="97.7184" rx="1.4967" ry="1.4927"/>
            <ellipse class="cls-5" cx="326.6566" cy="102.1532" rx="1.4967" ry="1.4927"/>
            <ellipse class="cls-5" cx="335.534" cy="97.7184" rx="1.4967" ry="1.4927"/>
            <ellipse class="cls-5" cx="344.4114" cy="102.1532" rx="1.4967" ry="1.4927"/>
            <ellipse class="cls-5" cx="353.2888" cy="97.7184" rx="1.4967" ry="1.4927"/>
            <ellipse class="cls-5" cx="362.1662" cy="102.1532" rx="1.4967" ry="1.4927"/>
            <ellipse class="cls-5" cx="371.0436" cy="97.7184" rx="1.4967" ry="1.4927"/>
            <ellipse class="cls-5" cx="379.921" cy="102.1532" rx="1.4967" ry="1.4927"/>
            <ellipse class="cls-5" cx="388.7984" cy="97.7184" rx="1.4967" ry="1.4927"/>
            <ellipse class="cls-5" cx="397.6758" cy="102.1532" rx="1.4967" ry="1.4927"/>
            <ellipse class="cls-5" cx="406.5532" cy="97.7184" rx="1.4967" ry="1.4927"/>
            <ellipse class="cls-5" cx="415.4306" cy="102.1532" rx="1.4967" ry="1.4927"/>
            <ellipse class="cls-5" cx="424.308" cy="97.7184" rx="1.4967" ry="1.4927"/>
            <ellipse class="cls-5" cx="433.1854" cy="102.1532" rx="1.4967" ry="1.4927"/>
            <ellipse class="cls-5" cx="442.0628" cy="97.7184" rx="1.4967" ry="1.4927"/>
            <ellipse class="cls-5" cx="450.9402" cy="102.1532" rx="1.4967" ry="1.4927"/>
            <ellipse class="cls-5" cx="459.8176" cy="97.7184" rx="1.4967" ry="1.4927"/>
            <ellipse class="cls-5" cx="468.695" cy="102.1532" rx="1.4967" ry="1.4927"/>
            <ellipse class="cls-5" cx="246.76" cy="106.5879" rx="1.4967" ry="1.4927"/>
            <ellipse class="cls-5" cx="264.5148" cy="106.5879" rx="1.4967" ry="1.4927"/>
            <ellipse class="cls-5" cx="282.2696" cy="106.5879" rx="1.4967" ry="1.4927"/>
            <ellipse class="cls-5" cx="300.0244" cy="106.5879" rx="1.4967" ry="1.4927"/>
            <ellipse class="cls-5" cx="317.7792" cy="106.5879" rx="1.4967" ry="1.4927"/>
            <ellipse class="cls-5" cx="335.534" cy="106.5879" rx="1.4967" ry="1.4927"/>
            <ellipse class="cls-5" cx="353.2888" cy="106.5879" rx="1.4967" ry="1.4927"/>
            <ellipse class="cls-5" cx="371.0436" cy="106.5879" rx="1.4967" ry="1.4927"/>
            <ellipse class="cls-5" cx="388.7984" cy="106.5879" rx="1.4967" ry="1.4927"/>
            <ellipse class="cls-5" cx="406.5532" cy="106.5879" rx="1.4967" ry="1.4927"/>
            <ellipse class="cls-5" cx="424.308" cy="106.5879" rx="1.4967" ry="1.4927"/>
            <ellipse class="cls-5" cx="442.0628" cy="106.5879" rx="1.4967" ry="1.4927"/>
            <ellipse class="cls-5" cx="459.8176" cy="106.5879" rx="1.4967" ry="1.4927"/>
          </g>
        </g>
        <g class="cls-3">
          <g>
            <ellipse class="cls-5" cx=".0057" cy="4.5888" rx="1.4967" ry="1.4927"/>
            <ellipse class="cls-5" cx="8.8831" cy=".1541" rx="1.4967" ry="1.4927"/>
            <ellipse class="cls-5" cx="17.7605" cy="4.5888" rx="1.4967" ry="1.4927"/>
            <ellipse class="cls-5" cx="26.6379" cy=".1541" rx="1.4967" ry="1.4927"/>
            <ellipse class="cls-5" cx="35.5153" cy="4.5888" rx="1.4967" ry="1.4927"/>
            <ellipse class="cls-5" cx="44.3927" cy=".1541" rx="1.4967" ry="1.4927"/>
            <ellipse class="cls-5" cx="53.2701" cy="4.5888" rx="1.4967" ry="1.4927"/>
            <ellipse class="cls-5" cx="62.1475" cy=".1541" rx="1.4967" ry="1.4927"/>
            <ellipse class="cls-5" cx="71.0249" cy="4.5888" rx="1.4967" ry="1.4927"/>
            <ellipse class="cls-5" cx="79.9023" cy=".1541" rx="1.4967" ry="1.4927"/>
            <ellipse class="cls-5" cx="88.7797" cy="4.5888" rx="1.4967" ry="1.4927"/>
            <ellipse class="cls-5" cx="97.6571" cy=".1541" rx="1.4967" ry="1.4927"/>
            <ellipse class="cls-5" cx="106.5345" cy="4.5888" rx="1.4967" ry="1.4927"/>
            <ellipse class="cls-5" cx="115.4119" cy=".1541" rx="1.4967" ry="1.4927"/>
            <ellipse class="cls-5" cx="124.2893" cy="4.5888" rx="1.4967" ry="1.4927"/>
            <ellipse class="cls-5" cx="133.1667" cy=".1541" rx="1.4967" ry="1.4927"/>
            <ellipse class="cls-5" cx="142.0441" cy="4.5888" rx="1.4967" ry="1.4927"/>
            <ellipse class="cls-5" cx="150.9215" cy=".1541" rx="1.4967" ry="1.4927"/>
            <ellipse class="cls-5" cx="159.7989" cy="4.5888" rx="1.4967" ry="1.4927"/>
            <ellipse class="cls-5" cx="168.6763" cy=".1541" rx="1.4967" ry="1.4927"/>
            <ellipse class="cls-5" cx="177.5537" cy="4.5888" rx="1.4967" ry="1.4927"/>
            <ellipse class="cls-5" cx="186.4311" cy=".1541" rx="1.4967" ry="1.4927"/>
            <ellipse class="cls-5" cx="195.3085" cy="4.5888" rx="1.4967" ry="1.4927"/>
            <ellipse class="cls-5" cx="204.1859" cy=".1541" rx="1.4967" ry="1.4927"/>
            <ellipse class="cls-5" cx="213.0633" cy="4.5888" rx="1.4967" ry="1.4927"/>
            <ellipse class="cls-5" cx="221.9407" cy=".1541" rx="1.4967" ry="1.4927"/>
            <ellipse class="cls-5" cx="230.8181" cy="4.5888" rx="1.4967" ry="1.4927"/>
            <ellipse class="cls-5" cx="239.6955" cy=".1541" rx="1.4967" ry="1.4927"/>
            <ellipse class="cls-5" cx=".0057" cy="13.4583" rx="1.4967" ry="1.4927"/>
            <ellipse class="cls-5" cx="8.8831" cy="9.0236" rx="1.4967" ry="1.4927"/>
            <ellipse class="cls-5" cx="17.7605" cy="13.4583" rx="1.4967" ry="1.4927"/>
            <ellipse class="cls-5" cx="26.6379" cy="9.0236" rx="1.4967" ry="1.4927"/>
            <ellipse class="cls-5" cx="35.5153" cy="13.4583" rx="1.4967" ry="1.4927"/>
            <ellipse class="cls-5" cx="44.3927" cy="9.0236" rx="1.4967" ry="1.4927"/>
            <ellipse class="cls-5" cx="53.2701" cy="13.4583" rx="1.4967" ry="1.4927"/>
            <ellipse class="cls-5" cx="62.1475" cy="9.0236" rx="1.4967" ry="1.4927"/>
            <ellipse class="cls-5" cx="71.0249" cy="13.4583" rx="1.4967" ry="1.4927"/>
            <ellipse class="cls-5" cx="79.9023" cy="9.0236" rx="1.4967" ry="1.4927"/>
            <ellipse class="cls-5" cx="88.7797" cy="13.4583" rx="1.4967" ry="1.4927"/>
            <ellipse class="cls-5" cx="97.6571" cy="9.0236" rx="1.4967" ry="1.4927"/>
            <ellipse class="cls-5" cx="106.5345" cy="13.4583" rx="1.4967" ry="1.4927"/>
            <ellipse class="cls-5" cx="115.4119" cy="9.0236" rx="1.4967" ry="1.4927"/>
            <ellipse class="cls-5" cx="124.2893" cy="13.4583" rx="1.4967" ry="1.4927"/>
            <ellipse class="cls-5" cx="133.1667" cy="9.0236" rx="1.4967" ry="1.4927"/>
            <ellipse class="cls-5" cx="142.0441" cy="13.4583" rx="1.4967" ry="1.4927"/>
            <ellipse class="cls-5" cx="150.9215" cy="9.0236" rx="1.4967" ry="1.4927"/>
            <ellipse class="cls-5" cx="159.7989" cy="13.4583" rx="1.4967" ry="1.4927"/>
            <ellipse class="cls-5" cx="168.6763" cy="9.0236" rx="1.4967" ry="1.4927"/>
            <ellipse class="cls-5" cx="177.5537" cy="13.4583" rx="1.4967" ry="1.4927"/>
            <ellipse class="cls-5" cx="186.4311" cy="9.0236" rx="1.4967" ry="1.4927"/>
            <ellipse class="cls-5" cx="195.3085" cy="13.4583" rx="1.4967" ry="1.4927"/>
            <ellipse class="cls-5" cx="204.1859" cy="9.0236" rx="1.4967" ry="1.4927"/>
            <ellipse class="cls-5" cx="213.0633" cy="13.4583" rx="1.4967" ry="1.4927"/>
            <ellipse class="cls-5" cx="221.9407" cy="9.0236" rx="1.4967" ry="1.4927"/>
            <ellipse class="cls-5" cx="230.8181" cy="13.4583" rx="1.4967" ry="1.4927"/>
            <ellipse class="cls-5" cx="239.6955" cy="9.0236" rx="1.4967" ry="1.4927"/>
            <ellipse class="cls-5" cx=".0057" cy="22.3278" rx="1.4967" ry="1.4927"/>
            <ellipse class="cls-5" cx="8.8831" cy="17.893" rx="1.4967" ry="1.4927"/>
            <ellipse class="cls-5" cx="17.7605" cy="22.3278" rx="1.4967" ry="1.4927"/>
            <ellipse class="cls-5" cx="26.6379" cy="17.893" rx="1.4967" ry="1.4927"/>
            <ellipse class="cls-5" cx="35.5153" cy="22.3278" rx="1.4967" ry="1.4927"/>
            <ellipse class="cls-5" cx="44.3927" cy="17.893" rx="1.4967" ry="1.4927"/>
            <ellipse class="cls-5" cx="53.2701" cy="22.3278" rx="1.4967" ry="1.4927"/>
            <ellipse class="cls-5" cx="62.1475" cy="17.893" rx="1.4967" ry="1.4927"/>
            <ellipse class="cls-5" cx="71.0249" cy="22.3278" rx="1.4967" ry="1.4927"/>
            <ellipse class="cls-5" cx="79.9023" cy="17.893" rx="1.4967" ry="1.4927"/>
            <ellipse class="cls-5" cx="88.7797" cy="22.3278" rx="1.4967" ry="1.4927"/>
            <ellipse class="cls-5" cx="97.6571" cy="17.893" rx="1.4967" ry="1.4927"/>
            <ellipse class="cls-5" cx="106.5345" cy="22.3278" rx="1.4967" ry="1.4927"/>
            <ellipse class="cls-5" cx="115.4119" cy="17.893" rx="1.4967" ry="1.4927"/>
            <ellipse class="cls-5" cx="124.2893" cy="22.3278" rx="1.4967" ry="1.4927"/>
            <ellipse class="cls-5" cx="133.1667" cy="17.893" rx="1.4967" ry="1.4927"/>
            <ellipse class="cls-5" cx="142.0441" cy="22.3278" rx="1.4967" ry="1.4927"/>
            <ellipse class="cls-5" cx="150.9215" cy="17.893" rx="1.4967" ry="1.4927"/>
            <ellipse class="cls-5" cx="159.7989" cy="22.3278" rx="1.4967" ry="1.4927"/>
            <ellipse class="cls-5" cx="168.6763" cy="17.893" rx="1.4967" ry="1.4927"/>
            <ellipse class="cls-5" cx="177.5537" cy="22.3278" rx="1.4967" ry="1.4927"/>
            <ellipse class="cls-5" cx="186.4311" cy="17.893" rx="1.4967" ry="1.4927"/>
            <ellipse class="cls-5" cx="195.3085" cy="22.3278" rx="1.4967" ry="1.4927"/>
            <ellipse class="cls-5" cx="204.1859" cy="17.893" rx="1.4967" ry="1.4927"/>
            <ellipse class="cls-5" cx="213.0633" cy="22.3278" rx="1.4967" ry="1.4927"/>
            <ellipse class="cls-5" cx="221.9407" cy="17.893" rx="1.4967" ry="1.4927"/>
            <ellipse class="cls-5" cx="230.8181" cy="22.3278" rx="1.4967" ry="1.4927"/>
            <ellipse class="cls-5" cx="239.6955" cy="17.893" rx="1.4967" ry="1.4927"/>
            <ellipse class="cls-5" cx=".0057" cy="31.1973" rx="1.4967" ry="1.4927"/>
            <ellipse class="cls-5" cx="8.8831" cy="26.7625" rx="1.4967" ry="1.4927"/>
            <ellipse class="cls-5" cx="17.7605" cy="31.1973" rx="1.4967" ry="1.4927"/>
            <ellipse class="cls-5" cx="26.6379" cy="26.7625" rx="1.4967" ry="1.4927"/>
            <ellipse class="cls-5" cx="35.5153" cy="31.1973" rx="1.4967" ry="1.4927"/>
            <ellipse class="cls-5" cx="44.3927" cy="26.7625" rx="1.4967" ry="1.4927"/>
            <ellipse class="cls-5" cx="53.2701" cy="31.1973" rx="1.4967" ry="1.4927"/>
            <ellipse class="cls-5" cx="62.1475" cy="26.7625" rx="1.4967" ry="1.4927"/>
            <ellipse class="cls-5" cx="71.0249" cy="31.1973" rx="1.4967" ry="1.4927"/>
            <ellipse class="cls-5" cx="79.9023" cy="26.7625" rx="1.4967" ry="1.4927"/>
            <ellipse class="cls-5" cx="88.7797" cy="31.1973" rx="1.4967" ry="1.4927"/>
            <ellipse class="cls-5" cx="97.6571" cy="26.7625" rx="1.4967" ry="1.4927"/>
            <ellipse class="cls-5" cx="106.5345" cy="31.1973" rx="1.4967" ry="1.4927"/>
            <ellipse class="cls-5" cx="115.4119" cy="26.7625" rx="1.4967" ry="1.4927"/>
            <ellipse class="cls-5" cx="124.2893" cy="31.1973" rx="1.4967" ry="1.4927"/>
            <ellipse class="cls-5" cx="133.1667" cy="26.7625" rx="1.4967" ry="1.4927"/>
            <ellipse class="cls-5" cx="142.0441" cy="31.1973" rx="1.4967" ry="1.4927"/>
            <ellipse class="cls-5" cx="150.9215" cy="26.7625" rx="1.4967" ry="1.4927"/>
            <ellipse class="cls-5" cx="159.7989" cy="31.1973" rx="1.4967" ry="1.4927"/>
            <ellipse class="cls-5" cx="168.6763" cy="26.7625" rx="1.4967" ry="1.4927"/>
            <ellipse class="cls-5" cx="177.5537" cy="31.1973" rx="1.4967" ry="1.4927"/>
            <ellipse class="cls-5" cx="186.4311" cy="26.7625" rx="1.4967" ry="1.4927"/>
            <ellipse class="cls-5" cx="195.3085" cy="31.1973" rx="1.4967" ry="1.4927"/>
            <ellipse class="cls-5" cx="204.1859" cy="26.7625" rx="1.4967" ry="1.4927"/>
            <ellipse class="cls-5" cx="213.0633" cy="31.1973" rx="1.4967" ry="1.4927"/>
            <ellipse class="cls-5" cx="221.9407" cy="26.7625" rx="1.4967" ry="1.4927"/>
            <ellipse class="cls-5" cx="230.8181" cy="31.1973" rx="1.4967" ry="1.4927"/>
            <ellipse class="cls-5" cx="239.6955" cy="26.7625" rx="1.4967" ry="1.4927"/>
            <ellipse class="cls-5" cx=".0057" cy="40.0668" rx="1.4967" ry="1.4927"/>
            <ellipse class="cls-5" cx="8.8831" cy="35.632" rx="1.4967" ry="1.4927"/>
            <ellipse class="cls-5" cx="17.7605" cy="40.0668" rx="1.4967" ry="1.4927"/>
            <ellipse class="cls-5" cx="26.6379" cy="35.632" rx="1.4967" ry="1.4927"/>
            <ellipse class="cls-5" cx="35.5153" cy="40.0668" rx="1.4967" ry="1.4927"/>
            <ellipse class="cls-5" cx="44.3927" cy="35.632" rx="1.4967" ry="1.4927"/>
            <ellipse class="cls-5" cx="53.2701" cy="40.0668" rx="1.4967" ry="1.4927"/>
            <ellipse class="cls-5" cx="62.1475" cy="35.632" rx="1.4967" ry="1.4927"/>
            <ellipse class="cls-5" cx="71.0249" cy="40.0668" rx="1.4967" ry="1.4927"/>
            <ellipse class="cls-5" cx="79.9023" cy="35.632" rx="1.4967" ry="1.4927"/>
            <ellipse class="cls-5" cx="88.7797" cy="40.0668" rx="1.4967" ry="1.4927"/>
            <ellipse class="cls-5" cx="97.6571" cy="35.632" rx="1.4967" ry="1.4927"/>
            <ellipse class="cls-5" cx="106.5345" cy="40.0668" rx="1.4967" ry="1.4927"/>
            <ellipse class="cls-5" cx="115.4119" cy="35.632" rx="1.4967" ry="1.4927"/>
            <ellipse class="cls-5" cx="124.2893" cy="40.0668" rx="1.4967" ry="1.4927"/>
            <ellipse class="cls-5" cx="133.1667" cy="35.632" rx="1.4967" ry="1.4927"/>
            <ellipse class="cls-5" cx="142.0441" cy="40.0668" rx="1.4967" ry="1.4927"/>
            <ellipse class="cls-5" cx="150.9215" cy="35.632" rx="1.4967" ry="1.4927"/>
            <ellipse class="cls-5" cx="159.7989" cy="40.0668" rx="1.4967" ry="1.4927"/>
            <ellipse class="cls-5" cx="168.6763" cy="35.632" rx="1.4967" ry="1.4927"/>
            <ellipse class="cls-5" cx="177.5537" cy="40.0668" rx="1.4967" ry="1.4927"/>
            <ellipse class="cls-5" cx="186.4311" cy="35.632" rx="1.4967" ry="1.4927"/>
            <ellipse class="cls-5" cx="195.3085" cy="40.0668" rx="1.4967" ry="1.4927"/>
            <ellipse class="cls-5" cx="204.1859" cy="35.632" rx="1.4967" ry="1.4927"/>
            <ellipse class="cls-5" cx="213.0633" cy="40.0668" rx="1.4967" ry="1.4927"/>
            <ellipse class="cls-5" cx="221.9407" cy="35.632" rx="1.4967" ry="1.4927"/>
            <ellipse class="cls-5" cx="230.8181" cy="40.0668" rx="1.4967" ry="1.4927"/>
            <ellipse class="cls-5" cx="239.6955" cy="35.632" rx="1.4967" ry="1.4927"/>
            <ellipse class="cls-5" cx=".0057" cy="48.9363" rx="1.4967" ry="1.4927"/>
            <ellipse class="cls-5" cx="8.8831" cy="44.5015" rx="1.4967" ry="1.4927"/>
            <ellipse class="cls-5" cx="17.7605" cy="48.9363" rx="1.4967" ry="1.4927"/>
            <ellipse class="cls-5" cx="26.6379" cy="44.5015" rx="1.4967" ry="1.4927"/>
            <ellipse class="cls-5" cx="35.5153" cy="48.9363" rx="1.4967" ry="1.4927"/>
            <ellipse class="cls-5" cx="44.3927" cy="44.5015" rx="1.4967" ry="1.4927"/>
            <ellipse class="cls-5" cx="53.2701" cy="48.9363" rx="1.4967" ry="1.4927"/>
            <ellipse class="cls-5" cx="62.1475" cy="44.5015" rx="1.4967" ry="1.4927"/>
            <ellipse class="cls-5" cx="71.0249" cy="48.9363" rx="1.4967" ry="1.4927"/>
            <ellipse class="cls-5" cx="79.9023" cy="44.5015" rx="1.4967" ry="1.4927"/>
            <ellipse class="cls-5" cx="88.7797" cy="48.9363" rx="1.4967" ry="1.4927"/>
            <ellipse class="cls-5" cx="97.6571" cy="44.5015" rx="1.4967" ry="1.4927"/>
            <ellipse class="cls-5" cx="106.5345" cy="48.9363" rx="1.4967" ry="1.4927"/>
            <ellipse class="cls-5" cx="115.4119" cy="44.5015" rx="1.4967" ry="1.4927"/>
            <ellipse class="cls-5" cx="124.2893" cy="48.9363" rx="1.4967" ry="1.4927"/>
            <ellipse class="cls-5" cx="133.1667" cy="44.5015" rx="1.4967" ry="1.4927"/>
            <ellipse class="cls-5" cx="142.0441" cy="48.9363" rx="1.4967" ry="1.4927"/>
            <ellipse class="cls-5" cx="150.9215" cy="44.5015" rx="1.4967" ry="1.4927"/>
            <ellipse class="cls-5" cx="159.7989" cy="48.9363" rx="1.4967" ry="1.4927"/>
            <ellipse class="cls-5" cx="168.6763" cy="44.5015" rx="1.4967" ry="1.4927"/>
            <ellipse class="cls-5" cx="177.5537" cy="48.9363" rx="1.4967" ry="1.4927"/>
            <ellipse class="cls-5" cx="186.4311" cy="44.5015" rx="1.4967" ry="1.4927"/>
            <ellipse class="cls-5" cx="195.3085" cy="48.9363" rx="1.4967" ry="1.4927"/>
            <ellipse class="cls-5" cx="204.1859" cy="44.5015" rx="1.4967" ry="1.4927"/>
            <ellipse class="cls-5" cx="213.0633" cy="48.9363" rx="1.4967" ry="1.4927"/>
            <ellipse class="cls-5" cx="221.9407" cy="44.5015" rx="1.4967" ry="1.4927"/>
            <ellipse class="cls-5" cx="230.8181" cy="48.9363" rx="1.4967" ry="1.4927"/>
            <ellipse class="cls-5" cx="239.6955" cy="44.5015" rx="1.4967" ry="1.4927"/>
            <ellipse class="cls-5" cx=".0057" cy="57.8057" rx="1.4967" ry="1.4927"/>
            <ellipse class="cls-5" cx="8.8831" cy="53.371" rx="1.4967" ry="1.4927"/>
            <ellipse class="cls-5" cx="17.7605" cy="57.8057" rx="1.4967" ry="1.4927"/>
            <ellipse class="cls-5" cx="26.6379" cy="53.371" rx="1.4967" ry="1.4927"/>
            <ellipse class="cls-5" cx="35.5153" cy="57.8057" rx="1.4967" ry="1.4927"/>
            <ellipse class="cls-5" cx="44.3927" cy="53.371" rx="1.4967" ry="1.4927"/>
            <ellipse class="cls-5" cx="53.2701" cy="57.8057" rx="1.4967" ry="1.4927"/>
            <ellipse class="cls-5" cx="62.1475" cy="53.371" rx="1.4967" ry="1.4927"/>
            <ellipse class="cls-5" cx="71.0249" cy="57.8057" rx="1.4967" ry="1.4927"/>
            <ellipse class="cls-5" cx="79.9023" cy="53.371" rx="1.4967" ry="1.4927"/>
            <ellipse class="cls-5" cx="88.7797" cy="57.8057" rx="1.4967" ry="1.4927"/>
            <ellipse class="cls-5" cx="97.6571" cy="53.371" rx="1.4967" ry="1.4927"/>
            <ellipse class="cls-5" cx="106.5345" cy="57.8057" rx="1.4967" ry="1.4927"/>
            <ellipse class="cls-5" cx="115.4119" cy="53.371" rx="1.4967" ry="1.4927"/>
            <ellipse class="cls-5" cx="124.2893" cy="57.8057" rx="1.4967" ry="1.4927"/>
            <ellipse class="cls-5" cx="133.1667" cy="53.371" rx="1.4967" ry="1.4927"/>
            <ellipse class="cls-5" cx="142.0441" cy="57.8057" rx="1.4967" ry="1.4927"/>
            <ellipse class="cls-5" cx="150.9215" cy="53.371" rx="1.4967" ry="1.4927"/>
            <ellipse class="cls-5" cx="159.7989" cy="57.8057" rx="1.4967" ry="1.4927"/>
            <ellipse class="cls-5" cx="168.6763" cy="53.371" rx="1.4967" ry="1.4927"/>
            <ellipse class="cls-5" cx="177.5537" cy="57.8057" rx="1.4967" ry="1.4927"/>
            <ellipse class="cls-5" cx="186.4311" cy="53.371" rx="1.4967" ry="1.4927"/>
            <ellipse class="cls-5" cx="195.3085" cy="57.8057" rx="1.4967" ry="1.4927"/>
            <ellipse class="cls-5" cx="204.1859" cy="53.371" rx="1.4967" ry="1.4927"/>
            <ellipse class="cls-5" cx="213.0633" cy="57.8057" rx="1.4967" ry="1.4927"/>
            <ellipse class="cls-5" cx="221.9407" cy="53.371" rx="1.4967" ry="1.4927"/>
            <ellipse class="cls-5" cx="230.8181" cy="57.8057" rx="1.4967" ry="1.4927"/>
            <ellipse class="cls-5" cx="239.6955" cy="53.371" rx="1.4967" ry="1.4927"/>
            <ellipse class="cls-5" cx=".0057" cy="66.6752" rx="1.4967" ry="1.4927"/>
            <ellipse class="cls-5" cx="8.8831" cy="62.2405" rx="1.4967" ry="1.4927"/>
            <ellipse class="cls-5" cx="17.7605" cy="66.6752" rx="1.4967" ry="1.4927"/>
            <ellipse class="cls-5" cx="26.6379" cy="62.2405" rx="1.4967" ry="1.4927"/>
            <ellipse class="cls-5" cx="35.5153" cy="66.6752" rx="1.4967" ry="1.4927"/>
            <ellipse class="cls-5" cx="44.3927" cy="62.2405" rx="1.4967" ry="1.4927"/>
            <ellipse class="cls-5" cx="53.2701" cy="66.6752" rx="1.4967" ry="1.4927"/>
            <ellipse class="cls-5" cx="62.1475" cy="62.2405" rx="1.4967" ry="1.4927"/>
            <ellipse class="cls-5" cx="71.0249" cy="66.6752" rx="1.4967" ry="1.4927"/>
            <ellipse class="cls-5" cx="79.9023" cy="62.2405" rx="1.4967" ry="1.4927"/>
            <ellipse class="cls-5" cx="88.7797" cy="66.6752" rx="1.4967" ry="1.4927"/>
            <ellipse class="cls-5" cx="97.6571" cy="62.2405" rx="1.4967" ry="1.4927"/>
            <ellipse class="cls-5" cx="106.5345" cy="66.6752" rx="1.4967" ry="1.4927"/>
            <ellipse class="cls-5" cx="115.4119" cy="62.2405" rx="1.4967" ry="1.4927"/>
            <ellipse class="cls-5" cx="124.2893" cy="66.6752" rx="1.4967" ry="1.4927"/>
            <ellipse class="cls-5" cx="133.1667" cy="62.2405" rx="1.4967" ry="1.4927"/>
            <ellipse class="cls-5" cx="142.0441" cy="66.6752" rx="1.4967" ry="1.4927"/>
            <ellipse class="cls-5" cx="150.9215" cy="62.2405" rx="1.4967" ry="1.4927"/>
            <ellipse class="cls-5" cx="159.7989" cy="66.6752" rx="1.4967" ry="1.4927"/>
            <ellipse class="cls-5" cx="168.6763" cy="62.2405" rx="1.4967" ry="1.4927"/>
            <ellipse class="cls-5" cx="177.5537" cy="66.6752" rx="1.4967" ry="1.4927"/>
            <ellipse class="cls-5" cx="186.4311" cy="62.2405" rx="1.4967" ry="1.4927"/>
            <ellipse class="cls-5" cx="195.3085" cy="66.6752" rx="1.4967" ry="1.4927"/>
            <ellipse class="cls-5" cx="204.1859" cy="62.2405" rx="1.4967" ry="1.4927"/>
            <ellipse class="cls-5" cx="213.0633" cy="66.6752" rx="1.4967" ry="1.4927"/>
            <ellipse class="cls-5" cx="221.9407" cy="62.2405" rx="1.4967" ry="1.4927"/>
            <ellipse class="cls-5" cx="230.8181" cy="66.6752" rx="1.4967" ry="1.4927"/>
            <ellipse class="cls-5" cx="239.6955" cy="62.2405" rx="1.4967" ry="1.4927"/>
            <ellipse class="cls-5" cx=".0057" cy="75.5447" rx="1.4967" ry="1.4927"/>
            <ellipse class="cls-5" cx="8.8831" cy="71.11" rx="1.4967" ry="1.4927"/>
            <ellipse class="cls-5" cx="17.7605" cy="75.5447" rx="1.4967" ry="1.4927"/>
            <ellipse class="cls-5" cx="26.6379" cy="71.11" rx="1.4967" ry="1.4927"/>
            <ellipse class="cls-5" cx="35.5153" cy="75.5447" rx="1.4967" ry="1.4927"/>
            <ellipse class="cls-5" cx="44.3927" cy="71.11" rx="1.4967" ry="1.4927"/>
            <ellipse class="cls-5" cx="53.2701" cy="75.5447" rx="1.4967" ry="1.4927"/>
            <ellipse class="cls-5" cx="62.1475" cy="71.11" rx="1.4967" ry="1.4927"/>
            <ellipse class="cls-5" cx="71.0249" cy="75.5447" rx="1.4967" ry="1.4927"/>
            <ellipse class="cls-5" cx="79.9023" cy="71.11" rx="1.4967" ry="1.4927"/>
            <ellipse class="cls-5" cx="88.7797" cy="75.5447" rx="1.4967" ry="1.4927"/>
            <ellipse class="cls-5" cx="97.6571" cy="71.11" rx="1.4967" ry="1.4927"/>
            <ellipse class="cls-5" cx="106.5345" cy="75.5447" rx="1.4967" ry="1.4927"/>
            <ellipse class="cls-5" cx="115.4119" cy="71.11" rx="1.4967" ry="1.4927"/>
            <ellipse class="cls-5" cx="124.2893" cy="75.5447" rx="1.4967" ry="1.4927"/>
            <ellipse class="cls-5" cx="133.1667" cy="71.11" rx="1.4967" ry="1.4927"/>
            <ellipse class="cls-5" cx="142.0441" cy="75.5447" rx="1.4967" ry="1.4927"/>
            <ellipse class="cls-5" cx="150.9215" cy="71.11" rx="1.4967" ry="1.4927"/>
            <ellipse class="cls-5" cx="159.7989" cy="75.5447" rx="1.4967" ry="1.4927"/>
            <ellipse class="cls-5" cx="168.6763" cy="71.11" rx="1.4967" ry="1.4927"/>
            <ellipse class="cls-5" cx="177.5537" cy="75.5447" rx="1.4967" ry="1.4927"/>
            <ellipse class="cls-5" cx="186.4311" cy="71.11" rx="1.4967" ry="1.4927"/>
            <ellipse class="cls-5" cx="195.3085" cy="75.5447" rx="1.4967" ry="1.4927"/>
            <ellipse class="cls-5" cx="204.1859" cy="71.11" rx="1.4967" ry="1.4927"/>
            <ellipse class="cls-5" cx="213.0633" cy="75.5447" rx="1.4967" ry="1.4927"/>
            <ellipse class="cls-5" cx="221.9407" cy="71.11" rx="1.4967" ry="1.4927"/>
            <ellipse class="cls-5" cx="230.8181" cy="75.5447" rx="1.4967" ry="1.4927"/>
            <ellipse class="cls-5" cx="239.6955" cy="71.11" rx="1.4967" ry="1.4927"/>
            <ellipse class="cls-5" cx=".0057" cy="84.4142" rx="1.4967" ry="1.4927"/>
            <ellipse class="cls-5" cx="8.8831" cy="79.9795" rx="1.4967" ry="1.4927"/>
            <ellipse class="cls-5" cx="17.7605" cy="84.4142" rx="1.4967" ry="1.4927"/>
            <ellipse class="cls-5" cx="26.6379" cy="79.9795" rx="1.4967" ry="1.4927"/>
            <ellipse class="cls-5" cx="35.5153" cy="84.4142" rx="1.4967" ry="1.4927"/>
            <ellipse class="cls-5" cx="44.3927" cy="79.9795" rx="1.4967" ry="1.4927"/>
            <ellipse class="cls-5" cx="53.2701" cy="84.4142" rx="1.4967" ry="1.4927"/>
            <ellipse class="cls-5" cx="62.1475" cy="79.9795" rx="1.4967" ry="1.4927"/>
            <ellipse class="cls-5" cx="71.0249" cy="84.4142" rx="1.4967" ry="1.4927"/>
            <ellipse class="cls-5" cx="79.9023" cy="79.9795" rx="1.4967" ry="1.4927"/>
            <ellipse class="cls-5" cx="88.7797" cy="84.4142" rx="1.4967" ry="1.4927"/>
            <ellipse class="cls-5" cx="97.6571" cy="79.9795" rx="1.4967" ry="1.4927"/>
            <ellipse class="cls-5" cx="106.5345" cy="84.4142" rx="1.4967" ry="1.4927"/>
            <ellipse class="cls-5" cx="115.4119" cy="79.9795" rx="1.4967" ry="1.4927"/>
            <ellipse class="cls-5" cx="124.2893" cy="84.4142" rx="1.4967" ry="1.4927"/>
            <ellipse class="cls-5" cx="133.1667" cy="79.9795" rx="1.4967" ry="1.4927"/>
            <ellipse class="cls-5" cx="142.0441" cy="84.4142" rx="1.4967" ry="1.4927"/>
            <ellipse class="cls-5" cx="150.9215" cy="79.9795" rx="1.4967" ry="1.4927"/>
            <ellipse class="cls-5" cx="159.7989" cy="84.4142" rx="1.4967" ry="1.4927"/>
            <ellipse class="cls-5" cx="168.6763" cy="79.9795" rx="1.4967" ry="1.4927"/>
            <ellipse class="cls-5" cx="177.5537" cy="84.4142" rx="1.4967" ry="1.4927"/>
            <ellipse class="cls-5" cx="186.4311" cy="79.9795" rx="1.4967" ry="1.4927"/>
            <ellipse class="cls-5" cx="195.3085" cy="84.4142" rx="1.4967" ry="1.4927"/>
            <ellipse class="cls-5" cx="204.1859" cy="79.9795" rx="1.4967" ry="1.4927"/>
            <ellipse class="cls-5" cx="213.0633" cy="84.4142" rx="1.4967" ry="1.4927"/>
            <ellipse class="cls-5" cx="221.9407" cy="79.9795" rx="1.4967" ry="1.4927"/>
            <ellipse class="cls-5" cx="230.8181" cy="84.4142" rx="1.4967" ry="1.4927"/>
            <ellipse class="cls-5" cx="239.6955" cy="79.9795" rx="1.4967" ry="1.4927"/>
            <ellipse class="cls-5" cx=".0057" cy="93.2837" rx="1.4967" ry="1.4927"/>
            <ellipse class="cls-5" cx="8.8831" cy="88.849" rx="1.4967" ry="1.4927"/>
            <ellipse class="cls-5" cx="17.7605" cy="93.2837" rx="1.4967" ry="1.4927"/>
            <ellipse class="cls-5" cx="26.6379" cy="88.849" rx="1.4967" ry="1.4927"/>
            <ellipse class="cls-5" cx="35.5153" cy="93.2837" rx="1.4967" ry="1.4927"/>
            <ellipse class="cls-5" cx="44.3927" cy="88.849" rx="1.4967" ry="1.4927"/>
            <ellipse class="cls-5" cx="53.2701" cy="93.2837" rx="1.4967" ry="1.4927"/>
            <ellipse class="cls-5" cx="62.1475" cy="88.849" rx="1.4967" ry="1.4927"/>
            <ellipse class="cls-5" cx="71.0249" cy="93.2837" rx="1.4967" ry="1.4927"/>
            <ellipse class="cls-5" cx="79.9023" cy="88.849" rx="1.4967" ry="1.4927"/>
            <ellipse class="cls-5" cx="88.7797" cy="93.2837" rx="1.4967" ry="1.4927"/>
            <ellipse class="cls-5" cx="97.6571" cy="88.849" rx="1.4967" ry="1.4927"/>
            <ellipse class="cls-5" cx="106.5345" cy="93.2837" rx="1.4967" ry="1.4927"/>
            <ellipse class="cls-5" cx="115.4119" cy="88.849" rx="1.4967" ry="1.4927"/>
            <ellipse class="cls-5" cx="124.2893" cy="93.2837" rx="1.4967" ry="1.4927"/>
            <ellipse class="cls-5" cx="133.1667" cy="88.849" rx="1.4967" ry="1.4927"/>
            <ellipse class="cls-5" cx="142.0441" cy="93.2837" rx="1.4967" ry="1.4927"/>
            <ellipse class="cls-5" cx="150.9215" cy="88.849" rx="1.4967" ry="1.4927"/>
            <ellipse class="cls-5" cx="159.7989" cy="93.2837" rx="1.4967" ry="1.4927"/>
            <ellipse class="cls-5" cx="168.6763" cy="88.849" rx="1.4967" ry="1.4927"/>
            <ellipse class="cls-5" cx="177.5537" cy="93.2837" rx="1.4967" ry="1.4927"/>
            <ellipse class="cls-5" cx="186.4311" cy="88.849" rx="1.4967" ry="1.4927"/>
            <ellipse class="cls-5" cx="195.3085" cy="93.2837" rx="1.4967" ry="1.4927"/>
            <ellipse class="cls-5" cx="204.1859" cy="88.849" rx="1.4967" ry="1.4927"/>
            <ellipse class="cls-5" cx="213.0633" cy="93.2837" rx="1.4967" ry="1.4927"/>
            <ellipse class="cls-5" cx="221.9407" cy="88.849" rx="1.4967" ry="1.4927"/>
            <ellipse class="cls-5" cx="230.8181" cy="93.2837" rx="1.4967" ry="1.4927"/>
            <ellipse class="cls-5" cx="239.6955" cy="88.849" rx="1.4967" ry="1.4927"/>
            <ellipse class="cls-5" cx=".0057" cy="102.1532" rx="1.4967" ry="1.4927"/>
            <ellipse class="cls-5" cx="8.8831" cy="97.7184" rx="1.4967" ry="1.4927"/>
            <ellipse class="cls-5" cx="17.7605" cy="102.1532" rx="1.4967" ry="1.4927"/>
            <ellipse class="cls-5" cx="26.6379" cy="97.7184" rx="1.4967" ry="1.4927"/>
            <ellipse class="cls-5" cx="35.5153" cy="102.1532" rx="1.4967" ry="1.4927"/>
            <ellipse class="cls-5" cx="44.3927" cy="97.7184" rx="1.4967" ry="1.4927"/>
            <ellipse class="cls-5" cx="53.2701" cy="102.1532" rx="1.4967" ry="1.4927"/>
            <ellipse class="cls-5" cx="62.1475" cy="97.7184" rx="1.4967" ry="1.4927"/>
            <ellipse class="cls-5" cx="71.0249" cy="102.1532" rx="1.4967" ry="1.4927"/>
            <ellipse class="cls-5" cx="79.9023" cy="97.7184" rx="1.4967" ry="1.4927"/>
            <ellipse class="cls-5" cx="88.7797" cy="102.1532" rx="1.4967" ry="1.4927"/>
            <ellipse class="cls-5" cx="97.6571" cy="97.7184" rx="1.4967" ry="1.4927"/>
            <ellipse class="cls-5" cx="106.5345" cy="102.1532" rx="1.4967" ry="1.4927"/>
            <ellipse class="cls-5" cx="115.4119" cy="97.7184" rx="1.4967" ry="1.4927"/>
            <ellipse class="cls-5" cx="124.2893" cy="102.1532" rx="1.4967" ry="1.4927"/>
            <ellipse class="cls-5" cx="133.1667" cy="97.7184" rx="1.4967" ry="1.4927"/>
            <ellipse class="cls-5" cx="142.0441" cy="102.1532" rx="1.4967" ry="1.4927"/>
            <ellipse class="cls-5" cx="150.9215" cy="97.7184" rx="1.4967" ry="1.4927"/>
            <ellipse class="cls-5" cx="159.7989" cy="102.1532" rx="1.4967" ry="1.4927"/>
            <ellipse class="cls-5" cx="168.6763" cy="97.7184" rx="1.4967" ry="1.4927"/>
            <ellipse class="cls-5" cx="177.5537" cy="102.1532" rx="1.4967" ry="1.4927"/>
            <ellipse class="cls-5" cx="186.4311" cy="97.7184" rx="1.4967" ry="1.4927"/>
            <ellipse class="cls-5" cx="195.3085" cy="102.1532" rx="1.4967" ry="1.4927"/>
            <ellipse class="cls-5" cx="204.1859" cy="97.7184" rx="1.4967" ry="1.4927"/>
            <ellipse class="cls-5" cx="213.0633" cy="102.1532" rx="1.4967" ry="1.4927"/>
            <ellipse class="cls-5" cx="221.9407" cy="97.7184" rx="1.4967" ry="1.4927"/>
            <ellipse class="cls-5" cx="230.8181" cy="102.1532" rx="1.4967" ry="1.4927"/>
            <ellipse class="cls-5" cx="239.6955" cy="97.7184" rx="1.4967" ry="1.4927"/>
            <ellipse class="cls-5" cx="8.8831" cy="106.5879" rx="1.4967" ry="1.4927"/>
            <ellipse class="cls-5" cx="26.6379" cy="106.5879" rx="1.4967" ry="1.4927"/>
            <ellipse class="cls-5" cx="44.3927" cy="106.5879" rx="1.4967" ry="1.4927"/>
            <ellipse class="cls-5" cx="62.1475" cy="106.5879" rx="1.4967" ry="1.4927"/>
            <ellipse class="cls-5" cx="79.9023" cy="106.5879" rx="1.4967" ry="1.4927"/>
            <ellipse class="cls-5" cx="97.6571" cy="106.5879" rx="1.4967" ry="1.4927"/>
            <ellipse class="cls-5" cx="115.4119" cy="106.5879" rx="1.4967" ry="1.4927"/>
            <ellipse class="cls-5" cx="133.1667" cy="106.5879" rx="1.4967" ry="1.4927"/>
            <ellipse class="cls-5" cx="150.9215" cy="106.5879" rx="1.4967" ry="1.4927"/>
            <ellipse class="cls-5" cx="168.6763" cy="106.5879" rx="1.4967" ry="1.4927"/>
            <ellipse class="cls-5" cx="186.4311" cy="106.5879" rx="1.4967" ry="1.4927"/>
            <ellipse class="cls-5" cx="204.1859" cy="106.5879" rx="1.4967" ry="1.4927"/>
            <ellipse class="cls-5" cx="221.9407" cy="106.5879" rx="1.4967" ry="1.4927"/>
            <ellipse class="cls-5" cx="239.6955" cy="106.5879" rx="1.4967" ry="1.4927"/>
          </g>
        </g>
      </g>
    </mask>
  </defs>
  <g class="cls-2">
    <g>
      <path d="M37.9326,47.9648v10.1123c0,23.5532,6.7847,38.7856,20.7373,38.7856,10.3682,0,18.6885-10.7524,25.8569-27.3931h2.3042l-.896,28.5454h-1.4082c-.896-1.6641-1.4082-2.5601-3.4561-2.5601-4.3521,0-11.3926,3.9683-25.4731,3.9683-27.1372,0-43.7783-14.3369-43.7783-44.9302C11.8193,23.5156,29.7402,7.1309,55.9814,7.1309c13.313,0,19.457,3.9683,23.9375,3.9683,2.0479,0,2.5601-.896,3.4561-2.5601h1.4077l1.0244,27.7773h-2.3042c-7.0405-15.7451-14.7207-26.6255-25.7295-26.6255-12.9282,0-19.8408,11.7764-19.8408,38.2739Z"/>
      <path d="M129.0679,35.9321c21.5054,0,31.7456,10.1123,31.7456,30.8496,0,20.9927-9.7285,32.6416-32.5137,32.6416-21.5049,0-32.3853-11.521-32.3853-31.4897,0-20.9932,12.5444-32.0015,33.1533-32.0015ZM136.2363,62.0454c0-13.8247-.3838-23.8091-7.5522-23.8091-7.8086,0-8.1924,9.9844-8.1924,24.4492v9.9844c0,14.8486.2559,24.4492,8.0645,24.4492,7.2964,0,7.6802-7.5522,7.6802-24.1934v-10.8804Z"/>
      <path d="M195.5,37.2124v11.7764c2.1758-6.4004,6.3999-13.0566,19.0728-13.0566,11.9043,0,19.8408,5.8882,19.8408,21.377v38.5298h7.1685v2.3042h-36.2256v-2.3042h5.248v-41.6021c0-10.8804-1.5361-12.1602-4.7363-12.1602-5.376,0-10.3682,8.064-10.3682,18.4326v35.3296h5.5039v2.3042h-36.3535v-2.3042h7.04v-56.3228h-7.04v-2.3037h30.8496Z"/>
      <path d="M249.0034,39.5161h-7.04v-2.3037h7.04v-16.5132l23.8091-5.8882v22.4014h16.6411v2.3037h-16.6411v43.1382c0,7.5522,1.1523,11.6484,5.6323,11.6484,6.1445,0,9.9849-5.6323,11.1367-14.3364l2.1763.2559c-1.1523,9.9844-5.3765,19.2012-20.9932,19.2012-12.6729,0-21.7612-3.7124-21.7612-19.585v-40.3223Z"/>
      <path d="M327.4688,68.0615v-9.8564c0-16.2568-1.4082-20.481-6.5283-20.481-2.3042,0-6.0166,1.0239-6.0166,5.1206,0,1.0239.2563,2.3037.7681,3.7119h3.2002c.6401,1.6641,1.0239,3.3281,1.0239,5.7603,0,6.0161-4.8643,9.9844-11.2642,9.9844-7.9365,0-11.0088-4.3521-11.0088-10.6245,0-10.7524,9.3447-15.7446,26.7534-15.7446,20.0967,0,26.8809,5.6323,26.8809,24.1934v25.9849c0,5.2485,1.5361,6.6562,3.7129,6.6562,2.3037,0,4.4795-2.4321,5.1201-13.1846l1.9199.1279c-.6396,15.3608-5.376,19.7134-16.3848,19.7134-10.3682,0-16.1289-3.2002-17.665-9.4727-2.0479,6.144-5.7598,9.4727-14.7207,9.4727s-18.9448-2.6885-18.9448-15.4888c0-12.9287,11.1367-15.873,29.4419-15.873h3.7119ZM327.4688,82.0142v-11.9043h-.8965c-5.376,0-7.936,3.8398-7.936,11.6484v2.0483c0,9.2163.896,10.4961,3.3281,10.4961s5.5044-4.0962,5.5044-12.2886Z"/>
      <path d="M388.6514,64.7334v6.6562c0,16.3848,2.9443,23.6812,12.9287,23.6812,11.6484,0,16.6406-9.8564,18.0488-16.7686l2.3047.2559c-1.6641,7.9365-5.8887,20.8652-27.2656,20.8652-19.7129,0-30.7217-11.0088-30.7217-30.9775,0-21.5054,13.0566-32.5137,34.1777-32.5137,15.6172,0,23.4248,6.6562,23.4248,16.2568,0,7.9365-4.2236,12.0327-10.624,12.0327-6.6562,0-11.3926-3.4565-11.3926-10.6245,0-1.1523.1279-2.8164.6396-4.6084h4.2246c.6396-1.792.8955-3.3281.8955-4.6084,0-4.3521-2.5596-6.144-6.1436-6.144-7.4248,0-10.4971,7.4243-10.4971,26.4971Z"/>
      <path d="M431.5293,39.5161h-7.041v-2.3037h7.041v-16.5132l23.8086-5.8882v22.4014h16.6406v2.3037h-16.6406v43.1382c0,7.5522,1.1523,11.6484,5.6328,11.6484,6.1436,0,9.9844-5.6323,11.1357-14.3364l2.1768.2559c-1.1523,9.9844-5.377,19.2012-20.9932,19.2012-12.6729,0-21.7607-3.7124-21.7607-19.585v-40.3223Z"/>
    </g>
  </g>
  <g>
    <path class="cls-5" d="M26.9326,40.9648v10.1123c0,23.5532,6.7847,38.7856,20.7373,38.7856,10.3682,0,18.6885-10.7524,25.8569-27.3931h2.3042l-.896,28.5454h-1.4082c-.896-1.6641-1.4082-2.5601-3.4561-2.5601-4.3521,0-11.3926,3.9683-25.4731,3.9683C17.4604,92.4233.8193,78.0864.8193,47.4932.8193,16.5156,18.7402.1309,44.9814.1309c13.313,0,19.457,3.9683,23.9375,3.9683,2.0479,0,2.5601-.896,3.4561-2.5601h1.4077l1.0244,27.7773h-2.3042c-7.0405-15.7451-14.7207-26.6255-25.7295-26.6255-12.9282,0-19.8408,11.7764-19.8408,38.2739Z"/>
    <path class="cls-5" d="M118.0679,28.9321c21.5054,0,31.7456,10.1123,31.7456,30.8496,0,20.9927-9.7285,32.6416-32.5137,32.6416-21.5049,0-32.3853-11.521-32.3853-31.4897,0-20.9932,12.5444-32.0015,33.1533-32.0015ZM125.2363,55.0454c0-13.8247-.3838-23.8091-7.5522-23.8091-7.8086,0-8.1924,9.9844-8.1924,24.4492v9.9844c0,14.8486.2559,24.4492,8.0645,24.4492,7.2964,0,7.6802-7.5522,7.6802-24.1934v-10.8804Z"/>
    <path class="cls-5" d="M184.5,30.2124v11.7764c2.1758-6.4004,6.3999-13.0566,19.0728-13.0566,11.9043,0,19.8408,5.8882,19.8408,21.377v38.5298h7.1685v2.3042h-36.2256v-2.3042h5.248v-41.6021c0-10.8804-1.5361-12.1602-4.7363-12.1602-5.376,0-10.3682,8.064-10.3682,18.4326v35.3296h5.5039v2.3042h-36.3535v-2.3042h7.04v-56.3228h-7.04v-2.3037h30.8496Z"/>
    <path class="cls-5" d="M238.0034,32.5161h-7.04v-2.3037h7.04V13.6992l23.8091-5.8882v22.4014h16.6411v2.3037h-16.6411v43.1382c0,7.5522,1.1523,11.6484,5.6323,11.6484,6.1445,0,9.9849-5.6323,11.1367-14.3364l2.1763.2559c-1.1523,9.9844-5.3765,19.2012-20.9932,19.2012-12.6729,0-21.7612-3.7124-21.7612-19.585v-40.3223Z"/>
    <path class="cls-5" d="M316.4688,61.0615v-9.8564c0-16.2568-1.4082-20.481-6.5283-20.481-2.3042,0-6.0166,1.0239-6.0166,5.1206,0,1.0239.2563,2.3037.7681,3.7119h3.2002c.6401,1.6641,1.0239,3.3281,1.0239,5.7603,0,6.0161-4.8643,9.9844-11.2642,9.9844-7.9365,0-11.0088-4.3521-11.0088-10.6245,0-10.7524,9.3447-15.7446,26.7534-15.7446,20.0967,0,26.8809,5.6323,26.8809,24.1934v25.9849c0,5.2485,1.5361,6.6562,3.7129,6.6562,2.3037,0,4.4795-2.4321,5.1201-13.1846l1.9199.1279c-.6396,15.3608-5.376,19.7134-16.3848,19.7134-10.3682,0-16.1289-3.2002-17.665-9.4727-2.0479,6.144-5.7598,9.4727-14.7207,9.4727s-18.9448-2.6885-18.9448-15.4888c0-12.9287,11.1367-15.873,29.4419-15.873h3.7119ZM316.4688,75.0142v-11.9043h-.8965c-5.376,0-7.936,3.8398-7.936,11.6484v2.0483c0,9.2163.896,10.4961,3.3281,10.4961s5.5044-4.0962,5.5044-12.2886Z"/>
    <path class="cls-5" d="M377.6514,57.7334v6.6562c0,16.3848,2.9443,23.6812,12.9287,23.6812,11.6484,0,16.6406-9.8564,18.0488-16.7686l2.3047.2559c-1.6641,7.9365-5.8887,20.8652-27.2656,20.8652-19.7129,0-30.7217-11.0088-30.7217-30.9775,0-21.5054,13.0566-32.5137,34.1777-32.5137,15.6172,0,23.4248,6.6562,23.4248,16.2568,0,7.9365-4.2236,12.0327-10.624,12.0327-6.6562,0-11.3926-3.4565-11.3926-10.6245,0-1.1523.1279-2.8164.6396-4.6084h4.2246c.6396-1.792.8955-3.3281.8955-4.6084,0-4.3521-2.5596-6.144-6.1436-6.144-7.4248,0-10.4971,7.4243-10.4971,26.4971Z"/>
    <path class="cls-5" d="M420.5293,32.5161h-7.041v-2.3037h7.041V13.6992l23.8086-5.8882v22.4014h16.6406v2.3037h-16.6406v43.1382c0,7.5522,1.1523,11.6484,5.6328,11.6484,6.1436,0,9.9844-5.6323,11.1357-14.3364l2.1768.2559c-1.1523,9.9844-5.377,19.2012-20.9932,19.2012-12.6729,0-21.7607-3.7124-21.7607-19.585v-40.3223Z"/>
  </g>
</svg>