<?xml version="1.0" encoding="UTF-8"?>
<svg id="_背景" data-name="背景" xmlns="http://www.w3.org/2000/svg" viewBox="0 0 5060 918.5">
  <defs>
    <style>
      .cls-1 {
        fill: none;
        stroke: #f29a98;
        stroke-miterlimit: 10;
        stroke-width: 4px;
      }

      .cls-2 {
        fill: #e9b3b2;
      }

      .cls-3 {
        fill: #f29a98;
      }
    </style>
  </defs>
  <path class="cls-3" d="M1345.176,729.2c-.856-1.727-3.558-.421-2.697,1.315,1.698,3.428-1.419,7.119-4.176,8.891-3.358,2.158-7.307,3.212-10.449,5.748-2.746,2.216-4.083,5.372-5.591,8.458-.647,1.324-1.367,2.712-2.415,3.766-1.363,1.37-3.072,1.749-4.967,1.697-2.233-.061-4.41-.303-6.63.102-2.069.378-4.085,1.149-5.926,2.156-3.83,2.093-6.983,5.114-9.881,8.334-2.934,3.26-5.69,6.715-9.044,9.565-3.343,2.841-7.25,4.856-11.051,7.001-2.13,1.202-4.237,2.454-6.223,3.883-1.934,1.392-3.662,3.016-5.398,4.641-3.145,2.944-6.776,6.548-11.442,6.07-1.101-.113-1.65.817-1.562,1.67-6.834,1.282-14.071.33-20.322-2.788-8.575-4.278-14.467-12.466-18.362-20.988-1.852-4.053-3.003-8.877-6.607-11.807-3.522-2.864-8.419-2.707-12.382-4.662-7.426-3.662-11.626-11.707-15.899-18.385-2.269-3.547-4.69-6.955-7.49-10.107-2.868-3.229-5.997-6.215-9.213-9.095-6.391-5.723-13.17-11.032-19.216-17.133-5.798-5.851-10.925-12.576-13.407-20.532-1.563-5.01-2.179-10.251-3.53-15.315-1.321-4.953-3.416-9.502-6.934-13.284-3.334-3.583-7.377-6.382-11.014-9.631-3.531-3.156-6.66-6.787-9.317-10.705-5.366-7.911-8.771-17.155-9.867-26.646-.273-2.361-.386-4.728-.359-7.104.022-1.922-2.968-2.185-2.99-.253-.11,9.777,2.116,19.498,6.44,28.269,2.151,4.365,4.819,8.498,7.923,12.246,3.165,3.823,6.842,7.054,10.675,10.185,3.92,3.203,7.835,6.53,10.155,11.128,2.394,4.743,3.202,10.065,4.274,15.214.976,4.689,2.273,9.267,4.473,13.541,1.927,3.745,4.383,7.217,7.114,10.417,11.333,13.277,27.105,22.179,37.228,36.577,4.867,6.924,8.587,14.92,15.222,20.413,1.578,1.306,3.319,2.396,5.185,3.243,2.057.934,4.248,1.367,6.42,1.937,2.257.593,4.348,1.396,5.863,3.253,1.47,1.803,2.275,4.08,3.134,6.214,3.587,8.914,8.896,17.511,16.874,23.124.846.595,1.724,1.142,2.619,1.654-5.831-.566-11.944,3.739-16.45,6.993-7.637,5.516-15.085,11.295-22.328,17.319-14.543,12.097-28.26,25.187-41.022,39.15-7.194,7.871-14.09,16.009-20.667,24.401-1.193,1.523,1.287,3.211,2.474,1.696,11.272-14.383,23.484-28.013,36.557-40.78,13.056-12.75,26.951-24.641,41.569-35.565,3.743-2.797,7.476-5.85,11.618-8.043,3.455-1.829,7.835-3.352,11.378-.922,1.301.893,2.669-.592,2.261-1.762,6.038,2.171,12.674,2.679,18.978,1.397,2.311-.47,4.569-1.194,6.737-2.118.58-.247.826-.702.838-1.176,1.37-.782,2.658-1.755,3.868-2.796,3.335-2.87,6.307-6.008,10.068-8.355,3.927-2.451,8.115-4.455,11.952-7.055,3.826-2.593,6.918-5.948,9.947-9.404,3.03-3.457,6.083-7.019,9.973-9.547,1.901-1.236,4.001-2.231,6.227-2.702,2.327-.492,4.583-.111,6.927-.135,3.977-.041,6.795-2.007,8.714-5.402,1.723-3.049,2.746-6.651,5.487-8.998,3.531-3.023,8.384-3.901,11.948-6.89,3.312-2.777,5.809-7.35,3.713-11.582Z"/>
  <path class="cls-2" d="M1681.218,99.955c.194-.556.077-1.194-.579-1.603l-37.572-23.432c-5.925-3.695-12.083-7.19-17.571-11.528-2.568-2.03-4.939-4.302-7.564-6.263-2.39-1.785-5.025-3.23-7.837-4.234-11.864-4.233-24.794-.979-35.446,4.954-5.717,3.184-11.03,7.08-16.137,11.156-4.925,3.93-9.645,8.115-14.138,12.532-10.203,10.03-19.24,21.23-26.876,33.329-1.029,1.631,1.441,3.333,2.474,1.696,6.62-10.489,14.28-20.315,22.889-29.246,8.665-8.988,18.286-17.467,28.823-24.205,10.084-6.449,22.301-11.212,34.394-8.287,2.668.645,5.269,1.643,7.623,3.062,2.788,1.681,5.213,3.87,7.679,5.977,5.137,4.388,10.896,7.86,16.612,11.425,13.04,8.133,26.081,16.265,39.121,24.398-.438.751-.317,1.789.752,2.063,3.159.811,4.874,3.927,5.141,7.015.354,4.086-1.783,8.104-3.541,11.643-.363.731.209,1.66.905,1.919.834.309,1.56-.184,1.919-.905,2.109-4.244,4.3-8.882,3.6-13.756-.434-3.027-2.085-6.054-4.673-7.71Z"/>
  <path class="cls-3" d="M2342.448,421.856c-20.693-8.293-41.451-16.595-61.25-26.893-9.878-5.138-19.508-10.767-28.689-17.072-9.626-6.611-18.76-13.897-28.112-20.882-18.295-13.666-38.356-24.84-56.257-39.038-16.588-13.156-31.195-28.753-48.76-40.682-8.345-5.667-17.362-9.991-26.475-14.253-8.77-4.102-17.612-8.328-25.217-14.409-1.838-1.47-3.574-3.049-5.214-4.736-.398-.41-.879-.52-1.323-.444-.085-.056-.177-.108-.281-.151-18.388-7.68-36.96-15.558-52.463-28.364-7.993-6.603-15.338-13.927-23.496-20.341-8.121-6.384-16.661-12.206-25.219-17.982-8.572-5.786-17.139-11.574-25.439-17.748-8.241-6.131-16.263-12.558-24.043-19.264-7.858-6.773-15.464-13.837-22.805-21.167-3.367-3.362-6.542-7.31-10.534-9.956-3.982-2.639-8.656-3.061-13.196-4.09-4.57-1.036-8.57-3.3-12.494-5.783-3.968-2.509-7.915-4.964-12.216-6.875-3.795-1.686-7.724-3.009-11.718-4.117-.106-.193-.262-.372-.491-.522-5.181-3.394-10.363-6.788-15.544-10.183-4.736-3.102-9.446-6.311-14.614-8.665-5.164-2.353-10.723-3.42-16.286-4.357-5.647-.951-11.227-2.04-16.719-3.689-3.357-1.008-6.62-2.218-9.848-3.53.187-.547.059-1.162-.611-1.539-5.095-2.862-10.468-5.205-16.065-6.895-2.787-.842-5.623-1.528-8.485-2.063-2.854-.534-5.879-.896-8.663.156-2.638.997-4.433,3.25-6.265,5.28-2.142,2.373-4.285,4.747-6.427,7.12-4.371,4.842-8.745,9.681-13.112,14.526-3.936,4.367-7.849,8.81-10.818,13.897-.165-.579-.344-1.154-.548-1.723-.12-.335-.395-.565-.719-.698-7.343-11.841-20.571-17.618-33.061-22.706-6.851-2.79-13.795-5.476-20.245-9.13-3.153-1.786-6.185-3.801-8.955-6.141-3.553-3.001-6.614-6.535-10.116-9.596-3.31-2.894-7.078-5.216-11.324-6.442-3.928-1.134-8.023-1.363-12.078-.943-8.549.886-16.697,4.566-24.047,8.85-8.341,4.861-16.131,10.735-23.837,16.529-8.235,6.191-16.282,12.631-24.127,19.309-15.633,13.306-30.465,27.553-44.384,42.642-1.746,1.893-3.477,3.8-5.196,5.719-.405.452-.606,1.029-.448,1.573-10.273,11.905-19.644,24.542-28.737,37.361-9.399,13.252-18.645,26.613-27.951,39.93-9.528,13.634-19.056,27.269-28.584,40.903-8.62,12.335-17.123,24.785-26.552,36.524-9.18,11.429-19.323,21.939-30.959,30.887-10.753,8.268-22.337,15.804-30.903,26.501-4.591,5.733-7.828,12.317-10.864,18.964-3.094,6.773-6.218,13.527-9.496,20.213-6.655,13.573-13.788,26.911-21.37,39.989-14.989,25.857-31.736,50.695-50.096,74.278-2.218,2.849-4.461,5.679-6.724,8.491-1.212,1.507,1.27,3.194,2.474,1.696,18.738-23.287,35.899-47.833,51.311-73.443,7.705-12.804,14.975-25.87,21.794-39.167,3.399-6.629,6.692-13.312,9.866-20.051,3.226-6.848,6.087-13.922,9.767-20.544,6.9-12.417,17.911-21,29.115-29.332,5.656-4.206,11.295-8.428,16.547-13.138,5.38-4.825,10.396-10.038,15.16-15.469,9.672-11.025,18.205-22.983,26.61-34.983,9.504-13.571,18.981-27.16,28.472-40.74,9.415-13.473,18.822-26.952,28.247-40.419,9.142-13.063,18.374-26.083,28.416-38.477,2.409-2.973,4.866-5.905,7.371-8.796.388-.447.42-.915.247-1.307,13.227-14.706,27.292-28.655,42.131-41.734,14.994-13.216,30.743-25.759,47.295-36.977,12.742-8.635,31.389-18.538,46.401-9.465,3.904,2.359,7.054,5.684,10.271,8.867,2.858,2.828,5.844,5.471,9.184,7.718,6.007,4.043,12.681,6.995,19.353,9.749,12.566,5.188,26.944,9.818,35.56,21.028,1.031,1.342,1.939,2.758,2.751,4.242.023.041.051.073.075.11.892,2.982,1.111,6.139.711,9.225-.104.803.587,1.556,1.368,1.622.84.07,1.517-.562,1.622-1.368.262-2.019.264-4.045.028-6.044.256-.099.489-.299.662-.631,2.547-4.872,6.012-9.145,9.644-13.243,4.002-4.516,8.08-8.967,12.124-13.446l6.262-6.938c1.855-2.055,3.628-4.261,5.648-6.158,2.204-2.069,4.752-2.392,7.666-2.02,2.78.354,5.539,1.018,8.236,1.767,1.787.496,3.552,1.064,5.298,1.687-2.858.219-5.503,1.451-8.009,2.768-9.283,4.878-17.783,11.281-25.039,18.85-4.083,4.26-7.8,8.87-11.052,13.795-3.217,4.871-6.072,10.138-10.801,13.739-1.536,1.17.43,3.437,1.964,2.269,4.034-3.072,6.835-7.335,9.533-11.555,2.767-4.33,5.715-8.505,9.069-12.404,6.715-7.805,14.762-14.535,23.632-19.762,2.305-1.359,4.669-2.718,7.145-3.743,2.753-1.141,5.388-1.264,8.2-.267,2.555.906,4.975,2.188,7.478,3.227,2.561,1.064,5.161,2.032,7.793,2.904,5.245,1.737,10.618,3.072,16.056,4.047,5.45.978,10.989,1.654,16.248,3.464,5.789,1.992,10.912,5.395,15.998,8.726,3.725,2.44,7.449,4.88,11.174,7.32-2.588-.544-5.186-1.034-7.782-1.489-2.086-.366-4.175-.71-6.265-1.053-4.5-2.335-8.741-5.185-13.508-6.979-6.393-2.407-13.181-2.123-19.668-.231-6.898,2.012-13.296,5.34-19.911,8.085-3.409,1.415-6.876,2.659-10.484,3.459-3.686.818-7.442,1.285-11.112,2.179-3.476.847-6.812,2.097-9.759,4.154-2.299,1.605-4.251,3.673-5.938,5.902-3.486,4.604-5.84,9.93-8.764,14.882-1.448,2.453-3.032,4.872-4.97,6.97-2.356,2.553-5.231,4.537-7.789,6.87-4.874,4.447-7.806,10.572-7.55,17.243.006.162.021.321.031.482-1.083-1.812-2.034-3.72-2.603-5.756-.628-2.245-.907-4.572-1.189-6.88-.553-4.528-1.158-9.263-4.05-12.978-2.222-2.855-5.461-4.546-8.949-5.301-7.292-1.58-14.793.276-22.152-.445-9.02-.884-16.951-5.884-25.631-8.091-1.063-.27-2.128-.484-3.193-.655.032-.099.055-.201.063-.304.071-.851-.564-1.503-1.368-1.622-4.145-.612-8.161-1.876-11.937-3.686,1.998-2.792,3.816-5.712,5.425-8.754.378-.715.333-1.591-.389-2.085-.609-.418-1.704-.331-2.085.389-3.798,7.179-8.702,13.724-14.569,19.341-.248.237-.385.505-.443.777-18.033,8.177-31.208,24.356-49.751,31.549-2.243.87-4.541,1.557-6.889,2.078-1.881.418-1.339,3.369.55,2.949,18.908-4.2,32.247-18.982,48.139-28.873,7.975-4.964,17.052-9.18,26.617-9.314,8.996-.126,16.849,3.996,25.131,6.888,3.909,1.365,7.947,2.372,12.099,2.538,3.603.143,7.204-.16,10.803-.275,6.758-.217,14.557.243,17.692,7.317,1.839,4.151,1.745,8.917,2.533,13.321.819,4.579,2.84,8.515,5.468,12.31,2.353,3.399,5.077,6.585,6.833,10.356,1.413,3.036,2.369,6.42,2.411,9.786.038,3-.597,6.131-2.606,8.46-2.43,2.816-6.164,3.665-9.728,3.104-8.945-1.41-14.167-9.588-19.973-15.615-1.548-1.607-3.191-3.122-4.973-4.468-1.544-1.166-3.235,1.312-1.696,2.474,5.095,3.85,8.781,9.245,13.366,13.605-.724.149-1.361.757-1.205,1.695.676,4.058,1.552,8.518,4.842,11.324,2.757,2.352,7.148,3.064,10.052.589,1.469-1.252-.49-3.524-1.964-2.269-.933.795-1.998.971-3.289.753-1.111-.187-2.394-.842-3.217-1.664-2.291-2.287-2.885-5.724-3.396-8.813,1.543,1.287,3.199,2.444,5.058,3.372,2.322,1.159,4.93,1.987,7.556,2.166-.411.193-.724.581-.76,1.18-.278,4.654,3.945,7.73,8.237,7.976,4.454.256,9.096-1.427,12.845-3.729,7.508-4.609,13.352-12.569,15.194-21.215,1.07-5.021.549-10.166-2.342-14.491-.188-.282-.414-.448-.652-.529-.174-.227-.406-.408-.672-.504-.798-.287-1.605.156-1.919.905-2.316,5.522-5.242,10.756-8.712,15.636-1.121,1.576,1.355,3.271,2.474,1.696,3.105-4.367,5.755-9.044,7.977-13.918,3.124,6.199.63,14.097-2.825,19.646-3.836,6.162-9.768,11.41-16.975,13.068-2.142.492-4.508.769-6.604-.065-1.718-.684-3.152-2.299-3.037-4.224.042-.699-.327-1.175-.817-1.409,1.125-.028,2.245-.177,3.339-.492,3.497-1.006,6.326-3.402,7.912-6.667,3.039-6.254,1.22-14.246-1.915-20.097-1.357-2.532-3.092-4.823-4.795-7.135.27-.291.405-.704.266-1.225-1.609-6.046-.164-12.688,4.057-17.364,2.326-2.577,5.23-4.546,7.786-6.876,2.122-1.935,3.955-4.154,5.548-6.54,3.093-4.63,5.36-9.744,8.311-14.46,3.135-5.01,7.04-9.057,12.718-11.073,3.412-1.212,7.036-1.739,10.586-2.38,3.467-.627,6.855-1.436,10.187-2.593,6.561-2.279,12.723-5.535,19.193-8.042,6.138-2.378,12.829-4.067,19.402-2.612,5.804,1.285,10.794,4.762,15.961,7.518.074.039.149.077.223.116.211.226.5.396.876.458,0,0,0,0,0,0,.023.012.045.024.067.035.007-.007.014-.014.021-.021,9.403,1.543,18.864,3.113,27.892,6.25,4.556,1.583,8.936,3.573,13.058,6.084,3.941,2.4,7.723,5.082,11.937,6.999,4.261,1.939,8.817,2.285,13.275,3.518,4.779,1.322,7.912,4.535,11.279,7.977,7.166,7.325,14.598,14.386,22.262,21.186,15.449,13.707,31.913,26.069,49.014,37.628,8.495,5.742,17.042,11.419,25.263,17.552,8.31,6.198,15.904,13.121,23.65,19.99,7.542,6.688,15.62,12.505,24.439,17.399,8.69,4.822,17.777,8.872,26.921,12.743,2.24.948,4.485,1.886,6.73,2.824.266.111.511.135.735.107,13.92,14.054,33.566,19.339,50.236,29.181,18.305,10.808,33.191,26.217,49.31,39.858,17.521,14.828,37.467,26.134,56.075,39.461,9.493,6.799,18.598,14.118,28.038,20.988,9.116,6.636,18.624,12.67,28.501,18.109,19.641,10.816,40.366,19.463,61.14,27.827,2.514,1.012,5.029,2.02,7.544,3.028,1.797.72,2.802-2.107,1.013-2.824ZM1598.682,107.68c1.453-1.593,2.834-3.248,4.151-4.952.156.16.343.299.556.402,2.037.987,4.146,1.808,6.306,2.464-3.725.212-7.413.945-11.013,2.087Z"/>
  <path class="cls-3" d="M1666.095,153.391c-.577-.682-1.445-.598-2.116-.153-9.842,6.542-23.032,7.077-33.702,2.286-3.081-1.383-5.915-3.266-8.433-5.512-.634-.565-1.634-.179-2.085.389-9.391,11.822-24.125,19.163-39.228,19.484-.604.013-1.383.309-1.539.988-4.219,18.368-16.183,34.671-32.287,44.434-4.506,2.732-9.326,4.98-14.346,6.59-.664.213-1.131.628-1.22,1.348-1.546,12.466-7.19,23.879-12.563,35.068-6.063,12.627-12.127,25.254-18.19,37.88-3.408,7.098-6.817,14.196-10.225,21.294-.837,1.742,1.996,2.738,2.824,1.013,6.099-12.702,12.198-25.403,18.298-38.105,3.085-6.425,6.171-12.851,9.256-19.276,2.747-5.72,5.555-11.421,7.953-17.299,2.541-6.228,4.559-12.681,5.496-19.352,18.295-6.199,33.549-19.769,42.217-37.009,2.344-4.662,4.132-9.582,5.37-14.648,15.237-.692,29.762-7.817,39.609-19.466,9.526,7.837,23.123,10.308,34.899,6.793,3.525-1.052,6.799-2.596,9.862-4.631.68-.452.628-1.554.153-2.116Z"/>
  <path class="cls-3" d="M2251.573,599.03c-16.836-7.946-31.304-20.059-44.08-33.453-13.672-14.333-25.521-30.243-37.912-45.661-7.276-9.054-14.761-17.951-22.878-26.269-.327-.335-.71-.47-1.083-.466-19.101-16.137-38.159-32.446-54.598-51.363-8.755-10.074-16.937-20.648-25.168-31.15-8.305-10.597-16.533-21.255-24.682-31.973-4.572-6.012-9.119-12.043-13.641-18.093-3.893-5.208-7.676-10.749-13.213-14.359-.55-.359-1.107-.304-1.542-.041-16.489-12.177-33.955-24.402-54.725-27.32-5.182-.728-10.436-.772-15.629-.121-5.851.733-11.59,2.213-17.469,2.742-11.39,1.025-22.834-2.157-33.883-4.483-6.458-1.36-12.918-2.712-19.375-4.08-5.099-1.081-10.634-2.34-14.551-6.02-.452-.425-.997-.503-1.48-.374-.15-.197-.353-.368-.632-.484-17.34-7.205-36.225-10.361-54.964-9.234-10.449.628-20.761,2.551-31.025,4.515-9.962,1.906-19.931,3.905-29.572,7.109-5.409,1.798-10.583,4.06-15.667,6.629-4.737,2.394-9.491,4.85-14.647,6.199-6.687-7.065-10.088-16.826-9.684-26.516.053-1.275.175-2.533.361-3.772.038.108.073.217.111.324.051-.447.124-.89.224-1.33.054-.299.101-.601.164-.896.196-.927.396-1.908.811-2.771.017-.064.042-.126.063-.189-.056-.132-.107-.266-.164-.397,2.001-6.399,5.804-12.111,10.988-16.662,7.508-6.591,17.025-10.52,26.529-13.253,11.387-3.274,23.203-5.179,34.895-6.984,7.359-1.136,14.741-2.115,22.142-2.936,6.075-.674,13.331-2.152,19.06.752-.345,3.808-.334,7.641.268,11.508,1.014,6.513,3.706,12.874,8.51,17.492,1.38,1.327,3.664-.622,2.269-1.964-8.874-8.531-9.272-21.728-7.207-33.082,1.18-6.485,3.087-12.808,4.572-19.225,1.492-6.448,2.646-12.972,3.422-19.545.889-7.532,1.285-15.115,1.211-22.698-.019-1.917-3.009-2.184-2.99-.253.135,13.78-1.289,27.589-4.361,41.026-1.786,7.812-4.24,15.677-5.345,23.651-4.917-2.004-10.273-1.62-15.516-1.085-7.078.723-14.141,1.592-21.183,2.605-12.57,1.807-25.261,3.78-37.551,7.032-10.195,2.697-20.389,6.507-28.755,13.086-5.648,4.441-10.097,10.137-12.762,16.654-1.584-3.164-3.381-6.202-5.379-9.056-6.629-9.47-16.11-17.014-27.577-19.448-7.558-1.604-15.334-.818-22.993-1.109-8.07-.307-16.112-1.327-24.196-.753-16.261,1.155-31.377,8.225-45.647,15.609-1.607.832-3.209,1.672-4.811,2.514-.484-3.252-1.181-6.466-2.209-9.605-1.416-4.325-3.465-8.417-6.316-11.981-2.78-3.474-6.3-6.333-10.075-8.663-4.413-2.724-9.189-4.806-14.001-6.71-1.8-.712-2.806,2.115-1.013,2.824,7.891,3.122,16.011,6.8,21.761,13.259,5.892,6.617,8.246,15.35,9.232,23.968.577,5.041.707,10.116.787,15.186.03,1.915,3.021,2.183,2.99.253-.081-5.118-.197-10.303-.756-15.421.128-.029.258-.071.393-.141,13.552-7.121,27.447-14.422,42.659-17.183,7.607-1.381,15.182-1.156,22.859-.64,3.787.255,7.574.515,11.371.551,3.599.034,7.199-.075,10.798.045,6.147.204,12.094,1.305,17.608,4.11,4.786,2.435,9.008,5.897,12.583,9.883,4.391,4.896,7.872,10.575,10.532,16.616-.481,1.722-.849,3.486-1.079,5.294-1.186,9.334.994,19.114,6.16,26.971-.171.555-.356,1.107-.583,1.649-2.024,4.854-7.333,8.968-12.681,8.198-31.911-20.927-72.522-19.996-109.028-14.314-19.898,3.097-40.633,6.355-58.917,15.214-9.308,4.51-16.974,10.844-24.77,17.532-4.014,3.444-8.138,6.72-12.709,9.402-4.719,2.769-9.716,5.026-14.764,7.119-18.278,7.578-36.964,14.263-54.005,24.484-16.144,9.683-29.463,22.379-39.649,38.219-9.783,15.213-16.828,31.956-24.42,48.312-3.881,8.361-7.913,16.661-12.536,24.641-4.865,8.397-10.292,16.448-15.657,24.528-10.472,15.77-20.317,31.741-26.06,49.905-4.97,15.718-8.022,32.862-17.66,46.603-2.109,3.008-4.55,5.72-7.279,8.164-6.269-8.66-11.849-17.873-16.795-27.256-3.694-7.009-7.029-14.208-9.983-21.559-2.745-6.832-4.979-13.828-7.413-20.771-2.224-6.342-4.749-12.624-8.501-18.234-1.822-2.724-3.938-5.219-6.391-7.396-2.588-2.296-5.523-4.033-8.534-5.709-3.068-1.709-6.271-3.418-8.755-5.946-1.903-1.936-3.332-4.251-4.642-6.612-2.531-4.561-4.655-9.718-8.686-13.201-1.868-1.614-4.096-2.59-6.537-2.925-.09-.012-.173-.011-.256-.009-.732-.503-1.905-.435-2.316.644-1.766,4.64-5.148,8.631-9.446,11.091-.703.402-1.063,1.243-.691,2.006.174.358.516.635.902.767-7.222,2.828-14.395,5.822-21.111,9.719-4.073,2.364-7.945,5.056-11.522,8.122-3.518,3.015-6.78,6.309-10.056,9.58-3.223,3.217-6.472,6.418-9.987,9.32-2.865,2.366-5.871,4.555-8.91,6.69-6.138,4.313-12.464,8.403-18.18,13.281-6.163,5.258-11.482,11.542-14.293,19.231-.664,1.817,2.161,2.827,2.824,1.013,5.035-13.772,18.196-21.937,29.675-29.905,6.562-4.555,12.737-9.385,18.444-14.991,6.534-6.42,12.822-13.084,20.62-18.01,8.823-5.573,18.609-9.356,28.305-13.099,1.799-.694.479-3.39-1.315-2.697-.64.247-1.281.496-1.921.744,3.892-2.601,6.995-6.248,8.918-10.52.021.004.039.012.061.015,5.202.713,8.026,5.626,10.302,9.831,2.789,5.153,5.324,10.44,10.071,14.106,2.869,2.216,6.15,3.804,9.269,5.624,2.984,1.741,5.716,3.767,8.066,6.311,4.613,4.995,7.614,11.206,10.061,17.488,2.621,6.729,4.66,13.666,7.184,20.431,2.823,7.566,6.047,14.982,9.649,22.209,7.214,14.475,15.939,28.26,26.036,40.898,4.99,6.246,10.485,11.669,17.169,16.085,3.258,2.153,6.568,4.259,9.389,6.985,2.715,2.624,5.047,5.615,7.163,8.735,4.647,6.851,8.607,14.21,12.802,21.342,4.487,7.629,8.974,15.258,13.461,22.887,1.143,1.943,2.286,3.886,3.429,5.83.915,1.556,1.787,3.231,3.04,4.551,2.402,2.529,5.785,3.02,9,1.886,5.544-1.955,8.61-7.708,9.139-13.276.561-5.902-1.034-11.879-3.03-17.378-2.288-6.305-5.167-12.467-8.034-18.527-5.94-12.551-13.114-24.893-23.64-34.166-2.612-2.301-5.411-4.36-8.376-6.184-3.117-1.918-6.462-3.693-8.966-6.421-4.264-4.645-5.656-11.097-8.814-16.425-1.528-2.579-3.439-4.877-5.984-6.503-1.626-1.039-3.327,1.432-1.696,2.474,5.205,3.326,7.045,9.651,9.534,14.955,1.304,2.78,2.835,5.536,4.976,7.766,2.558,2.665,5.773,4.502,8.897,6.41,11.785,7.199,20.157,18.165,26.687,30.148,3.311,6.077,6.194,12.375,8.955,18.717,2.456,5.641,4.955,11.289,6.065,17.38.931,5.109.96,10.978-2.545,15.179-1.79,2.145-4.839,4.098-7.749,3.32-1.617-.432-2.682-1.793-3.533-3.151-1.09-1.74-2.093-3.539-3.134-5.309-4.402-7.485-8.804-14.97-13.207-22.455-4.207-7.154-8.286-14.405-12.686-21.443-4.015-6.422-8.601-12.297-14.833-16.706-3.146-2.226-6.481-4.179-9.52-6.556-3.077-2.408-5.824-5.203-8.388-8.143-2.764-3.17-5.403-6.466-7.938-9.851,11.942-10.602,17.162-26.039,21.503-40.968,2.341-8.05,4.504-16.175,7.53-24.005,3.481-9.007,8.109-17.505,13.158-25.719,9.981-16.236,21.419-31.518,30.209-48.477,8.291-15.996,14.947-32.779,23.285-48.75,8.399-16.086,18.7-31.053,32.999-42.457,15.348-12.241,33.519-20.272,51.59-27.589,9.484-3.84,19.237-7.25,28.285-12.069,9.042-4.817,16.266-11.715,24.128-18.148,15.874-12.991,35.682-18.388,55.475-22.14,39.173-7.426,83.141-13.223,119.704,6.855,1.3.714,2.573,1.47,3.834,2.245.028.524.307,1.03.936,1.276.639.25,1.286.43,1.934.561.078.052.154.107.232.159.259-.068.531-.107.814-.105.166.001.333-.005.499-.01,1.172-.088,2.328-.292,3.483-.507.411-.077.803-.035,1.166.082,2.875-.89,5.52-2.688,7.52-4.97,1.19-1.358,2.088-2.871,2.777-4.472.656.812,1.334,1.607,2.062,2.361.16.165.333.28.512.357.278.451.781.738,1.465.573,9.494-2.296,17.702-7.996,26.753-11.48,9.446-3.636,19.375-5.817,29.283-7.763,10.063-1.976,20.165-3.973,30.381-4.974,9.446-.925,18.965-.774,28.372.504,10.363,1.407,20.501,4.185,30.157,8.197.348.144.664.151.938.067,3.495,3.247,7.89,4.944,12.466,6.074,5.43,1.34,10.95,2.362,16.422,3.515,5.721,1.205,11.44,2.427,17.165,3.611,5.624,1.163,11.301,2.224,17.051,2.472,11.433.492,22.367-3.757,33.787-3.293,10.491.426,20.666,3.723,30.015,8.371,11.156,5.547,21.211,13.041,31.189,20.431.562.416,1.139.355,1.577.057,3.863,3.111,6.792,7.231,9.75,11.192,4.028,5.394,8.075,10.774,12.142,16.138,8.134,10.729,16.347,21.399,24.637,32.008,8.227,10.529,16.416,21.115,25.064,31.304,8.369,9.861,17.406,19.101,26.881,27.901,10.533,9.783,21.514,19.064,32.495,28.336.155.131.313.213.469.267,13.819,14.445,25.817,30.473,38.32,46.039,12.026,14.972,24.702,29.579,39.694,41.681,8.161,6.588,16.988,12.318,26.48,16.798,1.748.825,2.745-2.007,1.013-2.824Z"/>
  <path class="cls-3" d="M1820.27,134.217c-4.954.269-9.917.374-14.878.322-4.455-.047-9.016-.05-13.181-1.837-7.039-3.021-11.725-9.845-15.941-15.92-.749-1.079-2.036-.506-2.436.467-.392-.323-.934-.462-1.532-.199-6.2,2.732-12.584,5.015-19.125,6.783-3.015.815-6.028,1.542-9.125.716-2.833-.755-5.365-2.301-7.845-3.816-1.644-1.004-3.348,1.465-1.696,2.474,1.052.643,2.118,1.291,3.209,1.894-.766-.096-1.639.31-1.795,1.289-2.345,14.681-16.836,22.562-29.567,26.956-2.112.729-4.244,1.404-6.381,2.055-.864.264-3.131,1.095-3.624-.038-.77-1.77-3.468-.456-2.697,1.315,1.58,3.633,6.334,1.851,9.058.994,4.277-1.346,8.535-2.788,12.63-4.623,7.35-3.292,14.22-7.99,18.832-14.706,2.417-3.52,4.065-7.479,4.739-11.699.069-.43-.035-.771-.233-1.026,1.398.721,2.842,1.344,4.357,1.757,3.306.901,6.486.511,9.757-.343,7.12-1.86,14.088-4.317,20.821-7.283.323-.142.541-.35.674-.588,3.501,5.034,7.214,10.12,12.247,13.73,2.655,1.905,5.637,3.256,8.837,3.922,3.759.782,7.667.718,11.489.73,4.655.014,9.308-.122,13.956-.374.816-.044,1.327-1.026,1.199-1.75-.155-.884-.944-1.243-1.75-1.199Z"/>
  <path class="cls-3" d="M1847.542,184.167c-2.864-2.714-6.112-4.919-9.736-6.493-3.702-1.608-7.633-2.508-11.091-4.664-6.568-4.095-11.085-10.663-14.071-17.684-1.97-4.632-3.302-9.494-4.438-14.389-.435-1.875-3.387-1.335-2.949.55,1.963,8.454,4.586,16.893,9.586,24.086,2.163,3.113,4.771,5.924,7.777,8.24,3.151,2.427,6.672,3.963,10.404,5.264,4.563,1.59,8.714,3.701,12.25,7.053,1.388,1.315,3.673-.632,2.269-1.964Z"/>
  <path class="cls-3" d="M1939.047,289.536c-16.837-2.093-29.706-14.797-39.715-27.534-12.435-15.825-23.117-33.216-32.427-51.037-5.42-10.375-10.33-21.012-14.728-31.86-.725-1.788-3.421-.471-2.697,1.315,7.98,19.685,17.668,38.669,28.955,56.665,5.421,8.644,11.149,17.142,17.357,25.242,5.237,6.833,10.988,13.347,17.702,18.771,7.319,5.912,15.888,10.259,25.299,11.429,1.92.239,2.165-2.752.253-2.99Z"/>
  <path class="cls-3" d="M1810.91,160.681c-2.842-1.126-5.714-2.248-8.356-3.801-2.834-1.666-5.15-3.796-7.1-6.441-2.061-2.796-3.805-5.838-5.644-8.782-1.98-3.17-3.959-6.339-5.939-9.509-1.011-1.619-3.722-.326-2.698,1.315.378.605.756,1.21,1.133,1.815-.239-.076-.498-.11-.762-.096-8.118.447-16.366-2.717-22.148-8.414-1.366-1.345-3.649.604-2.269,1.964,6.621,6.522,15.7,9.909,24.967,9.399.648-.036,1.098-.662,1.194-1.281,1.406,2.252,2.813,4.504,4.219,6.756,1.922,3.078,3.751,6.258,5.944,9.155,4.178,5.52,10.173,8.26,16.444,10.745,1.8.713,2.806-2.114,1.013-2.824Z"/>
  <g>
    <path class="cls-3" d="M2178.023,302.197c1.236,3.788,1.142,7.976-1.77,10.961-2.483,2.559-6.33,3.531-9.71,2.422-1.191-.388-1.184-1.712-.526-2.435.344-.39.894-.604,1.535-.388,2.654.868,5.729-.265,7.282-2.569,2.018-2.981.599-6.877-.752-9.808-3.148-6.839-7.147-13.335-11.562-19.439-.277.367-.644.69-1.105.949-4.177,2.254-7.888-3.238-10.142-5.89-3.151-3.695-6.035-7.592-8.715-11.649-.442-.68.04-1.696.693-2.011l.201-.068c-.699-.368-1.441-.636-2.278-.653-.963-.034-1.917.195-2.833.518,2.025,2.023,3.554,4.708,5.145,6.964l3.817,5.463c.664.944,1.329,1.888,1.984,2.834.555.792,1.193,1.598,1.424,2.562.364,1.57-.324,3.061-1.518,4.078-1.491,1.275-3.527,1.431-5.17,2.44-1.093.682-2.03-.303-2.048-1.327-1.483.338-3.02.604-4.53.693.146.074.286.17.425.317,8.454,8.89,17.202,17.502,26.221,25.819.442.406.528.868.391,1.28-.294.93-1.688,1.586-2.659.689-9.02-8.327-17.768-16.938-26.222-25.828-.795-.828-.315-1.854.484-2.257-.308-.014-.61.002-.912-.033-1.087-.102-1.85-.54-2.435-1.163-6.857.923-13.438,3.108-19.667,6.142-12.336,6.015-23.128,14.742-33.81,23.246-10.152,8.069-20.207,16.659-27.02,27.849-.559.928-1.579.803-2.196.227-1.506,3.648-3.231,7.215-4.93,10.706-.127.247-.286.43-.474.567,1.907.895,3.872,1.668,5.898,2.277.979.285,1.201,1.475.736,2.253-1.864,3.094-3.93,6.033-6.194,8.836-.68.829-1.746.672-2.349.113-.23.023-.463.025-.724-.007-.335-.049-.667-.14-.991-.242.144.39.146.837-.105,1.291-3.344,6.066-4.384,13.198-3.057,19.98.213,1.089-.918,2.114-1.985,1.683-4.794-1.923-9.601-3.804-14.382-5.77-3.57-1.47-7.348-3.288-9.501-6.65-2.386-3.736-1.63-8.19.163-11.993,1.627-3.437,3.709-6.674,5.749-9.913-.007-.039-.023-.067-.03-.106-.062-.334.003-.855.238-1.123.946-1.092,1.89-2.194,2.835-3.286.152-.222.346-.38.577-.504.059-.011.116-.032.163-.051-.192-.32-.402-.627-.596-.957-1.087.172-2.322-1.103-1.537-2.348.957-1.521.788-3.463,1.521-5.095.652-1.465,1.906-2.868,3.565-3.137,1.728-.282,3.058.742,4.089,2.014.251.309.512.617.773.924,1.848-5.309,3.782-10.644,6.739-15.458,2.608-4.23,6.203-8.41,10.986-10.198.313-.12.666-.246,1.04-.367.064-.256.199-.515.431-.742,4.924-4.795,10.026-9.399,15.288-13.798,17.561-14.65,37.026-27.437,58.177-36.256-.409-1.429,1.504-2.844,2.516-1.456.083.117.156.235.237.342.104-.04.199-.078.304-.118-.534-.684-.549-1.8.449-2.281,3.164-1.526,6.584-2.714,9.826-1.203,2.11-.902,4.4-1.716,6.715-1.355,2.411.384,4.333,1.958,6.193,3.422,3.728,2.916,7.237,6.127,10.457,9.595,1.414,1.527,3.141,3.147,3.972,5.098.276.06.54.225.77.528,2.959,3.975,5.703,8.101,8.209,12.374,2.324,3.951,4.787,8.099,6.215,12.482ZM2160.26,278.91c.408-1.195-1.76-3.11-2.427-3.85-1.226-1.389-2.505-2.737-3.827-4.047-2.545-2.516-5.262-4.867-8.107-7.032,2.277,3.37,4.735,6.624,7.359,9.725,1.227,1.45,2.471,2.886,3.783,4.248.492.508,2.703,2.436,3.22.956ZM2146.956,281.972c1.5-1.012.447-2.077-.357-3.219-1.984-2.834-3.967-5.669-5.949-8.493-1.622-2.312-3.162-5.168-5.448-6.898-2.414-1.818-5.078-.884-7.549.269.636.685.715,1.871-.395,2.301-.199.078-.406.167-.605.245,2.241,3.397,4.209,6.966,5.832,10.702.516,1.185.995,2.388,1.436,3.608.118.304.215.662.328.997l.418-.048c1.001-.085,1.621.674,1.725,1.448,2.31.006,4.774-.586,6.943-1.173.951-.249,1.546.383,1.676,1.132.68-.229,1.356-.477,1.943-.871ZM2096.272,297.38c10.548-7.309,22.184-13.59,34.967-15.517-.169-.467-.339-.944-.515-1.399-1.808-4.617-4.116-9.028-6.887-13.14-5.194,2.149-10.293,4.535-15.269,7.142-20.519,10.736-39.318,24.854-56.049,40.844.449.171.845.442,1.168.86.776.995.769,2.43.849,3.626.077,1.176.105,2.361.072,3.547-.132,4.582-1.103,9.025-2.532,13.361,3.459-4.959,7.544-9.454,11.936-13.61,4.843-4.576,10.053-8.763,15.285-12.892,5.568-4.396,11.146-8.794,16.976-12.821ZM2051.616,320.992c-.017-.475.094-2.713-.291-2.977-.142-.106-1.226.188-1.392.229-.539.111-1.07.261-1.593.46-.968.374-1.914.866-2.771,1.453-7.5,5.112-10.613,14.869-13.448,23.007-.126.359-.333.612-.59.761.218.244.439.498.667.74,2.929,2.994,6.305,5.497,9.973,7.488.021-.106.062-.215.12-.338,2.26-4.623,4.496-9.272,6.245-14.125,1.539-4.234,2.693-8.63,3.01-13.145.084-1.186.107-2.37.069-3.553ZM2043.62,361.607c.797-1.451,1.597-2.892,2.394-4.343-4.927-1.929-9.524-4.703-13.504-8.202-1.231-1.093-2.419-2.224-3.531-3.441-1.035-1.129-1.894-2.464-2.969-3.535-1.324-1.319-2.258.818-2.524,1.956-.222.937-.379,1.841-.651,2.726.236.119.467.32.624.616,2.652,4.673,6.294,8.764,10.629,11.933,2.168,1.589,4.498,2.955,6.959,4.042.267.123.552.233.819.356.532.236.328.234.611-.053.491-.478.807-1.453,1.143-2.054ZM2038.439,366.226c.129-.238.29-.41.473-.516-.462-.239-.906-.492-1.332-.708-1.385-.718-2.722-1.506-4.015-2.384-3.994-2.703-7.46-6.126-10.273-10.026-.37.415-.729.838-1.097,1.263-.031.158-.094.313-.187.472-2.304,3.787-4.885,7.513-6.85,11.481-1.605,3.229-2.683,7.154-.278,10.286,2.122,2.758,5.637,4.096,8.761,5.354,3.618,1.451,7.245,2.9,10.864,4.361-.754-6.767.637-13.597,3.935-19.584Z"/>
    <path class="cls-3" d="M2174.082,300.378c1.351,2.932,2.769,6.828.752,9.808-1.554,2.304-4.628,3.437-7.282,2.569-.641-.216-1.191-.002-1.535.388l-1.535.114c.137-.412.051-.874-.391-1.28-9.019-8.317-17.767-16.928-26.221-25.819-.139-.147-.279-.243-.425-.317,1.509-.088,3.047-.355,4.53-.693.018,1.024.955,2.009,2.048,1.327,1.643-1.008,3.679-1.165,5.17-2.44,1.194-1.016,1.882-2.508,1.518-4.078-.231-.964-.87-1.771-1.424-2.562-.655-.946-1.319-1.89-1.984-2.834l-3.817-5.463c-1.591-2.256-3.119-4.942-5.145-6.964.916-.324,1.87-.552,2.833-.518.837.017,1.579.285,2.278.653l-.201.068c-.653.315-1.135,1.331-.693,2.011,2.68,4.057,5.563,7.954,8.715,11.649,2.255,2.651,5.965,8.144,10.142,5.89.46-.259.827-.582,1.105-.949,4.414,6.104,8.414,12.6,11.562,19.439Z"/>
    <path class="cls-3" d="M2157.833,275.06c.667.74,2.835,2.655,2.427,3.85-.517,1.48-2.728-.447-3.22-.956-1.312-1.362-2.557-2.799-3.783-4.248-2.623-3.101-5.082-6.356-7.359-9.725,2.845,2.165,5.563,4.516,8.107,7.032,1.323,1.31,2.602,2.658,3.827,4.047Z"/>
    <path class="cls-3" d="M2146.599,278.753c.803,1.142,1.856,2.207.357,3.219-.588.394-1.264.643-1.943.871-.13-.749-.725-1.38-1.676-1.132-2.169.588-4.632,1.18-6.943,1.173-.104-.774-.724-1.533-1.725-1.448l-.418.048c-.113-.335-.211-.693-.328-.997-.441-1.22-.92-2.422-1.436-3.608-1.623-3.736-3.591-7.305-5.832-10.702.199-.078.406-.167.605-.245,1.11-.431,1.031-1.617.395-2.301,2.47-1.153,5.134-2.087,7.549-.269,2.286,1.73,3.826,4.586,5.448,6.898,1.982,2.824,3.965,5.659,5.949,8.493Z"/>
    <path class="cls-3" d="M2131.239,281.863c-12.783,1.927-24.419,8.208-34.967,15.517-5.83,4.028-11.408,8.425-16.976,12.821-5.231,4.13-10.442,8.316-15.285,12.892-4.392,4.156-8.477,8.652-11.936,13.61,1.429-4.336,2.4-8.779,2.532-13.361.033-1.186.005-2.371-.072-3.547-.081-1.195-.074-2.631-.849-3.626-.322-.418-.719-.69-1.168-.86,16.731-15.99,35.53-30.108,56.049-40.844,4.976-2.607,10.075-4.993,15.269-7.142,2.771,4.111,5.079,8.523,6.887,13.14.177.455.347.932.515,1.399Z"/>
    <path class="cls-3" d="M2051.325,318.015c.385.264.274,2.502.291,2.977.038,1.183.015,2.368-.069,3.553-.317,4.515-1.47,8.911-3.01,13.145-1.749,4.853-3.985,9.502-6.245,14.125-.058.123-.099.232-.12.338-3.667-1.991-7.044-4.494-9.973-7.488-.228-.242-.449-.496-.667-.74.257-.15.464-.402.59-.761,2.835-8.138,5.949-17.895,13.448-23.007.857-.587,1.803-1.079,2.771-1.453.522-.199,1.054-.349,1.593-.46.165-.041,1.25-.335,1.392-.229Z"/>
    <path class="cls-3" d="M2046.014,357.265c-.797,1.451-1.597,2.892-2.394,4.343-.335.602-.652,1.576-1.143,2.054-.282.287-.078.289-.611.053-.267-.123-.552-.233-.819-.356-2.461-1.087-4.791-2.453-6.959-4.042-4.335-3.169-7.977-7.26-10.629-11.933-.157-.296-.388-.497-.624-.616.272-.885.429-1.789.651-2.726.266-1.138,1.2-3.276,2.524-1.956,1.075,1.071,1.934,2.406,2.969,3.535,1.112,1.217,2.3,2.348,3.531,3.441,3.979,3.499,8.576,6.273,13.504,8.202Z"/>
    <path class="cls-3" d="M2038.913,365.71c-.184.105-.345.278-.473.516-3.298,5.986-4.688,12.817-3.935,19.584-3.619-1.461-7.247-2.91-10.864-4.361-3.124-1.258-6.639-2.596-8.761-5.354-2.405-3.132-1.327-7.056.278-10.286,1.966-3.968,4.546-7.694,6.85-11.481.092-.16.155-.314.187-.472.368-.425.727-.848,1.097-1.263,2.813,3.9,6.28,7.322,10.273,10.026,1.293.878,2.63,1.666,4.015,2.384.427.215.871.468,1.332.708Z"/>
  </g>
  <path class="cls-1" d="M2462.531,452.3s451.551,325.7,841.551,232.7,1004,92,1026,87-87-189,1-197,59,123,42,106,59.218-105.449,91-45-158.94,123.672-134,136c153.34,75.797,730-95,730-95"/>
  <path class="cls-1" d="M1006.988,654.66s-419.907,182.34-647.907,199.34-393.151-41.802-393.151-41.802"/>
</svg>