<?xml version="1.0" encoding="UTF-8"?>
<svg id="_レイヤー_2" data-name="レイヤー 2" xmlns="http://www.w3.org/2000/svg" viewBox="0 0 1097 1296">
  <defs>
    <style>
      .cls-1 {
        fill: none;
        stroke: #6a6869;
        stroke-linecap: round;
        stroke-miterlimit: 10;
        stroke-width: 2px;
      }
    </style>
  </defs>
  <path class="cls-1" d="M36.23,930.89s53.827-83.181,70.035-110.537c16.207-27.356,72.617-98.731,72.617-98.731,0,0,10.832-45.926,21.761-77.534,10.928-31.608,41.34-79.306,56.598-100.606,15.258-21.3,62.916-69.743,82.072-82.687,19.155-12.945,37.939-34.513,53.181-37.374,15.242-2.861,108.966-14.385,126.697-10.628,17.731,3.757,41.208,10.34,60.735,6.019,19.528-4.322,42.088-4.193,42.088-4.193,0,0,50.929,5.673,65.518-.138,14.589-5.812,56.589-33.542,64.832-33.318,8.243.224,17.783,6.306,27.695,21.012,9.912,14.706,3.605,32.488-3.185,45.77-6.791,13.281-45.542,46.438-59.487,55.157-13.945,8.719-58.435,29.831-77.038,31.388-18.603,1.557-35.574-3.393-35.574-3.393,0,0-27.943,14.89-54.253,23.273-26.31,8.383-60.311,5.154-60.311,5.154l-52.492-5.794-29.723,4.53"/>
  <path class="cls-1" d="M783.983,440.736s35.63-6.104,51.308-4.185,37.951,14.134,51.552,26.999c13.601,12.865,24.921,29.307,28.759,44.333,3.837,15.026,2.153,18.983-1.381,28.471-3.533,9.488-15.802,23.469-26.818,31.54-11.016,8.071-55.125,28.587-55.125,28.587,0,0-53.225,25.606-72.156,30.307-18.931,4.702-57.989,20.515-71.545,15.833-13.556-4.681-54.436-18.167-64.139-22.677-9.704-4.51-21.752-15.075-26.076-21.841-4.324-6.766-10.606-16.642-7.393-32.204,3.213-15.562,13.805-34.805,13.805-34.805"/>
  <path class="cls-1" d="M489.105,707.249s8.063,20.236,15.702,29.299,17.066,19.267,36.422,25.738c19.355,6.471,66.75,12.369,84.264,15.15,17.515,2.781,77.826-2.373,100.879-6.962,23.053-4.59,34.009-5.99,44.161-17.967,10.152-11.977,23.611-46.033,21.58-57.522-2.03-11.489-20.007-67.266-20.007-67.266"/>
  <path class="cls-1" d="M536.884,645.466s31.392,9.952,42.832,13.053c11.44,3.101,40.187-1.212,50.547-2.993,10.36-1.781,58.313-12.905,58.313-12.905"/>
  <path class="cls-1" d="M370.265,787.532s43.612-12.95,63.177-27.515c19.565-14.565,43.618-47.029,43.618-47.029l60.159-79.886,37.99-53.862,18.002-40.162"/>
  <path class="cls-1" d="M700.062,778.858s21.845,17.959,24.412,25.966c2.567,8.007,6.057,18.112,2.439,30.568s-16.294,28.187-28.719,34.521c-12.425,6.334-62.772,28.743-74.869,31.932s-50.294,8.57-51.971,11.502c-37.267,17.977-142.283,43.267-163.54,39.777-38.103,36.086-118.358,150.121-118.358,150.121"/>
  <path class="cls-1" d="M426.962,415.792l264.342-104.59s123.228-74.896,141.511-82.527c18.283-7.631,100.979-59.731,120.238-67.578,19.259-7.847,76.57-42.038,87.682-41.937,29.335-.859,42.332,20.845,47.682,42.706,5.35,21.86-6.919,35.842-19.352,51.396-12.433,15.554-48.127,42.192-59.807,49.083-14.27,8.418-95.501,59.03-95.501,59.03l-73.356,38.767-60.343,42.032"/>
  <path class="cls-1" d="M534.446,766.348s-12.053,14.958-16.13,26.614c-4.078,11.656-2.792,23.918.399,37.423,3.191,13.505,10.824,28.085,20.609,33.66,9.784,5.575,15.859,5.255,31.637,9.444,15.778,4.19,36.498.628,50.219.152,13.721-.476,45.192-3.989,45.192-3.989"/>
  <path class="cls-1" d="M467.825,641.374s48.118-23.424,58.807-42.233c10.688-18.808,23.89-44.774,23.89-44.774"/>
</svg>