<?xml version="1.0" encoding="UTF-8"?>
<svg id="_レイヤー_1" data-name="レイヤー 1" xmlns="http://www.w3.org/2000/svg" viewBox="0 0 900 900">
  <defs>
    <style>
      .cls-1 {
        fill: #ffdb38;
      }

      .cls-2 {
        fill: #ffe2d2;
      }

      .cls-3 {
        fill: #fff;
      }

      .cls-4 {
        fill: #e7ba44;
      }

      .cls-5 {
        fill: #3a3337;
      }

      .cls-6 {
        fill: #6dc1e2;
      }

      .cls-7 {
        fill: #ad7f70;
      }

      .cls-8 {
        fill: #f29a98;
      }
    </style>
  </defs>
  <rect class="cls-8" x="-.38" y="-3.182" width="903" height="903"/>
  <g>
    <rect class="cls-5" x="759.19" y="175.808" width="33.48" height="33.47"/>
    <rect class="cls-5" x="725.72" y="276.228" width="33.47" height="33.48"/>
    <rect class="cls-5" x="725.72" y="242.758" width="33.47" height="33.47"/>
    <rect class="cls-5" x="725.72" y="209.278" width="33.47" height="33.48"/>
    <rect class="cls-1" x="725.72" y="175.808" width="33.47" height="33.47"/>
    <rect class="cls-5" x="725.72" y="142.328" width="33.47" height="33.48"/>
    <rect class="cls-5" x="692.24" y="309.708" width="33.48" height="33.48"/>
    <rect class="cls-1" x="692.24" y="276.228" width="33.48" height="33.48"/>
    <rect class="cls-1" x="692.24" y="242.758" width="33.48" height="33.47"/>
    <rect class="cls-1" x="692.24" y="209.278" width="33.48" height="33.48"/>
    <rect class="cls-1" x="692.24" y="175.808" width="33.48" height="33.47"/>
    <rect class="cls-5" x="692.24" y="142.328" width="33.48" height="33.48"/>
    <rect class="cls-5" x="658.76" y="544.038" width="33.48" height="33.48"/>
    <rect class="cls-5" x="658.76" y="510.568" width="33.48" height="33.47"/>
    <rect class="cls-5" x="658.76" y="410.138" width="33.48" height="33.47"/>
    <rect class="cls-5" x="658.76" y="376.658" width="33.48" height="33.48"/>
    <rect class="cls-5" x="658.76" y="343.188" width="33.48" height="33.47"/>
    <rect class="cls-5" x="658.76" y="309.708" width="33.48" height="33.48"/>
    <rect class="cls-1" x="658.76" y="276.228" width="33.48" height="33.48"/>
    <rect class="cls-1" x="658.76" y="242.758" width="33.48" height="33.47"/>
    <rect class="cls-1" x="658.76" y="209.278" width="33.48" height="33.48"/>
    <rect class="cls-5" x="658.76" y="175.808" width="33.48" height="33.47"/>
    <rect class="cls-5" x="625.29" y="577.518" width="33.47" height="33.48"/>
    <rect class="cls-2" x="625.29" y="544.038" width="33.47" height="33.48"/>
    <rect class="cls-2" x="625.29" y="510.568" width="33.47" height="33.47"/>
    <rect class="cls-5" x="625.29" y="477.088" width="33.47" height="33.48"/>
    <rect class="cls-5" x="625.29" y="443.608" width="33.47" height="33.48"/>
    <rect class="cls-5" x="625.29" y="410.138" width="33.47" height="33.47"/>
    <rect class="cls-1" x="625.29" y="376.658" width="33.47" height="33.48"/>
    <rect class="cls-1" x="625.29" y="343.188" width="33.47" height="33.47"/>
    <rect class="cls-1" x="625.29" y="309.708" width="33.47" height="33.48"/>
    <rect class="cls-5" x="625.29" y="276.228" width="33.47" height="33.48"/>
    <rect class="cls-5" x="625.29" y="242.758" width="33.47" height="33.47"/>
    <rect class="cls-5" x="625.29" y="209.278" width="33.47" height="33.48"/>
    <rect class="cls-5" x="591.81" y="577.518" width="33.48" height="33.48"/>
    <rect class="cls-2" x="591.81" y="544.038" width="33.48" height="33.48"/>
    <rect class="cls-2" x="591.81" y="510.568" width="33.48" height="33.47"/>
    <rect class="cls-1" x="591.81" y="477.088" width="33.48" height="33.48"/>
    <rect class="cls-1" x="591.81" y="443.608" width="33.48" height="33.48"/>
    <rect class="cls-1" x="591.81" y="410.138" width="33.48" height="33.47"/>
    <rect class="cls-7" x="591.81" y="376.658" width="33.48" height="33.48"/>
    <rect class="cls-7" x="591.81" y="343.188" width="33.48" height="33.47"/>
    <rect class="cls-7" x="591.81" y="309.708" width="33.48" height="33.48"/>
    <rect class="cls-7" x="591.81" y="276.228" width="33.48" height="33.48"/>
    <rect class="cls-5" x="591.81" y="242.758" width="33.48" height="33.47"/>
    <rect class="cls-5" x="591.81" y="209.278" width="33.48" height="33.48"/>
    <rect class="cls-5" x="558.33" y="744.898" width="33.48" height="33.48"/>
    <rect class="cls-5" x="558.33" y="711.418" width="33.48" height="33.48"/>
    <rect class="cls-5" x="558.33" y="677.948" width="33.48" height="33.47"/>
    <rect class="cls-5" x="558.33" y="644.468" width="33.48" height="33.48"/>
    <rect class="cls-5" x="558.33" y="610.998" width="33.48" height="33.47"/>
    <rect class="cls-6" x="558.33" y="577.518" width="33.48" height="33.48"/>
    <rect class="cls-6" x="558.33" y="544.038" width="33.48" height="33.48"/>
    <rect class="cls-6" x="558.33" y="510.568" width="33.48" height="33.47"/>
    <rect class="cls-6" x="558.33" y="477.088" width="33.48" height="33.48"/>
    <rect class="cls-7" x="558.33" y="443.608" width="33.48" height="33.48"/>
    <rect class="cls-7" x="558.33" y="410.138" width="33.48" height="33.47"/>
    <rect class="cls-7" x="558.33" y="376.658" width="33.48" height="33.48"/>
    <rect class="cls-2" x="558.33" y="343.188" width="33.48" height="33.47"/>
    <rect class="cls-7" x="558.33" y="309.708" width="33.48" height="33.48"/>
    <rect class="cls-7" x="558.33" y="276.228" width="33.48" height="33.48"/>
    <rect class="cls-7" x="558.33" y="242.758" width="33.48" height="33.47"/>
    <rect class="cls-7" x="558.33" y="209.278" width="33.48" height="33.48"/>
    <rect class="cls-5" x="558.33" y="175.808" width="33.48" height="33.47"/>
    <rect class="cls-5" x="524.86" y="744.898" width="33.47" height="33.48"/>
    <rect class="cls-7" x="524.86" y="711.418" width="33.47" height="33.48"/>
    <rect class="cls-7" x="524.86" y="677.948" width="33.47" height="33.47"/>
    <rect class="cls-7" x="524.86" y="644.468" width="33.47" height="33.48"/>
    <rect class="cls-7" x="524.86" y="610.998" width="33.47" height="33.47"/>
    <rect class="cls-6" x="524.86" y="577.518" width="33.47" height="33.48"/>
    <rect class="cls-6" x="524.86" y="544.038" width="33.47" height="33.48"/>
    <rect class="cls-3" x="524.86" y="510.568" width="33.47" height="33.47"/>
    <rect class="cls-6" x="524.86" y="477.088" width="33.47" height="33.48"/>
    <rect class="cls-4" x="524.86" y="443.608" width="33.47" height="33.48"/>
    <rect class="cls-2" x="524.86" y="410.138" width="33.47" height="33.47"/>
    <rect class="cls-2" x="524.86" y="376.658" width="33.47" height="33.48"/>
    <rect class="cls-2" x="524.86" y="343.188" width="33.47" height="33.47"/>
    <rect class="cls-2" x="524.86" y="309.708" width="33.47" height="33.48"/>
    <rect class="cls-7" x="524.86" y="276.228" width="33.47" height="33.48"/>
    <rect class="cls-7" x="524.86" y="242.758" width="33.47" height="33.47"/>
    <rect class="cls-7" x="524.86" y="209.278" width="33.47" height="33.48"/>
    <rect class="cls-7" x="524.86" y="175.808" width="33.47" height="33.47"/>
    <rect class="cls-5" x="524.86" y="142.328" width="33.47" height="33.48"/>
    <rect class="cls-5" x="491.38" y="744.898" width="33.48" height="33.48"/>
    <rect class="cls-7" x="491.38" y="711.418" width="33.48" height="33.48"/>
    <rect class="cls-7" x="491.38" y="677.948" width="33.48" height="33.47"/>
    <rect class="cls-7" x="491.38" y="644.468" width="33.48" height="33.48"/>
    <rect class="cls-7" x="491.38" y="610.998" width="33.48" height="33.47"/>
    <rect class="cls-5" x="491.38" y="577.518" width="33.48" height="33.48"/>
    <rect class="cls-5" x="491.38" y="544.038" width="33.48" height="33.48"/>
    <rect class="cls-5" x="491.38" y="510.568" width="33.48" height="33.47"/>
    <rect class="cls-4" x="491.38" y="477.088" width="33.48" height="33.48"/>
    <rect class="cls-6" x="491.38" y="443.608" width="33.48" height="33.48"/>
    <rect class="cls-2" x="491.38" y="410.138" width="33.48" height="33.47"/>
    <rect class="cls-2" x="491.38" y="376.658" width="33.48" height="33.48"/>
    <rect class="cls-2" x="491.38" y="343.188" width="33.48" height="33.47"/>
    <rect class="cls-2" x="491.38" y="309.708" width="33.48" height="33.48"/>
    <rect class="cls-7" x="491.38" y="276.228" width="33.48" height="33.48"/>
    <rect class="cls-7" x="491.38" y="242.758" width="33.48" height="33.47"/>
    <rect class="cls-7" x="491.38" y="209.278" width="33.48" height="33.48"/>
    <rect class="cls-7" x="491.38" y="175.808" width="33.48" height="33.47"/>
    <rect class="cls-5" x="491.38" y="142.328" width="33.48" height="33.48"/>
    <rect class="cls-5" x="457.91" y="744.898" width="33.47" height="33.48"/>
    <rect class="cls-5" x="457.91" y="711.418" width="33.47" height="33.48"/>
    <rect class="cls-5" x="457.91" y="677.948" width="33.47" height="33.47"/>
    <rect class="cls-7" x="457.91" y="644.468" width="33.47" height="33.48"/>
    <rect class="cls-7" x="457.91" y="610.998" width="33.47" height="33.47"/>
    <rect class="cls-5" x="457.91" y="577.518" width="33.47" height="33.48"/>
    <rect class="cls-5" x="457.91" y="544.038" width="33.47" height="33.48"/>
    <rect class="cls-5" x="457.91" y="510.568" width="33.47" height="33.47"/>
    <rect class="cls-5" x="457.91" y="477.088" width="33.47" height="33.48"/>
    <rect class="cls-6" x="457.91" y="443.608" width="33.47" height="33.48"/>
    <rect class="cls-2" x="457.91" y="410.138" width="33.47" height="33.47"/>
    <rect class="cls-7" x="457.91" y="376.658" width="33.47" height="33.48"/>
    <rect class="cls-7" x="457.91" y="343.188" width="33.47" height="33.47"/>
    <rect class="cls-7" x="457.91" y="309.708" width="33.47" height="33.48"/>
    <rect class="cls-7" x="457.91" y="276.228" width="33.47" height="33.48"/>
    <rect class="cls-7" x="457.91" y="242.758" width="33.47" height="33.47"/>
    <rect class="cls-7" x="457.91" y="209.278" width="33.47" height="33.48"/>
    <rect class="cls-7" x="457.91" y="175.808" width="33.47" height="33.47"/>
    <rect class="cls-5" x="457.91" y="142.328" width="33.47" height="33.48"/>
    <rect class="cls-5" x="424.43" y="744.898" width="33.48" height="33.48"/>
    <rect class="cls-5" x="424.43" y="644.468" width="33.48" height="33.48"/>
    <rect class="cls-7" x="424.43" y="610.998" width="33.48" height="33.47"/>
    <rect class="cls-5" x="424.43" y="577.518" width="33.48" height="33.48"/>
    <rect class="cls-3" x="424.43" y="544.038" width="33.48" height="33.48"/>
    <rect class="cls-3" x="424.43" y="510.568" width="33.48" height="33.47"/>
    <rect class="cls-5" x="424.43" y="477.088" width="33.48" height="33.48"/>
    <rect class="cls-3" x="424.43" y="443.608" width="33.48" height="33.48"/>
    <rect class="cls-2" x="424.43" y="410.138" width="33.48" height="33.47"/>
    <rect class="cls-2" x="424.43" y="376.658" width="33.48" height="33.48"/>
    <rect class="cls-2" x="424.43" y="343.188" width="33.48" height="33.47"/>
    <rect class="cls-2" x="424.43" y="309.708" width="33.48" height="33.48"/>
    <rect class="cls-7" x="424.43" y="276.228" width="33.48" height="33.48"/>
    <rect class="cls-7" x="424.43" y="242.758" width="33.48" height="33.47"/>
    <rect class="cls-7" x="424.43" y="209.278" width="33.48" height="33.48"/>
    <rect class="cls-7" x="424.43" y="175.808" width="33.48" height="33.47"/>
    <rect class="cls-5" x="424.43" y="142.328" width="33.48" height="33.48"/>
    <rect class="cls-5" x="390.95" y="644.468" width="33.48" height="33.48"/>
    <rect class="cls-7" x="390.95" y="610.998" width="33.48" height="33.47"/>
    <rect class="cls-5" x="390.95" y="577.518" width="33.48" height="33.48"/>
    <rect class="cls-3" x="390.95" y="544.038" width="33.48" height="33.48"/>
    <rect class="cls-3" x="390.95" y="510.568" width="33.48" height="33.47"/>
    <rect class="cls-5" x="390.95" y="477.088" width="33.48" height="33.48"/>
    <rect class="cls-3" x="390.95" y="443.608" width="33.48" height="33.48"/>
    <rect class="cls-2" x="390.95" y="410.138" width="33.48" height="33.47"/>
    <rect class="cls-2" x="390.95" y="376.658" width="33.48" height="33.48"/>
    <rect class="cls-2" x="390.95" y="343.188" width="33.48" height="33.47"/>
    <rect class="cls-2" x="390.95" y="309.708" width="33.48" height="33.48"/>
    <rect class="cls-7" x="390.95" y="276.228" width="33.48" height="33.48"/>
    <rect class="cls-7" x="390.95" y="242.758" width="33.48" height="33.47"/>
    <rect class="cls-7" x="390.95" y="209.278" width="33.48" height="33.48"/>
    <rect class="cls-7" x="390.95" y="175.808" width="33.48" height="33.47"/>
    <rect class="cls-5" x="390.95" y="142.328" width="33.48" height="33.48"/>
    <rect class="cls-5" x="357.48" y="744.898" width="33.47" height="33.48"/>
    <rect class="cls-5" x="357.48" y="711.418" width="33.47" height="33.48"/>
    <rect class="cls-5" x="357.48" y="677.948" width="33.47" height="33.47"/>
    <rect class="cls-7" x="357.48" y="644.468" width="33.47" height="33.48"/>
    <rect class="cls-7" x="357.48" y="610.998" width="33.47" height="33.47"/>
    <rect class="cls-5" x="357.48" y="577.518" width="33.47" height="33.48"/>
    <rect class="cls-5" x="357.48" y="544.038" width="33.47" height="33.48"/>
    <rect class="cls-5" x="357.48" y="510.568" width="33.47" height="33.47"/>
    <rect class="cls-5" x="357.48" y="477.088" width="33.47" height="33.48"/>
    <rect class="cls-6" x="357.48" y="443.608" width="33.47" height="33.48"/>
    <rect class="cls-2" x="357.48" y="410.138" width="33.47" height="33.47"/>
    <rect class="cls-7" x="357.48" y="376.658" width="33.47" height="33.48"/>
    <rect class="cls-7" x="357.48" y="343.188" width="33.47" height="33.47"/>
    <rect class="cls-7" x="357.48" y="309.708" width="33.47" height="33.48"/>
    <rect class="cls-7" x="357.48" y="276.228" width="33.47" height="33.48"/>
    <rect class="cls-7" x="357.48" y="242.758" width="33.47" height="33.47"/>
    <rect class="cls-7" x="357.48" y="209.278" width="33.47" height="33.48"/>
    <rect class="cls-7" x="357.48" y="175.808" width="33.47" height="33.47"/>
    <rect class="cls-5" x="357.48" y="142.328" width="33.47" height="33.48"/>
    <rect class="cls-5" x="324" y="744.898" width="33.48" height="33.48"/>
    <rect class="cls-7" x="324" y="711.418" width="33.48" height="33.48"/>
    <rect class="cls-7" x="324" y="677.948" width="33.48" height="33.47"/>
    <rect class="cls-7" x="324" y="644.468" width="33.48" height="33.48"/>
    <rect class="cls-7" x="324" y="610.998" width="33.48" height="33.47"/>
    <rect class="cls-5" x="324" y="577.518" width="33.48" height="33.48"/>
    <rect class="cls-5" x="324" y="544.038" width="33.48" height="33.48"/>
    <rect class="cls-5" x="324" y="510.568" width="33.48" height="33.47"/>
    <rect class="cls-4" x="324" y="477.088" width="33.48" height="33.48"/>
    <rect class="cls-6" x="324" y="443.608" width="33.48" height="33.48"/>
    <rect class="cls-2" x="324" y="410.138" width="33.48" height="33.47"/>
    <rect class="cls-2" x="324" y="376.658" width="33.48" height="33.48"/>
    <rect class="cls-2" x="324" y="343.188" width="33.48" height="33.47"/>
    <rect class="cls-2" x="324" y="309.708" width="33.48" height="33.48"/>
    <rect class="cls-7" x="324" y="276.228" width="33.48" height="33.48"/>
    <rect class="cls-7" x="324" y="242.758" width="33.48" height="33.47"/>
    <rect class="cls-7" x="324" y="209.278" width="33.48" height="33.48"/>
    <rect class="cls-7" x="324" y="175.808" width="33.48" height="33.47"/>
    <rect class="cls-5" x="324" y="142.328" width="33.48" height="33.48"/>
    <rect class="cls-5" x="290.52" y="744.898" width="33.48" height="33.48"/>
    <rect class="cls-7" x="290.52" y="711.418" width="33.48" height="33.48"/>
    <rect class="cls-7" x="290.52" y="677.948" width="33.48" height="33.47"/>
    <rect class="cls-7" x="290.52" y="644.468" width="33.48" height="33.48"/>
    <rect class="cls-7" x="290.52" y="610.998" width="33.48" height="33.47"/>
    <rect class="cls-6" x="290.52" y="577.518" width="33.48" height="33.48"/>
    <rect class="cls-6" x="290.52" y="544.038" width="33.48" height="33.48"/>
    <rect class="cls-3" x="290.52" y="510.568" width="33.48" height="33.47"/>
    <rect class="cls-6" x="290.52" y="477.088" width="33.48" height="33.48"/>
    <rect class="cls-4" x="290.52" y="443.608" width="33.48" height="33.48"/>
    <rect class="cls-2" x="290.52" y="410.138" width="33.48" height="33.47"/>
    <rect class="cls-2" x="290.52" y="376.658" width="33.48" height="33.48"/>
    <rect class="cls-2" x="290.52" y="343.188" width="33.48" height="33.47"/>
    <rect class="cls-2" x="290.52" y="309.708" width="33.48" height="33.48"/>
    <rect class="cls-7" x="290.52" y="276.228" width="33.48" height="33.48"/>
    <rect class="cls-7" x="290.52" y="242.758" width="33.48" height="33.47"/>
    <rect class="cls-7" x="290.52" y="209.278" width="33.48" height="33.48"/>
    <rect class="cls-7" x="290.52" y="175.808" width="33.48" height="33.47"/>
    <rect class="cls-5" x="290.52" y="142.328" width="33.48" height="33.48"/>
    <rect class="cls-5" x="257.05" y="744.898" width="33.47" height="33.48"/>
    <rect class="cls-5" x="257.05" y="711.418" width="33.47" height="33.48"/>
    <rect class="cls-5" x="257.05" y="677.948" width="33.47" height="33.47"/>
    <rect class="cls-5" x="257.05" y="644.468" width="33.47" height="33.48"/>
    <rect class="cls-5" x="257.05" y="610.998" width="33.47" height="33.47"/>
    <rect class="cls-6" x="257.05" y="577.518" width="33.47" height="33.48"/>
    <rect class="cls-6" x="257.05" y="544.038" width="33.47" height="33.48"/>
    <rect class="cls-6" x="257.05" y="510.568" width="33.47" height="33.47"/>
    <rect class="cls-6" x="257.05" y="477.088" width="33.47" height="33.48"/>
    <rect class="cls-5" x="257.05" y="443.608" width="33.47" height="33.48"/>
    <rect class="cls-7" x="257.05" y="410.138" width="33.47" height="33.47"/>
    <rect class="cls-7" x="257.05" y="376.658" width="33.47" height="33.48"/>
    <rect class="cls-2" x="257.05" y="343.188" width="33.47" height="33.47"/>
    <rect class="cls-7" x="257.05" y="309.708" width="33.47" height="33.48"/>
    <rect class="cls-7" x="257.05" y="276.228" width="33.47" height="33.48"/>
    <rect class="cls-7" x="257.05" y="242.758" width="33.47" height="33.47"/>
    <rect class="cls-7" x="257.05" y="209.278" width="33.47" height="33.48"/>
    <rect class="cls-5" x="257.05" y="175.808" width="33.47" height="33.47"/>
    <rect class="cls-5" x="223.57" y="744.898" width="33.48" height="33.48"/>
    <rect class="cls-5" x="223.57" y="577.518" width="33.48" height="33.48"/>
    <rect class="cls-2" x="223.57" y="544.038" width="33.48" height="33.48"/>
    <rect class="cls-2" x="223.57" y="510.568" width="33.48" height="33.47"/>
    <rect class="cls-5" x="223.57" y="477.088" width="33.48" height="33.48"/>
    <rect class="cls-5" x="223.57" y="410.138" width="33.48" height="33.47"/>
    <rect class="cls-7" x="223.57" y="376.658" width="33.48" height="33.48"/>
    <rect class="cls-7" x="223.57" y="343.188" width="33.48" height="33.47"/>
    <rect class="cls-7" x="223.57" y="309.708" width="33.48" height="33.48"/>
    <rect class="cls-7" x="223.57" y="276.228" width="33.48" height="33.48"/>
    <rect class="cls-5" x="223.57" y="242.758" width="33.48" height="33.47"/>
    <rect class="cls-5" x="223.57" y="209.278" width="33.48" height="33.48"/>
    <rect class="cls-5" x="190.1" y="577.518" width="33.47" height="33.48"/>
    <rect class="cls-2" x="190.1" y="544.038" width="33.47" height="33.48"/>
    <rect class="cls-2" x="190.1" y="510.568" width="33.47" height="33.47"/>
    <rect class="cls-5" x="190.1" y="477.088" width="33.47" height="33.48"/>
    <rect class="cls-5" x="190.1" y="410.138" width="33.47" height="33.47"/>
    <rect class="cls-5" x="190.1" y="376.658" width="33.47" height="33.48"/>
    <rect class="cls-5" x="190.1" y="343.188" width="33.47" height="33.47"/>
    <rect class="cls-5" x="190.1" y="309.708" width="33.47" height="33.48"/>
    <rect class="cls-5" x="190.1" y="276.228" width="33.47" height="33.48"/>
    <rect class="cls-5" x="156.62" y="544.038" width="33.48" height="33.48"/>
    <rect class="cls-5" x="156.62" y="510.568" width="33.48" height="33.47"/>
  </g>
</svg>