<svg width="17" height="17" viewBox="0 0 17 17" fill="none" xmlns="http://www.w3.org/2000/svg">
<path d="M8.5 0.5C6.91775 0.5 5.37103 0.969192 4.05544 1.84824C2.73985 2.72729 1.71447 3.97672 1.10897 5.43853C0.503466 6.90034 0.34504 8.50887 0.653721 10.0607C0.962403 11.6126 1.72433 13.038 2.84315 14.1569C3.96197 15.2757 5.38743 16.0376 6.93928 16.3463C8.49113 16.655 10.0997 16.4965 11.5615 15.891C13.0233 15.2855 14.2727 14.2602 15.1518 12.9446C16.0308 11.629 16.5 10.0822 16.5 8.5C16.4975 6.37903 15.6539 4.34565 14.1541 2.8459C12.6544 1.34615 10.621 0.502491 8.5 0.5ZM8.5 15.5588C7.1039 15.5588 5.73915 15.1448 4.57833 14.3692C3.41751 13.5936 2.51277 12.4911 1.9785 11.2013C1.44424 9.91146 1.30445 8.49217 1.57681 7.12289C1.84918 5.75361 2.52147 4.49585 3.50866 3.50866C4.49585 2.52146 5.75362 1.84918 7.12289 1.57681C8.49217 1.30444 9.91146 1.44423 11.2013 1.9785C12.4911 2.51276 13.5936 3.41751 14.3692 4.57833C15.1448 5.73914 15.5588 7.1039 15.5588 8.5C15.5567 10.3715 14.8124 12.1657 13.489 13.489C12.1657 14.8124 10.3715 15.5567 8.5 15.5588ZM5.83334 8.5C5.83334 9.05968 6.00944 9.60518 6.33669 10.0592C6.66394 10.5133 7.12576 10.8528 7.65673 11.0298C8.18769 11.2068 8.76089 11.2122 9.29511 11.0454C9.82934 10.8785 10.2975 10.5477 10.6333 10.1C10.7083 10.0002 10.8199 9.93418 10.9435 9.91661C11.0672 9.89903 11.1927 9.93128 11.2925 10.0063C11.3924 10.0813 11.4584 10.1928 11.4759 10.3165C11.4935 10.4401 11.4613 10.5656 11.3863 10.6655C10.9318 11.2711 10.2984 11.7183 9.57563 11.944C8.85288 12.1696 8.07748 12.1621 7.35922 11.9225C6.64097 11.683 6.01628 11.2236 5.57361 10.6093C5.13095 9.99509 4.89275 9.25714 4.89275 8.5C4.89275 7.74286 5.13095 7.00491 5.57361 6.39065C6.01628 5.7764 6.64097 5.31698 7.35922 5.07745C8.07748 4.83793 8.85288 4.83044 9.57563 5.05604C10.2984 5.28165 10.9318 5.72892 11.3863 6.33451C11.4613 6.43435 11.4935 6.5599 11.4759 6.68353C11.4584 6.80715 11.3924 6.91874 11.2925 6.99372C11.1927 7.06871 11.0672 7.10097 10.9435 7.08339C10.8199 7.06581 10.7083 6.99984 10.6333 6.9C10.2975 6.45225 9.82934 6.12151 9.29511 5.95463C8.76089 5.78775 8.18769 5.79319 7.65673 5.97018C7.12576 6.14716 6.66394 6.48673 6.33669 6.94077C6.00944 7.39481 5.83334 7.94031 5.83334 8.5Z" fill="#F29A98"/>
</svg>
