<svg width="20" height="16" viewBox="0 0 20 16" fill="none" xmlns="http://www.w3.org/2000/svg">
<path d="M3 0.5H17C17.663 0.5 18.2987 0.763581 18.7676 1.23242C19.2364 1.70126 19.5 2.33696 19.5 3V13C19.5 13.663 19.2364 14.2987 18.7676 14.7676C18.2987 15.2364 17.663 15.5 17 15.5H3C2.33696 15.5 1.70126 15.2364 1.23242 14.7676C0.763581 14.2987 0.5 13.663 0.5 13V3C0.5 2.33696 0.763581 1.70126 1.23242 1.23242C1.70126 0.763581 2.33696 0.5 3 0.5ZM4.83398 3.4873C4.63423 3.50625 4.44028 3.56492 4.26367 3.66016C4.08684 3.75556 3.93033 3.88617 3.80469 4.04297C3.67923 4.19966 3.58674 4.38005 3.53223 4.57324C3.4777 4.76652 3.4622 4.96872 3.4873 5.16797C3.51245 5.36731 3.57783 5.55964 3.67871 5.7334C3.77952 5.90704 3.91372 6.05905 4.07422 6.17969L7.8125 9.1709C8.43327 9.66791 9.20478 9.93945 10 9.93945C10.7951 9.93945 11.5658 9.66771 12.1865 9.1709L12.1875 9.17188L15.9375 6.17188V6.1709C16.0912 6.04785 16.2195 5.8961 16.3145 5.72363C16.4095 5.55103 16.4695 5.36086 16.4912 5.16504C16.5129 4.96935 16.4962 4.77113 16.4414 4.58203C16.3865 4.39282 16.294 4.21631 16.1709 4.0625C16.0479 3.90882 15.8961 3.78049 15.7236 3.68555C15.551 3.59054 15.3609 3.53052 15.165 3.50879C14.9694 3.48713 14.7711 3.50377 14.582 3.55859C14.3929 3.61344 14.2163 3.70511 14.0625 3.82812L10.3125 6.82812V6.8291C10.2239 6.9 10.1135 6.93848 10 6.93848C9.88648 6.93848 9.77615 6.9 9.6875 6.8291V6.82812L5.9375 3.8291L5.93652 3.83008C5.78657 3.70483 5.61413 3.60874 5.42773 3.5498C5.23623 3.48929 5.03393 3.4684 4.83398 3.4873Z" fill="#F29A98" stroke="#F29A98"/>
</svg>
