<svg width="23" height="24" viewBox="0 0 23 24" fill="none" xmlns="http://www.w3.org/2000/svg">
<path d="M11.5 1C11.7069 1 11.9056 1.08166 12.0518 1.22754L19.7285 8.89453L22.2803 11.4443H22.2812C22.4231 11.5911 22.5018 11.7875 22.5 11.9912C22.4981 12.1948 22.4159 12.39 22.2715 12.5342C22.1271 12.6782 21.9319 12.7599 21.7275 12.7617C21.5229 12.7635 21.3247 12.6847 21.1777 12.543L20.8096 12.1748L19.957 11.3232V20.9443C19.957 21.4893 19.7396 22.0119 19.3535 22.3975C18.9674 22.783 18.4438 23 17.8975 23H14.0586C13.8518 22.9999 13.6538 22.9173 13.5078 22.7715C13.3619 22.6257 13.2794 22.4285 13.2793 22.2227V17.8887H9.7207V22.2227C9.72058 22.4285 9.63812 22.6257 9.49219 22.7715C9.34616 22.9173 9.14821 22.9999 8.94141 23H5.10254C4.55625 23 4.03258 22.783 3.64648 22.3975C3.26041 22.0119 3.04297 21.4893 3.04297 20.9443V11.3232L2.19043 12.1748L1.82129 12.543C1.67431 12.6847 1.47706 12.7635 1.27246 12.7617C1.06813 12.7599 0.872892 12.6782 0.728516 12.5342C0.58413 12.39 0.50185 12.1948 0.5 11.9912C0.49867 11.8384 0.542159 11.6892 0.624023 11.5625L0.71875 11.4443L3.27148 8.89453L10.9482 1.22754C11.0944 1.08166 11.2931 1 11.5 1Z" fill="#F29A98" stroke="#F29A98"/>
</svg>
