<svg width="23" height="22" viewBox="0 0 23 22" fill="none" xmlns="http://www.w3.org/2000/svg">
<path d="M8.57324 12.9092C8.87821 12.8819 9.10465 12.9811 9.30469 13.2598C9.51757 13.5565 9.58909 13.8843 9.50879 14.2803L9.50781 14.2842C9.48115 14.4211 9.4668 14.5577 9.4668 14.6924V15.0029C9.4668 15.7173 9.58852 16.4239 9.83008 17.1201C10.0816 17.8452 10.5137 18.5131 11.1094 19.125L11.1211 19.1367L11.6201 19.6172H11.6211C11.7687 19.7688 11.8357 19.9071 11.8594 20.0312C11.883 20.1555 11.8716 20.3089 11.79 20.5049C11.7083 20.7013 11.6082 20.8162 11.5059 20.8848C11.4038 20.9531 11.262 21.0003 11.0537 21H2.55566C1.99083 21 1.51741 20.8 1.10938 20.3809C0.752098 20.0138 0.554242 19.5905 0.509766 19.0928L0.5 18.874V17.8252C0.5 17.1698 0.663022 16.5755 0.988281 16.0322C1.31516 15.4864 1.74238 15.0764 2.27246 14.792C3.31244 14.2579 4.34423 13.8375 5.36719 13.5303C6.38758 13.2238 7.45577 13.0156 8.57227 12.9082L8.57324 12.9092ZM20.3809 12.8125C21.0345 12.8126 21.5252 13.0367 21.9023 13.4756C22.3085 13.9483 22.5007 14.4625 22.5 15.0342L22.4902 15.2314C22.471 15.4298 22.423 15.6318 22.3428 15.8379C22.2403 16.101 22.0857 16.3402 21.875 16.5566L18.2969 20.2314C18.1277 20.4051 17.9556 20.4736 17.7607 20.4736C17.5647 20.4735 17.3928 20.4052 17.2246 20.2324L13.6475 16.5576C13.4139 16.3178 13.2594 16.0716 13.1699 15.8203C13.0712 15.5427 13.0233 15.2706 13.0225 15.0029C13.0225 14.4327 13.2172 13.9267 13.6289 13.4668C14.0192 13.031 14.51 12.8125 15.1416 12.8125C15.6611 12.8125 16.0025 12.9361 16.2266 13.123C16.5492 13.3923 16.9414 13.7619 17.4033 14.2363L17.7607 14.6045L18.1191 14.2363C18.5381 13.806 18.9171 13.4443 19.2559 13.1494C19.4907 12.945 19.8453 12.8125 20.3809 12.8125ZM10.2227 1C11.4899 1.0001 12.5648 1.45715 13.4736 2.39062C14.383 3.32475 14.833 4.43564 14.833 5.75C14.833 7.06436 14.383 8.17525 13.4736 9.10938C12.5648 10.0428 11.4899 10.4999 10.2227 10.5C8.95524 10.5 7.87969 10.043 6.9707 9.10938C6.06129 8.17525 5.61133 7.06436 5.61133 5.75C5.61133 4.43564 6.06129 3.32475 6.9707 2.39062C7.87969 1.45701 8.95524 1 10.2227 1Z" fill="#F29A98" stroke="#F29A98"/>
</svg>
