<svg width="20" height="20" viewBox="0 0 20 20" fill="none" xmlns="http://www.w3.org/2000/svg">
<path d="M12 1C12.4162 1 12.7605 1.14234 13.0596 1.44141C13.3585 1.74037 13.5004 2.08404 13.5 2.49902V5H18C18.4162 5 18.7605 5.14234 19.0596 5.44141C19.3585 5.74037 19.5004 6.08404 19.5 6.49902V17.5C19.5 17.9163 19.3579 18.2606 19.0596 18.5596C18.7616 18.858 18.4176 19.0004 18.001 19H2C1.58354 19 1.23963 18.8578 0.941406 18.5596C0.680392 18.2986 0.538542 18.0021 0.506836 17.6523L0.5 17.499V6.5C0.5 6.08381 0.642609 5.7397 0.941406 5.44141C1.20313 5.18025 1.49936 5.03859 1.84766 5.00684L2.00098 5H6.5V2.5C6.5 2.08381 6.64261 1.7397 6.94141 1.44141C7.20313 1.18025 7.49936 1.03859 7.84766 1.00684L8.00098 1H12ZM7.5 5H12.5V2H7.5V5Z" fill="#F29A98" stroke="#F29A98"/>
</svg>
