<?xml version="1.0" encoding="UTF-8"?>
<svg id="_イエロー" data-name="イエロー" xmlns="http://www.w3.org/2000/svg" viewBox="0 0 605 661.5">
  <defs>
    <style>
      .cls-1 {
        fill: #c4bfc2;
        stroke: #b2b1b1;
        stroke-miterlimit: 10;
        stroke-width: 2px;
      }

      .cls-2 {
        fill: #f29a98;
      }

      .cls-3 {
        fill: #6a6869;
      }
    </style>
  </defs>
  <g>
    <g>
      <path class="cls-3" d="M33.324,23.784c-.648.552-1.242,1.251-1.782,2.097-.54.846-.972,1.8-1.296,2.862s-.486,2.211-.486,3.447c0,1.224.162,2.37.486,3.438s.756,2.022,1.296,2.862,1.134,1.542,1.782,2.106v.09h-5.616v-16.992h5.616v.09Z"/>
      <path class="cls-3" d="M48.822,28.536c-.265.168-.543.331-.837.486s-.609.318-.945.486c-.276.144-.615.312-1.017.504-.402.192-.835.405-1.296.639-.463.234-.928.48-1.396.738-.468.258-.906.52-1.313.783-.744.492-1.348,1.002-1.81,1.53-.462.528-.692,1.11-.692,1.746s.312,1.125.936,1.467c.624.342,1.56.513,2.808.513.624,0,1.287-.027,1.989-.081.702-.054,1.396-.132,2.079-.234s1.29-.219,1.818-.351l-.036,2.592c-.504.083-1.054.162-1.647.234-.594.072-1.236.126-1.926.162-.69.036-1.425.054-2.205.054-.9,0-1.731-.069-2.493-.207-.762-.138-1.428-.363-1.998-.675-.569-.312-1.014-.732-1.332-1.26-.317-.528-.477-1.176-.477-1.944s.168-1.464.504-2.088.795-1.2,1.377-1.728c.582-.528,1.221-1.026,1.917-1.494.432-.288.888-.567,1.368-.837.479-.27.951-.531,1.413-.783s.894-.483,1.296-.693c.401-.21.734-.393.999-.549.348-.204.653-.39.918-.558.264-.168.516-.348.756-.54l1.242,2.088ZM39.769,24.684c.3.792.614,1.554.944,2.286s.66,1.416.99,2.052.633,1.206.909,1.71l-2.034,1.206c-.324-.552-.66-1.17-1.008-1.854-.349-.684-.696-1.407-1.044-2.169-.349-.762-.685-1.533-1.008-2.313l2.25-.918Z"/>
      <path class="cls-3" d="M58.326,24.576c-.061.216-.126.486-.198.81-.072.324-.144.663-.216,1.017s-.135.699-.189,1.035c-.054.336-.093.63-.116.882.216-.36.474-.711.773-1.053.3-.342.64-.654,1.018-.936.378-.282.792-.507,1.241-.675.45-.168.928-.252,1.432-.252.84,0,1.596.258,2.268.774.672.516,1.203,1.254,1.593,2.214.391.96.586,2.1.586,3.42,0,1.272-.187,2.385-.559,3.339s-.906,1.767-1.602,2.439c-.696.672-1.527,1.221-2.493,1.647s-2.043.747-3.231.963l-1.368-2.088c.996-.156,1.911-.369,2.745-.639s1.555-.639,2.16-1.107c.606-.468,1.074-1.071,1.404-1.809.33-.738.495-1.647.495-2.727,0-.924-.097-1.707-.288-2.349-.192-.642-.472-1.131-.837-1.467-.366-.336-.801-.504-1.306-.504-.527,0-1.032.174-1.512.522-.479.348-.909.801-1.287,1.359-.378.558-.678,1.161-.899,1.809-.223.648-.346,1.272-.369,1.872-.013.252-.016.528-.009.828.006.3.038.66.099,1.08l-2.214.144c-.048-.348-.1-.783-.153-1.305s-.081-1.089-.081-1.701c0-.42.015-.87.045-1.35.03-.479.066-.969.108-1.467s.096-.999.162-1.503c.065-.504.129-.984.188-1.44.048-.348.084-.69.108-1.026.023-.335.036-.624.036-.864l2.466.108Z"/>
      <path class="cls-3" d="M83.311,29.166c-.036.108-.091.258-.162.45-.072.192-.142.39-.207.594-.066.204-.117.366-.153.486-.349,1.08-.771,2.067-1.269,2.961-.498.894-1.035,1.674-1.611,2.34s-1.146,1.209-1.71,1.629c-.588.444-1.26.831-2.017,1.161-.756.33-1.518.495-2.285.495-.433,0-.835-.09-1.206-.27-.372-.18-.669-.465-.892-.855-.222-.39-.333-.885-.333-1.485,0-.648.132-1.284.396-1.908.264-.624.63-1.218,1.098-1.782s1.014-1.065,1.638-1.503,1.297-.783,2.017-1.035c.588-.216,1.232-.39,1.935-.522.702-.132,1.396-.198,2.079-.198,1.116,0,2.115.204,2.997.612.882.408,1.575.966,2.079,1.674s.756,1.536.756,2.484c0,.636-.102,1.257-.306,1.863s-.537,1.167-.999,1.683c-.462.516-1.071.96-1.827,1.332-.756.372-1.687.642-2.79.81l-1.188-1.89c1.151-.132,2.088-.393,2.808-.783.72-.39,1.245-.861,1.575-1.413.33-.552.495-1.122.495-1.71,0-.528-.142-1.002-.424-1.422-.281-.42-.701-.759-1.26-1.017-.558-.258-1.245-.387-2.061-.387s-1.546.09-2.188.27c-.642.18-1.179.372-1.61.576-.601.288-1.135.651-1.603,1.089-.468.438-.834.897-1.098,1.377-.265.48-.396.924-.396,1.332,0,.288.066.507.198.657s.342.225.63.225c.433,0,.93-.141,1.494-.423s1.122-.681,1.674-1.197c.648-.6,1.26-1.32,1.836-2.16.576-.84,1.05-1.884,1.422-3.132.036-.12.072-.276.108-.468.036-.191.069-.387.099-.585.03-.198.051-.357.063-.477l2.196.522ZM75.552,26.538c1.141,0,2.211-.024,3.213-.072s1.969-.132,2.898-.252,1.856-.294,2.781-.522l.018,2.088c-.624.108-1.311.207-2.061.297-.75.09-1.53.165-2.34.225-.811.06-1.605.105-2.386.135-.78.03-1.512.045-2.195.045-.312,0-.663-.006-1.054-.018-.39-.012-.773-.027-1.151-.045s-.705-.033-.981-.045l-.054-2.088c.204.024.498.057.882.099s.795.078,1.233.108c.438.03.837.045,1.196.045ZM78.756,24.54c-.048.168-.093.333-.135.495s-.081.315-.117.459c-.107.564-.21,1.209-.306,1.935-.097.726-.174,1.482-.234,2.268-.06.786-.09,1.557-.09,2.313,0,.936.048,1.797.145,2.583.096.786.23,1.512.404,2.178s.363,1.299.567,1.899l-2.07.63c-.18-.54-.351-1.182-.513-1.926s-.297-1.545-.405-2.403c-.107-.858-.162-1.725-.162-2.601,0-.6.021-1.203.063-1.809.042-.605.087-1.206.135-1.8.048-.594.104-1.164.171-1.71.066-.546.123-1.041.171-1.485.012-.168.024-.351.036-.549.012-.198.012-.375,0-.531l2.34.054Z"/>
      <path class="cls-3" d="M101.418,30.156c-.24.168-.456.327-.647.477-.192.15-.366.297-.522.441-.216.168-.465.384-.747.648-.282.264-.573.531-.873.801s-.566.519-.801.747-.405.402-.513.522c.071-.012.18-.006.323.018.145.024.265.061.36.108.264.084.479.225.648.423.168.198.312.465.432.801.06.156.117.333.171.531.054.198.111.393.171.585.061.192.12.366.181.522.083.276.228.486.432.63s.479.216.828.216c.468,0,.911-.015,1.332-.045.42-.03.815-.069,1.188-.117s.708-.102,1.008-.162l-.144,2.358c-.24.048-.579.093-1.017.135-.438.042-.889.075-1.351.099s-.849.036-1.161.036c-.852,0-1.521-.111-2.007-.333s-.843-.627-1.071-1.215c-.048-.18-.107-.384-.18-.612s-.135-.453-.188-.675c-.055-.222-.105-.405-.153-.549-.097-.324-.234-.549-.414-.675s-.36-.189-.54-.189c-.192,0-.384.063-.576.189s-.396.303-.611.531c-.12.12-.268.276-.441.468-.174.192-.372.408-.594.648-.223.24-.45.499-.685.774-.233.276-.477.564-.729.864s-.504.612-.756.936l-2.124-1.494c.155-.144.342-.309.558-.495s.443-.393.684-.621c.156-.156.379-.381.666-.675.288-.294.621-.627.999-.999.378-.372.774-.771,1.188-1.197.414-.426.831-.849,1.251-1.269.42-.42.812-.819,1.179-1.197.366-.378.688-.711.963-.999-.252.012-.534.027-.846.045-.312.018-.636.036-.972.054s-.666.042-.99.072-.624.057-.9.081c-.275.024-.521.048-.737.072-.312.024-.601.057-.864.099-.265.042-.492.075-.685.099l-.216-2.484c.204.012.462.027.774.045.312.018.63.021.954.009.168,0,.446-.006.837-.018.39-.012.843-.03,1.358-.054.517-.024,1.041-.051,1.575-.081s1.038-.066,1.513-.108c.474-.042.854-.081,1.143-.117.168-.024.356-.054.567-.09.209-.036.362-.072.459-.108l1.313,1.494ZM93.444,24.432c.504.096,1.08.189,1.728.279.648.09,1.317.177,2.007.261.69.084,1.351.153,1.98.207.63.054,1.173.099,1.629.135l-.288,2.106c-.468-.036-1.017-.087-1.646-.153-.631-.065-1.284-.141-1.962-.225-.679-.084-1.348-.168-2.008-.252-.66-.083-1.254-.173-1.781-.27l.342-2.088Z"/>
      <path class="cls-3" d="M106.89,27.024c.54-.012,1.144-.021,1.81-.027.666-.006,1.365-.018,2.097-.036.732-.018,1.455-.033,2.169-.045.714-.012,1.38-.021,1.998-.027.618-.006,1.155-.009,1.611-.009s.954-.003,1.494-.009c.54-.006,1.073-.009,1.602-.009h2.466l-.018,2.142c-.564-.024-1.312-.048-2.241-.072-.93-.024-2.055-.036-3.375-.036-.816,0-1.644.009-2.483.027-.841.018-1.675.042-2.502.072-.828.03-1.627.061-2.395.09s-1.494.069-2.178.117l-.055-2.178ZM116.628,32.334c0,.984-.117,1.8-.351,2.448-.234.648-.585,1.137-1.053,1.467-.469.33-1.051.495-1.746.495-.349,0-.705-.069-1.071-.207-.366-.138-.702-.348-1.008-.63-.307-.282-.556-.627-.747-1.035-.192-.408-.288-.882-.288-1.422,0-.684.165-1.278.495-1.782.33-.504.771-.897,1.322-1.179.553-.282,1.152-.423,1.801-.423.792,0,1.455.18,1.988.54.534.36.939.84,1.216,1.44.275.6.414,1.272.414,2.016,0,.588-.097,1.2-.288,1.836-.192.636-.514,1.26-.963,1.872-.45.612-1.045,1.164-1.782,1.656-.738.492-1.659.894-2.764,1.206l-1.907-1.926c.768-.156,1.481-.36,2.142-.612s1.239-.57,1.737-.954c.497-.384.888-.858,1.17-1.422.281-.564.423-1.236.423-2.016,0-.588-.138-1.023-.414-1.305-.276-.282-.624-.423-1.044-.423-.229,0-.447.051-.657.153s-.381.261-.513.477c-.132.216-.198.48-.198.792,0,.42.141.753.423.999s.604.369.963.369c.288,0,.546-.093.774-.279.228-.186.375-.489.441-.909.065-.42.002-.984-.189-1.692l1.674.45ZM117.061,24.774c-.013.096-.03.249-.055.459-.023.21-.039.42-.045.63s-.015.363-.026.459c-.013.24-.021.564-.027.972-.006.408-.009.858-.009,1.35s.003.987.009,1.485.012.966.018,1.404c.006.438.01.801.01,1.089l-2.232-.774v-2.133c0-.45-.003-.897-.009-1.341-.007-.444-.016-.846-.027-1.206-.012-.36-.024-.636-.036-.828-.024-.36-.054-.684-.09-.972s-.061-.486-.072-.594h2.593ZM119.382,24.234c.229.324.456.681.685,1.071.228.39.42.741.576,1.053l-1.513.63c-.18-.36-.372-.723-.576-1.089s-.42-.717-.647-1.053l1.476-.612ZM121.794,23.73c.228.324.456.675.685,1.053.228.378.426.729.594,1.053l-1.512.63c-.181-.36-.376-.723-.585-1.089-.211-.366-.436-.711-.676-1.035l1.494-.612Z"/>
      <path class="cls-3" d="M128.652,31.074l2.142.522c-.516,1.464-1.212,2.799-2.088,4.005-.876,1.206-1.848,2.199-2.916,2.979-.108-.144-.261-.317-.459-.522-.198-.204-.402-.408-.612-.612s-.393-.366-.549-.486c1.02-.648,1.92-1.485,2.7-2.511s1.374-2.151,1.782-3.375ZM124.854,30.264h15.947v1.692h-15.947v-1.692ZM125.664,25.494h14.437v1.674h-14.437v-1.674ZM126.564,27.942h12.6v1.566h-12.6v-1.566ZM127.896,24.306l1.926-.612c.24.264.468.561.684.891s.372.627.469.891l-1.998.738c-.085-.264-.229-.576-.433-.936s-.42-.684-.647-.972ZM128.562,32.676h10.71v7.938h-2.269v-6.408h-6.3v6.408h-2.142v-7.938ZM129.732,38.562h8.388v1.53h-8.388v-1.53ZM129.75,34.854h8.154v1.188h-8.154v-1.188ZM129.75,36.69h8.154v1.206h-8.154v-1.206ZM131.694,26.718h2.214v4.896h-2.214v-4.896ZM135.672,23.676l2.358.594c-.276.348-.543.675-.801.981-.259.306-.483.567-.676.783l-1.836-.558c.168-.276.345-.579.531-.909.186-.33.327-.627.423-.891Z"/>
      <path class="cls-3" d="M142.584,33h16.542v2.124h-16.542v-2.124ZM155.922,23.694l1.566,1.8c-.925.24-1.93.447-3.016.621-1.086.174-2.211.324-3.375.45s-2.334.228-3.51.306c-1.176.078-2.31.135-3.401.171-.036-.276-.108-.603-.217-.981-.107-.378-.216-.687-.323-.927,1.08-.036,2.187-.096,3.32-.18,1.135-.083,2.244-.186,3.33-.306s2.109-.258,3.069-.414,1.812-.336,2.556-.54ZM143.826,28.806h14.22v2.07h-14.22v-2.07ZM149.73,26.25h2.25v11.808c0,.648-.088,1.131-.262,1.449-.174.318-.482.567-.927.747-.42.156-.963.258-1.629.306s-1.461.066-2.385.054c-.036-.204-.105-.435-.207-.693-.103-.258-.213-.516-.333-.774-.12-.258-.234-.483-.342-.675.455.012.905.024,1.35.036.443.012.84.018,1.188.018h.737c.204-.012.349-.054.433-.126.083-.072.126-.198.126-.378v-11.772Z"/>
      <path class="cls-3" d="M165.948,40.686h-5.616v-.09c.66-.564,1.257-1.266,1.791-2.106s.963-1.794,1.287-2.862.486-2.214.486-3.438c0-1.236-.162-2.385-.486-3.447s-.753-2.016-1.287-2.862c-.534-.846-1.131-1.545-1.791-2.097v-.09h5.616v16.992Z"/>
      <path class="cls-3" d="M27.762,63.69c0-1.284.162-2.46.486-3.528.324-1.068.756-2.028,1.296-2.88s1.128-1.596,1.765-2.232l1.71.756c-.601.636-1.144,1.347-1.63,2.133-.485.786-.872,1.653-1.16,2.601-.288.948-.433,1.998-.433,3.15,0,1.14.145,2.187.433,3.141.288.954.675,1.821,1.16,2.601.486.78,1.029,1.494,1.63,2.142l-1.71.756c-.637-.636-1.225-1.38-1.765-2.232-.54-.852-.972-1.812-1.296-2.88-.324-1.068-.486-2.244-.486-3.528Z"/>
      <path class="cls-3" d="M48.84,58.326c-.071.108-.177.276-.314.504-.139.229-.243.438-.315.63-.252.564-.561,1.194-.927,1.89-.366.696-.78,1.395-1.242,2.097s-.951,1.359-1.467,1.971c-.672.756-1.413,1.503-2.223,2.241-.811.738-1.663,1.416-2.557,2.034s-1.809,1.149-2.745,1.593l-1.854-1.944c.972-.372,1.914-.84,2.826-1.404.911-.564,1.758-1.176,2.538-1.836.779-.66,1.451-1.302,2.016-1.926.396-.456.771-.942,1.125-1.458.354-.516.669-1.029.945-1.539.275-.51.479-.981.611-1.413h-6.102c-.252,0-.517.009-.792.027-.276.018-.537.036-.783.054s-.435.033-.567.045v-2.556c.181.012.402.03.666.054.265.024.531.042.802.054.27.012.495.018.675.018h6.354c.396,0,.759-.024,1.09-.072.329-.048.585-.102.765-.162l1.476,1.098ZM44.809,63.924c.468.372.966.804,1.493,1.296.528.492,1.05,1.002,1.566,1.53.516.528.993,1.035,1.431,1.521.438.486.808.909,1.107,1.269l-2.052,1.782c-.444-.612-.951-1.248-1.521-1.908-.57-.66-1.17-1.316-1.8-1.971-.63-.654-1.27-1.275-1.917-1.863l1.692-1.656Z"/>
      <path class="cls-3" d="M57.354,56.724c-.049.276-.084.594-.108.954s-.036.666-.036.918v9.09c0,.384.096.648.288.792.191.144.486.258.882.342.276.036.595.063.954.081.36.018.738.027,1.134.027.469,0,.987-.015,1.558-.045.569-.03,1.146-.069,1.728-.117.582-.048,1.131-.114,1.647-.198.516-.084.96-.174,1.332-.27v2.628c-.564.084-1.219.153-1.962.207-.744.054-1.503.096-2.277.126-.774.03-1.497.045-2.169.045-.588,0-1.144-.018-1.665-.054-.522-.036-.976-.084-1.359-.144-.78-.156-1.386-.453-1.817-.891-.433-.438-.648-1.041-.648-1.809v-9.81c0-.132-.006-.312-.018-.54-.013-.228-.027-.462-.045-.702-.019-.24-.045-.45-.081-.63h2.664ZM56.166,62.25c.576-.12,1.188-.267,1.836-.441.648-.174,1.302-.363,1.962-.567.66-.204,1.287-.411,1.881-.621.595-.209,1.125-.417,1.594-.621.323-.12.645-.258.963-.414.317-.156.65-.342.999-.558l.972,2.286c-.348.132-.711.279-1.089.441s-.717.297-1.017.405c-.528.204-1.132.42-1.81.648-.678.228-1.383.453-2.115.675-.731.222-1.455.429-2.169.621s-1.377.36-1.988.504l-.019-2.358ZM64.645,57.75c0-.396.096-.756.287-1.08.192-.324.45-.585.774-.783.324-.198.684-.297,1.08-.297s.756.099,1.08.297c.324.198.585.459.783.783.197.324.297.684.297,1.08s-.1.756-.297,1.08c-.198.324-.459.585-.783.783-.324.198-.685.297-1.08.297s-.756-.099-1.08-.297c-.324-.198-.582-.459-.774-.783-.191-.324-.287-.684-.287-1.08ZM65.76,57.75c0,.288.1.534.297.738.198.204.441.306.729.306s.534-.102.738-.306.306-.45.306-.738-.102-.534-.306-.738c-.204-.204-.45-.306-.738-.306s-.531.103-.729.306c-.197.204-.297.45-.297.738Z"/>
      <path class="cls-3" d="M71.484,62.196c.216.012.491.027.828.045.335.018.687.033,1.053.045.366.012.705.018,1.017.018h9.666c.42,0,.816-.015,1.188-.045.372-.03.678-.051.918-.063v2.826c-.204-.012-.511-.03-.918-.054-.408-.024-.805-.036-1.188-.036h-9.666c-.516,0-1.044.009-1.584.027-.54.018-.978.039-1.313.063v-2.826Z"/>
      <path class="cls-3" d="M92.922,69.072v-10.35c0-.324-.015-.69-.045-1.098-.03-.408-.075-.768-.135-1.08h2.808c-.036.312-.071.66-.107,1.044-.036.384-.055.762-.055,1.134v10.35c0,.156.01.387.027.693.019.306.042.621.072.945.029.324.057.612.081.864h-2.826c.06-.348.104-.765.135-1.251s.045-.903.045-1.251ZM94.866,61.206c.6.156,1.269.357,2.007.603.738.246,1.485.51,2.241.792.756.282,1.47.558,2.142.828s1.225.513,1.656.729l-1.008,2.502c-.517-.276-1.08-.546-1.692-.81-.611-.264-1.232-.524-1.862-.783-.631-.258-1.245-.495-1.846-.711-.6-.216-1.146-.402-1.638-.558v-2.592ZM100.104,57.138c.168.24.354.522.558.846.204.324.398.648.585.972.186.324.351.625.495.9l-1.566.702c-.168-.384-.333-.726-.495-1.026-.161-.3-.326-.591-.494-.873-.169-.282-.366-.579-.595-.891l1.513-.63ZM102.462,56.148c.181.24.375.516.585.828.21.312.414.627.612.945s.362.615.495.891l-1.512.738c-.192-.384-.376-.723-.55-1.017-.174-.294-.348-.576-.521-.846-.174-.27-.375-.549-.604-.837l1.494-.702Z"/>
      <path class="cls-3" d="M106.656,69.918h16.397v1.71h-16.397v-1.71ZM106.764,58.434h16.164v1.692h-16.164v-1.692ZM107.988,67.344h13.896v1.638h-13.896v-1.638ZM120.264,55.248l1.009,1.674c-.876.144-1.834.267-2.871.369-1.038.102-2.115.189-3.231.261-1.116.072-2.238.129-3.366.171-1.128.042-2.214.069-3.258.081-.012-.252-.065-.537-.162-.855-.096-.318-.186-.591-.27-.819,1.044-.024,2.121-.06,3.23-.108,1.11-.048,2.202-.108,3.276-.18s2.094-.159,3.06-.261c.966-.102,1.827-.213,2.583-.333ZM108.582,60.81h12.618v5.742h-12.618v-5.742ZM110.688,62.232v.792h8.315v-.792h-8.315ZM110.688,64.32v.81h8.315v-.81h-8.315ZM113.658,56.922h2.178v13.86h-2.178v-13.86Z"/>
      <path class="cls-3" d="M129.498,58.578h.414l.36-.09,1.188.792c-.42,1.152-.969,2.262-1.646,3.33-.679,1.068-1.426,2.031-2.241,2.889-.816.858-1.656,1.569-2.521,2.133-.048-.192-.135-.423-.261-.693s-.255-.528-.387-.774c-.133-.246-.246-.441-.342-.585.768-.444,1.509-1.014,2.223-1.71.714-.696,1.35-1.467,1.908-2.313.558-.846.992-1.713,1.305-2.601v-.378ZM124.729,58.578h5.489v1.944h-5.489v-1.944ZM127.068,55.248h2.105v4.23h-2.105v-4.23ZM127.068,64.716l2.105-2.52v9.954h-2.105v-7.434ZM129.12,62.592c.144.108.354.285.63.531.276.246.57.513.882.801.312.288.597.555.855.801.258.246.446.429.566.549l-1.332,1.782c-.168-.24-.368-.51-.603-.81-.234-.3-.489-.612-.765-.936-.276-.324-.54-.626-.792-.909-.252-.282-.475-.519-.666-.711l1.224-1.098ZM133.422,65.868h2.07c-.084.936-.246,1.8-.486,2.592s-.642,1.497-1.206,2.115c-.563.618-1.374,1.143-2.43,1.575-.072-.168-.174-.36-.306-.576-.133-.216-.279-.423-.441-.621-.162-.198-.314-.357-.459-.477.876-.312,1.533-.696,1.971-1.152.438-.456.744-.972.918-1.548.174-.576.298-1.212.369-1.908ZM132.216,56.13h7.992v10.242h-7.992v-10.242ZM134.178,57.84v1.188h3.96v-1.188h-3.96ZM134.178,60.63v1.206h3.96v-1.206h-3.96ZM134.178,63.438v1.206h3.96v-1.206h-3.96ZM136.338,65.904h1.962v3.726c0,.24.019.39.055.45.035.061.113.09.233.09h.721c.096,0,.171-.045.225-.135.054-.09.093-.279.117-.567.023-.288.042-.726.054-1.314.132.108.3.21.504.306s.417.186.639.27c.223.084.417.15.585.198-.06.804-.161,1.431-.306,1.881-.144.45-.345.759-.603.927-.259.168-.592.252-.999.252h-1.261c-.527,0-.933-.072-1.215-.216s-.471-.39-.566-.738c-.097-.348-.145-.81-.145-1.386v-3.744Z"/>
      <path class="cls-3" d="M147.895,63.69c0,1.284-.162,2.46-.486,3.528-.324,1.068-.753,2.028-1.287,2.88-.534.852-1.125,1.596-1.773,2.232l-1.71-.756c.601-.648,1.144-1.362,1.63-2.142.485-.78.872-1.647,1.16-2.601.288-.954.433-2,.433-3.141,0-1.152-.145-2.202-.433-3.15-.288-.948-.675-1.814-1.16-2.601-.486-.786-1.029-1.497-1.63-2.133l1.71-.756c.648.636,1.239,1.38,1.773,2.232s.963,1.812,1.287,2.88c.324,1.068.486,2.244.486,3.528Z"/>
    </g>
    <g>
      <path class="cls-3" d="M427.324,23.784c-.648.552-1.242,1.251-1.782,2.097-.54.846-.972,1.8-1.296,2.862s-.486,2.211-.486,3.447c0,1.224.162,2.37.486,3.438s.756,2.022,1.296,2.862,1.134,1.542,1.782,2.106v.09h-5.616v-16.992h5.616v.09Z"/>
      <path class="cls-3" d="M428.566,33.504h16.542v1.746h-16.542v-1.746ZM428.908,24.378h15.75v1.872h-15.75v-1.872ZM439.798,34.152l2.088.522c-.456,1.068-1.032,1.956-1.728,2.664-.696.708-1.539,1.284-2.529,1.728s-2.139.789-3.447,1.035c-1.308.246-2.796.435-4.464.567-.071-.312-.183-.642-.333-.99-.149-.348-.309-.636-.477-.864,2.016-.084,3.747-.27,5.193-.558,1.445-.288,2.637-.756,3.572-1.404.937-.648,1.645-1.548,2.124-2.7ZM429.736,27.258h14.346v5.076h-14.346v-5.076ZM434.578,31.758l2.124.558c-.384.624-.801,1.278-1.251,1.962s-.895,1.344-1.332,1.98c-.438.636-.843,1.194-1.215,1.674l-2.07-.648c.372-.479.78-1.038,1.225-1.674.443-.636.888-1.29,1.331-1.962.444-.672.84-1.302,1.188-1.89ZM431.771,28.968v1.674h10.17v-1.674h-10.17ZM432.076,37.428l1.08-1.53c1.392.276,2.787.591,4.185.945,1.398.354,2.715.714,3.951,1.08s2.304.711,3.204,1.035l-1.296,1.764c-.876-.36-1.905-.735-3.087-1.125-1.183-.39-2.46-.771-3.834-1.143-1.374-.372-2.775-.714-4.203-1.026ZM433.66,25.098h2.034v6.156h-2.034v-6.156ZM437.729,25.098h2.052v6.156h-2.052v-6.156Z"/>
      <path class="cls-3" d="M450.185,23.802l2.052.648c-.385,1.008-.834,2.025-1.351,3.051-.516,1.026-1.077,1.995-1.683,2.907-.606.912-1.233,1.716-1.881,2.412-.072-.18-.174-.411-.306-.693-.133-.282-.276-.567-.433-.855-.156-.288-.3-.522-.432-.702.54-.552,1.059-1.188,1.557-1.908.498-.72.96-1.494,1.386-2.322s.789-1.674,1.09-2.538ZM448.402,28.788l2.052-2.052v13.878h-2.052v-11.826ZM453.334,24.738l2.088.414c-.168.816-.372,1.626-.611,2.43-.24.804-.508,1.557-.802,2.259s-.603,1.317-.927,1.845c-.132-.108-.314-.228-.549-.36-.234-.132-.468-.261-.702-.387s-.441-.219-.621-.279c.324-.479.624-1.041.9-1.683.275-.642.516-1.326.72-2.052s.372-1.455.504-2.187ZM451.517,32.46h11.699v2.106h-11.699v-2.106ZM454.036,27.222h8.334v2.124h-8.874l.54-2.124ZM456.395,23.964h2.195v16.668h-2.195v-16.668Z"/>
      <path class="cls-3" d="M472.576,24.594c-.061.324-.156.744-.288,1.26s-.324,1.098-.576,1.746c-.191.444-.411.903-.657,1.377-.246.475-.494.897-.746,1.269.155-.072.354-.135.594-.189.239-.054.488-.096.747-.126.258-.03.488-.045.692-.045.756,0,1.383.216,1.881.648s.747,1.074.747,1.926c0,.24.003.534.01.882.006.348.015.711.026,1.089s.024.747.036,1.107c.012.36.019.684.019.972h-2.16c.023-.204.038-.447.045-.729.006-.282.012-.579.018-.891.006-.312.012-.615.019-.909.006-.294.009-.561.009-.801,0-.576-.153-.975-.459-1.197s-.646-.333-1.018-.333c-.504,0-1.011.123-1.521.369-.51.246-.939.538-1.287.873-.264.264-.531.558-.801.882-.271.324-.562.69-.873,1.098l-1.926-1.44c.779-.72,1.454-1.416,2.024-2.088.57-.672,1.054-1.338,1.449-1.998.396-.66.72-1.32.972-1.98.181-.48.327-.981.441-1.503s.183-1.011.207-1.467l2.376.198ZM465.809,26.25c.455.072.983.126,1.584.162.6.036,1.127.054,1.584.054.792,0,1.658-.018,2.601-.054.941-.036,1.899-.099,2.871-.189.972-.09,1.896-.207,2.771-.351l-.018,2.088c-.636.084-1.323.159-2.061.225-.738.066-1.488.12-2.25.162-.763.042-1.491.072-2.188.09-.696.018-1.314.027-1.854.027-.24,0-.538-.003-.892-.009-.354-.006-.717-.018-1.089-.036s-.727-.039-1.062-.063v-2.106ZM480.064,31.362c-.192.06-.417.135-.676.225-.258.09-.516.18-.773.27-.258.09-.489.177-.693.261-.576.228-1.257.504-2.043.828s-1.604.702-2.457,1.134c-.54.288-.996.57-1.368.846-.372.276-.653.555-.846.837-.192.282-.288.591-.288.927,0,.252.055.459.162.621.108.162.271.292.486.387.216.096.485.162.81.198.324.036.708.054,1.152.054.768,0,1.613-.045,2.538-.135.924-.09,1.782-.213,2.574-.369l-.072,2.322c-.385.048-.87.099-1.458.153-.588.054-1.197.093-1.827.117s-1.233.036-1.809.036c-.937,0-1.776-.09-2.521-.27-.744-.18-1.329-.489-1.755-.927-.426-.438-.639-1.041-.639-1.809,0-.624.141-1.188.423-1.692.281-.504.657-.96,1.125-1.368.468-.408.98-.777,1.539-1.107.558-.33,1.106-.633,1.646-.909.552-.288,1.05-.534,1.494-.738s.861-.387,1.251-.549c.39-.162.765-.327,1.125-.495.348-.156.685-.309,1.008-.459.324-.15.654-.309.99-.477l.9,2.088Z"/>
      <path class="cls-3" d="M483.178,24.522h15.354v16.164h-2.25v-14.166h-10.944v14.166h-2.16v-16.164ZM484.438,37.896h12.708v1.998h-12.708v-1.998ZM486.13,28.77h9.45v1.728h-9.45v-1.728ZM486.958,31.956h7.866v4.77h-7.866v-4.77ZM488.83,33.558v1.566h3.996v-1.566h-3.996ZM489.784,27.042h2.034v5.904h-2.034v-5.904Z"/>
      <path class="cls-3" d="M512.41,24.918c-.036.156-.081.348-.135.576-.055.228-.105.457-.153.684-.048.228-.09.414-.126.558-.192.804-.408,1.623-.648,2.457-.239.834-.51,1.659-.81,2.475s-.633,1.578-.999,2.286c-.366.708-.771,1.338-1.215,1.89-.54.696-1.047,1.266-1.521,1.71-.474.444-.944.771-1.413.981-.468.21-.978.315-1.529.315-.492,0-.957-.135-1.396-.405-.438-.27-.792-.672-1.062-1.206-.271-.534-.405-1.191-.405-1.971,0-.804.146-1.604.441-2.403.294-.798.702-1.539,1.224-2.223.522-.684,1.137-1.253,1.845-1.71.96-.624,1.902-1.062,2.826-1.314s1.866-.378,2.826-.378c1.248,0,2.352.261,3.312.783s1.71,1.251,2.25,2.187.811,2.034.811,3.294-.279,2.349-.837,3.267c-.559.918-1.323,1.65-2.295,2.196-.973.546-2.082.915-3.33,1.107l-1.386-2.088c.995-.084,1.845-.264,2.547-.54.702-.276,1.271-.624,1.71-1.044.438-.42.759-.888.963-1.404.204-.516.306-1.056.306-1.62,0-.816-.177-1.533-.531-2.151-.354-.618-.849-1.104-1.484-1.458-.637-.354-1.386-.531-2.25-.531-.948,0-1.794.153-2.538.459s-1.429.687-2.052,1.143c-.469.336-.87.741-1.206,1.215-.336.474-.595.975-.774,1.503-.18.528-.27,1.038-.27,1.53,0,.432.093.78.278,1.044.187.264.436.396.747.396.229,0,.462-.069.702-.207.24-.138.479-.324.72-.558s.48-.507.721-.819c.239-.312.479-.642.72-.99.336-.516.654-1.092.954-1.728.3-.636.572-1.302.818-1.998.246-.696.453-1.371.621-2.025.168-.654.3-1.257.396-1.809.06-.264.099-.563.117-.9.018-.335.026-.605.026-.81l2.484.234ZM504.814,25.512c.06.3.123.594.188.882.066.288.135.57.207.846.132.492.288,1.023.468,1.593.181.57.375,1.137.585,1.701.21.564.424,1.083.64,1.557s.432.879.647,1.215c.312.48.666.981,1.062,1.503.396.522.804.987,1.224,1.395l-1.817,1.44c-.36-.396-.682-.776-.964-1.143-.281-.366-.572-.777-.873-1.233-.264-.408-.53-.882-.801-1.422-.27-.54-.534-1.128-.792-1.764-.258-.636-.504-1.29-.737-1.962-.234-.672-.459-1.338-.676-1.998-.096-.324-.201-.636-.314-.936-.114-.3-.249-.612-.405-.936l2.358-.738Z"/>
      <path class="cls-3" d="M519.106,26.646c.359-.012.702-.027,1.025-.045.324-.018.576-.033.756-.045.372-.036.828-.078,1.368-.126.54-.048,1.149-.102,1.827-.162.678-.06,1.401-.123,2.169-.189.768-.065,1.566-.135,2.395-.207.623-.048,1.247-.093,1.872-.135.623-.042,1.215-.078,1.772-.108.559-.03,1.041-.051,1.449-.063l.018,2.304c-.323,0-.695.006-1.115.018-.421.012-.838.033-1.251.063-.414.03-.783.081-1.107.153-.54.144-1.041.387-1.503.729-.462.342-.867.747-1.215,1.215-.349.468-.615.969-.802,1.503-.186.534-.278,1.071-.278,1.611,0,.588.102,1.107.306,1.557s.489.834.855,1.152c.365.318.795.583,1.287.792.491.21,1.022.369,1.593.477.569.108,1.161.18,1.772.216l-.846,2.466c-.756-.048-1.491-.168-2.205-.36-.714-.192-1.38-.456-1.998-.792s-1.161-.747-1.629-1.233c-.468-.486-.834-1.044-1.098-1.674-.265-.63-.396-1.335-.396-2.115,0-.876.138-1.674.414-2.394.276-.72.618-1.353,1.026-1.899.407-.546.815-.969,1.224-1.269-.336.036-.741.081-1.215.135-.475.054-.984.114-1.53.18s-1.101.135-1.665.207c-.563.072-1.106.153-1.629.243-.521.09-.993.177-1.413.261l-.233-2.466Z"/>
      <path class="cls-3" d="M540.652,31.074l2.142.522c-.516,1.464-1.212,2.799-2.088,4.005-.876,1.206-1.848,2.199-2.916,2.979-.108-.144-.261-.317-.459-.522-.198-.204-.402-.408-.612-.612s-.393-.366-.549-.486c1.02-.648,1.92-1.485,2.7-2.511s1.374-2.151,1.782-3.375ZM536.854,30.264h15.947v1.692h-15.947v-1.692ZM537.664,25.494h14.437v1.674h-14.437v-1.674ZM538.564,27.942h12.6v1.566h-12.6v-1.566ZM539.896,24.306l1.926-.612c.24.264.468.561.684.891s.372.627.469.891l-1.998.738c-.085-.264-.229-.576-.433-.936s-.42-.684-.647-.972ZM540.562,32.676h10.71v7.938h-2.269v-6.408h-6.3v6.408h-2.142v-7.938ZM541.732,38.562h8.388v1.53h-8.388v-1.53ZM541.75,34.854h8.154v1.188h-8.154v-1.188ZM541.75,36.69h8.154v1.206h-8.154v-1.206ZM543.694,26.718h2.214v4.896h-2.214v-4.896ZM547.672,23.676l2.358.594c-.276.348-.543.675-.801.981-.259.306-.483.567-.676.783l-1.836-.558c.168-.276.345-.579.531-.909.186-.33.327-.627.423-.891Z"/>
      <path class="cls-3" d="M554.584,33h16.542v2.124h-16.542v-2.124ZM567.922,23.694l1.566,1.8c-.925.24-1.93.447-3.016.621-1.086.174-2.211.324-3.375.45s-2.334.228-3.51.306c-1.176.078-2.31.135-3.401.171-.036-.276-.108-.603-.217-.981-.107-.378-.216-.687-.323-.927,1.08-.036,2.187-.096,3.32-.18,1.135-.083,2.244-.186,3.33-.306s2.109-.258,3.069-.414,1.812-.336,2.556-.54ZM555.826,28.806h14.22v2.07h-14.22v-2.07ZM561.73,26.25h2.25v11.808c0,.648-.088,1.131-.262,1.449-.174.318-.482.567-.927.747-.42.156-.963.258-1.629.306s-1.461.066-2.385.054c-.036-.204-.105-.435-.207-.693-.103-.258-.213-.516-.333-.774-.12-.258-.234-.483-.342-.675.455.012.905.024,1.35.036.443.012.84.018,1.188.018h.737c.204-.012.349-.054.433-.126.083-.072.126-.198.126-.378v-11.772Z"/>
      <path class="cls-3" d="M577.948,40.686h-5.616v-.09c.66-.564,1.257-1.266,1.791-2.106s.963-1.794,1.287-2.862.486-2.214.486-3.438c0-1.236-.162-2.385-.486-3.447s-.753-2.016-1.287-2.862c-.534-.846-1.131-1.545-1.791-2.097v-.09h5.616v16.992Z"/>
      <path class="cls-3" d="M421.762,63.69c0-1.284.162-2.46.486-3.528.324-1.068.756-2.028,1.296-2.88s1.128-1.596,1.765-2.232l1.71.756c-.601.636-1.144,1.347-1.63,2.133-.485.786-.872,1.653-1.16,2.601-.288.948-.433,1.998-.433,3.15,0,1.14.145,2.187.433,3.141.288.954.675,1.821,1.16,2.601.486.78,1.029,1.494,1.63,2.142l-1.71.756c-.637-.636-1.225-1.38-1.765-2.232-.54-.852-.972-1.812-1.296-2.88-.324-1.068-.486-2.244-.486-3.528Z"/>
      <path class="cls-3" d="M429.07,65.814l1.782.324c-.097.864-.24,1.716-.433,2.556-.191.84-.414,1.548-.666,2.124-.12-.084-.282-.177-.485-.279-.205-.102-.411-.201-.621-.297-.21-.096-.394-.168-.55-.216.265-.54.475-1.185.631-1.935.155-.75.27-1.509.342-2.277ZM428.278,63.168c.828-.024,1.817-.06,2.97-.108,1.152-.047,2.322-.096,3.51-.144l-.018,1.71c-1.116.084-2.223.162-3.321.234-1.098.072-2.085.138-2.961.198l-.18-1.89ZM428.296,59.514l1.044-1.476c.312.276.633.579.963.909s.637.66.918.99c.282.33.495.627.64.891l-1.099,1.674c-.144-.288-.351-.606-.62-.954-.271-.348-.567-.702-.892-1.062s-.642-.684-.954-.972ZM433.138,57.39l1.765.792c-.433.684-.906,1.401-1.422,2.151-.517.75-1.032,1.47-1.549,2.16-.516.69-1.002,1.293-1.457,1.809l-1.261-.702c.336-.408.685-.867,1.044-1.377.36-.51.717-1.044,1.071-1.602.354-.558.687-1.116.999-1.674.312-.558.582-1.077.81-1.557ZM431.068,55.248l1.872.702c-.24.456-.492.93-.756,1.422-.265.492-.522.96-.774,1.404s-.492.828-.72,1.152l-1.44-.612c.216-.372.438-.792.666-1.26.228-.468.444-.948.648-1.44.203-.492.371-.948.504-1.368ZM431.086,64.122h1.891v8.028h-1.891v-8.028ZM432.616,61.674l1.422-.594c.228.408.453.843.675,1.305s.414.912.576,1.35.272.831.333,1.179l-1.53.684c-.06-.348-.165-.747-.314-1.197-.15-.45-.327-.915-.531-1.395s-.414-.924-.63-1.332ZM432.994,66.156l1.512-.486c.229.516.447,1.077.657,1.683s.369,1.137.477,1.593l-1.602.576c-.084-.456-.229-.999-.432-1.629-.204-.63-.408-1.208-.612-1.737ZM435.46,58.362h8.298v1.98h-6.372v11.754h-1.926v-13.734ZM439.258,55.212h2.017c-.013,1.428-.052,2.778-.117,4.05-.066,1.272-.198,2.46-.396,3.564-.197,1.104-.494,2.104-.891,2.997-.396.894-.942,1.683-1.638,2.367-.084-.156-.204-.324-.36-.504-.156-.18-.321-.351-.495-.513s-.333-.285-.477-.369c.576-.6,1.025-1.299,1.35-2.097.324-.798.555-1.683.693-2.655.138-.972.225-2.031.261-3.177s.054-2.367.054-3.663ZM439.258,62.574l1.368-1.296c.348.552.699,1.14,1.053,1.764.354.624.685,1.236.99,1.836.307.6.555,1.134.747,1.602l-1.476,1.422c-.181-.48-.421-1.029-.721-1.647s-.618-1.248-.953-1.89c-.337-.642-.673-1.239-1.009-1.791ZM442.93,58.362h1.927v11.574c0,.48-.052.867-.153,1.161-.103.294-.31.525-.621.693-.288.156-.657.258-1.106.306-.45.048-.981.072-1.594.072-.023-.288-.093-.625-.207-1.008-.114-.384-.243-.708-.387-.972.372.012.738.018,1.098.018h.721c.216,0,.323-.108.323-.324v-11.52Z"/>
      <path class="cls-3" d="M450.472,59.208l1.891.792c-.433.744-.942,1.488-1.53,2.232s-1.206,1.449-1.854,2.115c-.648.666-1.284,1.245-1.908,1.737-.061-.168-.147-.393-.261-.675-.114-.282-.24-.567-.379-.855-.138-.288-.267-.516-.387-.684.54-.384,1.08-.825,1.62-1.323s1.056-1.032,1.548-1.602.912-1.149,1.26-1.737ZM450.004,55.266l2.052.828c-.396.552-.854,1.107-1.377,1.665-.521.558-1.07,1.083-1.646,1.575s-1.152.924-1.729,1.296c-.071-.168-.171-.366-.297-.594-.126-.228-.258-.456-.396-.684-.139-.228-.261-.414-.369-.558.468-.288.941-.63,1.422-1.026.479-.396.927-.812,1.341-1.251.414-.438.747-.855.999-1.251ZM448.69,63.24l1.998-1.998.107.036v10.854h-2.105v-8.892ZM451.75,65.598h11.286v1.836h-11.286v-1.836ZM452.2,62.826h10.458v1.764h-10.458v-1.764ZM452.938,68.334l1.512-1.008c.384.348.786.744,1.206,1.188.42.444.744.84.972,1.188l-1.602,1.134c-.133-.228-.315-.486-.549-.774-.234-.288-.486-.585-.757-.891-.27-.306-.53-.585-.782-.837ZM453.118,55.752h8.964v6.282h-8.964v-6.282ZM455.188,57.282v.882h4.716v-.882h-4.716ZM455.188,59.604v.9h4.716v-.9h-4.716ZM458.374,64.374h2.178v5.634c0,.492-.057.879-.171,1.161-.114.282-.345.495-.692.639-.337.156-.735.249-1.197.279-.462.03-.999.045-1.611.045-.036-.288-.12-.612-.252-.972-.132-.36-.27-.678-.414-.954.372.012.741.021,1.107.027s.608.009.729.009c.132-.012.219-.039.262-.081.042-.042.062-.111.062-.207v-5.58Z"/>
      <path class="cls-3" d="M465.844,56.904h1.998v2.772c0,.552-.029,1.152-.09,1.8-.06.648-.162,1.305-.306,1.971-.145.666-.352,1.314-.621,1.944-.271.63-.621,1.203-1.053,1.719-.097-.132-.243-.288-.441-.468-.198-.18-.402-.351-.612-.513s-.381-.273-.513-.333c.504-.612.87-1.278,1.098-1.998.229-.72.375-1.443.441-2.169.065-.726.099-1.389.099-1.989v-2.736ZM466.601,67.11l1.926.684c-.229.744-.525,1.473-.892,2.187s-.86,1.311-1.484,1.791l-1.782-1.206c.54-.408.996-.918,1.368-1.53.372-.612.659-1.254.864-1.926ZM466.87,56.904h13.86v1.728h-13.86v-1.728ZM468.238,59.46h5.328v1.386h-5.328v-1.386ZM468.311,61.71h5.13v3.906h-5.13v-1.386h3.365v-1.152h-3.365v-1.368ZM468.311,61.71h1.728v3.312h-1.728v-3.312ZM469.012,67.128h2.143v2.304c0,.252.057.408.171.468s.387.09.819.09h2.43c.24,0,.417-.036.531-.108.113-.072.197-.222.252-.45.054-.228.093-.576.117-1.044.144.096.329.195.558.297.228.103.462.192.702.27.239.079.456.135.647.171-.084.744-.216,1.317-.396,1.719-.181.402-.444.681-.792.837-.349.156-.816.234-1.404.234h-2.897c-.78,0-1.378-.075-1.791-.225-.414-.15-.699-.405-.855-.765s-.234-.846-.234-1.458v-2.34ZM470.668,66.642l1.404-1.17c.336.18.681.39,1.035.63.354.24.687.486.999.738.312.252.563.492.756.72l-1.512,1.296c-.169-.228-.402-.474-.702-.738-.301-.264-.621-.528-.963-.792-.343-.264-.682-.492-1.018-.684ZM477.67,59.082l1.998.468c-.528,1.464-1.239,2.787-2.133,3.969-.895,1.182-1.905,2.151-3.033,2.907-.096-.144-.233-.309-.414-.495-.18-.186-.366-.372-.558-.558-.192-.186-.36-.339-.504-.459,1.067-.624,2.004-1.44,2.808-2.448s1.416-2.136,1.836-3.384ZM473.422,55.23h2.034c.036,1.248.168,2.439.396,3.573.228,1.134.513,2.139.854,3.015s.717,1.566,1.125,2.07.811.756,1.206.756c.216,0,.366-.167.45-.504.084-.335.149-.888.198-1.656.228.192.494.375.801.549.306.174.585.303.837.387-.097.852-.237,1.506-.423,1.962-.187.456-.441.771-.766.945-.323.174-.726.261-1.206.261-.624,0-1.209-.198-1.755-.594s-1.038-.951-1.476-1.665c-.438-.714-.819-1.551-1.144-2.511-.323-.96-.579-1.998-.765-3.114-.187-1.116-.309-2.274-.369-3.474ZM476.032,56.256l1.062-1.206c.433.144.889.327,1.368.549.48.222.864.447,1.152.675l-1.116,1.296c-.264-.204-.633-.435-1.106-.693-.475-.258-.928-.465-1.359-.621ZM476.59,67.74l1.8-.9c.396.36.786.756,1.171,1.188.384.432.731.87,1.044,1.314.312.444.546.864.701,1.26l-1.962.99c-.144-.372-.356-.783-.639-1.233-.282-.45-.606-.903-.972-1.359-.366-.456-.747-.876-1.144-1.26Z"/>
      <path class="cls-3" d="M490.828,61.386c.432,0,.819.105,1.161.315.342.21.618.486.828.828s.314.729.314,1.161c0,.42-.104.804-.314,1.152s-.486.627-.828.837-.729.315-1.161.315c-.42,0-.804-.105-1.152-.315-.348-.21-.627-.489-.837-.837s-.314-.732-.314-1.152c0-.432.104-.819.314-1.161s.489-.618.837-.828c.349-.209.732-.315,1.152-.315Z"/>
      <path class="cls-3" d="M501.088,63.996h6.895v8.046h-2.16v-5.976h-2.683v6.084h-2.052v-8.154ZM501.988,69.162h4.733v2.07h-4.733v-2.07ZM503.572,55.95h10.62v6.534h-10.62v-6.534ZM505.66,58.02v2.412h6.336v-2.412h-6.336ZM509.494,63.996h7.128v8.064h-2.16v-5.994h-2.897v6.084h-2.07v-8.154ZM510.484,69.162h5.04v2.07h-5.04v-2.07Z"/>
      <path class="cls-3" d="M519.935,55.644l2.321.576c-.012.144-.156.24-.432.288v.882c0,.468-.054,1.005-.162,1.611s-.303,1.212-.585,1.818-.699,1.167-1.251,1.683c-.097-.144-.229-.303-.396-.477s-.342-.342-.521-.504c-.18-.162-.349-.285-.504-.369.456-.396.789-.816.999-1.26.21-.444.351-.891.423-1.341s.108-.873.108-1.269v-1.638ZM523.858,68.946l1.962.9c-.48.312-1.044.618-1.692.918-.647.3-1.313.573-1.998.819-.684.246-1.332.453-1.943.621-.133-.144-.291-.315-.478-.513-.187-.198-.381-.396-.585-.594-.204-.198-.384-.357-.54-.477.636-.12,1.281-.264,1.936-.432.653-.168,1.271-.36,1.854-.576s1.077-.438,1.485-.666ZM525.101,55.248l1.313,1.278c-.504.144-1.065.276-1.683.396-.618.12-1.245.216-1.881.288-.637.072-1.249.126-1.837.162-.035-.18-.099-.398-.188-.657-.09-.258-.189-.471-.297-.639.552-.06,1.106-.129,1.665-.207.558-.078,1.092-.171,1.602-.279s.945-.222,1.306-.342ZM520.78,57.93h5.994v1.566h-5.994v-1.566ZM520.888,61.71h12.114v7.38h-12.114v-7.38ZM522.977,63.006v.774h7.848v-.774h-7.848ZM522.977,65.004v.792h7.848v-.792h-7.848ZM522.977,67.02v.792h7.848v-.792h-7.848ZM523.156,58.452h1.908v2.916h-1.908v-2.916ZM527.404,55.662l2.304.522c-.012.168-.156.27-.432.306v.918c0,.42-.061.897-.181,1.431-.12.534-.348,1.062-.684,1.584s-.822.987-1.458,1.395c-.072-.144-.187-.309-.342-.495-.156-.186-.318-.366-.486-.54-.168-.174-.33-.303-.486-.387.505-.312.879-.642,1.125-.99.246-.348.414-.702.505-1.062.09-.36.135-.708.135-1.044v-1.638ZM527.836,70.044l1.8-1.026c.648.229,1.306.471,1.972.729.666.258,1.302.516,1.907.774.606.258,1.119.489,1.539.693l-2.52.972c-.336-.192-.756-.414-1.26-.666-.504-.252-1.048-.507-1.629-.765-.583-.258-1.186-.495-1.81-.711ZM532.895,55.266l1.313,1.26c-.54.168-1.14.309-1.8.423-.66.114-1.335.207-2.025.279-.689.072-1.353.132-1.988.18-.036-.192-.103-.417-.198-.675-.097-.258-.187-.477-.271-.657.588-.048,1.188-.114,1.801-.198.611-.084,1.196-.18,1.755-.288.558-.108,1.028-.216,1.413-.324ZM528.196,57.93h6.731v1.566h-6.731v-1.566ZM530.716,58.452h1.927v2.934h-1.927v-2.934Z"/>
      <path class="cls-3" d="M536.656,69.918h16.397v1.71h-16.397v-1.71ZM536.764,58.434h16.164v1.692h-16.164v-1.692ZM537.988,67.344h13.896v1.638h-13.896v-1.638ZM550.264,55.248l1.009,1.674c-.876.144-1.834.267-2.871.369-1.038.102-2.115.189-3.231.261-1.116.072-2.238.129-3.366.171-1.128.042-2.214.069-3.258.081-.012-.252-.065-.537-.162-.855-.096-.318-.186-.591-.27-.819,1.044-.024,2.121-.06,3.23-.108,1.11-.048,2.202-.108,3.276-.18s2.094-.159,3.06-.261c.966-.102,1.827-.213,2.583-.333ZM538.582,60.81h12.618v5.742h-12.618v-5.742ZM540.688,62.232v.792h8.315v-.792h-8.315ZM540.688,64.32v.81h8.315v-.81h-8.315ZM543.658,56.922h2.178v13.86h-2.178v-13.86Z"/>
      <path class="cls-3" d="M559.498,58.578h.414l.36-.09,1.188.792c-.42,1.152-.969,2.262-1.646,3.33-.679,1.068-1.426,2.031-2.241,2.889-.816.858-1.656,1.569-2.521,2.133-.048-.192-.135-.423-.261-.693s-.255-.528-.387-.774c-.133-.246-.246-.441-.342-.585.768-.444,1.509-1.014,2.223-1.71.714-.696,1.35-1.467,1.908-2.313.558-.846.992-1.713,1.305-2.601v-.378ZM554.729,58.578h5.489v1.944h-5.489v-1.944ZM557.068,55.248h2.105v4.23h-2.105v-4.23ZM557.068,64.716l2.105-2.52v9.954h-2.105v-7.434ZM559.12,62.592c.144.108.354.285.63.531.276.246.57.513.882.801.312.288.597.555.855.801.258.246.446.429.566.549l-1.332,1.782c-.168-.24-.368-.51-.603-.81-.234-.3-.489-.612-.765-.936-.276-.324-.54-.626-.792-.909-.252-.282-.475-.519-.666-.711l1.224-1.098ZM563.422,65.868h2.07c-.084.936-.246,1.8-.486,2.592s-.642,1.497-1.206,2.115c-.563.618-1.374,1.143-2.43,1.575-.072-.168-.174-.36-.306-.576-.133-.216-.279-.423-.441-.621-.162-.198-.314-.357-.459-.477.876-.312,1.533-.696,1.971-1.152.438-.456.744-.972.918-1.548.174-.576.298-1.212.369-1.908ZM562.216,56.13h7.992v10.242h-7.992v-10.242ZM564.178,57.84v1.188h3.96v-1.188h-3.96ZM564.178,60.63v1.206h3.96v-1.206h-3.96ZM564.178,63.438v1.206h3.96v-1.206h-3.96ZM566.338,65.904h1.962v3.726c0,.24.019.39.055.45.035.061.113.09.233.09h.721c.096,0,.171-.045.225-.135.054-.09.093-.279.117-.567.023-.288.042-.726.054-1.314.132.108.3.21.504.306s.417.186.639.27c.223.084.417.15.585.198-.06.804-.161,1.431-.306,1.881-.144.45-.345.759-.603.927-.259.168-.592.252-.999.252h-1.261c-.527,0-.933-.072-1.215-.216s-.471-.39-.566-.738c-.097-.348-.145-.81-.145-1.386v-3.744Z"/>
      <path class="cls-3" d="M577.895,63.69c0,1.284-.162,2.46-.486,3.528-.324,1.068-.753,2.028-1.287,2.88-.534.852-1.125,1.596-1.773,2.232l-1.71-.756c.601-.648,1.144-1.362,1.63-2.142.485-.78.872-1.647,1.16-2.601.288-.954.433-2,.433-3.141,0-1.152-.145-2.202-.433-3.15-.288-.948-.675-1.814-1.16-2.601-.486-.786-1.029-1.497-1.63-2.133l1.71-.756c.648.636,1.239,1.38,1.773,2.232s.963,1.812,1.287,2.88c.324,1.068.486,2.244.486,3.528Z"/>
    </g>
  </g>
  <g>
    <g>
      <path class="cls-3" d="M33.324,212.45c-.648.552-1.242,1.251-1.782,2.097-.54.846-.972,1.8-1.296,2.862s-.486,2.211-.486,3.447c0,1.224.162,2.37.486,3.438s.756,2.022,1.296,2.862,1.134,1.542,1.782,2.106v.09h-5.616v-16.992h5.616v.09Z"/>
      <path class="cls-3" d="M41.604,212.414h2.357c-.012.912-.039,1.875-.081,2.889-.042,1.014-.135,2.043-.278,3.087-.145,1.044-.376,2.079-.693,3.105-.318,1.026-.763,2.01-1.332,2.952-.57.942-1.302,1.821-2.196,2.637-.894.816-1.982,1.536-3.267,2.16-.168-.288-.402-.606-.702-.954-.3-.349-.606-.636-.918-.864,1.224-.552,2.25-1.191,3.078-1.917s1.503-1.512,2.024-2.358c.522-.846.921-1.728,1.197-2.646s.465-1.845.567-2.781c.102-.936.165-1.854.188-2.754.024-.9.042-1.752.055-2.556ZM34.836,217.256h16.021v2.232h-16.021v-2.232ZM44.088,218.156c.36,1.368.858,2.646,1.494,3.834s1.425,2.226,2.367,3.114c.941.888,2.043,1.59,3.303,2.106-.18.156-.369.354-.566.594-.198.24-.391.489-.576.747-.187.258-.34.489-.459.693-1.38-.648-2.565-1.482-3.556-2.502-.989-1.02-1.82-2.211-2.492-3.573-.673-1.362-1.236-2.865-1.692-4.509l2.178-.504Z"/>
      <path class="cls-3" d="M53.466,213.026h1.998v6.57c0,.72-.015,1.506-.045,2.358-.03.853-.093,1.719-.188,2.601-.097.882-.24,1.737-.433,2.565-.191.828-.438,1.578-.737,2.25-.133-.108-.307-.231-.522-.369-.216-.138-.441-.268-.675-.387-.234-.12-.436-.21-.604-.27.288-.612.511-1.287.666-2.025.156-.738.276-1.494.36-2.268s.135-1.542.153-2.304c.018-.762.026-1.473.026-2.133v-6.588ZM54.294,221.288h4.393v2.052h-4.393v-2.052ZM54.312,213.026h4.374v2.052h-4.374v-2.052ZM54.312,217.112h4.374v2.052h-4.374v-2.052ZM57.336,213.026h2.034v13.716c0,.492-.048.9-.144,1.224-.097.324-.295.576-.595.756-.3.192-.654.309-1.062.351-.408.042-.918.063-1.53.063-.012-.204-.048-.432-.108-.684-.06-.252-.129-.51-.206-.774-.079-.264-.166-.486-.262-.666.324.012.636.018.937.018h.63c.204,0,.306-.108.306-.324v-13.68ZM59.82,226.652h9.468v2.07h-9.468v-2.07ZM60.792,213.35h7.704v11.322h-7.704v-11.322ZM62.809,215.348v2.646h3.581v-2.646h-3.581ZM62.809,219.974v2.718h3.581v-2.718h-3.581Z"/>
      <path class="cls-3" d="M78.828,218.552c.432,0,.819.105,1.161.315.342.21.618.486.828.828s.314.729.314,1.161c0,.42-.104.804-.314,1.152s-.486.627-.828.837-.729.315-1.161.315c-.42,0-.804-.105-1.152-.315-.348-.21-.627-.489-.837-.837s-.314-.732-.314-1.152c0-.432.104-.819.314-1.161s.489-.618.837-.828c.349-.209.732-.315,1.152-.315Z"/>
      <path class="cls-3" d="M95.604,212.414h2.357c-.012.912-.039,1.875-.081,2.889-.042,1.014-.135,2.043-.278,3.087-.145,1.044-.376,2.079-.693,3.105-.318,1.026-.763,2.01-1.332,2.952-.57.942-1.302,1.821-2.196,2.637-.894.816-1.982,1.536-3.267,2.16-.168-.288-.402-.606-.702-.954-.3-.349-.606-.636-.918-.864,1.224-.552,2.25-1.191,3.078-1.917s1.503-1.512,2.024-2.358c.522-.846.921-1.728,1.197-2.646s.465-1.845.567-2.781c.102-.936.165-1.854.188-2.754.024-.9.042-1.752.055-2.556ZM88.836,217.256h16.021v2.232h-16.021v-2.232ZM98.088,218.156c.36,1.368.858,2.646,1.494,3.834s1.425,2.226,2.367,3.114c.941.888,2.043,1.59,3.303,2.106-.18.156-.369.354-.566.594-.198.24-.391.489-.576.747-.187.258-.34.489-.459.693-1.38-.648-2.565-1.482-3.556-2.502-.989-1.02-1.82-2.211-2.492-3.573-.673-1.362-1.236-2.865-1.692-4.509l2.178-.504Z"/>
      <path class="cls-3" d="M108.942,217.508l1.26.432c-.132.72-.3,1.464-.504,2.232s-.436,1.524-.693,2.268-.54,1.437-.846,2.079-.627,1.197-.963,1.665c-.108-.3-.265-.642-.468-1.026-.204-.384-.391-.708-.559-.972.312-.396.609-.858.892-1.386.281-.528.546-1.089.792-1.683.245-.594.459-1.2.639-1.818s.33-1.215.45-1.791ZM106.638,216.122h6.427v1.998h-6.427v-1.998ZM109.014,212.396h2.034v16.902h-2.034v-16.902ZM110.977,218.948c.107.108.275.288.504.54.228.252.468.528.72.828s.482.573.693.819c.209.246.356.423.44.531l-1.152,1.656c-.119-.228-.27-.501-.449-.819-.181-.318-.375-.642-.585-.972s-.414-.642-.612-.936c-.198-.294-.369-.537-.513-.729l.954-.918ZM116.088,212.414h2.124c-.036,1.092-.111,2.088-.225,2.988-.114.9-.315,1.71-.604,2.43-.288.72-.711,1.353-1.269,1.899-.559.546-1.299,1.011-2.223,1.395-.108-.24-.279-.516-.514-.828-.233-.312-.453-.552-.657-.72.78-.312,1.39-.687,1.827-1.125.438-.438.766-.951.981-1.539.216-.587.356-1.253.423-1.998.065-.744.11-1.578.135-2.502ZM112.776,222.746h10.548v1.998h-10.548v-1.998ZM113.64,214.521h6.589v1.872h-6.589v-1.872ZM116.97,220.388h2.16v8.928h-2.16v-8.928ZM119.185,214.521h1.979v3.762c0,.312.012.492.036.54.048.06.114.09.198.09h.27c.048,0,.093-.006.135-.018.042-.012.075-.024.1-.036.023-.024.048-.063.072-.117.023-.054.041-.129.054-.225.023-.108.039-.272.045-.495s.015-.483.027-.783c.167.144.387.282.656.414.271.132.52.24.747.324-.024.349-.057.688-.099,1.017-.042.33-.087.573-.135.729-.145.324-.349.546-.612.666-.108.072-.252.126-.432.162-.181.036-.349.054-.505.054h-.899c-.216,0-.436-.036-.657-.108-.222-.072-.411-.18-.567-.324-.144-.156-.249-.357-.314-.603-.066-.246-.099-.651-.099-1.215v-3.834Z"/>
      <path class="cls-3" d="M124.656,227.084h16.397v1.71h-16.397v-1.71ZM124.764,215.6h16.164v1.692h-16.164v-1.692ZM125.988,224.51h13.896v1.638h-13.896v-1.638ZM138.264,212.414l1.009,1.674c-.876.144-1.834.267-2.871.369-1.038.102-2.115.189-3.231.261-1.116.072-2.238.129-3.366.171-1.128.042-2.214.069-3.258.081-.012-.252-.065-.537-.162-.855-.096-.318-.186-.591-.27-.819,1.044-.024,2.121-.06,3.23-.108,1.11-.048,2.202-.108,3.276-.18s2.094-.159,3.06-.261c.966-.102,1.827-.213,2.583-.333ZM126.582,217.976h12.618v5.742h-12.618v-5.742ZM128.688,219.398v.792h8.315v-.792h-8.315ZM128.688,221.486v.81h8.315v-.81h-8.315ZM131.658,214.088h2.178v13.86h-2.178v-13.86Z"/>
      <path class="cls-3" d="M147.498,215.744h.414l.36-.09,1.188.792c-.42,1.152-.969,2.262-1.646,3.33-.679,1.068-1.426,2.031-2.241,2.889-.816.858-1.656,1.569-2.521,2.133-.048-.192-.135-.423-.261-.693s-.255-.528-.387-.774c-.133-.246-.246-.441-.342-.585.768-.444,1.509-1.014,2.223-1.71.714-.696,1.35-1.467,1.908-2.313.558-.846.992-1.713,1.305-2.601v-.378ZM142.729,215.744h5.489v1.944h-5.489v-1.944ZM145.068,212.414h2.105v4.23h-2.105v-4.23ZM145.068,221.882l2.105-2.52v9.954h-2.105v-7.434ZM147.12,219.758c.144.108.354.285.63.531.276.246.57.513.882.801.312.288.597.555.855.801.258.246.446.429.566.549l-1.332,1.782c-.168-.24-.368-.51-.603-.81-.234-.3-.489-.612-.765-.936-.276-.324-.54-.626-.792-.909-.252-.282-.475-.519-.666-.711l1.224-1.098ZM151.422,223.034h2.07c-.084.936-.246,1.8-.486,2.592s-.642,1.497-1.206,2.115c-.563.618-1.374,1.143-2.43,1.575-.072-.168-.174-.36-.306-.576-.133-.216-.279-.423-.441-.621-.162-.198-.314-.357-.459-.477.876-.312,1.533-.696,1.971-1.152.438-.456.744-.972.918-1.548.174-.576.298-1.212.369-1.908ZM150.216,213.296h7.992v10.242h-7.992v-10.242ZM152.178,215.006v1.188h3.96v-1.188h-3.96ZM152.178,217.796v1.206h3.96v-1.206h-3.96ZM152.178,220.604v1.206h3.96v-1.206h-3.96ZM154.338,223.07h1.962v3.726c0,.24.019.39.055.45.035.061.113.09.233.09h.721c.096,0,.171-.045.225-.135.054-.09.093-.279.117-.567.023-.288.042-.726.054-1.314.132.108.3.21.504.306s.417.186.639.27c.223.084.417.15.585.198-.06.804-.161,1.431-.306,1.881-.144.45-.345.759-.603.927-.259.168-.592.252-.999.252h-1.261c-.527,0-.933-.072-1.215-.216s-.471-.39-.566-.738c-.097-.348-.145-.81-.145-1.386v-3.744Z"/>
      <path class="cls-3" d="M162.87,213.8h1.98v3.222c0,.648-.075,1.326-.226,2.034-.15.708-.44,1.377-.873,2.007-.432.63-1.062,1.173-1.89,1.629-.097-.144-.231-.312-.405-.504s-.354-.384-.54-.576-.339-.336-.459-.432c.731-.384,1.266-.807,1.603-1.269.335-.461.555-.948.656-1.458.103-.51.153-1.005.153-1.485v-3.168ZM160.656,226.724h16.29v1.998h-16.29v-1.998ZM160.836,216.824h9.234v1.908h-9.234v-1.908ZM161.448,213.044h8.226v1.89h-8.226v-1.89ZM162.492,223.322h12.654v1.962h-12.654v-1.962ZM166.38,213.782h2.017v8.424h-2.017v-8.424ZM167.712,221.9h2.214v6.3h-2.214v-6.3ZM170.826,213.44h1.979v6.12h-1.979v-6.12ZM174.12,212.612h2.052v7.722c0,.492-.057.876-.171,1.152-.114.276-.339.498-.675.666-.336.144-.738.234-1.206.27s-1.021.054-1.656.054c-.036-.276-.117-.597-.243-.963-.126-.366-.261-.675-.404-.927.407.012.807.018,1.196.018s.646-.006.766-.018c.144,0,.236-.018.278-.054s.063-.114.063-.234v-7.686Z"/>
      <path class="cls-3" d="M183.948,229.352h-5.616v-.09c.66-.564,1.257-1.266,1.791-2.106s.963-1.794,1.287-2.862.486-2.214.486-3.438c0-1.236-.162-2.385-.486-3.447s-.753-2.016-1.287-2.862c-.534-.846-1.131-1.545-1.791-2.097v-.09h5.616v16.992Z"/>
    </g>
    <g>
      <path class="cls-3" d="M427.324,212.45c-.648.552-1.242,1.251-1.782,2.097-.54.846-.972,1.8-1.296,2.862s-.486,2.211-.486,3.447c0,1.224.162,2.37.486,3.438s.756,2.022,1.296,2.862,1.134,1.542,1.782,2.106v.09h-5.616v-16.992h5.616v.09Z"/>
      <path class="cls-3" d="M428.89,222.98l1.603.27c-.061.84-.165,1.677-.315,2.511-.149.834-.333,1.539-.549,2.115-.168-.108-.405-.231-.711-.369-.306-.138-.561-.243-.765-.315.228-.54.396-1.188.504-1.944.107-.756.186-1.512.233-2.268ZM428.206,220.298c.72-.024,1.569-.06,2.547-.108.979-.048,1.983-.102,3.016-.162v1.656c-.948.108-1.888.201-2.817.279s-1.785.153-2.565.225l-.18-1.89ZM428.314,216.536l.899-1.512c.3.276.606.582.918.918.312.336.595.672.847,1.008.252.336.443.642.575.918l-.972,1.728c-.12-.288-.306-.612-.558-.972-.252-.36-.528-.723-.828-1.089-.3-.366-.594-.699-.882-.999ZM432.437,214.61l1.691.702c-.384.684-.801,1.398-1.251,2.142-.45.744-.906,1.458-1.368,2.142s-.902,1.284-1.322,1.8l-1.188-.612c.396-.552.811-1.185,1.242-1.899.432-.714.84-1.446,1.224-2.196s.708-1.443.973-2.079ZM430.564,212.414l1.817.594c-.204.456-.414.93-.63,1.422-.216.492-.432.957-.647,1.395-.217.438-.427.831-.63,1.179l-1.387-.54c.181-.36.363-.777.549-1.251.187-.474.363-.957.531-1.449.168-.492.3-.942.396-1.35ZM430.582,221.271h1.764v8.046h-1.764v-8.046ZM431.824,218.822l1.439-.54c.217.396.424.825.621,1.287.198.462.366.915.504,1.359.139.444.237.84.298,1.188l-1.53.612c-.048-.348-.139-.744-.271-1.188s-.288-.906-.468-1.386-.378-.924-.594-1.332ZM432.382,223.395l1.422-.45c.181.516.354,1.08.522,1.692s.294,1.146.378,1.602l-1.512.504c-.049-.456-.153-.999-.315-1.629s-.327-1.203-.495-1.719ZM433.732,226.472c.779-.096,1.725-.222,2.835-.378,1.109-.156,2.253-.318,3.429-.486l.108,1.674c-1.044.216-2.082.423-3.114.621-1.032.198-1.969.381-2.809.549l-.449-1.98ZM433.822,218.318c.672-.048,1.461-.102,2.367-.162.905-.06,1.845-.126,2.816-.198l.036,1.584c-.864.108-1.719.207-2.564.297-.847.09-1.623.183-2.331.279l-.324-1.8ZM433.984,213.458h5.994v1.764h-5.994v-1.764ZM434.29,222.17h5.49v1.8h-5.49v-1.8ZM435.496,214.232l2.106.432c-.156.504-.324,1.035-.505,1.593-.18.558-.354,1.089-.521,1.593-.168.504-.33.948-.486,1.332l-1.548-.414c.132-.408.258-.879.378-1.413.12-.534.231-1.074.333-1.62s.183-1.047.243-1.503ZM436.162,220.262h1.836v6.39l-1.836.648v-7.038ZM437.314,216.554l1.529-.558c.288.576.562,1.204.819,1.881s.447,1.269.567,1.773l-1.62.63c-.061-.348-.159-.735-.297-1.161-.139-.426-.291-.864-.459-1.314-.169-.45-.349-.867-.54-1.251ZM443.146,216.266l1.602.792c-.108,1.344-.279,2.64-.513,3.888-.234,1.248-.549,2.406-.945,3.474-.396,1.068-.885,2.022-1.467,2.862s-1.281,1.536-2.097,2.088c-.145-.24-.354-.504-.631-.792-.275-.288-.54-.528-.792-.72,1.104-.648,1.986-1.539,2.646-2.673.66-1.134,1.158-2.457,1.494-3.969s.569-3.162.702-4.95ZM440.788,212.522l1.89.252c-.12,1.152-.291,2.271-.513,3.357s-.495,2.097-.819,3.033c-.323.936-.726,1.764-1.206,2.484-.071-.132-.191-.294-.359-.486-.168-.191-.339-.384-.513-.576-.175-.192-.333-.348-.478-.468.408-.588.741-1.284.999-2.088.258-.804.468-1.677.63-2.619.162-.942.285-1.905.369-2.889ZM441.706,217.562c.18,1.404.429,2.751.747,4.041.317,1.29.731,2.46,1.242,3.51.51,1.05,1.137,1.899,1.881,2.547-.145.12-.31.273-.495.459-.187.186-.363.387-.531.603-.168.216-.312.414-.432.594-.744-.804-1.365-1.803-1.863-2.997-.498-1.194-.896-2.52-1.196-3.978-.301-1.458-.54-2.979-.721-4.563l1.368-.216ZM441.311,215.798h4.05v1.926h-4.608l.559-1.926Z"/>
      <path class="cls-3" d="M457.546,216.32l1.836.81c-.863,1.164-1.923,2.193-3.177,3.087s-2.619,1.659-4.095,2.295c-1.477.636-3,1.158-4.572,1.566-.084-.156-.198-.342-.342-.558-.145-.216-.291-.435-.441-.657-.15-.222-.291-.399-.423-.531,1.572-.336,3.072-.777,4.5-1.323,1.428-.546,2.721-1.209,3.879-1.989,1.158-.78,2.104-1.68,2.835-2.7ZM448.816,217.598l1.781.666c-.228.66-.53,1.302-.908,1.926s-.88,1.14-1.503,1.548l-1.656-1.116c.552-.348,1.022-.792,1.413-1.332.39-.54.681-1.104.873-1.692ZM447.07,213.746h15.534v3.798h-2.215v-1.89h-11.195v1.89h-2.124v-3.798ZM448.528,223.862h2.124v5.454h-2.124v-5.454ZM449.608,226.634h10.638v1.998h-10.638v-1.998ZM451.12,217.472h1.926v3.06c0,.264.066.432.198.504.132.072.432.108.9.108h2.808c.24,0,.42-.03.54-.09s.207-.186.261-.378.093-.474.117-.846c.204.132.477.261.819.387.342.126.645.219.908.279-.071.612-.194,1.086-.368,1.422-.175.336-.427.567-.757.693s-.771.189-1.322.189h-3.204c-.756,0-1.338-.066-1.746-.198-.408-.132-.69-.36-.846-.684-.156-.324-.234-.774-.234-1.35v-3.096ZM451.84,216.698l1.008-1.26c.36.132.741.288,1.144.468.401.18.783.369,1.143.567.36.198.66.394.9.585l-1.08,1.368c-.216-.192-.501-.393-.854-.603-.354-.21-.727-.417-1.116-.621-.391-.204-.771-.372-1.144-.504ZM453.658,212.414h2.231v2.556h-2.231v-2.556ZM453.694,223.016h2.195v4.734h-2.195v-4.734ZM458.752,218.768l1.548-1.044c.36.312.732.66,1.116,1.044.384.384.747.765,1.089,1.143s.609.729.801,1.053l-1.655,1.152c-.168-.312-.411-.666-.729-1.062-.317-.396-.666-.795-1.044-1.197s-.753-.765-1.125-1.089ZM459.112,223.862h2.16v5.436h-2.16v-5.436Z"/>
      <path class="cls-3" d="M472.828,218.552c.432,0,.819.105,1.161.315.342.21.618.486.828.828s.314.729.314,1.161c0,.42-.104.804-.314,1.152s-.486.627-.828.837-.729.315-1.161.315c-.42,0-.804-.105-1.152-.315-.348-.21-.627-.489-.837-.837s-.314-.732-.314-1.152c0-.432.104-.819.314-1.161s.489-.618.837-.828c.349-.209.732-.315,1.152-.315Z"/>
      <path class="cls-3" d="M483.07,222.962l1.8.306c-.096.864-.237,1.716-.423,2.556-.187.84-.411,1.548-.675,2.124-.12-.084-.279-.174-.478-.27-.198-.096-.402-.195-.611-.297-.211-.102-.394-.177-.55-.225.264-.528.471-1.17.621-1.926.15-.756.255-1.512.315-2.268ZM482.26,220.28c.828-.048,1.827-.114,2.997-.198s2.355-.168,3.556-.252l.035,1.674c-1.104.12-2.204.24-3.303.36-1.098.12-2.091.228-2.979.324l-.307-1.908ZM482.296,216.626l1.026-1.476c.312.264.633.558.963.882.33.324.636.645.918.963.282.318.495.615.639.891l-1.08,1.674c-.144-.276-.351-.587-.62-.936-.271-.348-.567-.696-.892-1.044-.324-.348-.642-.666-.954-.954ZM485.086,212.378l1.908.72c-.24.468-.495.945-.765,1.431-.271.486-.531.951-.783,1.395s-.498.84-.738,1.188l-1.458-.63c.216-.36.438-.78.666-1.26.228-.479.447-.966.657-1.458.21-.492.381-.954.513-1.386ZM487.264,214.556l1.782.846c-.444.684-.924,1.395-1.439,2.133-.517.738-1.035,1.449-1.558,2.133-.521.684-1.017,1.284-1.484,1.8l-1.261-.738c.336-.396.688-.849,1.054-1.359.365-.51.726-1.044,1.08-1.602.354-.558.689-1.11,1.008-1.656.317-.546.591-1.065.818-1.557ZM485.158,221.252h1.908v8.046h-1.908v-8.046ZM486.851,218.858l1.565-.684c.252.396.492.822.72,1.278.229.457.433.903.612,1.341s.312.831.396,1.179l-1.675.792c-.084-.348-.207-.747-.368-1.197-.162-.45-.349-.912-.559-1.386-.21-.474-.44-.915-.692-1.323ZM487.12,223.43l1.602-.54c.253.552.486,1.149.702,1.791.216.642.378,1.203.486,1.683l-1.71.594c-.048-.324-.132-.687-.252-1.089-.12-.402-.252-.816-.396-1.242-.144-.426-.288-.825-.432-1.197ZM489.874,213.764h8.874v15.12h-2.016v-13.122h-4.933v13.284h-1.926v-15.282ZM490.954,219.92h6.57v1.962h-6.57v-1.962ZM490.954,226.112h6.552v1.962h-6.552v-1.962ZM493.276,214.61h1.89v12.726h-1.89v-12.726Z"/>
      <path class="cls-3" d="M500.44,219.164h9.323v1.962h-9.323v-1.962ZM500.836,214.142h8.694v1.872h-8.694v-1.872ZM501.484,222.314h7.47v6.948h-2.106v-5.076h-3.365v5.148h-1.998v-7.02ZM501.862,216.5l1.782-.36c.18.396.335.84.468,1.332.132.492.222.924.27,1.296l-1.89.432c-.012-.36-.078-.795-.198-1.305-.12-.51-.264-.975-.432-1.395ZM502.222,226.562h5.562v1.872h-5.562v-1.872ZM504.13,212.541h2.106v2.772h-2.106v-2.772ZM506.704,216.068l2.016.432c-.191.492-.381.981-.566,1.467-.187.486-.357.903-.514,1.251l-1.691-.432c.096-.252.191-.537.288-.855.096-.318.183-.642.261-.972s.146-.627.207-.891ZM510.304,213.44h5.257v2.016h-3.15v13.86h-2.106v-15.876ZM515.002,213.44h.414l.324-.09,1.584.99c-.324.876-.675,1.797-1.053,2.763s-.741,1.833-1.09,2.601c.505.54.886,1.06,1.144,1.557.258.498.432.969.521,1.413.091.444.136.864.136,1.26,0,.672-.078,1.23-.234,1.674s-.408.786-.756,1.026c-.336.24-.75.39-1.242.45-.204.024-.429.039-.675.045s-.495.009-.747.009c-.012-.3-.063-.654-.153-1.062-.09-.408-.219-.762-.387-1.062.204.024.39.039.558.045.168.006.324.003.469-.009.119-.012.236-.03.351-.054.114-.024.213-.065.297-.126.156-.096.268-.243.333-.441.066-.198.1-.453.1-.765,0-.504-.124-1.071-.369-1.701-.246-.63-.735-1.293-1.467-1.989.18-.432.362-.915.549-1.449.186-.534.365-1.074.54-1.62.174-.546.336-1.059.485-1.539.15-.479.273-.876.369-1.188v-.738Z"/>
      <path class="cls-3" d="M521.338,216.194l1.891.666c-.324.708-.705,1.434-1.144,2.178-.438.745-.899,1.449-1.386,2.115s-.97,1.245-1.449,1.737c-.061-.144-.162-.342-.306-.594-.145-.252-.291-.504-.441-.756-.15-.252-.285-.456-.405-.612.601-.588,1.197-1.308,1.791-2.16.595-.852,1.077-1.71,1.449-2.574ZM521.05,212.396l1.944.702c-.3.528-.657,1.062-1.071,1.602s-.846,1.05-1.296,1.53-.903.9-1.358,1.26c-.072-.144-.175-.321-.307-.531s-.264-.417-.396-.621c-.133-.204-.252-.372-.36-.504.36-.3.72-.645,1.08-1.035.36-.39.699-.795,1.017-1.215.318-.42.567-.816.747-1.188ZM520.15,220.118l1.854-1.872.019.036v11.034h-1.872v-9.198ZM522.616,217.616c.756-.06,1.644-.129,2.664-.207,1.02-.078,2.063-.165,3.132-.261l.054,1.548c-.972.12-1.938.228-2.897.324s-1.83.186-2.61.27l-.342-1.674ZM522.706,214.07h6.912v1.62h-6.912v-1.62ZM523.48,219.812h4.788v1.566h-3.097v7.902h-1.691v-9.468ZM524.488,215.132l1.908.414c-.229.564-.453,1.131-.676,1.701-.222.57-.435,1.053-.639,1.449l-1.512-.396c.119-.3.239-.633.359-.999.12-.366.229-.741.324-1.125.096-.384.174-.732.234-1.044ZM524.218,222.314h4.032v1.368h-4.032v-1.368ZM524.272,224.636h4.05v1.386h-4.05v-1.386ZM525.082,212.396h1.962v2.52h-1.962v-2.52ZM527.26,219.812h1.692v7.668c0,.384-.039.705-.117.963-.078.258-.237.459-.477.603-.24.132-.522.216-.847.252-.323.036-.708.054-1.151.054-.024-.252-.081-.54-.171-.864s-.189-.6-.297-.828c.252.012.488.018.711.018h.44c.145-.012.216-.09.216-.234v-7.632ZM526.72,216.32l1.494-.54c.336.504.633,1.056.892,1.656.258.6.435,1.128.53,1.584l-1.602.612c-.072-.468-.234-1.011-.486-1.629s-.528-1.179-.828-1.683ZM532.876,216.536l1.8.09c-.144,1.992-.384,3.789-.72,5.391-.336,1.602-.837,3.015-1.503,4.239s-1.575,2.28-2.727,3.168c-.061-.132-.159-.297-.298-.495-.138-.198-.285-.393-.44-.585-.156-.192-.3-.342-.433-.45,1.057-.732,1.875-1.644,2.457-2.736.582-1.092,1.015-2.361,1.297-3.807.281-1.446.471-3.051.566-4.815ZM530.806,212.396l1.872.324c-.168,1.056-.381,2.094-.639,3.114s-.576,1.971-.954,2.853c-.378.882-.831,1.659-1.358,2.331-.049-.156-.136-.348-.262-.576s-.261-.462-.404-.702c-.145-.24-.276-.426-.396-.558.588-.816,1.05-1.824,1.386-3.024.336-1.2.588-2.454.756-3.762ZM531.454,217.382c.12,1.116.282,2.196.486,3.24.203,1.044.468,2.02.792,2.925.323.906.717,1.716,1.179,2.43.462.714,1.011,1.293,1.647,1.737-.145.108-.301.258-.469.45s-.33.39-.485.594c-.156.204-.282.396-.378.576-.685-.564-1.27-1.251-1.756-2.061-.485-.81-.891-1.719-1.215-2.727-.324-1.008-.594-2.1-.81-3.276-.216-1.176-.391-2.406-.522-3.69l1.53-.198ZM531.059,215.888h4.247v1.728h-4.716l.469-1.728Z"/>
      <path class="cls-3" d="M537.826,214.088h2.07v5.076c0,.732-.024,1.539-.072,2.421-.048.882-.139,1.785-.271,2.709s-.327,1.818-.585,2.682c-.258.864-.591,1.65-.999,2.358-.12-.12-.288-.261-.504-.423-.216-.162-.438-.315-.666-.459-.228-.144-.426-.246-.594-.306.372-.648.666-1.353.882-2.115.216-.762.378-1.545.486-2.349.107-.804.177-1.593.207-2.367.029-.774.045-1.491.045-2.151v-5.076ZM538.87,214.088h14.238v1.926h-14.238v-1.926ZM539.986,224.654c.6-.06,1.274-.126,2.024-.198.75-.072,1.542-.153,2.376-.243.834-.09,1.671-.177,2.512-.261l.054,1.854c-.792.084-1.587.174-2.385.27-.799.096-1.569.189-2.313.279-.744.09-1.422.171-2.034.243l-.233-1.944ZM540.202,227.156h7.668v1.854h-7.668v-1.854ZM541.39,216.95l2.053.558v7.812h-2.053v-8.37ZM550.012,216.104l1.584,1.53c-.804.252-1.7.471-2.69.657s-2.001.345-3.033.477c-1.032.132-2.034.234-3.006.306-.024-.228-.093-.504-.207-.828-.114-.324-.231-.587-.351-.792.695-.072,1.4-.153,2.114-.243.714-.09,1.407-.195,2.079-.315s1.312-.246,1.917-.378c.606-.132,1.137-.27,1.593-.414ZM542.47,220.352h10.53v1.872h-10.53v-1.872ZM544.271,212.396h2.25v2.718h-2.25v-2.718ZM546.521,217.778h2.142c0,1.2.06,2.343.18,3.429s.288,2.052.504,2.898c.217.846.462,1.509.738,1.989s.57.72.882.72c.168,0,.294-.186.378-.558s.139-.948.162-1.728c.216.204.486.399.811.585.323.186.617.321.882.405-.084.9-.223,1.59-.414,2.07-.192.479-.447.81-.765.99-.318.18-.718.27-1.197.27-.576,0-1.092-.192-1.548-.576-.456-.384-.85-.921-1.18-1.611-.33-.69-.605-1.5-.827-2.43-.223-.93-.394-1.944-.514-3.042-.12-1.098-.198-2.235-.233-3.411Z"/>
      <path class="cls-3" d="M556.87,213.8h1.98v3.222c0,.648-.075,1.326-.226,2.034-.15.708-.44,1.377-.873,2.007-.432.63-1.062,1.173-1.89,1.629-.097-.144-.231-.312-.405-.504s-.354-.384-.54-.576-.339-.336-.459-.432c.731-.384,1.266-.807,1.603-1.269.335-.461.555-.948.656-1.458.103-.51.153-1.005.153-1.485v-3.168ZM554.656,226.724h16.29v1.998h-16.29v-1.998ZM554.836,216.824h9.234v1.908h-9.234v-1.908ZM555.448,213.044h8.226v1.89h-8.226v-1.89ZM556.492,223.322h12.654v1.962h-12.654v-1.962ZM560.38,213.782h2.017v8.424h-2.017v-8.424ZM561.712,221.9h2.214v6.3h-2.214v-6.3ZM564.826,213.44h1.979v6.12h-1.979v-6.12ZM568.12,212.612h2.052v7.722c0,.492-.057.876-.171,1.152-.114.276-.339.498-.675.666-.336.144-.738.234-1.206.27s-1.021.054-1.656.054c-.036-.276-.117-.597-.243-.963-.126-.366-.261-.675-.404-.927.407.012.807.018,1.196.018s.646-.006.766-.018c.144,0,.236-.018.278-.054s.063-.114.063-.234v-7.686Z"/>
      <path class="cls-3" d="M577.948,229.352h-5.616v-.09c.66-.564,1.257-1.266,1.791-2.106s.963-1.794,1.287-2.862.486-2.214.486-3.438c0-1.236-.162-2.385-.486-3.447s-.753-2.016-1.287-2.862c-.534-.846-1.131-1.545-1.791-2.097v-.09h5.616v16.992Z"/>
    </g>
  </g>
  <g>
    <g>
      <path class="cls-3" d="M33.324,369.617c-.648.552-1.242,1.251-1.782,2.097-.54.846-.972,1.8-1.296,2.862s-.486,2.211-.486,3.447c0,1.224.162,2.37.486,3.438s.756,2.022,1.296,2.862,1.134,1.542,1.782,2.106v.09h-5.616v-16.992h5.616v.09Z"/>
      <path class="cls-3" d="M34.134,381.911c.588-.144,1.257-.309,2.008-.495.749-.186,1.538-.393,2.366-.621l2.484-.684.27,1.908c-1.128.336-2.273.675-3.438,1.017-1.164.342-2.208.646-3.132.909l-.559-2.034ZM34.566,370.517h6.336v1.998h-6.336v-1.998ZM34.729,375.665h5.993v1.98h-5.993v-1.98ZM36.762,371.309h2.07v10.566l-2.07.324v-10.89ZM42.954,380.129h2.124c-.072.78-.189,1.497-.351,2.151-.162.654-.424,1.251-.783,1.791-.36.54-.855,1.02-1.485,1.44s-1.438.78-2.421,1.08c-.072-.18-.174-.381-.306-.603-.133-.222-.276-.438-.433-.648s-.306-.387-.449-.531c.839-.204,1.523-.459,2.052-.765.527-.306.93-.654,1.206-1.044.275-.39.474-.822.594-1.296.12-.474.204-.999.252-1.575ZM41.604,370.265h8.855v10.152h-8.855v-10.152ZM43.62,372.011v1.116h4.716v-1.116h-4.716ZM43.62,374.765v1.116h4.716v-1.116h-4.716ZM43.62,377.519v1.116h4.716v-1.116h-4.716ZM46.158,379.607h2.052v4.338c0,.264.021.429.063.495.042.066.141.099.297.099h.738c.107,0,.188-.047.242-.144.055-.096.097-.297.126-.603.03-.306.052-.753.063-1.341.144.108.32.213.531.315.209.102.432.192.666.27.233.078.44.147.621.207-.061.816-.166,1.452-.315,1.908-.15.456-.36.777-.63.963-.271.186-.621.279-1.053.279h-1.387c-.552,0-.972-.078-1.26-.234s-.486-.411-.594-.765c-.108-.354-.162-.831-.162-1.431v-4.356Z"/>
      <path class="cls-3" d="M52.332,380.849c.492-.36,1.095-.828,1.81-1.404.713-.576,1.431-1.17,2.15-1.782l.846,1.728c-.6.564-1.221,1.137-1.862,1.719-.643.582-1.258,1.113-1.846,1.593l-1.098-1.854ZM52.44,372.839l1.691-.99c.252.348.514.727.783,1.134.271.408.522.807.756,1.197.234.39.411.747.531,1.071l-1.818,1.098c-.107-.312-.27-.672-.485-1.08-.217-.408-.453-.825-.711-1.251-.259-.426-.508-.819-.747-1.179ZM55.842,369.545h2.143v16.902h-2.143v-16.902ZM62.124,369.599h2.143v4.608c0,.972-.061,1.989-.181,3.051s-.342,2.13-.666,3.204-.807,2.118-1.449,3.132c-.642,1.014-1.479,1.971-2.511,2.871-.204-.228-.474-.468-.81-.72s-.648-.474-.937-.666c.984-.84,1.771-1.728,2.358-2.664.588-.936,1.028-1.877,1.323-2.826.294-.948.488-1.878.585-2.79.096-.912.144-1.776.144-2.592v-4.608ZM58.435,374.585h10.602v2.142h-10.602v-2.142ZM64.267,375.611c.275,1.272.65,2.487,1.125,3.645.474,1.158,1.056,2.196,1.745,3.114.69.918,1.491,1.665,2.403,2.241-.168.132-.351.303-.549.513-.198.209-.387.429-.567.657-.18.228-.33.438-.449.63-.973-.708-1.81-1.584-2.512-2.628s-1.296-2.229-1.782-3.555c-.485-1.326-.891-2.739-1.215-4.239l1.801-.378ZM65.076,370.859l1.638-.9c.252.312.51.651.774,1.017.264.366.507.729.729,1.089.223.36.399.678.531.954l-1.746,1.062c-.12-.288-.288-.618-.504-.99s-.444-.753-.684-1.143c-.24-.39-.486-.753-.738-1.089Z"/>
      <path class="cls-3" d="M70.998,380.147l1.729.306c-.097.864-.237,1.713-.424,2.547-.186.834-.404,1.539-.656,2.115-.12-.084-.276-.174-.469-.27-.191-.096-.39-.189-.594-.279-.204-.09-.378-.159-.521-.207.264-.54.468-1.188.611-1.944.145-.756.252-1.512.324-2.268ZM70.225,377.465c.804-.036,1.751-.087,2.844-.153,1.092-.066,2.202-.135,3.33-.207l.036,1.764c-1.057.084-2.109.165-3.159.243-1.051.078-1.995.153-2.835.225l-.216-1.872ZM70.278,373.793l1.062-1.458c.3.288.612.6.937.936s.624.672.899,1.008c.276.336.48.648.612.936l-1.152,1.638c-.132-.288-.327-.612-.585-.972s-.543-.723-.854-1.089c-.312-.366-.618-.699-.918-.999ZM75.084,371.723l1.764.792c-.443.672-.924,1.38-1.439,2.124-.517.744-1.032,1.458-1.548,2.142-.517.684-1.008,1.284-1.477,1.8l-1.241-.684c.335-.408.687-.867,1.053-1.377.365-.51.726-1.044,1.08-1.602.354-.558.687-1.113.999-1.665.312-.552.582-1.062.81-1.53ZM73.05,369.581l1.872.666c-.24.468-.492.945-.756,1.431s-.521.954-.773,1.404c-.253.45-.492.843-.721,1.179l-1.439-.594c.216-.372.438-.792.666-1.26.228-.468.446-.954.656-1.458s.375-.96.495-1.368ZM72.96,378.437h1.872v8.046h-1.872v-8.046ZM74.472,376.025l1.513-.612c.239.396.468.828.684,1.296.216.468.408.921.576,1.359s.288.831.36,1.179l-1.639.72c-.048-.348-.149-.75-.306-1.206s-.336-.921-.54-1.395c-.204-.474-.42-.921-.648-1.341ZM75.03,380.543l1.53-.45c.239.516.449,1.092.63,1.728.18.636.294,1.188.342,1.656l-1.62.54c-.048-.479-.153-1.041-.315-1.683-.161-.642-.351-1.239-.566-1.791ZM79.512,369.545l2.07.558c-.312.828-.678,1.68-1.098,2.556-.421.876-.882,1.713-1.387,2.511-.504.798-1.044,1.509-1.619,2.133-.108-.144-.243-.309-.405-.495-.162-.186-.327-.369-.495-.549s-.324-.33-.468-.45c.491-.528.96-1.152,1.403-1.872.444-.72.84-1.464,1.188-2.232.348-.768.618-1.488.81-2.16ZM80.322,373.109h6.75v1.908h-6.75v11.466h-1.998v-12.168l1.17-1.206h.828ZM79.026,383.747h8.315v1.89h-8.315v-1.89ZM79.386,380.129h7.219v1.872h-7.219v-1.872ZM79.422,376.619h7.128v1.872h-7.128v-1.872ZM83.58,369.815l2.232.486c-.312.696-.64,1.386-.981,2.07-.342.684-.663,1.267-.963,1.746l-1.764-.504c.18-.348.362-.744.549-1.188.186-.444.359-.894.521-1.35s.297-.875.405-1.26ZM82.32,374.189h1.926v10.188h-1.926v-10.188Z"/>
      <path class="cls-3" d="M88.206,378.707c.731-.168,1.611-.384,2.637-.648,1.026-.264,2.055-.54,3.087-.828l.271,1.944c-.948.276-1.905.555-2.871.837-.966.282-1.852.537-2.655.765l-.468-2.07ZM88.494,372.983h5.562v1.98h-5.562v-1.98ZM90.528,369.581h1.979v14.508c0,.492-.051.885-.152,1.179-.103.294-.291.525-.567.693-.276.156-.615.264-1.017.324-.402.06-.897.084-1.485.072-.024-.264-.09-.591-.198-.981-.107-.39-.228-.729-.359-1.017.323.012.627.021.908.027.282.006.478.003.585-.009.108,0,.187-.021.234-.063s.072-.123.072-.243v-14.49ZM94.326,375.143h10.962v1.962h-10.962v-1.962ZM94.488,378.545h10.674v1.944h-10.674v-1.944ZM95.082,371.615h9.414v1.962h-9.414v-1.962ZM95.46,381.533l1.71-.954c.264.3.528.633.792.999.264.366.504.727.72,1.08.217.354.391.681.522.981l-1.854,1.062c-.097-.288-.246-.615-.45-.981-.204-.366-.43-.741-.675-1.125-.246-.384-.502-.738-.766-1.062ZM101.112,376.781h2.052v7.434c0,.528-.061.939-.18,1.233-.12.294-.354.525-.702.693-.336.156-.747.252-1.233.288-.485.036-1.053.054-1.701.054-.035-.3-.113-.646-.233-1.035-.12-.39-.246-.723-.378-.999.407.012.815.021,1.224.027.408.006.672.003.792-.009.145,0,.24-.021.288-.063s.072-.123.072-.243v-7.38ZM98.79,369.653h2.052v6.516h-2.052v-6.516Z"/>
      <path class="cls-3" d="M114.828,375.719c.432,0,.819.105,1.161.315.342.21.618.486.828.828s.314.729.314,1.161c0,.42-.104.804-.314,1.152s-.486.627-.828.837-.729.315-1.161.315c-.42,0-.804-.105-1.152-.315-.348-.21-.627-.489-.837-.837s-.314-.732-.314-1.152c0-.432.104-.819.314-1.161s.489-.618.837-.828c.349-.209.732-.315,1.152-.315Z"/>
      <path class="cls-3" d="M124.8,376.277h16.074v2.034h-16.074v-2.034ZM125.178,371.183h15.391v4.266h-2.322v-2.268h-10.872v2.268h-2.196v-4.266ZM135.528,377.735l2.43.306c-.384,1.392-.915,2.571-1.593,3.537-.678.966-1.494,1.773-2.448,2.421-.954.648-2.055,1.167-3.303,1.557s-2.646.699-4.194.927c-.06-.18-.162-.393-.306-.639-.145-.246-.297-.489-.459-.729-.162-.24-.315-.438-.459-.594,1.968-.192,3.663-.528,5.085-1.008,1.422-.479,2.57-1.182,3.447-2.106.875-.924,1.476-2.148,1.8-3.672ZM130.975,373.613l2.285.468c-.348.732-.717,1.491-1.106,2.277-.391.786-.783,1.569-1.179,2.349-.396.78-.783,1.521-1.161,2.223-.378.702-.729,1.335-1.054,1.899l-2.285-.612c.348-.552.717-1.179,1.106-1.881.39-.702.786-1.44,1.188-2.214.401-.774.792-1.548,1.17-2.322s.723-1.503,1.035-2.187ZM127.824,381.839l1.565-1.512c.876.24,1.81.528,2.8.864.989.336,1.974.699,2.952,1.089.978.39,1.901.789,2.771,1.197.87.408,1.617.81,2.241,1.206l-1.729,1.764c-.563-.384-1.26-.789-2.088-1.215s-1.728-.846-2.7-1.26c-.972-.414-1.956-.807-2.951-1.179-.997-.372-1.95-.69-2.862-.954ZM131.622,369.545h2.304v3.294h-2.304v-3.294Z"/>
      <path class="cls-3" d="M145.393,378.059l2.25.234c-.24,1.836-.648,3.456-1.225,4.86s-1.38,2.55-2.412,3.438c-.12-.132-.288-.294-.504-.486-.216-.192-.44-.378-.675-.558-.234-.18-.436-.324-.603-.432.972-.72,1.703-1.689,2.195-2.907.492-1.218.816-2.601.973-4.149ZM143.106,371.417h15.462v4.518h-2.214v-2.484h-11.124v2.484h-2.124v-4.518ZM147.138,380.327c.276.816.64,1.479,1.09,1.989.449.51.972.894,1.565,1.152.594.258,1.245.435,1.953.531s1.458.144,2.25.144h1.881c.402,0,.812-.002,1.233-.009.42-.006.81-.012,1.17-.018.359-.006.659-.015.899-.027-.107.18-.213.399-.314.657-.103.258-.195.525-.279.801-.084.276-.144.528-.18.756h-4.519c-1.044,0-2.004-.072-2.88-.216s-1.665-.405-2.366-.783c-.702-.378-1.326-.921-1.872-1.629-.547-.708-1.012-1.632-1.396-2.772l1.764-.576ZM145.842,374.999h9.954v2.07h-9.954v-2.07ZM149.658,369.599h2.304v3.276h-2.304v-3.276ZM149.694,376.205h2.25v8.694l-2.25-.27v-8.424ZM150.828,379.319h6.066v2.034h-6.066v-2.034Z"/>
      <path class="cls-3" d="M162.456,380.327l1.944.594c-.145.6-.312,1.194-.504,1.782-.192.588-.438,1.137-.738,1.647-.3.51-.666.963-1.098,1.359l-1.818-1.206c.576-.492,1.047-1.107,1.413-1.845.366-.738.633-1.515.801-2.331ZM160.782,371.813h16.146v2.034h-16.146v-2.034ZM161.952,376.097h13.878v2.052h-13.878v-2.052ZM164.994,380.183h2.142v3.438c0,.276.061.453.181.531.119.078.39.117.81.117h2.484c.239,0,.42-.045.54-.135.119-.09.21-.276.27-.558.061-.282.102-.705.126-1.269.156.096.345.198.567.306.222.108.456.201.702.279.245.079.465.142.656.189-.084.816-.216,1.449-.396,1.899-.18.45-.453.762-.819.936-.366.174-.854.261-1.467.261h-2.916c-.768,0-1.359-.078-1.772-.234-.414-.156-.702-.417-.864-.783-.162-.366-.243-.873-.243-1.521v-3.456ZM166.272,379.157l1.458-1.296c.396.192.807.426,1.232.702s.822.561,1.188.855c.365.294.663.573.891.837l-1.565,1.422c-.192-.252-.466-.534-.819-.846-.354-.312-.738-.615-1.152-.909s-.825-.549-1.232-.765ZM167.658,369.563h2.196v7.974h-2.196v-7.974ZM172.393,380.831l1.8-.936c.42.456.837.951,1.251,1.485.414.534.783,1.068,1.106,1.602.324.534.57,1.029.738,1.485l-1.979,1.044c-.145-.444-.366-.939-.666-1.485-.301-.546-.646-1.098-1.035-1.656-.391-.558-.795-1.071-1.215-1.539Z"/>
      <path class="cls-3" d="M179.376,372.587h13.554v2.124h-11.394v11.754h-2.16v-13.878ZM183.282,376.457h1.962v7.434h-1.962v-7.434ZM185.316,369.563l2.754.396c-.312.732-.646,1.446-.999,2.142-.354.696-.675,1.284-.963,1.764l-2.088-.45c.168-.372.335-.78.504-1.224.168-.444.32-.894.459-1.35.138-.456.249-.882.333-1.278ZM184.128,376.457h6.229v6.174h-6.229v-1.89h4.248v-2.412h-4.248v-1.872ZM192.174,372.587h2.16v11.394c0,.576-.072,1.032-.216,1.368s-.408.588-.792.756c-.384.167-.864.272-1.44.315-.575.042-1.277.063-2.105.063-.013-.204-.058-.438-.135-.702-.078-.264-.169-.528-.271-.792s-.201-.492-.297-.684c.36.024.717.039,1.071.045.354.006.675.006.963,0,.288-.006.492-.009.612-.009.167,0,.284-.027.351-.081.065-.054.099-.159.099-.315v-11.358Z"/>
      <path class="cls-3" d="M198.87,370.967h1.98v3.222c0,.648-.075,1.326-.226,2.034-.15.708-.44,1.377-.873,2.007-.432.63-1.062,1.173-1.89,1.629-.097-.144-.231-.312-.405-.504s-.354-.384-.54-.576-.339-.336-.459-.432c.731-.384,1.266-.807,1.603-1.269.335-.461.555-.948.656-1.458.103-.51.153-1.005.153-1.485v-3.168ZM196.656,383.891h16.29v1.998h-16.29v-1.998ZM196.836,373.991h9.234v1.908h-9.234v-1.908ZM197.448,370.211h8.226v1.89h-8.226v-1.89ZM198.492,380.489h12.654v1.962h-12.654v-1.962ZM202.38,370.949h2.017v8.424h-2.017v-8.424ZM203.712,379.067h2.214v6.3h-2.214v-6.3ZM206.826,370.607h1.979v6.12h-1.979v-6.12ZM210.12,369.779h2.052v7.722c0,.492-.057.876-.171,1.152-.114.276-.339.498-.675.666-.336.144-.738.234-1.206.27s-1.021.054-1.656.054c-.036-.276-.117-.597-.243-.963-.126-.366-.261-.675-.404-.927.407.012.807.018,1.196.018s.646-.006.766-.018c.144,0,.236-.018.278-.054s.063-.114.063-.234v-7.686Z"/>
      <path class="cls-3" d="M219.948,386.519h-5.616v-.09c.66-.564,1.257-1.266,1.791-2.106s.963-1.794,1.287-2.862.486-2.214.486-3.438c0-1.236-.162-2.385-.486-3.447s-.753-2.016-1.287-2.862c-.534-.846-1.131-1.545-1.791-2.097v-.09h5.616v16.992Z"/>
    </g>
    <g>
      <path class="cls-3" d="M373.324,369.617c-.648.552-1.242,1.251-1.782,2.097-.54.846-.972,1.8-1.296,2.862s-.486,2.211-.486,3.447c0,1.224.162,2.37.486,3.438s.756,2.022,1.296,2.862,1.134,1.542,1.782,2.106v.09h-5.616v-16.992h5.616v.09Z"/>
      <path class="cls-3" d="M374.908,375.683h2.105v5.526c0,.312.042.51.126.594s.294.126.631.126h1.836c.18,0,.317-.045.414-.135.096-.09.168-.27.216-.54s.084-.675.107-1.215c.132.108.315.216.55.324.233.108.471.204.711.288.239.084.462.156.666.216-.085.804-.217,1.431-.396,1.881-.18.45-.435.765-.765.945-.33.18-.771.27-1.323.27h-2.322c-.66,0-1.176-.078-1.548-.234-.372-.156-.633-.435-.783-.837-.149-.402-.225-.957-.225-1.665v-5.544ZM374.926,370.949h6.624v7.29h-2.088v-5.292h-4.536v-1.998ZM376.096,375.683h4.194v1.962h-4.194v-1.962ZM387.868,373.595l2.214.234c-.228,1.668-.552,3.166-.972,4.491-.421,1.326-.96,2.508-1.62,3.546-.66,1.038-1.467,1.944-2.421,2.718-.954.774-2.079,1.431-3.375,1.971-.072-.168-.187-.372-.342-.612-.156-.24-.321-.48-.495-.72-.175-.24-.333-.438-.478-.594,1.632-.576,2.955-1.353,3.97-2.331,1.014-.978,1.797-2.181,2.349-3.609s.941-3.126,1.17-5.094ZM383.944,369.581l2.268.414c-.24,1.104-.54,2.175-.899,3.213-.36,1.038-.769,1.998-1.225,2.88-.456.882-.954,1.653-1.494,2.313-.12-.132-.297-.285-.53-.459-.234-.174-.478-.348-.729-.522s-.462-.309-.63-.405c.528-.564,1.002-1.236,1.422-2.016.42-.78.783-1.632,1.089-2.556.307-.924.549-1.878.729-2.862ZM384.772,374.351c.3,1.572.726,3.027,1.277,4.365.552,1.338,1.281,2.505,2.188,3.501.905.996,2.019,1.764,3.339,2.304-.168.144-.349.33-.54.558-.192.228-.372.462-.54.702-.168.24-.306.456-.414.648-1.428-.672-2.613-1.572-3.555-2.7-.942-1.128-1.707-2.451-2.295-3.969-.589-1.518-1.068-3.207-1.44-5.067l1.98-.342ZM383.8,372.731h7.488v2.034h-7.488v-2.034Z"/>
      <path class="cls-3" d="M392.638,379.067h16.398v1.656h-16.398v-1.656ZM393.232,375.953h15.246v1.584h-15.246v-1.584ZM393.736,371.471h14.202v1.566h-14.202v-1.566ZM394.906,373.721h11.862v1.53h-11.862v-1.53ZM395.086,381.407h11.557v5.022h-2.232v-3.384h-7.2v3.438h-2.124v-5.076ZM395.176,377.699l1.998-.414c.181.24.352.516.514.828s.272.588.333.828l-2.07.504c-.061-.252-.162-.54-.306-.864-.145-.324-.301-.618-.469-.882ZM396.022,370.031l1.962-.486c.204.264.393.57.566.918s.31.654.405.918l-2.07.612c-.06-.264-.171-.582-.333-.954-.161-.372-.339-.708-.53-1.008ZM396.059,384.269h9.485v1.656h-9.485v-1.656ZM399.658,372.227h2.231v7.524h-2.231v-7.524ZM403.475,369.527l2.285.36c-.216.396-.426.756-.63,1.08s-.396.612-.576.864l-1.943-.378c.144-.288.303-.612.477-.972.174-.36.303-.678.388-.954ZM404.41,377.303l2.214.324c-.192.336-.369.642-.531.918s-.303.516-.423.72l-2.034-.306c.132-.252.273-.531.424-.837.149-.306.267-.579.351-.819Z"/>
      <path class="cls-3" d="M418.828,375.719c.432,0,.819.105,1.161.315.342.21.618.486.828.828s.314.729.314,1.161c0,.42-.104.804-.314,1.152s-.486.627-.828.837-.729.315-1.161.315c-.42,0-.804-.105-1.152-.315-.348-.21-.627-.489-.837-.837s-.314-.732-.314-1.152c0-.432.104-.819.314-1.161s.489-.618.837-.828c.349-.209.732-.315,1.152-.315Z"/>
      <path class="cls-3" d="M440.356,379.121h.449l.379-.072,1.403.918c-.588,1.044-1.335,1.944-2.241,2.7-.905.756-1.94,1.389-3.104,1.899-1.164.51-2.412.924-3.744,1.242s-2.712.555-4.14.711c-.049-.18-.129-.393-.243-.639-.114-.246-.24-.489-.378-.729-.139-.24-.273-.432-.405-.576,1.392-.108,2.715-.282,3.969-.522,1.254-.24,2.409-.561,3.466-.963,1.056-.402,1.977-.903,2.763-1.503.785-.6,1.395-1.308,1.827-2.124v-.342ZM431.158,373.721l2.016.54c-.372.708-.84,1.398-1.403,2.07-.564.672-1.158,1.23-1.782,1.674-.192-.204-.438-.429-.738-.675-.3-.246-.552-.435-.756-.567.384-.252.75-.546,1.098-.882.349-.336.657-.69.928-1.062.27-.372.482-.738.639-1.098ZM428.854,371.129h16.002v1.98h-16.002v-1.98ZM434.596,377.789l2.269.45c-.744,1.032-1.647,1.965-2.709,2.799-1.062.834-2.373,1.569-3.934,2.205-.084-.18-.204-.372-.359-.576-.156-.204-.321-.399-.495-.585s-.339-.333-.495-.441c1.452-.492,2.646-1.074,3.582-1.746.936-.672,1.649-1.374,2.142-2.106ZM434.47,371.651h2.017v1.44c0,.468-.033.966-.1,1.494-.065.528-.197,1.056-.396,1.584s-.495,1.044-.891,1.548c-.396.504-.925.96-1.584,1.368-.108-.144-.256-.309-.441-.495-.187-.186-.381-.366-.585-.54-.204-.174-.391-.315-.559-.423.576-.336,1.032-.699,1.368-1.089.336-.39.588-.786.756-1.188.168-.402.279-.804.333-1.206.055-.402.081-.776.081-1.125v-1.368ZM434.164,380.219c.612.888,1.449,1.629,2.511,2.223,1.062.594,2.325,1.053,3.789,1.377,1.464.324,3.108.528,4.933.612-.145.168-.297.375-.459.621s-.312.492-.45.738c-.139.246-.255.471-.352.675-1.92-.156-3.63-.45-5.13-.882-1.5-.432-2.808-1.038-3.924-1.818-1.116-.78-2.064-1.758-2.844-2.934l1.926-.612ZM434.578,379.121h6.372v1.692h-7.902l1.53-1.692ZM435.712,369.563h2.232v2.394h-2.232v-2.394ZM438.124,371.939h2.088v4.428c0,.456-.048.822-.144,1.098-.097.276-.307.492-.63.648-.301.144-.66.231-1.08.261-.421.03-.906.045-1.458.045-.036-.288-.111-.609-.226-.963-.114-.354-.236-.663-.369-.927.312.012.621.018.928.018h.621c.096,0,.164-.018.207-.054.042-.036.062-.096.062-.18v-4.374ZM440.716,374.603l1.674-.954c.349.324.705.69,1.071,1.098.366.408.711.81,1.035,1.206s.582.756.774,1.08l-1.801,1.098c-.168-.336-.404-.708-.711-1.116-.306-.408-.636-.825-.989-1.251-.354-.426-.705-.812-1.054-1.161Z"/>
      <path class="cls-3" d="M450.94,369.815l2.142.702c-.456,1.068-.996,2.133-1.62,3.195s-1.293,2.058-2.007,2.988c-.714.93-1.449,1.743-2.205,2.439-.072-.18-.183-.414-.333-.702-.15-.288-.309-.579-.477-.873-.169-.294-.318-.531-.45-.711.66-.552,1.296-1.203,1.908-1.953.611-.75,1.182-1.56,1.71-2.43.527-.87.972-1.755,1.332-2.655ZM449.032,374.891l2.142-2.142.019.036v13.662h-2.16v-11.556ZM454.432,370.031h2.179v12.978c0,.36.021.63.062.81s.138.297.288.351c.15.054.369.081.657.081h2.628c.3,0,.524-.087.675-.261.15-.174.258-.492.324-.954.065-.461.123-1.113.171-1.953.264.192.588.375.972.549.385.174.727.297,1.026.369-.084,1.032-.222,1.86-.414,2.484-.192.624-.486,1.077-.882,1.359-.396.282-.954.423-1.674.423h-3.097c-.756,0-1.344-.096-1.764-.288-.42-.192-.717-.528-.891-1.008-.175-.479-.262-1.14-.262-1.98v-12.96ZM461.164,373.055l1.584,1.89c-.66.48-1.38.945-2.16,1.395-.78.45-1.575.885-2.385,1.305s-1.605.81-2.385,1.17c-.072-.252-.198-.543-.378-.873-.181-.33-.343-.609-.486-.837.744-.36,1.491-.768,2.241-1.224s1.467-.93,2.15-1.422c.685-.492,1.29-.96,1.818-1.404Z"/>
      <path class="cls-3" d="M480.19,373.955c-.072.192-.142.435-.207.729-.066.294-.117.531-.153.711-.072.42-.159.846-.261,1.278-.103.432-.223.864-.36,1.296s-.294.858-.468,1.278c-.174.42-.369.834-.585,1.242-.48.876-1.089,1.674-1.827,2.394s-1.575,1.329-2.511,1.827c-.937.498-1.938.891-3.006,1.179l-1.872-2.16c.407-.072.84-.171,1.296-.297s.87-.261,1.242-.405c.504-.192,1.005-.435,1.503-.729.497-.294.969-.639,1.413-1.035.443-.396.834-.834,1.17-1.314.3-.444.558-.921.773-1.431.216-.51.39-1.038.522-1.584.132-.546.233-1.083.306-1.611h-8.928v2.628c0,.204.006.432.018.684s.024.468.036.648h-2.483c.023-.228.045-.477.062-.747s.027-.525.027-.765v-3.114c0-.204-.007-.459-.019-.765-.012-.306-.036-.567-.071-.783.312.036.611.06.899.072.288.012.6.018.937.018h9.485c.372,0,.675-.021.909-.063.234-.042.429-.087.585-.135l1.566.954ZM474.124,370.157c-.036.384-.066.693-.09.927-.024.234-.036.477-.036.729v2.592h-2.502v-2.592c0-.252-.009-.495-.027-.729-.018-.234-.057-.543-.116-.927h2.771Z"/>
      <path class="cls-3" d="M484.456,382.991c.228.024.474.048.738.072.264.024.51.036.737.036h9.954c.252,0,.495-.015.729-.045.234-.03.447-.051.639-.063v2.358c-.191-.036-.429-.06-.711-.072-.282-.012-.501-.018-.657-.018h-9.954c-.216,0-.456.006-.72.018-.264.012-.516.036-.756.072v-2.358ZM485.374,375.107c.204.036.444.06.72.072.276.012.511.018.702.018h8.244c.216,0,.45-.006.702-.018.252-.012.486-.036.702-.072v2.268c-.229-.024-.468-.042-.72-.054-.253-.012-.48-.018-.685-.018h-8.244c-.191,0-.426.006-.702.018-.275.012-.516.03-.72.054v-2.268ZM489.604,384.323v-7.974h2.357v7.974h-2.357Z"/>
      <path class="cls-3" d="M500.548,384.197c.792-.552,1.44-1.218,1.944-1.998.504-.78.876-1.548,1.116-2.304.132-.396.23-.885.297-1.467.065-.582.117-1.206.153-1.872.035-.666.057-1.326.062-1.98.006-.654.009-1.257.009-1.809,0-.36-.015-.668-.045-.927-.03-.258-.069-.501-.117-.729h2.646c-.013.024-.027.123-.045.297-.019.174-.036.378-.055.612-.018.234-.026.477-.026.729,0,.528-.006,1.143-.019,1.845-.012.702-.035,1.419-.071,2.151-.036.732-.09,1.425-.162,2.079-.072.654-.168,1.209-.288,1.665-.276,1.02-.688,1.965-1.233,2.835-.546.87-1.203,1.647-1.971,2.331l-2.196-1.458ZM508.882,384.467c.036-.18.069-.387.1-.621.029-.234.045-.471.045-.711v-10.494c0-.408-.021-.762-.063-1.062-.042-.3-.069-.461-.081-.486h2.683c-.013.024-.036.189-.072.495-.036.306-.054.663-.054,1.071v9.414c.491-.216,1.001-.51,1.529-.882s1.047-.807,1.558-1.305c.51-.498.963-1.035,1.358-1.611l1.387,1.98c-.492.648-1.09,1.284-1.791,1.908-.702.625-1.426,1.194-2.169,1.71-.744.516-1.458.948-2.143,1.296-.192.108-.348.207-.468.297s-.223.171-.306.243l-1.513-1.242Z"/>
      <path class="cls-3" d="M527.404,370.427c-.024.204-.045.468-.063.792-.018.324-.033.594-.045.81-.048,1.788-.198,3.375-.45,4.761-.252,1.386-.611,2.613-1.079,3.681-.469,1.068-1.062,2.025-1.782,2.871-.721.846-1.578,1.623-2.574,2.331l-2.088-1.692c.372-.216.771-.471,1.197-.765.426-.294.812-.627,1.16-.999.588-.576,1.086-1.209,1.494-1.899s.735-1.446.981-2.268c.246-.822.429-1.725.549-2.709s.18-2.07.18-3.258c0-.132-.006-.303-.018-.513s-.027-.417-.045-.621c-.019-.204-.039-.378-.063-.522h2.646ZM533.524,374.279c-.024.144-.052.312-.081.504-.03.192-.045.342-.045.45-.013.384-.033.876-.063,1.476s-.072,1.245-.126,1.935c-.054.69-.12,1.377-.198,2.061-.078.684-.171,1.317-.278,1.899-.108.582-.24,1.059-.396,1.431-.192.457-.471.801-.837,1.035s-.861.351-1.485.351c-.516,0-1.031-.015-1.548-.045-.516-.03-.996-.063-1.439-.099l-.271-2.412c.444.084.888.147,1.332.189.444.042.84.063,1.188.063.3,0,.521-.051.666-.153.144-.102.264-.261.359-.477.097-.24.187-.558.271-.954s.155-.84.216-1.332c.06-.492.111-1.001.153-1.53.042-.528.071-1.041.09-1.539.018-.498.027-.939.027-1.323h-8.784c-.301,0-.673.003-1.116.009-.444.006-.864.027-1.26.063v-2.358c.384.036.792.066,1.224.09.432.024.816.036,1.152.036h8.334c.228,0,.459-.012.692-.036.234-.024.453-.054.657-.09l1.566.756Z"/>
      <path class="cls-3" d="M538.924,382.271c.408-.024.903-.057,1.485-.099s1.209-.096,1.881-.162,1.359-.135,2.062-.207c.701-.072,1.392-.147,2.069-.225.678-.078,1.312-.153,1.899-.225.588-.072,1.086-.138,1.494-.198l.54,2.304c-.444.06-.976.126-1.594.198-.618.072-1.28.147-1.988.225-.709.078-1.429.159-2.16.243-.732.084-1.446.162-2.143.234-.695.072-1.338.135-1.926.189-.588.054-1.086.105-1.494.153-.228.024-.495.057-.801.099s-.603.081-.891.117l-.414-2.628h.999c.365,0,.692-.006.98-.018ZM545.818,371.291c-.12.264-.246.561-.378.891-.133.331-.265.699-.396,1.107-.107.336-.246.765-.414,1.287s-.354,1.092-.558,1.71c-.204.618-.417,1.254-.639,1.908-.223.654-.436,1.287-.64,1.899s-.396,1.167-.576,1.665c-.18.498-.336.903-.468,1.215l-2.664.09c.168-.384.354-.852.559-1.404.203-.552.42-1.155.647-1.809.228-.654.453-1.323.675-2.007.223-.684.433-1.344.63-1.98.198-.636.379-1.224.54-1.764.162-.54.291-.978.388-1.314.119-.468.213-.855.278-1.161.066-.306.117-.615.153-.927l2.862.594ZM549.04,377.105c.324.48.672,1.044,1.044,1.692s.741,1.323,1.107,2.025c.365.702.704,1.377,1.017,2.025s.57,1.23.774,1.746l-2.431,1.08c-.204-.552-.453-1.176-.747-1.872-.294-.696-.611-1.404-.953-2.124-.343-.72-.69-1.401-1.045-2.043-.354-.642-.692-1.179-1.017-1.611l2.25-.918Z"/>
      <path class="cls-3" d="M556.87,370.967h1.98v3.222c0,.648-.075,1.326-.226,2.034-.15.708-.44,1.377-.873,2.007-.432.63-1.062,1.173-1.89,1.629-.097-.144-.231-.312-.405-.504s-.354-.384-.54-.576-.339-.336-.459-.432c.731-.384,1.266-.807,1.603-1.269.335-.461.555-.948.656-1.458.103-.51.153-1.005.153-1.485v-3.168ZM554.656,383.891h16.29v1.998h-16.29v-1.998ZM554.836,373.991h9.234v1.908h-9.234v-1.908ZM555.448,370.211h8.226v1.89h-8.226v-1.89ZM556.492,380.489h12.654v1.962h-12.654v-1.962ZM560.38,370.949h2.017v8.424h-2.017v-8.424ZM561.712,379.067h2.214v6.3h-2.214v-6.3ZM564.826,370.607h1.979v6.12h-1.979v-6.12ZM568.12,369.779h2.052v7.722c0,.492-.057.876-.171,1.152-.114.276-.339.498-.675.666-.336.144-.738.234-1.206.27s-1.021.054-1.656.054c-.036-.276-.117-.597-.243-.963-.126-.366-.261-.675-.404-.927.407.012.807.018,1.196.018s.646-.006.766-.018c.144,0,.236-.018.278-.054s.063-.114.063-.234v-7.686Z"/>
      <path class="cls-3" d="M577.948,386.519h-5.616v-.09c.66-.564,1.257-1.266,1.791-2.106s.963-1.794,1.287-2.862.486-2.214.486-3.438c0-1.236-.162-2.385-.486-3.447s-.753-2.016-1.287-2.862c-.534-.846-1.131-1.545-1.791-2.097v-.09h5.616v16.992Z"/>
    </g>
  </g>
  <g>
    <g>
      <path class="cls-3" d="M33.324,526.784c-.648.552-1.242,1.251-1.782,2.097-.54.846-.972,1.8-1.296,2.862s-.486,2.211-.486,3.447c0,1.224.162,2.37.486,3.438s.756,2.022,1.296,2.862,1.134,1.542,1.782,2.106v.09h-5.616v-16.992h5.616v.09Z"/>
      <path class="cls-3" d="M35.25,529.556h15.354v3.834h-2.07v-2.016h-11.304v2.016h-1.98v-3.834ZM36.258,527.774l1.854-.792c.312.348.621.735.927,1.161.306.426.537.808.693,1.143l-1.98.864c-.132-.324-.342-.711-.63-1.161s-.576-.855-.864-1.215ZM36.636,537.8h12.673v5.868h-2.143v-4.014h-8.46v4.032h-2.07v-5.886ZM37.806,541.238h10.278v1.854h-10.278v-1.854ZM38.148,532.274h9.468v4.428h-9.468v-4.428ZM40.146,533.84v1.278h5.363v-1.278h-5.363ZM40.758,527.324l1.891-.648c.264.36.53.768.801,1.224.27.456.459.852.567,1.188l-1.98.72c-.108-.324-.285-.723-.531-1.197s-.495-.903-.747-1.287ZM41.55,536.036l2.448.144c-.18.48-.372.942-.576,1.386s-.39.822-.558,1.134l-1.89-.252c.119-.372.233-.78.342-1.224.107-.444.186-.84.233-1.188ZM47.328,526.82l2.322.702c-.385.516-.769,1.02-1.152,1.512-.384.492-.738.906-1.062,1.242l-1.765-.648c.192-.264.394-.558.604-.882.21-.324.407-.654.594-.99.186-.336.339-.648.459-.936Z"/>
      <path class="cls-3" d="M59.334,538.538l1.71.774c-.564.624-1.245,1.203-2.043,1.737-.798.534-1.653,1.002-2.564,1.404-.912.402-1.83.729-2.755.981-.096-.18-.225-.381-.387-.603s-.33-.441-.504-.657-.339-.396-.495-.54c.9-.192,1.797-.438,2.691-.738.894-.3,1.719-.654,2.475-1.062.756-.408,1.38-.84,1.872-1.296ZM52.836,537.746h16.057v1.782h-16.057v-1.782ZM52.89,529.682h15.948v1.764h-15.948v-1.764ZM53.628,532.904h14.508v1.692h-14.508v-1.692ZM54.168,527.45l1.854-.63c.264.372.527.801.792,1.287.264.486.456.903.575,1.251l-1.943.72c-.097-.36-.271-.786-.522-1.278-.252-.492-.504-.942-.756-1.35ZM54.51,535.388h12.799v1.566h-12.799v-1.566ZM56.454,531.482l2.106-.342c.155.252.309.537.459.855.149.318.261.597.333.837l-2.196.378c-.061-.228-.156-.51-.288-.846s-.271-.63-.414-.882ZM58.164,526.712h2.016v3.816h-2.016v-3.816ZM59.73,533.75h2.142v9.9h-2.142v-9.9ZM62.304,538.484c.372.36.816.699,1.332,1.017.517.318,1.083.606,1.701.864.618.258,1.272.483,1.962.675.69.192,1.389.342,2.098.45-.169.168-.346.363-.531.585-.187.222-.36.456-.522.702-.162.246-.297.471-.404.675-.721-.18-1.426-.411-2.115-.693-.69-.282-1.348-.603-1.971-.963-.624-.36-1.213-.762-1.765-1.206s-1.038-.918-1.458-1.422l1.674-.684ZM61.512,526.712h2.034v3.69h-2.034v-3.69ZM63.276,530.726l2.286.54c-.252.42-.492.825-.721,1.215-.228.39-.432.723-.611.999l-1.836-.504c.155-.335.317-.711.485-1.125.168-.414.3-.789.396-1.125ZM65.652,526.874l2.25.54c-.276.492-.559.969-.847,1.431-.287.462-.552.855-.792,1.179l-1.764-.54c.145-.24.288-.513.432-.819.145-.306.279-.618.405-.936s.231-.603.315-.855Z"/>
      <path class="cls-3" d="M74.094,526.658l2.269.486c-.433,1.452-1.015,2.796-1.746,4.032-.732,1.236-1.536,2.256-2.412,3.06-.132-.132-.321-.285-.567-.459s-.494-.348-.747-.522c-.252-.174-.468-.309-.647-.405.888-.684,1.665-1.575,2.331-2.673s1.173-2.271,1.521-3.519ZM78.54,535.658l2.106.684c-.601,1.128-1.329,2.169-2.188,3.123s-1.797,1.803-2.816,2.547c-1.021.744-2.083,1.38-3.187,1.908-.108-.144-.255-.324-.441-.54-.186-.216-.384-.426-.594-.63-.21-.205-.393-.372-.549-.504,1.104-.444,2.145-.99,3.123-1.638.978-.648,1.854-1.392,2.628-2.232.774-.84,1.413-1.746,1.917-2.718ZM72.366,533.768h10.386v1.8h-10.386v-1.8ZM72.402,537.656l1.529-1.422c.66.348,1.348.735,2.062,1.161.714.426,1.422.873,2.124,1.341.702.468,1.353.933,1.953,1.395.6.462,1.104.903,1.512,1.323l-1.728,1.638c-.372-.408-.844-.852-1.413-1.332-.57-.48-1.194-.963-1.872-1.449-.679-.486-1.377-.957-2.098-1.413-.72-.456-1.41-.87-2.069-1.242ZM74.311,528.476h12.275v1.782h-12.275v-1.782ZM74.508,531.122h10.44v1.746h-10.44v-1.746ZM82.05,533.768h2.214c0,1.08.013,2.091.036,3.033.024.942.081,1.764.171,2.466.091.702.219,1.254.388,1.656.168.402.384.603.647.603.145-.012.24-.24.288-.684s.078-1.026.09-1.746c.204.24.436.483.693.729.258.246.495.453.711.621-.048.744-.135,1.356-.261,1.836s-.321.831-.585,1.053c-.265.222-.624.333-1.08.333-.756,0-1.354-.255-1.791-.765-.438-.51-.766-1.218-.981-2.124-.216-.906-.359-1.959-.432-3.159-.072-1.2-.108-2.484-.108-3.852Z"/>
      <path class="cls-3" d="M89.935,527.144l2.321.576c-.012.144-.156.24-.432.288v.882c0,.468-.054,1.005-.162,1.611s-.303,1.212-.585,1.818-.699,1.167-1.251,1.683c-.097-.144-.229-.303-.396-.477s-.342-.342-.521-.504c-.18-.162-.349-.285-.504-.369.456-.396.789-.816.999-1.26.21-.444.351-.891.423-1.341s.108-.873.108-1.269v-1.638ZM93.858,540.446l1.962.9c-.48.312-1.044.618-1.692.918-.647.3-1.313.573-1.998.819-.684.246-1.332.453-1.943.621-.133-.144-.291-.315-.478-.513-.187-.198-.381-.396-.585-.594-.204-.198-.384-.357-.54-.477.636-.12,1.281-.264,1.936-.432.653-.168,1.271-.36,1.854-.576s1.077-.438,1.485-.666ZM95.101,526.748l1.313,1.278c-.504.144-1.065.276-1.683.396-.618.12-1.245.216-1.881.288-.637.072-1.249.126-1.837.162-.035-.18-.099-.398-.188-.657-.09-.258-.189-.471-.297-.639.552-.06,1.106-.129,1.665-.207.558-.078,1.092-.171,1.602-.279s.945-.222,1.306-.342ZM90.78,529.43h5.994v1.566h-5.994v-1.566ZM90.888,533.21h12.114v7.38h-12.114v-7.38ZM92.977,534.506v.774h7.848v-.774h-7.848ZM92.977,536.504v.792h7.848v-.792h-7.848ZM92.977,538.52v.792h7.848v-.792h-7.848ZM93.156,529.952h1.908v2.916h-1.908v-2.916ZM97.404,527.162l2.304.522c-.012.168-.156.27-.432.306v.918c0,.42-.061.897-.181,1.431-.12.534-.348,1.062-.684,1.584s-.822.987-1.458,1.395c-.072-.144-.187-.309-.342-.495-.156-.186-.318-.366-.486-.54-.168-.174-.33-.303-.486-.387.505-.312.879-.642,1.125-.99.246-.348.414-.702.505-1.062.09-.36.135-.708.135-1.044v-1.638ZM97.836,541.544l1.8-1.026c.648.229,1.306.471,1.972.729.666.258,1.302.516,1.907.774.606.258,1.119.489,1.539.693l-2.52.972c-.336-.192-.756-.414-1.26-.666-.504-.252-1.048-.507-1.629-.765-.583-.258-1.186-.495-1.81-.711ZM102.895,526.766l1.313,1.26c-.54.168-1.14.309-1.8.423-.66.114-1.335.207-2.025.279-.689.072-1.353.132-1.988.18-.036-.192-.103-.417-.198-.675-.097-.258-.187-.477-.271-.657.588-.048,1.188-.114,1.801-.198.611-.084,1.196-.18,1.755-.288.558-.108,1.028-.216,1.413-.324ZM98.196,529.43h6.731v1.566h-6.731v-1.566ZM100.716,529.952h1.927v2.934h-1.927v-2.934Z"/>
      <path class="cls-3" d="M111.948,543.686h-5.616v-.09c.66-.564,1.257-1.266,1.791-2.106s.963-1.794,1.287-2.862.486-2.214.486-3.438c0-1.236-.162-2.385-.486-3.447s-.753-2.016-1.287-2.862c-.534-.846-1.131-1.545-1.791-2.097v-.09h5.616v16.992Z"/>
    </g>
    <g>
      <path class="cls-3" d="M499.324,526.784c-.648.552-1.242,1.251-1.782,2.097-.54.846-.972,1.8-1.296,2.862s-.486,2.211-.486,3.447c0,1.224.162,2.37.486,3.438s.756,2.022,1.296,2.862,1.134,1.542,1.782,2.106v.09h-5.616v-16.992h5.616v.09Z"/>
      <path class="cls-3" d="M500.26,539.348c.648-.096,1.413-.222,2.295-.378.883-.156,1.785-.318,2.709-.486l.145,1.818c-.828.18-1.656.357-2.484.531s-1.596.333-2.304.477l-.36-1.962ZM500.62,527.414h6.21v1.908h-6.21v-1.908ZM501.34,528.44h1.746v11.304h-1.746v-11.304ZM502.187,531.266h3.149v1.746h-3.149v-1.746ZM502.187,534.938h3.149v1.764h-3.149v-1.764ZM504.256,528.44h1.818v15.21h-1.818v-15.21ZM506.398,532.382h10.907v1.674h-10.907v-1.674ZM506.758,528.404h5.526v1.566h-5.526v-1.566ZM507.082,534.848h1.638v7.578h-1.638v-7.578ZM507.136,530.24l1.387-.342c.132.36.242.753.333,1.179.09.426.141.801.152,1.125l-1.458.36c-.012-.312-.057-.687-.135-1.125s-.171-.837-.279-1.197ZM507.893,537.404h3.239v1.404h-3.239v-1.404ZM508.342,534.848h3.727v6.534h-3.727v-1.476h2.053v-3.564h-2.053v-1.494ZM508.612,526.784h1.836v2.682h-1.836v-2.682ZM510.34,529.898l1.639.306c-.145.42-.282.831-.414,1.233-.133.402-.252.753-.36,1.053l-1.35-.306c.096-.324.188-.702.278-1.134s.159-.816.207-1.152ZM515.398,534.722l1.728.378c-.528,1.896-1.278,3.567-2.25,5.013-.972,1.446-2.136,2.631-3.492,3.555-.071-.108-.183-.252-.333-.432-.149-.18-.306-.36-.468-.54s-.303-.324-.423-.432c1.296-.768,2.385-1.8,3.267-3.096.883-1.296,1.539-2.778,1.972-4.446ZM512.554,526.748h1.908c-.012,1.524-.003,2.995.027,4.41.029,1.416.081,2.727.153,3.933.071,1.206.158,2.259.261,3.159.102.9.219,1.605.351,2.115.132.51.276.765.433.765.119,0,.213-.198.278-.594.066-.396.117-.954.153-1.674.108.132.252.282.432.45.181.168.36.318.54.45.181.132.324.234.433.306-.156.972-.346,1.716-.567,2.232s-.453.867-.693,1.053c-.24.186-.462.279-.666.279-.504-.012-.93-.282-1.277-.81-.349-.528-.634-1.284-.855-2.268-.222-.984-.396-2.169-.521-3.555-.126-1.386-.216-2.943-.271-4.671-.054-1.728-.093-3.588-.117-5.58ZM514.21,528.242l1.404-.738c.372.432.72.915,1.044,1.449.324.534.569,1.011.738,1.431l-1.513.828c-.132-.408-.359-.894-.684-1.458s-.654-1.068-.99-1.512Z"/>
      <path class="cls-3" d="M525.316,527.162h2.483c-.023.504-.065,1.152-.126,1.944-.06.792-.171,1.671-.333,2.637-.162.966-.404,1.978-.729,3.033-.324,1.056-.766,2.109-1.323,3.159-.558,1.05-1.267,2.052-2.124,3.006-.858.954-1.898,1.803-3.123,2.547-.192-.276-.453-.57-.783-.882-.33-.312-.675-.594-1.034-.846,1.199-.672,2.207-1.44,3.023-2.304.816-.864,1.482-1.773,1.998-2.727.516-.954.912-1.914,1.188-2.88.275-.966.474-1.881.594-2.745.119-.864.191-1.638.216-2.322.023-.684.048-1.224.072-1.62ZM527.71,527.648c.012.228.036.588.072,1.08s.107,1.08.216,1.764.272,1.425.495,2.223c.222.798.519,1.617.891,2.457s.834,1.662,1.387,2.466c.552.804,1.221,1.548,2.007,2.232.785.684,1.707,1.278,2.763,1.782-.348.252-.669.546-.963.882s-.531.654-.711.954c-1.104-.552-2.067-1.209-2.889-1.971-.822-.762-1.524-1.59-2.106-2.484-.582-.894-1.065-1.803-1.449-2.727-.384-.924-.692-1.833-.927-2.727-.234-.894-.411-1.725-.531-2.493s-.201-1.434-.243-1.998-.074-.972-.099-1.224l2.088-.216Z"/>
      <path class="cls-3" d="M540.094,526.658l2.269.486c-.433,1.452-1.015,2.796-1.746,4.032-.732,1.236-1.536,2.256-2.412,3.06-.132-.132-.321-.285-.567-.459s-.494-.348-.747-.522c-.252-.174-.468-.309-.647-.405.888-.684,1.665-1.575,2.331-2.673s1.173-2.271,1.521-3.519ZM544.54,535.658l2.106.684c-.601,1.128-1.329,2.169-2.188,3.123s-1.797,1.803-2.816,2.547c-1.021.744-2.083,1.38-3.187,1.908-.108-.144-.255-.324-.441-.54-.186-.216-.384-.426-.594-.63-.21-.205-.393-.372-.549-.504,1.104-.444,2.145-.99,3.123-1.638.978-.648,1.854-1.392,2.628-2.232.774-.84,1.413-1.746,1.917-2.718ZM538.366,533.768h10.386v1.8h-10.386v-1.8ZM538.402,537.656l1.529-1.422c.66.348,1.348.735,2.062,1.161.714.426,1.422.873,2.124,1.341.702.468,1.353.933,1.953,1.395.6.462,1.104.903,1.512,1.323l-1.728,1.638c-.372-.408-.844-.852-1.413-1.332-.57-.48-1.194-.963-1.872-1.449-.679-.486-1.377-.957-2.098-1.413-.72-.456-1.41-.87-2.069-1.242ZM540.311,528.476h12.275v1.782h-12.275v-1.782ZM540.508,531.122h10.44v1.746h-10.44v-1.746ZM548.05,533.768h2.214c0,1.08.013,2.091.036,3.033.024.942.081,1.764.171,2.466.091.702.219,1.254.388,1.656.168.402.384.603.647.603.145-.012.24-.24.288-.684s.078-1.026.09-1.746c.204.24.436.483.693.729.258.246.495.453.711.621-.048.744-.135,1.356-.261,1.836s-.321.831-.585,1.053c-.265.222-.624.333-1.08.333-.756,0-1.354-.255-1.791-.765-.438-.51-.766-1.218-.981-2.124-.216-.906-.359-1.959-.432-3.159-.072-1.2-.108-2.484-.108-3.852Z"/>
      <path class="cls-3" d="M555.935,527.144l2.321.576c-.012.144-.156.24-.432.288v.882c0,.468-.054,1.005-.162,1.611s-.303,1.212-.585,1.818-.699,1.167-1.251,1.683c-.097-.144-.229-.303-.396-.477s-.342-.342-.521-.504c-.18-.162-.349-.285-.504-.369.456-.396.789-.816.999-1.26.21-.444.351-.891.423-1.341s.108-.873.108-1.269v-1.638ZM559.858,540.446l1.962.9c-.48.312-1.044.618-1.692.918-.647.3-1.313.573-1.998.819-.684.246-1.332.453-1.943.621-.133-.144-.291-.315-.478-.513-.187-.198-.381-.396-.585-.594-.204-.198-.384-.357-.54-.477.636-.12,1.281-.264,1.936-.432.653-.168,1.271-.36,1.854-.576s1.077-.438,1.485-.666ZM561.101,526.748l1.313,1.278c-.504.144-1.065.276-1.683.396-.618.12-1.245.216-1.881.288-.637.072-1.249.126-1.837.162-.035-.18-.099-.398-.188-.657-.09-.258-.189-.471-.297-.639.552-.06,1.106-.129,1.665-.207.558-.078,1.092-.171,1.602-.279s.945-.222,1.306-.342ZM556.78,529.43h5.994v1.566h-5.994v-1.566ZM556.888,533.21h12.114v7.38h-12.114v-7.38ZM558.977,534.506v.774h7.848v-.774h-7.848ZM558.977,536.504v.792h7.848v-.792h-7.848ZM558.977,538.52v.792h7.848v-.792h-7.848ZM559.156,529.952h1.908v2.916h-1.908v-2.916ZM563.404,527.162l2.304.522c-.012.168-.156.27-.432.306v.918c0,.42-.061.897-.181,1.431-.12.534-.348,1.062-.684,1.584s-.822.987-1.458,1.395c-.072-.144-.187-.309-.342-.495-.156-.186-.318-.366-.486-.54-.168-.174-.33-.303-.486-.387.505-.312.879-.642,1.125-.99.246-.348.414-.702.505-1.062.09-.36.135-.708.135-1.044v-1.638ZM563.836,541.544l1.8-1.026c.648.229,1.306.471,1.972.729.666.258,1.302.516,1.907.774.606.258,1.119.489,1.539.693l-2.52.972c-.336-.192-.756-.414-1.26-.666-.504-.252-1.048-.507-1.629-.765-.583-.258-1.186-.495-1.81-.711ZM568.895,526.766l1.313,1.26c-.54.168-1.14.309-1.8.423-.66.114-1.335.207-2.025.279-.689.072-1.353.132-1.988.18-.036-.192-.103-.417-.198-.675-.097-.258-.187-.477-.271-.657.588-.048,1.188-.114,1.801-.198.611-.084,1.196-.18,1.755-.288.558-.108,1.028-.216,1.413-.324ZM564.196,529.43h6.731v1.566h-6.731v-1.566ZM566.716,529.952h1.927v2.934h-1.927v-2.934Z"/>
      <path class="cls-3" d="M577.948,543.686h-5.616v-.09c.66-.564,1.257-1.266,1.791-2.106s.963-1.794,1.287-2.862.486-2.214.486-3.438c0-1.236-.162-2.385-.486-3.447s-.753-2.016-1.287-2.862c-.534-.846-1.131-1.545-1.791-2.097v-.09h5.616v16.992Z"/>
    </g>
  </g>
  <g>
    <line class="cls-1" x1="109.5" y1="96" x2="109.5" y2="170"/>
    <line class="cls-1" x1="501.622" y1="96" x2="501.622" y2="170"/>
    <line class="cls-1" x1="110.293" y1="132.5" x2="502.415" y2="132.5"/>
  </g>
  <g>
    <line class="cls-1" x1="110.028" y1="255" x2="110.028" y2="329"/>
    <line class="cls-1" x1="502.15" y1="255" x2="502.15" y2="329"/>
    <line class="cls-1" x1="110.821" y1="291.5" x2="502.943" y2="291.5"/>
  </g>
  <g>
    <line class="cls-1" x1="110.557" y1="410" x2="110.557" y2="484"/>
    <line class="cls-1" x1="502.679" y1="410" x2="502.679" y2="484"/>
    <line class="cls-1" x1="111.35" y1="446.5" x2="503.472" y2="446.5"/>
  </g>
  <g>
    <line class="cls-1" x1="111.085" y1="565" x2="111.085" y2="639"/>
    <line class="cls-1" x1="503.207" y1="565" x2="503.207" y2="639"/>
    <line class="cls-1" x1="111.878" y1="601.5" x2="504" y2="601.5"/>
  </g>
  <path class="cls-2" d="M332.027,313.402l-10.42-7.435-10.292,7.613c-2.761,2.043-6.523-.642-5.49-3.917l3.851-12.208-10.42-7.435c-2.796-1.995-1.406-6.402,2.029-6.432l12.801-.11,3.851-12.208c1.033-3.276,5.655-3.315,6.744-.058l4.06,12.14,12.801-.11c3.435-.029,4.9,4.354,2.139,6.396l-10.292,7.613,4.06,12.14c1.089,3.257-2.626,6.006-5.422,4.011Z"/>
  <path class="cls-2" d="M456.027,468.402l-10.42-7.435-10.292,7.613c-2.761,2.043-6.523-.642-5.49-3.917l3.851-12.208-10.42-7.435c-2.796-1.995-1.406-6.402,2.029-6.432l12.801-.11,3.851-12.208c1.033-3.276,5.655-3.315,6.744-.058l4.06,12.14,12.801-.11c3.435-.029,4.9,4.354,2.139,6.396l-10.292,7.613,4.06,12.14c1.089,3.257-2.626,6.006-5.422,4.011Z"/>
  <path class="cls-2" d="M410.027,154.402l-10.42-7.435-10.292,7.613c-2.761,2.043-6.523-.642-5.49-3.917l3.851-12.208-10.42-7.435c-2.796-1.995-1.406-6.402,2.029-6.432l12.801-.11,3.851-12.208c1.033-3.276,5.655-3.315,6.744-.058l4.06,12.14,12.801-.11c3.435-.029,4.9,4.354,2.139,6.396l-10.292,7.613,4.06,12.14c1.089,3.257-2.626,6.006-5.422,4.011Z"/>
  <path class="cls-2" d="M410.027,622.402l-10.42-7.435-10.292,7.613c-2.761,2.043-6.523-.642-5.49-3.917l3.851-12.208-10.42-7.435c-2.796-1.995-1.406-6.402,2.029-6.432l12.801-.11,3.851-12.208c1.033-3.276,5.655-3.315,6.744-.058l4.06,12.14,12.801-.11c3.435-.029,4.9,4.354,2.139,6.396l-10.292,7.613,4.06,12.14c1.089,3.257-2.626,6.006-5.422,4.011Z"/>
</svg>