<?xml version="1.0" encoding="UTF-8"?>
<svg id="_イエロー" data-name="イエロー" xmlns="http://www.w3.org/2000/svg" xmlns:xlink="http://www.w3.org/1999/xlink" viewBox="0 0 346 108">
  <defs>
    <style>
      .cls-1 {
        fill: none;
      }

      .cls-2 {
        mask: url(#mask);
      }

      .cls-3 {
        clip-path: url(#clippath-1);
      }

      .cls-4 {
        fill: #f29a98;
      }

      .cls-5 {
        clip-path: url(#clippath);
      }
    </style>
    <clipPath id="clippath">
      <rect class="cls-1" x="147.1" y="-36.461" width="251.731" height="180.59"/>
    </clipPath>
    <clipPath id="clippath-1">
      <rect class="cls-1" x="-101.9" y="-36.461" width="251.731" height="180.59"/>
    </clipPath>
    <mask id="mask" x="-101.9" y="-38.774" width="500.731" height="184.81" maskUnits="userSpaceOnUse">
      <g>
        <g class="cls-5">
          <g>
            <ellipse class="cls-4" cx="157.474" cy="2.631" rx="1.497" ry="1.493"/>
            <ellipse class="cls-4" cx="175.229" cy="2.631" rx="1.497" ry="1.493"/>
            <ellipse class="cls-4" cx="192.984" cy="2.631" rx="1.497" ry="1.493"/>
            <ellipse class="cls-4" cx="210.739" cy="2.631" rx="1.497" ry="1.493"/>
            <ellipse class="cls-4" cx="228.493" cy="2.631" rx="1.497" ry="1.493"/>
            <ellipse class="cls-4" cx="246.248" cy="2.631" rx="1.497" ry="1.493"/>
            <ellipse class="cls-4" cx="264.003" cy="2.631" rx="1.497" ry="1.493"/>
            <ellipse class="cls-4" cx="281.758" cy="2.631" rx="1.497" ry="1.493"/>
            <ellipse class="cls-4" cx="299.513" cy="2.631" rx="1.497" ry="1.493"/>
            <ellipse class="cls-4" cx="317.267" cy="2.631" rx="1.497" ry="1.493"/>
            <ellipse class="cls-4" cx="335.022" cy="2.631" rx="1.497" ry="1.493"/>
            <ellipse class="cls-4" cx="148.597" cy="7.066" rx="1.497" ry="1.493"/>
            <ellipse class="cls-4" cx="157.474" cy="11.5" rx="1.497" ry="1.493"/>
            <ellipse class="cls-4" cx="166.352" cy="7.066" rx="1.497" ry="1.493"/>
            <ellipse class="cls-4" cx="175.229" cy="11.5" rx="1.497" ry="1.493"/>
            <ellipse class="cls-4" cx="184.106" cy="7.066" rx="1.497" ry="1.493"/>
            <ellipse class="cls-4" cx="192.984" cy="11.5" rx="1.497" ry="1.493"/>
            <ellipse class="cls-4" cx="201.861" cy="7.066" rx="1.497" ry="1.493"/>
            <ellipse class="cls-4" cx="210.739" cy="11.5" rx="1.497" ry="1.493"/>
            <ellipse class="cls-4" cx="219.616" cy="7.066" rx="1.497" ry="1.493"/>
            <ellipse class="cls-4" cx="228.493" cy="11.5" rx="1.497" ry="1.493"/>
            <ellipse class="cls-4" cx="237.371" cy="7.066" rx="1.497" ry="1.493"/>
            <ellipse class="cls-4" cx="246.248" cy="11.5" rx="1.497" ry="1.493"/>
            <ellipse class="cls-4" cx="255.126" cy="7.066" rx="1.497" ry="1.493"/>
            <ellipse class="cls-4" cx="264.003" cy="11.5" rx="1.497" ry="1.493"/>
            <ellipse class="cls-4" cx="272.88" cy="7.066" rx="1.497" ry="1.493"/>
            <ellipse class="cls-4" cx="281.758" cy="11.5" rx="1.497" ry="1.493"/>
            <ellipse class="cls-4" cx="290.635" cy="7.066" rx="1.497" ry="1.493"/>
            <ellipse class="cls-4" cx="299.513" cy="11.5" rx="1.497" ry="1.493"/>
            <ellipse class="cls-4" cx="308.39" cy="7.066" rx="1.497" ry="1.493"/>
            <ellipse class="cls-4" cx="317.267" cy="11.5" rx="1.497" ry="1.493"/>
            <ellipse class="cls-4" cx="326.145" cy="7.066" rx="1.497" ry="1.493"/>
            <ellipse class="cls-4" cx="335.022" cy="11.5" rx="1.497" ry="1.493"/>
            <ellipse class="cls-4" cx="343.9" cy="7.066" rx="1.497" ry="1.493"/>
            <ellipse class="cls-4" cx="148.597" cy="15.935" rx="1.497" ry="1.493"/>
            <ellipse class="cls-4" cx="157.474" cy="20.37" rx="1.497" ry="1.493"/>
            <ellipse class="cls-4" cx="166.352" cy="15.935" rx="1.497" ry="1.493"/>
            <ellipse class="cls-4" cx="175.229" cy="20.37" rx="1.497" ry="1.493"/>
            <ellipse class="cls-4" cx="184.106" cy="15.935" rx="1.497" ry="1.493"/>
            <ellipse class="cls-4" cx="192.984" cy="20.37" rx="1.497" ry="1.493"/>
            <ellipse class="cls-4" cx="201.861" cy="15.935" rx="1.497" ry="1.493"/>
            <ellipse class="cls-4" cx="210.739" cy="20.37" rx="1.497" ry="1.493"/>
            <ellipse class="cls-4" cx="219.616" cy="15.935" rx="1.497" ry="1.493"/>
            <ellipse class="cls-4" cx="228.493" cy="20.37" rx="1.497" ry="1.493"/>
            <ellipse class="cls-4" cx="237.371" cy="15.935" rx="1.497" ry="1.493"/>
            <ellipse class="cls-4" cx="246.248" cy="20.37" rx="1.497" ry="1.493"/>
            <ellipse class="cls-4" cx="255.126" cy="15.935" rx="1.497" ry="1.493"/>
            <ellipse class="cls-4" cx="264.003" cy="20.37" rx="1.497" ry="1.493"/>
            <ellipse class="cls-4" cx="272.88" cy="15.935" rx="1.497" ry="1.493"/>
            <ellipse class="cls-4" cx="281.758" cy="20.37" rx="1.497" ry="1.493"/>
            <ellipse class="cls-4" cx="290.635" cy="15.935" rx="1.497" ry="1.493"/>
            <ellipse class="cls-4" cx="299.513" cy="20.37" rx="1.497" ry="1.493"/>
            <ellipse class="cls-4" cx="308.39" cy="15.935" rx="1.497" ry="1.493"/>
            <ellipse class="cls-4" cx="317.267" cy="20.37" rx="1.497" ry="1.493"/>
            <ellipse class="cls-4" cx="326.145" cy="15.935" rx="1.497" ry="1.493"/>
            <ellipse class="cls-4" cx="335.022" cy="20.37" rx="1.497" ry="1.493"/>
            <ellipse class="cls-4" cx="343.9" cy="15.935" rx="1.497" ry="1.493"/>
            <ellipse class="cls-4" cx="148.597" cy="24.805" rx="1.497" ry="1.493"/>
            <ellipse class="cls-4" cx="157.474" cy="29.239" rx="1.497" ry="1.493"/>
            <ellipse class="cls-4" cx="166.352" cy="24.805" rx="1.497" ry="1.493"/>
            <ellipse class="cls-4" cx="175.229" cy="29.239" rx="1.497" ry="1.493"/>
            <ellipse class="cls-4" cx="184.106" cy="24.805" rx="1.497" ry="1.493"/>
            <ellipse class="cls-4" cx="192.984" cy="29.239" rx="1.497" ry="1.493"/>
            <ellipse class="cls-4" cx="201.861" cy="24.805" rx="1.497" ry="1.493"/>
            <ellipse class="cls-4" cx="210.739" cy="29.239" rx="1.497" ry="1.493"/>
            <ellipse class="cls-4" cx="219.616" cy="24.805" rx="1.497" ry="1.493"/>
            <ellipse class="cls-4" cx="228.493" cy="29.239" rx="1.497" ry="1.493"/>
            <ellipse class="cls-4" cx="237.371" cy="24.805" rx="1.497" ry="1.493"/>
            <ellipse class="cls-4" cx="246.248" cy="29.239" rx="1.497" ry="1.493"/>
            <ellipse class="cls-4" cx="255.126" cy="24.805" rx="1.497" ry="1.493"/>
            <ellipse class="cls-4" cx="264.003" cy="29.239" rx="1.497" ry="1.493"/>
            <ellipse class="cls-4" cx="272.88" cy="24.805" rx="1.497" ry="1.493"/>
            <ellipse class="cls-4" cx="281.758" cy="29.239" rx="1.497" ry="1.493"/>
            <ellipse class="cls-4" cx="290.635" cy="24.805" rx="1.497" ry="1.493"/>
            <ellipse class="cls-4" cx="299.513" cy="29.239" rx="1.497" ry="1.493"/>
            <ellipse class="cls-4" cx="308.39" cy="24.805" rx="1.497" ry="1.493"/>
            <ellipse class="cls-4" cx="317.267" cy="29.239" rx="1.497" ry="1.493"/>
            <ellipse class="cls-4" cx="326.145" cy="24.805" rx="1.497" ry="1.493"/>
            <ellipse class="cls-4" cx="335.022" cy="29.239" rx="1.497" ry="1.493"/>
            <ellipse class="cls-4" cx="343.9" cy="24.805" rx="1.497" ry="1.493"/>
            <ellipse class="cls-4" cx="148.597" cy="33.674" rx="1.497" ry="1.493"/>
            <ellipse class="cls-4" cx="157.474" cy="38.109" rx="1.497" ry="1.493"/>
            <ellipse class="cls-4" cx="166.352" cy="33.674" rx="1.497" ry="1.493"/>
            <ellipse class="cls-4" cx="175.229" cy="38.109" rx="1.497" ry="1.493"/>
            <ellipse class="cls-4" cx="184.106" cy="33.674" rx="1.497" ry="1.493"/>
            <ellipse class="cls-4" cx="192.984" cy="38.109" rx="1.497" ry="1.493"/>
            <ellipse class="cls-4" cx="201.861" cy="33.674" rx="1.497" ry="1.493"/>
            <ellipse class="cls-4" cx="210.739" cy="38.109" rx="1.497" ry="1.493"/>
            <ellipse class="cls-4" cx="219.616" cy="33.674" rx="1.497" ry="1.493"/>
            <ellipse class="cls-4" cx="228.493" cy="38.109" rx="1.497" ry="1.493"/>
            <ellipse class="cls-4" cx="237.371" cy="33.674" rx="1.497" ry="1.493"/>
            <ellipse class="cls-4" cx="246.248" cy="38.109" rx="1.497" ry="1.493"/>
            <ellipse class="cls-4" cx="255.126" cy="33.674" rx="1.497" ry="1.493"/>
            <ellipse class="cls-4" cx="264.003" cy="38.109" rx="1.497" ry="1.493"/>
            <ellipse class="cls-4" cx="272.88" cy="33.674" rx="1.497" ry="1.493"/>
            <ellipse class="cls-4" cx="281.758" cy="38.109" rx="1.497" ry="1.493"/>
            <ellipse class="cls-4" cx="290.635" cy="33.674" rx="1.497" ry="1.493"/>
            <ellipse class="cls-4" cx="299.513" cy="38.109" rx="1.497" ry="1.493"/>
            <ellipse class="cls-4" cx="308.39" cy="33.674" rx="1.497" ry="1.493"/>
            <ellipse class="cls-4" cx="317.267" cy="38.109" rx="1.497" ry="1.493"/>
            <ellipse class="cls-4" cx="326.145" cy="33.674" rx="1.497" ry="1.493"/>
            <ellipse class="cls-4" cx="335.022" cy="38.109" rx="1.497" ry="1.493"/>
            <ellipse class="cls-4" cx="343.9" cy="33.674" rx="1.497" ry="1.493"/>
            <ellipse class="cls-4" cx="148.597" cy="42.544" rx="1.497" ry="1.493"/>
            <ellipse class="cls-4" cx="157.474" cy="46.978" rx="1.497" ry="1.493"/>
            <ellipse class="cls-4" cx="166.352" cy="42.544" rx="1.497" ry="1.493"/>
            <ellipse class="cls-4" cx="175.229" cy="46.978" rx="1.497" ry="1.493"/>
            <ellipse class="cls-4" cx="184.106" cy="42.544" rx="1.497" ry="1.493"/>
            <ellipse class="cls-4" cx="192.984" cy="46.978" rx="1.497" ry="1.493"/>
            <ellipse class="cls-4" cx="201.861" cy="42.544" rx="1.497" ry="1.493"/>
            <ellipse class="cls-4" cx="210.739" cy="46.978" rx="1.497" ry="1.493"/>
            <ellipse class="cls-4" cx="219.616" cy="42.544" rx="1.497" ry="1.493"/>
            <ellipse class="cls-4" cx="228.493" cy="46.978" rx="1.497" ry="1.493"/>
            <ellipse class="cls-4" cx="237.371" cy="42.544" rx="1.497" ry="1.493"/>
            <ellipse class="cls-4" cx="246.248" cy="46.978" rx="1.497" ry="1.493"/>
            <ellipse class="cls-4" cx="255.126" cy="42.544" rx="1.497" ry="1.493"/>
            <ellipse class="cls-4" cx="264.003" cy="46.978" rx="1.497" ry="1.493"/>
            <ellipse class="cls-4" cx="272.88" cy="42.544" rx="1.497" ry="1.493"/>
            <ellipse class="cls-4" cx="281.758" cy="46.978" rx="1.497" ry="1.493"/>
            <ellipse class="cls-4" cx="290.635" cy="42.544" rx="1.497" ry="1.493"/>
            <ellipse class="cls-4" cx="299.513" cy="46.978" rx="1.497" ry="1.493"/>
            <ellipse class="cls-4" cx="308.39" cy="42.544" rx="1.497" ry="1.493"/>
            <ellipse class="cls-4" cx="317.267" cy="46.978" rx="1.497" ry="1.493"/>
            <ellipse class="cls-4" cx="326.145" cy="42.544" rx="1.497" ry="1.493"/>
            <ellipse class="cls-4" cx="335.022" cy="46.978" rx="1.497" ry="1.493"/>
            <ellipse class="cls-4" cx="343.9" cy="42.544" rx="1.497" ry="1.493"/>
            <ellipse class="cls-4" cx="148.597" cy="51.413" rx="1.497" ry="1.493"/>
            <ellipse class="cls-4" cx="157.474" cy="55.848" rx="1.497" ry="1.493"/>
            <ellipse class="cls-4" cx="166.352" cy="51.413" rx="1.497" ry="1.493"/>
            <ellipse class="cls-4" cx="175.229" cy="55.848" rx="1.497" ry="1.493"/>
            <ellipse class="cls-4" cx="184.106" cy="51.413" rx="1.497" ry="1.493"/>
            <ellipse class="cls-4" cx="192.984" cy="55.848" rx="1.497" ry="1.493"/>
            <ellipse class="cls-4" cx="201.861" cy="51.413" rx="1.497" ry="1.493"/>
            <ellipse class="cls-4" cx="210.739" cy="55.848" rx="1.497" ry="1.493"/>
            <ellipse class="cls-4" cx="219.616" cy="51.413" rx="1.497" ry="1.493"/>
            <ellipse class="cls-4" cx="228.493" cy="55.848" rx="1.497" ry="1.493"/>
            <ellipse class="cls-4" cx="237.371" cy="51.413" rx="1.497" ry="1.493"/>
            <ellipse class="cls-4" cx="246.248" cy="55.848" rx="1.497" ry="1.493"/>
            <ellipse class="cls-4" cx="255.126" cy="51.413" rx="1.497" ry="1.493"/>
            <ellipse class="cls-4" cx="264.003" cy="55.848" rx="1.497" ry="1.493"/>
            <ellipse class="cls-4" cx="272.88" cy="51.413" rx="1.497" ry="1.493"/>
            <ellipse class="cls-4" cx="281.758" cy="55.848" rx="1.497" ry="1.493"/>
            <ellipse class="cls-4" cx="290.635" cy="51.413" rx="1.497" ry="1.493"/>
            <ellipse class="cls-4" cx="299.513" cy="55.848" rx="1.497" ry="1.493"/>
            <ellipse class="cls-4" cx="308.39" cy="51.413" rx="1.497" ry="1.493"/>
            <ellipse class="cls-4" cx="317.267" cy="55.848" rx="1.497" ry="1.493"/>
            <ellipse class="cls-4" cx="326.145" cy="51.413" rx="1.497" ry="1.493"/>
            <ellipse class="cls-4" cx="335.022" cy="55.848" rx="1.497" ry="1.493"/>
            <ellipse class="cls-4" cx="343.9" cy="51.413" rx="1.497" ry="1.493"/>
            <ellipse class="cls-4" cx="148.597" cy="60.283" rx="1.497" ry="1.493"/>
            <ellipse class="cls-4" cx="157.474" cy="64.717" rx="1.497" ry="1.493"/>
            <ellipse class="cls-4" cx="166.352" cy="60.283" rx="1.497" ry="1.493"/>
            <ellipse class="cls-4" cx="175.229" cy="64.717" rx="1.497" ry="1.493"/>
            <ellipse class="cls-4" cx="184.106" cy="60.283" rx="1.497" ry="1.493"/>
            <ellipse class="cls-4" cx="192.984" cy="64.717" rx="1.497" ry="1.493"/>
            <ellipse class="cls-4" cx="201.861" cy="60.283" rx="1.497" ry="1.493"/>
            <ellipse class="cls-4" cx="210.739" cy="64.717" rx="1.497" ry="1.493"/>
            <ellipse class="cls-4" cx="219.616" cy="60.283" rx="1.497" ry="1.493"/>
            <ellipse class="cls-4" cx="228.493" cy="64.717" rx="1.497" ry="1.493"/>
            <ellipse class="cls-4" cx="237.371" cy="60.283" rx="1.497" ry="1.493"/>
            <ellipse class="cls-4" cx="246.248" cy="64.717" rx="1.497" ry="1.493"/>
            <ellipse class="cls-4" cx="255.126" cy="60.283" rx="1.497" ry="1.493"/>
            <ellipse class="cls-4" cx="264.003" cy="64.717" rx="1.497" ry="1.493"/>
            <ellipse class="cls-4" cx="272.88" cy="60.283" rx="1.497" ry="1.493"/>
            <ellipse class="cls-4" cx="281.758" cy="64.717" rx="1.497" ry="1.493"/>
            <ellipse class="cls-4" cx="290.635" cy="60.283" rx="1.497" ry="1.493"/>
            <ellipse class="cls-4" cx="299.513" cy="64.717" rx="1.497" ry="1.493"/>
            <ellipse class="cls-4" cx="308.39" cy="60.283" rx="1.497" ry="1.493"/>
            <ellipse class="cls-4" cx="317.267" cy="64.717" rx="1.497" ry="1.493"/>
            <ellipse class="cls-4" cx="326.145" cy="60.283" rx="1.497" ry="1.493"/>
            <ellipse class="cls-4" cx="335.022" cy="64.717" rx="1.497" ry="1.493"/>
            <ellipse class="cls-4" cx="343.9" cy="60.283" rx="1.497" ry="1.493"/>
            <ellipse class="cls-4" cx="148.597" cy="69.152" rx="1.497" ry="1.493"/>
            <ellipse class="cls-4" cx="157.474" cy="73.587" rx="1.497" ry="1.493"/>
            <ellipse class="cls-4" cx="166.352" cy="69.152" rx="1.497" ry="1.493"/>
            <ellipse class="cls-4" cx="175.229" cy="73.587" rx="1.497" ry="1.493"/>
            <ellipse class="cls-4" cx="184.106" cy="69.152" rx="1.497" ry="1.493"/>
            <ellipse class="cls-4" cx="192.984" cy="73.587" rx="1.497" ry="1.493"/>
            <ellipse class="cls-4" cx="201.861" cy="69.152" rx="1.497" ry="1.493"/>
            <ellipse class="cls-4" cx="210.739" cy="73.587" rx="1.497" ry="1.493"/>
            <ellipse class="cls-4" cx="219.616" cy="69.152" rx="1.497" ry="1.493"/>
            <ellipse class="cls-4" cx="228.493" cy="73.587" rx="1.497" ry="1.493"/>
            <ellipse class="cls-4" cx="237.371" cy="69.152" rx="1.497" ry="1.493"/>
            <ellipse class="cls-4" cx="246.248" cy="73.587" rx="1.497" ry="1.493"/>
            <ellipse class="cls-4" cx="255.126" cy="69.152" rx="1.497" ry="1.493"/>
            <ellipse class="cls-4" cx="264.003" cy="73.587" rx="1.497" ry="1.493"/>
            <ellipse class="cls-4" cx="272.88" cy="69.152" rx="1.497" ry="1.493"/>
            <ellipse class="cls-4" cx="281.758" cy="73.587" rx="1.497" ry="1.493"/>
            <ellipse class="cls-4" cx="290.635" cy="69.152" rx="1.497" ry="1.493"/>
            <ellipse class="cls-4" cx="299.513" cy="73.587" rx="1.497" ry="1.493"/>
            <ellipse class="cls-4" cx="308.39" cy="69.152" rx="1.497" ry="1.493"/>
            <ellipse class="cls-4" cx="317.267" cy="73.587" rx="1.497" ry="1.493"/>
            <ellipse class="cls-4" cx="326.145" cy="69.152" rx="1.497" ry="1.493"/>
            <ellipse class="cls-4" cx="335.022" cy="73.587" rx="1.497" ry="1.493"/>
            <ellipse class="cls-4" cx="343.9" cy="69.152" rx="1.497" ry="1.493"/>
            <ellipse class="cls-4" cx="148.597" cy="78.022" rx="1.497" ry="1.493"/>
            <ellipse class="cls-4" cx="157.474" cy="82.456" rx="1.497" ry="1.493"/>
            <ellipse class="cls-4" cx="166.352" cy="78.022" rx="1.497" ry="1.493"/>
            <ellipse class="cls-4" cx="175.229" cy="82.456" rx="1.497" ry="1.493"/>
            <ellipse class="cls-4" cx="184.106" cy="78.022" rx="1.497" ry="1.493"/>
            <ellipse class="cls-4" cx="192.984" cy="82.456" rx="1.497" ry="1.493"/>
            <ellipse class="cls-4" cx="201.861" cy="78.022" rx="1.497" ry="1.493"/>
            <ellipse class="cls-4" cx="210.739" cy="82.456" rx="1.497" ry="1.493"/>
            <ellipse class="cls-4" cx="219.616" cy="78.022" rx="1.497" ry="1.493"/>
            <ellipse class="cls-4" cx="228.493" cy="82.456" rx="1.497" ry="1.493"/>
            <ellipse class="cls-4" cx="237.371" cy="78.022" rx="1.497" ry="1.493"/>
            <ellipse class="cls-4" cx="246.248" cy="82.456" rx="1.497" ry="1.493"/>
            <ellipse class="cls-4" cx="255.126" cy="78.022" rx="1.497" ry="1.493"/>
            <ellipse class="cls-4" cx="264.003" cy="82.456" rx="1.497" ry="1.493"/>
            <ellipse class="cls-4" cx="272.88" cy="78.022" rx="1.497" ry="1.493"/>
            <ellipse class="cls-4" cx="281.758" cy="82.456" rx="1.497" ry="1.493"/>
            <ellipse class="cls-4" cx="290.635" cy="78.022" rx="1.497" ry="1.493"/>
            <ellipse class="cls-4" cx="299.513" cy="82.456" rx="1.497" ry="1.493"/>
            <ellipse class="cls-4" cx="308.39" cy="78.022" rx="1.497" ry="1.493"/>
            <ellipse class="cls-4" cx="317.267" cy="82.456" rx="1.497" ry="1.493"/>
            <ellipse class="cls-4" cx="326.145" cy="78.022" rx="1.497" ry="1.493"/>
            <ellipse class="cls-4" cx="335.022" cy="82.456" rx="1.497" ry="1.493"/>
            <ellipse class="cls-4" cx="343.9" cy="78.022" rx="1.497" ry="1.493"/>
            <ellipse class="cls-4" cx="148.597" cy="86.891" rx="1.497" ry="1.493"/>
            <ellipse class="cls-4" cx="157.474" cy="91.326" rx="1.497" ry="1.493"/>
            <ellipse class="cls-4" cx="166.352" cy="86.891" rx="1.497" ry="1.493"/>
            <ellipse class="cls-4" cx="175.229" cy="91.326" rx="1.497" ry="1.493"/>
            <ellipse class="cls-4" cx="184.106" cy="86.891" rx="1.497" ry="1.493"/>
            <ellipse class="cls-4" cx="192.984" cy="91.326" rx="1.497" ry="1.493"/>
            <ellipse class="cls-4" cx="201.861" cy="86.891" rx="1.497" ry="1.493"/>
            <ellipse class="cls-4" cx="210.739" cy="91.326" rx="1.497" ry="1.493"/>
            <ellipse class="cls-4" cx="219.616" cy="86.891" rx="1.497" ry="1.493"/>
            <ellipse class="cls-4" cx="228.493" cy="91.326" rx="1.497" ry="1.493"/>
            <ellipse class="cls-4" cx="237.371" cy="86.891" rx="1.497" ry="1.493"/>
            <ellipse class="cls-4" cx="246.248" cy="91.326" rx="1.497" ry="1.493"/>
            <ellipse class="cls-4" cx="255.126" cy="86.891" rx="1.497" ry="1.493"/>
            <ellipse class="cls-4" cx="264.003" cy="91.326" rx="1.497" ry="1.493"/>
            <ellipse class="cls-4" cx="272.88" cy="86.891" rx="1.497" ry="1.493"/>
            <ellipse class="cls-4" cx="281.758" cy="91.326" rx="1.497" ry="1.493"/>
            <ellipse class="cls-4" cx="290.635" cy="86.891" rx="1.497" ry="1.493"/>
            <ellipse class="cls-4" cx="299.513" cy="91.326" rx="1.497" ry="1.493"/>
            <ellipse class="cls-4" cx="308.39" cy="86.891" rx="1.497" ry="1.493"/>
            <ellipse class="cls-4" cx="317.267" cy="91.326" rx="1.497" ry="1.493"/>
            <ellipse class="cls-4" cx="326.145" cy="86.891" rx="1.497" ry="1.493"/>
            <ellipse class="cls-4" cx="335.022" cy="91.326" rx="1.497" ry="1.493"/>
            <ellipse class="cls-4" cx="343.9" cy="86.891" rx="1.497" ry="1.493"/>
            <ellipse class="cls-4" cx="148.597" cy="95.761" rx="1.497" ry="1.493"/>
            <ellipse class="cls-4" cx="157.474" cy="100.195" rx="1.497" ry="1.493"/>
            <ellipse class="cls-4" cx="166.352" cy="95.761" rx="1.497" ry="1.493"/>
            <ellipse class="cls-4" cx="175.229" cy="100.195" rx="1.497" ry="1.493"/>
            <ellipse class="cls-4" cx="184.106" cy="95.761" rx="1.497" ry="1.493"/>
            <ellipse class="cls-4" cx="192.984" cy="100.195" rx="1.497" ry="1.493"/>
            <ellipse class="cls-4" cx="201.861" cy="95.761" rx="1.497" ry="1.493"/>
            <ellipse class="cls-4" cx="210.739" cy="100.195" rx="1.497" ry="1.493"/>
            <ellipse class="cls-4" cx="219.616" cy="95.761" rx="1.497" ry="1.493"/>
            <ellipse class="cls-4" cx="228.493" cy="100.195" rx="1.497" ry="1.493"/>
            <ellipse class="cls-4" cx="237.371" cy="95.761" rx="1.497" ry="1.493"/>
            <ellipse class="cls-4" cx="246.248" cy="100.195" rx="1.497" ry="1.493"/>
            <ellipse class="cls-4" cx="255.126" cy="95.761" rx="1.497" ry="1.493"/>
            <ellipse class="cls-4" cx="264.003" cy="100.195" rx="1.497" ry="1.493"/>
            <ellipse class="cls-4" cx="272.88" cy="95.761" rx="1.497" ry="1.493"/>
            <ellipse class="cls-4" cx="281.758" cy="100.195" rx="1.497" ry="1.493"/>
            <ellipse class="cls-4" cx="290.635" cy="95.761" rx="1.497" ry="1.493"/>
            <ellipse class="cls-4" cx="299.513" cy="100.195" rx="1.497" ry="1.493"/>
            <ellipse class="cls-4" cx="308.39" cy="95.761" rx="1.497" ry="1.493"/>
            <ellipse class="cls-4" cx="317.267" cy="100.195" rx="1.497" ry="1.493"/>
            <ellipse class="cls-4" cx="326.145" cy="95.761" rx="1.497" ry="1.493"/>
            <ellipse class="cls-4" cx="335.022" cy="100.195" rx="1.497" ry="1.493"/>
            <ellipse class="cls-4" cx="343.9" cy="95.761" rx="1.497" ry="1.493"/>
            <ellipse class="cls-4" cx="148.597" cy="104.63" rx="1.497" ry="1.493"/>
            <ellipse class="cls-4" cx="157.474" cy="109.065" rx="1.497" ry="1.493"/>
            <ellipse class="cls-4" cx="166.352" cy="104.63" rx="1.497" ry="1.493"/>
            <ellipse class="cls-4" cx="175.229" cy="109.065" rx="1.497" ry="1.493"/>
            <ellipse class="cls-4" cx="184.106" cy="104.63" rx="1.497" ry="1.493"/>
            <ellipse class="cls-4" cx="192.984" cy="109.065" rx="1.497" ry="1.493"/>
            <ellipse class="cls-4" cx="201.861" cy="104.63" rx="1.497" ry="1.493"/>
            <ellipse class="cls-4" cx="210.739" cy="109.065" rx="1.497" ry="1.493"/>
            <ellipse class="cls-4" cx="219.616" cy="104.63" rx="1.497" ry="1.493"/>
            <ellipse class="cls-4" cx="228.493" cy="109.065" rx="1.497" ry="1.493"/>
            <ellipse class="cls-4" cx="237.371" cy="104.63" rx="1.497" ry="1.493"/>
            <ellipse class="cls-4" cx="246.248" cy="109.065" rx="1.497" ry="1.493"/>
            <ellipse class="cls-4" cx="255.126" cy="104.63" rx="1.497" ry="1.493"/>
            <ellipse class="cls-4" cx="264.003" cy="109.065" rx="1.497" ry="1.493"/>
            <ellipse class="cls-4" cx="272.88" cy="104.63" rx="1.497" ry="1.493"/>
            <ellipse class="cls-4" cx="281.758" cy="109.065" rx="1.497" ry="1.493"/>
            <ellipse class="cls-4" cx="290.635" cy="104.63" rx="1.497" ry="1.493"/>
            <ellipse class="cls-4" cx="299.513" cy="109.065" rx="1.497" ry="1.493"/>
            <ellipse class="cls-4" cx="308.39" cy="104.63" rx="1.497" ry="1.493"/>
            <ellipse class="cls-4" cx="317.267" cy="109.065" rx="1.497" ry="1.493"/>
            <ellipse class="cls-4" cx="326.145" cy="104.63" rx="1.497" ry="1.493"/>
            <ellipse class="cls-4" cx="335.022" cy="109.065" rx="1.497" ry="1.493"/>
            <ellipse class="cls-4" cx="343.9" cy="104.63" rx="1.497" ry="1.493"/>
          </g>
        </g>
        <g class="cls-3">
          <g>
            <ellipse class="cls-4" cx="15.003" cy="2.631" rx="1.497" ry="1.493"/>
            <ellipse class="cls-4" cx="32.758" cy="2.631" rx="1.497" ry="1.493"/>
            <ellipse class="cls-4" cx="50.513" cy="2.631" rx="1.497" ry="1.493"/>
            <ellipse class="cls-4" cx="68.267" cy="2.631" rx="1.497" ry="1.493"/>
            <ellipse class="cls-4" cx="86.022" cy="2.631" rx="1.497" ry="1.493"/>
            <ellipse class="cls-4" cx="103.777" cy="2.631" rx="1.497" ry="1.493"/>
            <ellipse class="cls-4" cx="121.532" cy="2.631" rx="1.497" ry="1.493"/>
            <ellipse class="cls-4" cx="139.287" cy="2.631" rx="1.497" ry="1.493"/>
            <ellipse class="cls-4" cx="6.126" cy="7.066" rx="1.497" ry="1.493"/>
            <ellipse class="cls-4" cx="15.003" cy="11.5" rx="1.497" ry="1.493"/>
            <ellipse class="cls-4" cx="23.88" cy="7.066" rx="1.497" ry="1.493"/>
            <ellipse class="cls-4" cx="32.758" cy="11.5" rx="1.497" ry="1.493"/>
            <ellipse class="cls-4" cx="41.635" cy="7.066" rx="1.497" ry="1.493"/>
            <ellipse class="cls-4" cx="50.513" cy="11.5" rx="1.497" ry="1.493"/>
            <ellipse class="cls-4" cx="59.39" cy="7.066" rx="1.497" ry="1.493"/>
            <ellipse class="cls-4" cx="68.267" cy="11.5" rx="1.497" ry="1.493"/>
            <ellipse class="cls-4" cx="77.145" cy="7.066" rx="1.497" ry="1.493"/>
            <ellipse class="cls-4" cx="86.022" cy="11.5" rx="1.497" ry="1.493"/>
            <ellipse class="cls-4" cx="94.9" cy="7.066" rx="1.497" ry="1.493"/>
            <ellipse class="cls-4" cx="103.777" cy="11.5" rx="1.497" ry="1.493"/>
            <ellipse class="cls-4" cx="112.654" cy="7.066" rx="1.497" ry="1.493"/>
            <ellipse class="cls-4" cx="121.532" cy="11.5" rx="1.497" ry="1.493"/>
            <ellipse class="cls-4" cx="130.409" cy="7.066" rx="1.497" ry="1.493"/>
            <ellipse class="cls-4" cx="139.287" cy="11.5" rx="1.497" ry="1.493"/>
            <ellipse class="cls-4" cx="148.164" cy="7.066" rx="1.497" ry="1.493"/>
            <ellipse class="cls-4" cx="6.126" cy="15.935" rx="1.497" ry="1.493"/>
            <ellipse class="cls-4" cx="15.003" cy="20.37" rx="1.497" ry="1.493"/>
            <ellipse class="cls-4" cx="23.88" cy="15.935" rx="1.497" ry="1.493"/>
            <ellipse class="cls-4" cx="32.758" cy="20.37" rx="1.497" ry="1.493"/>
            <ellipse class="cls-4" cx="41.635" cy="15.935" rx="1.497" ry="1.493"/>
            <ellipse class="cls-4" cx="50.513" cy="20.37" rx="1.497" ry="1.493"/>
            <ellipse class="cls-4" cx="59.39" cy="15.935" rx="1.497" ry="1.493"/>
            <ellipse class="cls-4" cx="68.267" cy="20.37" rx="1.497" ry="1.493"/>
            <ellipse class="cls-4" cx="77.145" cy="15.935" rx="1.497" ry="1.493"/>
            <ellipse class="cls-4" cx="86.022" cy="20.37" rx="1.497" ry="1.493"/>
            <ellipse class="cls-4" cx="94.9" cy="15.935" rx="1.497" ry="1.493"/>
            <ellipse class="cls-4" cx="103.777" cy="20.37" rx="1.497" ry="1.493"/>
            <ellipse class="cls-4" cx="112.654" cy="15.935" rx="1.497" ry="1.493"/>
            <ellipse class="cls-4" cx="121.532" cy="20.37" rx="1.497" ry="1.493"/>
            <ellipse class="cls-4" cx="130.409" cy="15.935" rx="1.497" ry="1.493"/>
            <ellipse class="cls-4" cx="139.287" cy="20.37" rx="1.497" ry="1.493"/>
            <ellipse class="cls-4" cx="148.164" cy="15.935" rx="1.497" ry="1.493"/>
            <ellipse class="cls-4" cx="6.126" cy="24.805" rx="1.497" ry="1.493"/>
            <ellipse class="cls-4" cx="15.003" cy="29.239" rx="1.497" ry="1.493"/>
            <ellipse class="cls-4" cx="23.88" cy="24.805" rx="1.497" ry="1.493"/>
            <ellipse class="cls-4" cx="32.758" cy="29.239" rx="1.497" ry="1.493"/>
            <ellipse class="cls-4" cx="41.635" cy="24.805" rx="1.497" ry="1.493"/>
            <ellipse class="cls-4" cx="50.513" cy="29.239" rx="1.497" ry="1.493"/>
            <ellipse class="cls-4" cx="59.39" cy="24.805" rx="1.497" ry="1.493"/>
            <ellipse class="cls-4" cx="68.267" cy="29.239" rx="1.497" ry="1.493"/>
            <ellipse class="cls-4" cx="77.145" cy="24.805" rx="1.497" ry="1.493"/>
            <ellipse class="cls-4" cx="86.022" cy="29.239" rx="1.497" ry="1.493"/>
            <ellipse class="cls-4" cx="94.9" cy="24.805" rx="1.497" ry="1.493"/>
            <ellipse class="cls-4" cx="103.777" cy="29.239" rx="1.497" ry="1.493"/>
            <ellipse class="cls-4" cx="112.654" cy="24.805" rx="1.497" ry="1.493"/>
            <ellipse class="cls-4" cx="121.532" cy="29.239" rx="1.497" ry="1.493"/>
            <ellipse class="cls-4" cx="130.409" cy="24.805" rx="1.497" ry="1.493"/>
            <ellipse class="cls-4" cx="139.287" cy="29.239" rx="1.497" ry="1.493"/>
            <ellipse class="cls-4" cx="148.164" cy="24.805" rx="1.497" ry="1.493"/>
            <ellipse class="cls-4" cx="6.126" cy="33.674" rx="1.497" ry="1.493"/>
            <ellipse class="cls-4" cx="15.003" cy="38.109" rx="1.497" ry="1.493"/>
            <ellipse class="cls-4" cx="23.88" cy="33.674" rx="1.497" ry="1.493"/>
            <ellipse class="cls-4" cx="32.758" cy="38.109" rx="1.497" ry="1.493"/>
            <ellipse class="cls-4" cx="41.635" cy="33.674" rx="1.497" ry="1.493"/>
            <ellipse class="cls-4" cx="50.513" cy="38.109" rx="1.497" ry="1.493"/>
            <ellipse class="cls-4" cx="59.39" cy="33.674" rx="1.497" ry="1.493"/>
            <ellipse class="cls-4" cx="68.267" cy="38.109" rx="1.497" ry="1.493"/>
            <ellipse class="cls-4" cx="77.145" cy="33.674" rx="1.497" ry="1.493"/>
            <ellipse class="cls-4" cx="86.022" cy="38.109" rx="1.497" ry="1.493"/>
            <ellipse class="cls-4" cx="94.9" cy="33.674" rx="1.497" ry="1.493"/>
            <ellipse class="cls-4" cx="103.777" cy="38.109" rx="1.497" ry="1.493"/>
            <ellipse class="cls-4" cx="112.654" cy="33.674" rx="1.497" ry="1.493"/>
            <ellipse class="cls-4" cx="121.532" cy="38.109" rx="1.497" ry="1.493"/>
            <ellipse class="cls-4" cx="130.409" cy="33.674" rx="1.497" ry="1.493"/>
            <ellipse class="cls-4" cx="139.287" cy="38.109" rx="1.497" ry="1.493"/>
            <ellipse class="cls-4" cx="148.164" cy="33.674" rx="1.497" ry="1.493"/>
            <ellipse class="cls-4" cx="6.126" cy="42.544" rx="1.497" ry="1.493"/>
            <ellipse class="cls-4" cx="15.003" cy="46.978" rx="1.497" ry="1.493"/>
            <ellipse class="cls-4" cx="23.88" cy="42.544" rx="1.497" ry="1.493"/>
            <ellipse class="cls-4" cx="32.758" cy="46.978" rx="1.497" ry="1.493"/>
            <ellipse class="cls-4" cx="41.635" cy="42.544" rx="1.497" ry="1.493"/>
            <ellipse class="cls-4" cx="50.513" cy="46.978" rx="1.497" ry="1.493"/>
            <ellipse class="cls-4" cx="59.39" cy="42.544" rx="1.497" ry="1.493"/>
            <ellipse class="cls-4" cx="68.267" cy="46.978" rx="1.497" ry="1.493"/>
            <ellipse class="cls-4" cx="77.145" cy="42.544" rx="1.497" ry="1.493"/>
            <ellipse class="cls-4" cx="86.022" cy="46.978" rx="1.497" ry="1.493"/>
            <ellipse class="cls-4" cx="94.9" cy="42.544" rx="1.497" ry="1.493"/>
            <ellipse class="cls-4" cx="103.777" cy="46.978" rx="1.497" ry="1.493"/>
            <ellipse class="cls-4" cx="112.654" cy="42.544" rx="1.497" ry="1.493"/>
            <ellipse class="cls-4" cx="121.532" cy="46.978" rx="1.497" ry="1.493"/>
            <ellipse class="cls-4" cx="130.409" cy="42.544" rx="1.497" ry="1.493"/>
            <ellipse class="cls-4" cx="139.287" cy="46.978" rx="1.497" ry="1.493"/>
            <ellipse class="cls-4" cx="148.164" cy="42.544" rx="1.497" ry="1.493"/>
            <ellipse class="cls-4" cx="6.126" cy="51.413" rx="1.497" ry="1.493"/>
            <ellipse class="cls-4" cx="15.003" cy="55.848" rx="1.497" ry="1.493"/>
            <ellipse class="cls-4" cx="23.88" cy="51.413" rx="1.497" ry="1.493"/>
            <ellipse class="cls-4" cx="32.758" cy="55.848" rx="1.497" ry="1.493"/>
            <ellipse class="cls-4" cx="41.635" cy="51.413" rx="1.497" ry="1.493"/>
            <ellipse class="cls-4" cx="50.513" cy="55.848" rx="1.497" ry="1.493"/>
            <ellipse class="cls-4" cx="59.39" cy="51.413" rx="1.497" ry="1.493"/>
            <ellipse class="cls-4" cx="68.267" cy="55.848" rx="1.497" ry="1.493"/>
            <ellipse class="cls-4" cx="77.145" cy="51.413" rx="1.497" ry="1.493"/>
            <ellipse class="cls-4" cx="86.022" cy="55.848" rx="1.497" ry="1.493"/>
            <ellipse class="cls-4" cx="94.9" cy="51.413" rx="1.497" ry="1.493"/>
            <ellipse class="cls-4" cx="103.777" cy="55.848" rx="1.497" ry="1.493"/>
            <ellipse class="cls-4" cx="112.654" cy="51.413" rx="1.497" ry="1.493"/>
            <ellipse class="cls-4" cx="121.532" cy="55.848" rx="1.497" ry="1.493"/>
            <ellipse class="cls-4" cx="130.409" cy="51.413" rx="1.497" ry="1.493"/>
            <ellipse class="cls-4" cx="139.287" cy="55.848" rx="1.497" ry="1.493"/>
            <ellipse class="cls-4" cx="148.164" cy="51.413" rx="1.497" ry="1.493"/>
            <ellipse class="cls-4" cx="6.126" cy="60.283" rx="1.497" ry="1.493"/>
            <ellipse class="cls-4" cx="15.003" cy="64.717" rx="1.497" ry="1.493"/>
            <ellipse class="cls-4" cx="23.88" cy="60.283" rx="1.497" ry="1.493"/>
            <ellipse class="cls-4" cx="32.758" cy="64.717" rx="1.497" ry="1.493"/>
            <ellipse class="cls-4" cx="41.635" cy="60.283" rx="1.497" ry="1.493"/>
            <ellipse class="cls-4" cx="50.513" cy="64.717" rx="1.497" ry="1.493"/>
            <ellipse class="cls-4" cx="59.39" cy="60.283" rx="1.497" ry="1.493"/>
            <ellipse class="cls-4" cx="68.267" cy="64.717" rx="1.497" ry="1.493"/>
            <ellipse class="cls-4" cx="77.145" cy="60.283" rx="1.497" ry="1.493"/>
            <ellipse class="cls-4" cx="86.022" cy="64.717" rx="1.497" ry="1.493"/>
            <ellipse class="cls-4" cx="94.9" cy="60.283" rx="1.497" ry="1.493"/>
            <ellipse class="cls-4" cx="103.777" cy="64.717" rx="1.497" ry="1.493"/>
            <ellipse class="cls-4" cx="112.654" cy="60.283" rx="1.497" ry="1.493"/>
            <ellipse class="cls-4" cx="121.532" cy="64.717" rx="1.497" ry="1.493"/>
            <ellipse class="cls-4" cx="130.409" cy="60.283" rx="1.497" ry="1.493"/>
            <ellipse class="cls-4" cx="139.287" cy="64.717" rx="1.497" ry="1.493"/>
            <ellipse class="cls-4" cx="148.164" cy="60.283" rx="1.497" ry="1.493"/>
            <ellipse class="cls-4" cx="6.126" cy="69.152" rx="1.497" ry="1.493"/>
            <ellipse class="cls-4" cx="15.003" cy="73.587" rx="1.497" ry="1.493"/>
            <ellipse class="cls-4" cx="23.88" cy="69.152" rx="1.497" ry="1.493"/>
            <ellipse class="cls-4" cx="32.758" cy="73.587" rx="1.497" ry="1.493"/>
            <ellipse class="cls-4" cx="41.635" cy="69.152" rx="1.497" ry="1.493"/>
            <ellipse class="cls-4" cx="50.513" cy="73.587" rx="1.497" ry="1.493"/>
            <ellipse class="cls-4" cx="59.39" cy="69.152" rx="1.497" ry="1.493"/>
            <ellipse class="cls-4" cx="68.267" cy="73.587" rx="1.497" ry="1.493"/>
            <ellipse class="cls-4" cx="77.145" cy="69.152" rx="1.497" ry="1.493"/>
            <ellipse class="cls-4" cx="86.022" cy="73.587" rx="1.497" ry="1.493"/>
            <ellipse class="cls-4" cx="94.9" cy="69.152" rx="1.497" ry="1.493"/>
            <ellipse class="cls-4" cx="103.777" cy="73.587" rx="1.497" ry="1.493"/>
            <ellipse class="cls-4" cx="112.654" cy="69.152" rx="1.497" ry="1.493"/>
            <ellipse class="cls-4" cx="121.532" cy="73.587" rx="1.497" ry="1.493"/>
            <ellipse class="cls-4" cx="130.409" cy="69.152" rx="1.497" ry="1.493"/>
            <ellipse class="cls-4" cx="139.287" cy="73.587" rx="1.497" ry="1.493"/>
            <ellipse class="cls-4" cx="148.164" cy="69.152" rx="1.497" ry="1.493"/>
            <ellipse class="cls-4" cx="6.126" cy="78.022" rx="1.497" ry="1.493"/>
            <ellipse class="cls-4" cx="15.003" cy="82.456" rx="1.497" ry="1.493"/>
            <ellipse class="cls-4" cx="23.88" cy="78.022" rx="1.497" ry="1.493"/>
            <ellipse class="cls-4" cx="32.758" cy="82.456" rx="1.497" ry="1.493"/>
            <ellipse class="cls-4" cx="41.635" cy="78.022" rx="1.497" ry="1.493"/>
            <ellipse class="cls-4" cx="50.513" cy="82.456" rx="1.497" ry="1.493"/>
            <ellipse class="cls-4" cx="59.39" cy="78.022" rx="1.497" ry="1.493"/>
            <ellipse class="cls-4" cx="68.267" cy="82.456" rx="1.497" ry="1.493"/>
            <ellipse class="cls-4" cx="77.145" cy="78.022" rx="1.497" ry="1.493"/>
            <ellipse class="cls-4" cx="86.022" cy="82.456" rx="1.497" ry="1.493"/>
            <ellipse class="cls-4" cx="94.9" cy="78.022" rx="1.497" ry="1.493"/>
            <ellipse class="cls-4" cx="103.777" cy="82.456" rx="1.497" ry="1.493"/>
            <ellipse class="cls-4" cx="112.654" cy="78.022" rx="1.497" ry="1.493"/>
            <ellipse class="cls-4" cx="121.532" cy="82.456" rx="1.497" ry="1.493"/>
            <ellipse class="cls-4" cx="130.409" cy="78.022" rx="1.497" ry="1.493"/>
            <ellipse class="cls-4" cx="139.287" cy="82.456" rx="1.497" ry="1.493"/>
            <ellipse class="cls-4" cx="148.164" cy="78.022" rx="1.497" ry="1.493"/>
            <ellipse class="cls-4" cx="6.126" cy="86.891" rx="1.497" ry="1.493"/>
            <ellipse class="cls-4" cx="15.003" cy="91.326" rx="1.497" ry="1.493"/>
            <ellipse class="cls-4" cx="23.88" cy="86.891" rx="1.497" ry="1.493"/>
            <ellipse class="cls-4" cx="32.758" cy="91.326" rx="1.497" ry="1.493"/>
            <ellipse class="cls-4" cx="41.635" cy="86.891" rx="1.497" ry="1.493"/>
            <ellipse class="cls-4" cx="50.513" cy="91.326" rx="1.497" ry="1.493"/>
            <ellipse class="cls-4" cx="59.39" cy="86.891" rx="1.497" ry="1.493"/>
            <ellipse class="cls-4" cx="68.267" cy="91.326" rx="1.497" ry="1.493"/>
            <ellipse class="cls-4" cx="77.145" cy="86.891" rx="1.497" ry="1.493"/>
            <ellipse class="cls-4" cx="86.022" cy="91.326" rx="1.497" ry="1.493"/>
            <ellipse class="cls-4" cx="94.9" cy="86.891" rx="1.497" ry="1.493"/>
            <ellipse class="cls-4" cx="103.777" cy="91.326" rx="1.497" ry="1.493"/>
            <ellipse class="cls-4" cx="112.654" cy="86.891" rx="1.497" ry="1.493"/>
            <ellipse class="cls-4" cx="121.532" cy="91.326" rx="1.497" ry="1.493"/>
            <ellipse class="cls-4" cx="130.409" cy="86.891" rx="1.497" ry="1.493"/>
            <ellipse class="cls-4" cx="139.287" cy="91.326" rx="1.497" ry="1.493"/>
            <ellipse class="cls-4" cx="148.164" cy="86.891" rx="1.497" ry="1.493"/>
            <ellipse class="cls-4" cx="6.126" cy="95.761" rx="1.497" ry="1.493"/>
            <ellipse class="cls-4" cx="15.003" cy="100.195" rx="1.497" ry="1.493"/>
            <ellipse class="cls-4" cx="23.88" cy="95.761" rx="1.497" ry="1.493"/>
            <ellipse class="cls-4" cx="32.758" cy="100.195" rx="1.497" ry="1.493"/>
            <ellipse class="cls-4" cx="41.635" cy="95.761" rx="1.497" ry="1.493"/>
            <ellipse class="cls-4" cx="50.513" cy="100.195" rx="1.497" ry="1.493"/>
            <ellipse class="cls-4" cx="59.39" cy="95.761" rx="1.497" ry="1.493"/>
            <ellipse class="cls-4" cx="68.267" cy="100.195" rx="1.497" ry="1.493"/>
            <ellipse class="cls-4" cx="77.145" cy="95.761" rx="1.497" ry="1.493"/>
            <ellipse class="cls-4" cx="86.022" cy="100.195" rx="1.497" ry="1.493"/>
            <ellipse class="cls-4" cx="94.9" cy="95.761" rx="1.497" ry="1.493"/>
            <ellipse class="cls-4" cx="103.777" cy="100.195" rx="1.497" ry="1.493"/>
            <ellipse class="cls-4" cx="112.654" cy="95.761" rx="1.497" ry="1.493"/>
            <ellipse class="cls-4" cx="121.532" cy="100.195" rx="1.497" ry="1.493"/>
            <ellipse class="cls-4" cx="130.409" cy="95.761" rx="1.497" ry="1.493"/>
            <ellipse class="cls-4" cx="139.287" cy="100.195" rx="1.497" ry="1.493"/>
            <ellipse class="cls-4" cx="148.164" cy="95.761" rx="1.497" ry="1.493"/>
            <ellipse class="cls-4" cx="6.126" cy="104.63" rx="1.497" ry="1.493"/>
            <ellipse class="cls-4" cx="15.003" cy="109.065" rx="1.497" ry="1.493"/>
            <ellipse class="cls-4" cx="23.88" cy="104.63" rx="1.497" ry="1.493"/>
            <ellipse class="cls-4" cx="32.758" cy="109.065" rx="1.497" ry="1.493"/>
            <ellipse class="cls-4" cx="41.635" cy="104.63" rx="1.497" ry="1.493"/>
            <ellipse class="cls-4" cx="50.513" cy="109.065" rx="1.497" ry="1.493"/>
            <ellipse class="cls-4" cx="59.39" cy="104.63" rx="1.497" ry="1.493"/>
            <ellipse class="cls-4" cx="68.267" cy="109.065" rx="1.497" ry="1.493"/>
            <ellipse class="cls-4" cx="77.145" cy="104.63" rx="1.497" ry="1.493"/>
            <ellipse class="cls-4" cx="86.022" cy="109.065" rx="1.497" ry="1.493"/>
            <ellipse class="cls-4" cx="94.9" cy="104.63" rx="1.497" ry="1.493"/>
            <ellipse class="cls-4" cx="103.777" cy="109.065" rx="1.497" ry="1.493"/>
            <ellipse class="cls-4" cx="112.654" cy="104.63" rx="1.497" ry="1.493"/>
            <ellipse class="cls-4" cx="121.532" cy="109.065" rx="1.497" ry="1.493"/>
            <ellipse class="cls-4" cx="130.409" cy="104.63" rx="1.497" ry="1.493"/>
            <ellipse class="cls-4" cx="139.287" cy="109.065" rx="1.497" ry="1.493"/>
            <ellipse class="cls-4" cx="148.164" cy="104.63" rx="1.497" ry="1.493"/>
          </g>
        </g>
      </g>
    </mask>
  </defs>
  <g class="cls-2">
    <g>
      <path class="cls-4" d="M66.43,89.294c0-10.625-7.937-14.081-23.681-18.561-15.489-4.352-27.266-10.497-27.266-29.825,0-14.337,10.625-27.777,30.337-27.777,11.777,0,18.433,3.968,22.785,3.968,2.176,0,2.816-.896,3.712-2.56h1.408l.896,25.857h-2.048c-6.528-11.776-15.232-24.577-28.417-24.577-9.216,0-15.617,5.376-15.617,12.929,0,9.473,8.705,12.672,21.633,16.129,14.208,3.84,29.953,8.704,29.953,29.953,0,18.433-12.544,30.594-31.361,30.594-12.417,0-23.169-3.84-26.753-3.84-2.048,0-2.816,1.408-3.84,3.84h-1.792l-1.28-30.466h2.176c6.4,12.801,18.817,27.777,32.897,27.777,7.68,0,16.257-4.096,16.257-13.44Z"/>
      <path class="cls-4" d="M128.508,101.839h5.888l-14.465-29.697-2.432.64v29.057h5.888v2.304h-36.737v-2.304h7.04V10.443h-7.552v-2.304h31.361v62.083l2.048-.768,28.801-23.938h-12.033v-2.304h25.217v2.304h-8.96l-15.233,12.929,22.145,43.394h4.608v2.304h-35.585v-2.304Z"/>
      <path class="cls-4" d="M196.859,43.212v58.626h7.168v2.304h-38.018v-2.304h7.04v-56.323h-7.552v-2.304h31.361ZM185.338,10.571c7.937,0,12.673,3.968,12.673,11.776,0,6.784-3.712,12.033-12.929,12.033-10.369,0-12.801-6.528-12.801-11.905,0-6.272,3.456-11.904,13.057-11.904Z"/>
      <path class="cls-4" d="M237.433,8.139v93.7h7.168v2.304h-38.018v-2.304h7.04V10.443h-7.552v-2.304h31.361Z"/>
      <path class="cls-4" d="M277.88,8.139v93.7h7.168v2.304h-38.018v-2.304h7.04V10.443h-7.552v-2.304h31.361Z"/>
      <path class="cls-4" d="M290.422,82.51h1.536c4.736,15.617,12.544,20.097,23.041,20.097,9.472,0,13.057-3.456,13.057-8.32,0-5.76-6.273-7.041-16.001-9.729-10.241-2.816-21.633-6.784-21.633-20.993,0-13.056,8.96-21.633,22.529-21.633,5.632,0,9.472,1.408,12.928,2.944,1.536.64,2.048,1.024,3.584,1.024,1.921,0,2.816-1.024,4.48-4.224h1.408v19.585h-1.536c-4.608-11.777-11.136-16.641-20.225-16.641-8.448,0-11.904,3.457-11.904,7.424,0,5.889,7.68,7.296,16.129,9.601,10.112,2.688,21.376,6.784,21.376,21.889,0,14.593-9.472,21.889-23.937,21.889-6.144,0-10.496-1.28-15.36-3.712-.768-.512-1.92-1.024-2.432-1.024-1.664,0-3.456,1.152-5.504,4.736h-1.536v-22.913Z"/>
    </g>
  </g>
  <g>
    <path class="cls-4" d="M57.43,82.294c0-10.625-7.937-14.081-23.681-18.561-15.489-4.352-27.266-10.497-27.266-29.825,0-14.337,10.625-27.777,30.337-27.777,11.777,0,18.433,3.968,22.785,3.968,2.176,0,2.816-.896,3.712-2.56h1.408l.896,25.857h-2.048c-6.528-11.776-15.232-24.577-28.417-24.577-9.216,0-15.617,5.376-15.617,12.929,0,9.473,8.705,12.672,21.633,16.129,14.208,3.84,29.953,8.704,29.953,29.953,0,18.433-12.544,30.594-31.361,30.594-12.417,0-23.169-3.84-26.753-3.84-2.048,0-2.816,1.408-3.84,3.84h-1.792l-1.28-30.466h2.176c6.4,12.801,18.817,27.777,32.897,27.777,7.68,0,16.257-4.096,16.257-13.44Z"/>
    <path class="cls-4" d="M119.508,94.839h5.888l-14.465-29.697-2.432.64v29.057h5.888v2.304h-36.737v-2.304h7.04V3.443h-7.552V1.139h31.361v62.083l2.048-.768,28.801-23.938h-12.033v-2.304h25.217v2.304h-8.96l-15.233,12.929,22.145,43.394h4.608v2.304h-35.585v-2.304Z"/>
    <path class="cls-4" d="M187.859,36.212v58.626h7.168v2.304h-38.018v-2.304h7.04v-56.323h-7.552v-2.304h31.361ZM176.338,3.571c7.937,0,12.673,3.968,12.673,11.776,0,6.784-3.712,12.033-12.929,12.033-10.369,0-12.801-6.528-12.801-11.905,0-6.272,3.456-11.904,13.057-11.904Z"/>
    <path class="cls-4" d="M228.433,1.139v93.7h7.168v2.304h-38.018v-2.304h7.04V3.443h-7.552V1.139h31.361Z"/>
    <path class="cls-4" d="M268.88,1.139v93.7h7.168v2.304h-38.018v-2.304h7.04V3.443h-7.552V1.139h31.361Z"/>
    <path class="cls-4" d="M281.422,75.51h1.536c4.736,15.617,12.544,20.097,23.041,20.097,9.472,0,13.057-3.456,13.057-8.32,0-5.76-6.273-7.041-16.001-9.729-10.241-2.816-21.633-6.784-21.633-20.993,0-13.056,8.96-21.633,22.529-21.633,5.632,0,9.472,1.408,12.928,2.944,1.536.64,2.048,1.024,3.584,1.024,1.921,0,2.816-1.024,4.48-4.224h1.408v19.585h-1.536c-4.608-11.777-11.136-16.641-20.225-16.641-8.448,0-11.904,3.457-11.904,7.424,0,5.889,7.68,7.296,16.129,9.601,10.112,2.688,21.376,6.784,21.376,21.889,0,14.593-9.472,21.889-23.937,21.889-6.144,0-10.496-1.28-15.36-3.712-.768-.512-1.92-1.024-2.432-1.024-1.664,0-3.456,1.152-5.504,4.736h-1.536v-22.913Z"/>
  </g>
</svg>