<?xml version="1.0" encoding="UTF-8"?>
<svg id="_グラフ" data-name="グラフ" xmlns="http://www.w3.org/2000/svg" viewBox="0 0 2216.434 2126.93">
  <defs>
    <style>
      .cls-1, .cls-2, .cls-3, .cls-4, .cls-5 {
        fill: none;
      }

      .cls-1, .cls-2, .cls-3, .cls-4, .cls-5, .cls-6 {
        stroke: #6a6869;
        stroke-miterlimit: 10;
      }

      .cls-1, .cls-5 {
        stroke-width: 15px;
      }

      .cls-2 {
        stroke-width: 25px;
      }

      .cls-3, .cls-4, .cls-6 {
        stroke-width: 10px;
      }

      .cls-4 {
        stroke-dasharray: 30.171 30.171;
      }

      .cls-5 {
        stroke-dasharray: 31.861 31.861;
      }

      .cls-6 {
        stroke-dasharray: 30;
      }

      .cls-6, .cls-7 {
        fill: #6a6869;
      }
    </style>
  </defs>
  <polygon class="cls-2" points="1103.485 379.562 554.852 696.315 554.852 1329.821 1103.484 1646.575 1652.117 1329.822 1652.117 696.315 1103.485 379.562"/>
  <g>
    <polyline class="cls-1" points="1116.475 703.815 1103.485 696.315 1090.494 703.815"/>
    <line class="cls-5" x1="1062.901" y1="719.746" x2="855.955" y2="839.226"/>
    <polyline class="cls-1" points="842.159 847.191 829.168 854.691 829.168 869.691"/>
    <line class="cls-5" x1="829.168" y1="901.553" x2="829.168" y2="1140.514"/>
    <polyline class="cls-1" points="829.168 1156.445 829.168 1171.445 842.158 1178.945"/>
    <line class="cls-5" x1="869.751" y1="1194.875" x2="1076.697" y2="1314.356"/>
    <polyline class="cls-1" points="1090.494 1322.321 1103.484 1329.821 1116.475 1322.321"/>
    <line class="cls-5" x1="1144.068" y1="1306.391" x2="1351.014" y2="1186.91"/>
    <polyline class="cls-1" points="1364.81 1178.945 1377.801 1171.445 1377.801 1156.445"/>
    <line class="cls-5" x1="1377.801" y1="1124.584" x2="1377.801" y2="885.623"/>
    <polyline class="cls-1" points="1377.801 869.692 1377.801 854.692 1364.811 847.192"/>
    <line class="cls-5" x1="1337.218" y1="831.261" x2="1130.271" y2="711.78"/>
  </g>
  <g>
    <line class="cls-7" x1="1103.485" y1="379.562" x2="1103.484" y2="1646.575"/>
    <g>
      <line class="cls-3" x1="1103.485" y1="379.562" x2="1103.485" y2="394.562"/>
      <line class="cls-4" x1="1103.485" y1="424.733" x2="1103.484" y2="1616.489"/>
      <line class="cls-3" x1="1103.484" y1="1631.575" x2="1103.484" y2="1646.575"/>
    </g>
  </g>
  <line class="cls-6" x1="554.852" y1="696.315" x2="1652.117" y2="1329.822"/>
  <line class="cls-6" x1="554.852" y1="1329.821" x2="1652.117" y2="696.315"/>
  <g>
    <path class="cls-7" d="M898.631,172.833h122.399v16.048h-122.399v-16.048ZM904.479,91.097h109.752v16.048h-109.752v-16.048ZM911.687,130.809h96.152v15.776h-96.152v-15.776ZM938.479,74.641l13.6-9.384c2.901,1.814,6.006,3.944,9.316,6.392,3.309,2.448,6.481,4.896,9.521,7.344,3.036,2.448,5.508,4.76,7.411,6.936l-14.552,10.472c-1.632-2.085-3.876-4.42-6.731-7.004-2.856-2.584-5.916-5.168-9.181-7.752-3.264-2.584-6.392-4.917-9.384-7.004ZM950.583,104.969h17.951v76.432h-17.951v-76.432Z"/>
    <path class="cls-7" d="M1064.822,92.457h2.721l2.584-.272,9.248,1.088c-.636,17.863-2.381,33.231-5.236,46.104-2.856,12.875-6.959,23.688-12.308,32.436-5.352,8.751-12.196,15.934-20.536,21.556-1.088-1.995-2.54-4.239-4.353-6.732-1.814-2.495-3.536-4.511-5.168-6.052,7.072-3.988,12.941-9.904,17.612-17.748,4.669-7.841,8.249-17.43,10.744-28.764,2.492-11.333,4.057-24.253,4.691-38.76v-2.856ZM1031.91,92.457h38.624v14.824h-38.624v-14.824ZM1046.735,65.393l14.824,1.36c-1.088,7.164-2.291,14.688-3.604,22.576-1.315,7.888-2.699,15.823-4.148,23.8-1.451,7.979-2.924,15.663-4.42,23.052-1.496,7.391-2.971,14.167-4.42,20.332l-12.376-8.024c1.269-5.257,2.561-11.265,3.876-18.02,1.313-6.753,2.605-13.872,3.876-21.352,1.269-7.48,2.448-14.96,3.536-22.44s2.04-14.573,2.855-21.284ZM1038.711,145.769l8.976-11.288c4.169,3.536,8.545,7.391,13.124,11.56,4.577,4.171,8.861,8.343,12.852,12.512,3.989,4.171,7.162,7.979,9.521,11.424l-9.928,13.056c-2.177-3.536-5.191-7.501-9.044-11.9-3.855-4.397-8.024-8.817-12.513-13.26-4.487-4.441-8.818-8.477-12.987-12.104ZM1079.919,118.57h77.792v24.208h-14.688v-12.648h-48.96v12.784h-14.144v-24.344ZM1086.855,69.201h62.561v44.472h-63.513v-11.56h48.28v-21.352h-47.328v-11.56ZM1086.447,140.057h57.937v13.464h-43.248v30.328h-14.688v-43.792ZM1090.391,85.929h52.496v10.88h-52.496v-10.88ZM1110.655,127.953h15.097v65.28h-15.097v-65.28ZM1136.223,140.057h14.96v29.512c0,3.083-.295,5.576-.884,7.48-.591,1.904-1.836,3.447-3.74,4.624-1.814,1.088-3.899,1.768-6.256,2.04-2.359.272-5.079.408-8.16.408-.363-2.087-.952-4.373-1.768-6.868-.816-2.492-1.679-4.645-2.584-6.46h6.936c.633-.089,1.041-.225,1.224-.408.181-.181.272-.544.272-1.088v-29.24Z"/>
    <path class="cls-7" d="M1215.511,65.665h17.408v28.152c0,6.167-.296,12.739-.885,19.72-.591,6.983-1.791,14.076-3.604,21.284-1.814,7.208-4.579,14.348-8.296,21.42-3.719,7.072-8.636,13.827-14.756,20.264-6.12,6.437-13.805,12.24-23.053,17.408-.907-1.36-2.107-2.903-3.604-4.624-1.496-1.723-3.083-3.355-4.76-4.896-1.679-1.542-3.196-2.811-4.557-3.808,8.521-4.532,15.572-9.609,21.148-15.232,5.576-5.621,10.041-11.492,13.396-17.612,3.354-6.12,5.87-12.329,7.549-18.632,1.676-6.301,2.765-12.465,3.264-18.496.497-6.029.748-11.628.748-16.796v-28.152ZM1173.759,93.818h104.312v16.728h-104.312v-16.728ZM1271.271,93.818h17c0,1.995-.023,3.604-.068,4.828-.046,1.224-.114,2.2-.203,2.924-.728,13.6-1.452,25.228-2.177,34.884-.727,9.656-1.52,17.659-2.38,24.004-.862,6.348-1.859,11.379-2.992,15.096-1.135,3.719-2.471,6.481-4.012,8.296-2.087,2.629-4.194,4.441-6.324,5.44-2.131.997-4.691,1.677-7.684,2.04-2.448.361-5.667.544-9.656.544s-8.07-.047-12.24-.136c-.091-2.448-.658-5.304-1.699-8.568-1.044-3.264-2.336-6.028-3.876-8.296,4.352.363,8.363.567,12.035.612,3.673.046,6.414.068,8.229.068,1.36,0,2.537-.136,3.536-.408.996-.272,1.903-.86,2.72-1.768,1.178-1.177,2.266-3.468,3.264-6.868.997-3.4,1.881-8.137,2.652-14.212.77-6.073,1.473-13.668,2.108-22.78.633-9.112,1.224-19.924,1.768-32.436v-3.264Z"/>
  </g>
  <g>
    <path class="cls-7" d="M122.927,576.321l11.151,8.296c-3.627,3.447-7.911,6.891-12.852,10.336-4.942,3.447-10.247,6.732-15.912,9.86-5.667,3.128-11.402,6.007-17.204,8.636-5.803,2.628-11.379,4.849-16.728,6.664-.999-2.087-2.291-4.42-3.876-7.004-1.588-2.584-3.151-4.781-4.692-6.596,5.349-1.269,10.88-2.992,16.592-5.168,5.712-2.176,11.288-4.624,16.729-7.344s10.472-5.597,15.096-8.636c4.624-3.037,8.521-6.052,11.696-9.044ZM122.519,536.201l13.464,5.712c-4.807,4.896-10.607,9.316-17.408,13.26-6.8,3.944-14.031,7.412-21.691,10.404-7.663,2.992-15.256,5.487-22.78,7.48-.544-1.088-1.315-2.425-2.312-4.012-.999-1.585-2.04-3.196-3.129-4.828-1.088-1.632-2.086-2.945-2.991-3.944,7.344-1.449,14.62-3.309,21.828-5.576,7.208-2.265,13.849-4.964,19.924-8.092,6.073-3.128,11.105-6.596,15.096-10.404ZM66.895,509.273h115.872v30.6h-16.728v-15.776h-83.097v15.776h-16.048v-30.6ZM111.91,563.265l10.473,7.344c-3.719,2.902-8.252,5.895-13.601,8.976-5.351,3.083-10.903,5.939-16.659,8.568-5.759,2.63-11.176,4.851-16.253,6.664-.907-1.813-2.131-3.944-3.672-6.392-1.542-2.448-3.038-4.441-4.487-5.984,3.625-.905,7.501-2.062,11.628-3.468,4.124-1.405,8.204-2.969,12.239-4.692,4.034-1.721,7.82-3.513,11.356-5.372,3.536-1.857,6.528-3.74,8.976-5.644ZM87.702,532.665h73.44v13.872h-73.44v-13.872ZM100.895,557.009l12.648-7.344c6.437,4.443,11.604,9.408,15.504,14.892,3.896,5.487,6.753,11.063,8.567,16.728,1.812,5.667,2.674,11.107,2.584,16.32-.091,5.215-.951,9.839-2.584,13.872-1.632,4.033-3.943,7.14-6.936,9.316-2.539,2.176-5.056,3.672-7.548,4.488-2.495.816-5.555,1.224-9.181,1.224-1.632.089-3.446.089-5.439,0-1.995-.092-4.035-.183-6.12-.272-.092-2.268-.499-4.875-1.224-7.82-.728-2.947-1.859-5.553-3.4-7.82,2.537.183,4.917.34,7.14.476,2.221.136,4.193.204,5.916.204s3.265-.18,4.624-.544c1.36-.361,2.584-1.132,3.672-2.312,1.633-1.269,2.833-3.24,3.604-5.916.77-2.673,1.041-5.848.816-9.52-.228-3.672-1.135-7.569-2.721-11.696-1.587-4.125-3.99-8.272-7.208-12.444-3.219-4.169-7.459-8.113-12.716-11.832ZM115.99,498.529h16.864v19.448h-16.864v-19.448ZM143.463,538.513c2.265,9.52,5.349,18.451,9.248,26.792,3.896,8.343,8.771,15.687,14.62,22.032,5.848,6.347,12.805,11.334,20.876,14.96-1.18,1.088-2.495,2.448-3.944,4.08-1.451,1.632-2.835,3.355-4.148,5.168-1.315,1.815-2.427,3.445-3.332,4.896-8.523-4.624-15.822-10.629-21.896-18.02-6.075-7.389-11.107-15.912-15.096-25.568-3.991-9.656-7.3-20.149-9.929-31.484l13.601-2.856ZM170.118,547.353l12.648,11.016c-3.083,2.359-6.392,4.739-9.928,7.14-3.536,2.403-7.027,4.624-10.473,6.664-3.446,2.04-6.664,3.876-9.655,5.508l-10.336-9.928c2.809-1.632,5.916-3.604,9.315-5.916,3.4-2.312,6.732-4.737,9.996-7.276,3.264-2.537,6.073-4.94,8.432-7.208Z"/>
    <path class="cls-7" d="M197.727,575.778h125.936v12.376h-125.936v-12.376ZM200.855,507.369h119.68v12.784h-119.68v-12.784ZM210.375,594.409h91.392v11.832h-91.392v-11.832ZM211.463,558.913h97.92v53.176h-16.592v-42.16h-81.328v-11.016ZM214.727,525.729h92.344v27.064h-92.344v-27.064ZM230.366,536.065v6.392h59.977v-6.392h-59.977ZM251.719,498.393h16.592v112.2c0,3.989-.544,6.98-1.632,8.976-1.088,1.993-2.947,3.581-5.576,4.76-2.631.997-5.871,1.632-9.724,1.904-3.855.272-8.683.408-14.484.408-.363-1.904-1.088-4.104-2.176-6.596-1.088-2.495-2.176-4.603-3.264-6.324,2.265.091,4.532.159,6.8.204,2.265.046,4.328.068,6.188.068h3.876c1.269-.089,2.153-.361,2.652-.816.497-.453.748-1.269.748-2.448v-112.336Z"/>
    <path class="cls-7" d="M60.639,700.969h55.896v12.92h-55.896v-12.92ZM66.895,757.545h14.145v46.784h-14.145v-46.784ZM67.303,720.145h43.928v12.376h-43.928v-12.376ZM67.303,738.778h43.928v12.24h-43.928v-12.24ZM68.118,682.745h43.385v12.24h-43.385v-12.24ZM74.782,757.545h36.04v41.48h-36.04v-12.92h21.624v-15.64h-21.624v-12.92ZM121.975,685.329h59.704v66.232h-16.32v-50.728h-43.384v-15.504ZM122.247,729.258h16.592v53.584c0,2.903.452,4.76,1.359,5.576.905.816,2.992,1.224,6.257,1.224h19.312c2.176,0,3.762-.497,4.76-1.496.997-.997,1.745-2.968,2.244-5.916.497-2.945.884-7.229,1.156-12.852,1.269.816,2.765,1.656,4.488,2.516,1.721.863,3.557,1.632,5.508,2.312,1.948.68,3.648,1.203,5.1,1.564-.635,7.527-1.679,13.419-3.128,17.68-1.451,4.261-3.65,7.252-6.596,8.976-2.947,1.721-7.051,2.584-12.309,2.584h-22.575c-5.623,0-10.043-.635-13.261-1.904-3.219-1.271-5.508-3.491-6.868-6.664-1.359-3.173-2.039-7.661-2.039-13.464v-53.72ZM128.91,729.258h44.881v15.504h-44.881v-15.504Z"/>
    <path class="cls-7" d="M201.534,705.321l10.336,1.36c0,4.352-.203,8.887-.611,13.6-.408,4.715-1.111,9.271-2.108,13.668-.999,4.399-2.312,8.275-3.943,11.628l-10.064-4.488c1.36-2.901,2.516-6.345,3.468-10.336.952-3.988,1.677-8.205,2.176-12.648.498-4.441.748-8.704.748-12.784ZM213.503,678.393h15.367v127.704h-15.367v-127.704ZM226.423,704.913l9.384-3.4c1.993,4.171,3.761,8.659,5.304,13.464,1.541,4.807,2.537,8.887,2.992,12.24l-10.063,4.08c-.364-3.445-1.248-7.661-2.652-12.648-1.407-4.985-3.061-9.564-4.964-13.736ZM245.055,772.369l13.192,3.808c-.999,5.351-2.472,10.472-4.421,15.368-1.95,4.896-4.874,9.021-8.771,12.376l-11.968-7.48c3.264-2.81,5.869-6.369,7.819-10.676,1.949-4.305,3.332-8.772,4.148-13.396ZM241.111,709.402h82.688v12.376h-82.688v-12.376ZM244.239,687.506h75.072v11.832h-75.072v-11.832ZM248.727,726.537h68.816v39.576h-68.816v-39.576ZM255.935,700.017l12.376-3.4c1.178,2.087,2.221,4.399,3.128,6.936.905,2.54,1.585,4.715,2.04,6.528l-13.056,3.944c-.272-1.904-.84-4.169-1.7-6.8-.863-2.628-1.791-5.032-2.788-7.208ZM261.239,772.913h14.28v15.912c0,1.542.249,2.516.748,2.924.497.408,1.7.612,3.604.612h10.473c1.088,0,1.881-.181,2.38-.544.497-.361.884-1.156,1.156-2.38.271-1.224.452-3.196.544-5.916,1.449,1.088,3.444,2.131,5.983,3.128,2.537.999,4.805,1.724,6.801,2.176-.545,4.443-1.384,7.865-2.517,10.268-1.135,2.401-2.72,4.08-4.76,5.032-2.04.952-4.647,1.428-7.82,1.428h-14.416c-4.534,0-8.003-.523-10.403-1.564-2.403-1.043-4.013-2.767-4.828-5.168-.816-2.403-1.225-5.689-1.225-9.86v-16.048ZM263.551,736.329v5.304h38.624v-5.304h-38.624ZM263.551,750.882v5.44h38.624v-5.44h-38.624ZM267.903,769.513l8.16-8.024c3.173,1.723,6.55,3.831,10.132,6.324,3.581,2.495,6.324,4.828,8.229,7.004l-8.568,8.976c-1.814-2.176-4.443-4.601-7.888-7.276-3.447-2.673-6.8-5.009-10.064-7.004ZM274.158,678.393h16.185v15.504h-16.185v-15.504ZM294.559,695.801l13.872,3.128c-1.271,2.992-2.516,5.848-3.74,8.568-1.224,2.72-2.335,5.079-3.332,7.072l-12.104-2.992c.996-2.265,2.017-4.873,3.06-7.82,1.041-2.945,1.789-5.597,2.244-7.956ZM296.87,776.993l11.288-6.256c2.448,2.539,4.828,5.327,7.141,8.364,2.312,3.039,4.373,6.076,6.188,9.112,1.812,3.039,3.173,5.869,4.08,8.5l-12.24,6.936c-.815-2.539-2.086-5.327-3.808-8.364-1.724-3.037-3.672-6.188-5.848-9.452-2.177-3.264-4.443-6.209-6.801-8.84Z"/>
    <path class="cls-7" d="M380.511,678.665h17.408v28.152c0,6.167-.296,12.739-.885,19.72-.591,6.983-1.791,14.076-3.604,21.284-1.814,7.208-4.579,14.348-8.296,21.42-3.719,7.072-8.636,13.827-14.756,20.264-6.12,6.437-13.805,12.24-23.053,17.408-.907-1.36-2.107-2.903-3.604-4.624-1.496-1.723-3.083-3.355-4.76-4.896-1.679-1.542-3.196-2.811-4.557-3.808,8.521-4.532,15.572-9.609,21.148-15.232,5.576-5.621,10.041-11.492,13.396-17.612,3.354-6.12,5.87-12.329,7.549-18.632,1.676-6.301,2.765-12.465,3.264-18.496.497-6.029.748-11.628.748-16.796v-28.152ZM338.759,706.818h104.312v16.728h-104.312v-16.728ZM436.271,706.818h17c0,1.995-.023,3.604-.068,4.828-.046,1.224-.114,2.2-.203,2.924-.728,13.6-1.452,25.228-2.177,34.884-.727,9.656-1.52,17.659-2.38,24.004-.862,6.348-1.859,11.379-2.992,15.096-1.135,3.719-2.471,6.481-4.012,8.296-2.087,2.629-4.194,4.441-6.324,5.44-2.131.997-4.691,1.677-7.684,2.04-2.448.361-5.667.544-9.656.544s-8.07-.047-12.24-.136c-.091-2.448-.658-5.304-1.699-8.568-1.044-3.264-2.336-6.028-3.876-8.296,4.352.363,8.363.567,12.035.612,3.673.046,6.414.068,8.229.068,1.36,0,2.537-.136,3.536-.408.996-.272,1.903-.86,2.72-1.768,1.178-1.177,2.266-3.468,3.264-6.868.997-3.4,1.881-8.137,2.652-14.212.77-6.073,1.473-13.668,2.108-22.78.633-9.112,1.224-19.924,1.768-32.436v-3.264Z"/>
  </g>
  <g>
    <path class="cls-7" d="M166.614,1384.937l15.504,4.76c-2.63,7.616-5.779,15.3-9.451,23.052-3.673,7.752-7.663,15.096-11.969,22.032-4.307,6.936-8.771,13.035-13.396,18.292-.544-1.36-1.339-3.104-2.38-5.236-1.044-2.129-2.155-4.284-3.332-6.46-1.18-2.176-2.268-3.944-3.265-5.304,3.897-4.169,7.593-8.998,11.084-14.484,3.489-5.485,6.709-11.356,9.656-17.612,2.945-6.256,5.462-12.601,7.548-19.04ZM155.599,1422.61l15.504-15.504v104.856h-15.504v-89.352ZM208.503,1416.081l11.832,3.264c-2.54,9.431-5.668,18.679-9.385,27.744-3.719,9.067-7.888,17.455-12.512,25.16-4.624,7.708-9.611,14.327-14.96,19.856-.907-1.269-2.04-2.696-3.4-4.284-1.359-1.585-2.787-3.105-4.283-4.556-1.496-1.449-2.835-2.628-4.013-3.536,5.258-4.624,10.222-10.357,14.893-17.204,4.668-6.845,8.885-14.28,12.647-22.304,3.762-8.024,6.821-16.069,9.181-24.14ZM178.99,1408.738h88.128v15.504h-88.128v-15.504ZM195.583,1474.697h52.224v14.552h-52.224v-14.552ZM213.534,1385.073h15.912v126.072h-15.912v-126.072ZM235.295,1417.442c2.356,7.616,5.393,15.3,9.111,23.052,3.717,7.752,7.842,14.96,12.376,21.624,4.533,6.664,9.248,12.308,14.145,16.932-1.904,1.36-4.059,3.264-6.46,5.712-2.403,2.448-4.331,4.76-5.78,6.936-4.896-5.44-9.566-11.968-14.008-19.584-4.443-7.616-8.432-15.844-11.968-24.684s-6.575-17.748-9.112-26.724l11.696-3.264Z"/>
    <path class="cls-7" d="M324.511,1384.665h17.408v28.152c0,6.167-.296,12.739-.885,19.72-.591,6.983-1.791,14.076-3.604,21.284-1.814,7.208-4.579,14.348-8.296,21.42-3.719,7.072-8.636,13.827-14.756,20.264-6.12,6.437-13.805,12.24-23.053,17.408-.907-1.36-2.107-2.903-3.604-4.624-1.496-1.723-3.083-3.355-4.76-4.896-1.679-1.542-3.196-2.811-4.557-3.808,8.521-4.532,15.572-9.609,21.148-15.232,5.576-5.621,10.041-11.492,13.396-17.612,3.354-6.12,5.87-12.329,7.549-18.632,1.676-6.301,2.765-12.465,3.264-18.496.497-6.029.748-11.628.748-16.796v-28.152ZM282.759,1412.818h104.312v16.728h-104.312v-16.728ZM380.271,1412.818h17c0,1.995-.023,3.604-.068,4.828-.046,1.224-.114,2.2-.203,2.924-.728,13.6-1.452,25.228-2.177,34.884-.727,9.656-1.52,17.659-2.38,24.004-.862,6.348-1.859,11.379-2.992,15.096-1.135,3.719-2.471,6.481-4.012,8.296-2.087,2.629-4.194,4.441-6.324,5.44-2.131.997-4.691,1.677-7.684,2.04-2.448.361-5.667.544-9.656.544s-8.07-.047-12.24-.136c-.091-2.448-.658-5.304-1.699-8.568-1.044-3.264-2.336-6.028-3.876-8.296,4.352.363,8.363.567,12.035.612,3.673.046,6.414.068,8.229.068,1.36,0,2.537-.136,3.536-.408.996-.272,1.903-.86,2.72-1.768,1.178-1.177,2.266-3.468,3.264-6.868.997-3.4,1.881-8.137,2.652-14.212.77-6.073,1.473-13.668,2.108-22.78.633-9.112,1.224-19.924,1.768-32.436v-3.264Z"/>
  </g>
  <g>
    <path class="cls-7" d="M861.727,1972.793c2.72-.633,5.372-1.404,7.956-2.312,2.584-.905,4.42-1.585,5.508-2.04,4.985-1.994,10.041-4.125,15.164-6.392,5.121-2.266,10.289-4.556,15.504-6.868,5.213-2.312,10.336-4.396,15.368-6.256,5.032-1.857,9.973-3.354,14.824-4.488,4.849-1.132,9.405-1.7,13.668-1.7,7.072,0,13.124,1.271,18.156,3.808,5.031,2.54,8.884,5.984,11.56,10.336,2.673,4.352,4.012,9.159,4.012,14.416,0,6.347-1.359,11.855-4.08,16.524-2.72,4.67-6.619,8.274-11.695,10.812-5.079,2.539-11.107,3.808-18.088,3.808-3.628,0-7.368-.408-11.221-1.224-3.854-.816-7.095-1.677-9.724-2.584l.408-17.136c3.081,1.36,6.256,2.472,9.52,3.332,3.265.863,6.393,1.292,9.384,1.292,3.354,0,6.369-.612,9.044-1.836,2.674-1.224,4.781-2.969,6.324-5.236,1.541-2.266,2.312-5.032,2.312-8.296,0-2.265-.659-4.352-1.973-6.256-1.315-1.904-3.175-3.421-5.575-4.556-2.403-1.133-5.328-1.7-8.772-1.7-4.443,0-9.452.839-15.028,2.516-5.575,1.679-11.447,3.831-17.611,6.46-6.167,2.631-12.195,5.418-18.088,8.364-5.896,2.947-11.335,5.712-16.32,8.296-4.987,2.584-9.159,4.647-12.512,6.188l-8.024-17.272ZM891.103,1932.946c.453.816.997,1.904,1.632,3.264.634,1.36,1.313,2.699,2.04,4.012.725,1.315,1.313,2.427,1.769,3.332,2.809,5.259,5.665,11.04,8.567,17.34,2.9,6.303,5.576,12.308,8.024,18.02,1.54,3.719,3.332,8.16,5.372,13.328s4.057,10.563,6.052,16.184c1.993,5.623,3.876,11.016,5.644,16.184,1.769,5.168,3.196,9.656,4.284,13.464l-18.632,4.896c-1.36-5.712-3.039-11.921-5.032-18.632-1.995-6.709-4.126-13.35-6.392-19.924-2.268-6.573-4.535-12.58-6.8-18.02-1.815-4.261-3.604-8.432-5.372-12.512-1.769-4.08-3.536-8.001-5.304-11.764-1.769-3.761-3.604-7.229-5.509-10.404-.907-1.722-2.107-3.717-3.604-5.984-1.496-2.265-2.971-4.26-4.42-5.984l17.68-6.8ZM928.095,1947.497c-1.543-1.721-3.491-3.74-5.848-6.052-2.359-2.312-4.761-4.578-7.208-6.8-2.448-2.221-4.58-3.965-6.393-5.236l12.512-8.704c1.722,1.18,3.809,2.835,6.257,4.964,2.447,2.131,4.917,4.308,7.411,6.528,2.493,2.223,4.51,4.195,6.053,5.916l-12.784,9.384Z"/>
    <path class="cls-7" d="M1022.479,1930.362c1.904.272,3.944.455,6.12.544,2.176.091,4.261.136,6.256.136,1.449,0,3.625-.021,6.528-.068,2.9-.044,6.188-.113,9.859-.204,3.673-.089,7.321-.181,10.948-.272,3.625-.089,6.913-.204,9.86-.34,2.945-.136,5.235-.249,6.868-.34,2.809-.272,5.031-.521,6.664-.748,1.632-.226,2.855-.476,3.672-.748l8.84,12.104c-1.543.999-3.128,1.995-4.76,2.992-1.633.999-3.22,2.087-4.761,3.264-1.814,1.271-3.99,2.924-6.527,4.964-2.54,2.04-5.236,4.195-8.092,6.46-2.856,2.268-5.623,4.488-8.297,6.664-2.675,2.176-5.1,4.127-7.275,5.848,2.265-.544,4.441-.929,6.527-1.156,2.085-.225,4.217-.34,6.393-.34,7.705,0,14.62,1.496,20.74,4.488,6.119,2.992,10.969,7.051,14.552,12.172,3.58,5.123,5.372,10.995,5.372,17.612,0,7.164-1.815,13.647-5.44,19.448-3.627,5.803-9.091,10.427-16.388,13.872-7.3,3.444-16.435,5.168-27.404,5.168-6.256,0-11.899-.908-16.932-2.72-5.032-1.815-9-4.399-11.9-7.752-2.902-3.353-4.352-7.297-4.352-11.832,0-3.717,1.02-7.185,3.06-10.404,2.04-3.217,4.896-5.825,8.568-7.82,3.672-1.993,7.909-2.992,12.716-2.992,6.256,0,11.537,1.247,15.844,3.74,4.306,2.495,7.616,5.827,9.929,9.996,2.312,4.171,3.513,8.751,3.604,13.736l-15.912,2.176c-.091-4.985-1.339-8.998-3.74-12.036-2.403-3.037-5.599-4.556-9.588-4.556-2.539,0-4.579.659-6.12,1.972-1.542,1.315-2.312,2.835-2.312,4.556,0,2.539,1.269,4.579,3.808,6.12,2.537,1.543,5.849,2.312,9.929,2.312,7.705,0,14.144-.928,19.312-2.788,5.168-1.857,9.044-4.533,11.628-8.024,2.584-3.489,3.876-7.637,3.876-12.444,0-4.08-1.247-7.661-3.74-10.744-2.494-3.081-5.871-5.484-10.132-7.208-4.263-1.721-9.067-2.584-14.416-2.584-5.259,0-10.063.659-14.416,1.972-4.352,1.315-8.455,3.175-12.308,5.576-3.854,2.403-7.616,5.304-11.288,8.704-3.672,3.4-7.322,7.187-10.948,11.356l-12.376-12.784c2.448-1.993,5.213-4.237,8.296-6.732,3.082-2.493,6.233-5.1,9.452-7.82,3.218-2.72,6.256-5.28,9.112-7.684,2.855-2.401,5.28-4.42,7.275-6.052,1.904-1.541,4.125-3.353,6.664-5.44,2.538-2.084,5.168-4.237,7.889-6.46,2.72-2.221,5.304-4.352,7.752-6.392s4.488-3.785,6.12-5.236c-1.36,0-3.128.047-5.305.136-2.176.091-4.556.183-7.14.272-2.584.092-5.168.183-7.752.272-2.584.092-4.987.204-7.208.34-2.223.136-4.059.25-5.508.34-1.815.091-3.719.228-5.712.408-1.996.183-3.809.408-5.44.68l-.544-17.68Z"/>
    <path class="cls-7" d="M1160.791,1917.849l17.136,3.672c-3.265,10.972-7.663,21.127-13.192,30.464-5.531,9.339-11.606,17.046-18.224,23.12-.999-.997-2.427-2.152-4.284-3.468-1.859-1.313-3.74-2.629-5.644-3.944-1.904-1.313-3.536-2.333-4.896-3.06,6.709-5.168,12.58-11.9,17.612-20.196,5.032-8.296,8.861-17.157,11.492-26.588ZM1194.383,1985.849l15.912,5.168c-4.535,8.523-10.043,16.388-16.524,23.596-6.483,7.208-13.579,13.623-21.284,19.244-7.707,5.621-15.731,10.425-24.071,14.416-.816-1.088-1.928-2.448-3.332-4.08-1.407-1.632-2.903-3.22-4.488-4.76-1.588-1.542-2.971-2.812-4.148-3.808,8.341-3.353,16.205-7.48,23.597-12.376,7.389-4.896,14.008-10.517,19.855-16.864,5.849-6.345,10.676-13.192,14.484-20.536ZM1147.735,1971.57h78.473v13.6h-78.473v-13.6ZM1148.007,2000.946l11.56-10.744c4.985,2.631,10.177,5.555,15.572,8.772,5.394,3.219,10.744,6.596,16.048,10.132,5.304,3.536,10.222,7.051,14.756,10.54,4.533,3.492,8.341,6.824,11.424,9.996l-13.056,12.376c-2.812-3.083-6.371-6.438-10.676-10.064-4.308-3.625-9.022-7.276-14.145-10.948-5.123-3.672-10.403-7.229-15.844-10.676-5.439-3.444-10.654-6.573-15.64-9.384ZM1162.423,1931.585h92.752v13.464h-92.752v-13.464ZM1163.919,1951.577h78.88v13.192h-78.88v-13.192ZM1220.903,1971.57h16.729c0,8.16.089,15.799.271,22.916.181,7.119.612,13.328,1.292,18.632.681,5.304,1.653,9.476,2.924,12.512,1.27,3.039,2.901,4.556,4.896,4.556,1.088-.089,1.812-1.812,2.176-5.168.361-3.353.589-7.752.68-13.192,1.541,1.815,3.286,3.651,5.236,5.508,1.949,1.859,3.74,3.423,5.372,4.692-.363,5.623-1.02,10.247-1.972,13.872-.952,3.625-2.427,6.277-4.42,7.956-1.996,1.677-4.716,2.516-8.16,2.516-5.712,0-10.224-1.927-13.532-5.78-3.311-3.855-5.78-9.202-7.412-16.048-1.632-6.844-2.72-14.8-3.264-23.868-.544-9.065-.816-18.768-.816-29.104Z"/>
  </g>
  <g>
    <path class="cls-7" d="M1796.318,1353.321l11.424,1.496c0,3.719-.25,7.888-.747,12.512-.5,4.624-1.112,9.204-1.837,13.736-.727,4.535-1.587,8.568-2.584,12.104l-11.832-4.08c.997-3.173,1.857-6.821,2.585-10.948.725-4.125,1.359-8.364,1.903-12.716s.905-8.385,1.088-12.104ZM1808.014,1326.393h14.824v127.704h-14.824v-127.704ZM1820.526,1349.241l10.064-4.216c1.54,3.083,3.081,6.46,4.624,10.132,1.54,3.672,2.673,6.779,3.399,9.316l-10.743,5.168c-.636-2.628-1.679-5.893-3.129-9.792-1.451-3.897-2.855-7.433-4.216-10.608ZM1830.318,1369.506h89.761v11.696h-89.761v-11.696ZM1834.533,1335.778h81.192v11.56h-81.192v-11.56ZM1838.206,1352.913h73.848v10.88h-73.848v-10.88ZM1839.43,1386.506h58.208v11.968h-43.112v55.76h-15.096v-67.728ZM1851.398,1404.865h47.057v11.424h-47.057v-11.424ZM1851.533,1422.409h47.057v11.424h-47.057v-11.424ZM1866.63,1326.393h16.184v47.056h-16.184v-47.056ZM1895.326,1386.506h15.504v52.088c0,3.536-.432,6.345-1.292,8.432-.863,2.084-2.563,3.672-5.101,4.76-2.358,1.088-5.259,1.768-8.704,2.04-3.446.272-7.571.361-12.376.272-.271-1.996-.839-4.331-1.7-7.004-.862-2.675-1.746-4.964-2.651-6.868,2.809.183,5.597.272,8.364.272h5.508c1.632,0,2.448-.725,2.448-2.176v-51.816Z"/>
    <path class="cls-7" d="M1928.51,1361.345h62.288v13.736h-62.288v-13.736ZM1931.365,1390.993h57.393v13.736h-57.393v-13.736ZM1932.59,1415.201h54.672v13.736h-54.672v-13.736ZM1933.405,1338.497h52.36v13.6h-52.36v-13.6ZM1937.214,1376.442l12.104-3.128c1.269,2.54,2.425,5.372,3.469,8.5,1.041,3.128,1.699,5.78,1.972,7.956l-12.648,3.536c-.271-2.265-.884-4.964-1.836-8.092-.952-3.128-1.972-6.052-3.06-8.772ZM1952.854,1326.801h15.096v39.712h-15.096v-39.712ZM1952.854,1396.705h15.096v57.12h-15.096v-57.12ZM1971.214,1373.041l13.6,3.4c-1.359,3.083-2.631,6.075-3.808,8.976-1.18,2.903-2.312,5.396-3.4,7.48l-11.695-3.128c.633-1.632,1.292-3.421,1.972-5.372.68-1.948,1.337-3.92,1.972-5.916.634-1.993,1.088-3.808,1.36-5.44ZM1993.246,1332.241h50.048v14.28h-35.225v107.576h-14.823v-121.856ZM2001.405,1379.026h41.48v12.92h-41.48v-12.92ZM2038.262,1379.026h2.72l2.721-.544,9.792,3.536c-1.633,10.247-4.127,19.947-7.48,29.104-3.355,9.159-7.548,17.387-12.58,24.684s-10.995,13.532-17.884,18.7c-1.18-1.904-2.812-3.899-4.896-5.984-2.086-2.086-4.035-3.808-5.848-5.168,6.256-4.352,11.673-9.724,16.252-16.116,4.577-6.392,8.296-13.441,11.152-21.148,2.855-7.706,4.872-15.685,6.052-23.936v-3.128ZM2018.542,1388.681c2.265,7.527,5.257,14.688,8.976,21.488,3.717,6.8,8.16,12.899,13.328,18.292,5.168,5.396,10.925,9.724,17.272,12.988-1.724,1.449-3.628,3.444-5.713,5.984-2.086,2.537-3.719,4.849-4.896,6.936-6.711-4.08-12.695-9.271-17.952-15.572-5.26-6.301-9.815-13.464-13.668-21.488-3.854-8.024-7.096-16.568-9.724-25.636l12.376-2.992ZM2035.134,1332.241h15.096v25.704c0,3.447-.454,6.234-1.359,8.364-.908,2.131-2.721,3.74-5.44,4.828-2.631,1.088-5.804,1.747-9.52,1.972-3.719.227-8.071.34-13.057.34-.363-2.176-.976-4.577-1.836-7.208-.862-2.629-1.791-4.896-2.788-6.8,2.266.091,4.51.159,6.732.204,2.221.047,4.192.047,5.916,0,1.721-.044,2.9-.068,3.536-.068.996-.089,1.699-.249,2.107-.476.408-.225.612-.701.612-1.428v-25.432Z"/>
    <path class="cls-7" d="M1787.751,1551.137l10.063,4.352c-2.087,2.812-4.603,5.712-7.548,8.704-2.947,2.992-6.099,5.759-9.452,8.296-3.355,2.539-6.619,4.624-9.792,6.256-.999-1.541-2.403-3.309-4.216-5.304-1.814-1.994-3.447-3.581-4.896-4.76,3.082-1.269,6.233-2.833,9.452-4.692,3.218-1.857,6.277-3.921,9.181-6.188,2.9-2.265,5.304-4.488,7.208-6.664ZM1763.543,1619.001h124.439v13.192h-124.439v-13.192ZM1764.631,1513.329h62.968v11.016h-62.968v-11.016ZM1767.759,1528.969h57.936v26.384h-57.936v-26.384ZM1771.702,1580.922h107.713v12.92h-107.713v-12.92ZM1780.406,1538.489v7.344h31.96v-7.344h-31.96ZM1783.534,1598.329h15.641v28.152h-15.641v-28.152ZM1789.111,1506.393h14.145v71.808h-14.145v-71.808ZM1803.799,1553.041c1.088.455,2.651,1.203,4.691,2.244,2.04,1.043,4.237,2.176,6.597,3.4,2.356,1.224,4.509,2.335,6.46,3.332,1.948.999,3.376,1.768,4.284,2.312l-7.889,10.2c-1.271-1.088-2.835-2.312-4.691-3.672-1.859-1.36-3.855-2.764-5.984-4.216-2.132-1.449-4.194-2.833-6.188-4.148-1.995-1.313-3.672-2.38-5.031-3.196l7.752-6.256ZM1817.263,1586.225h16.048v39.032h-16.048v-39.032ZM1842.423,1506.529l14.552,3.4c-2.358,7.888-5.576,15.415-9.656,22.576-4.08,7.163-8.704,13.103-13.872,17.816-.727-.997-1.723-2.221-2.991-3.672-1.271-1.449-2.585-2.877-3.944-4.284-1.36-1.405-2.584-2.516-3.672-3.332,4.624-3.808,8.589-8.568,11.899-14.28,3.309-5.712,5.869-11.785,7.685-18.224ZM1864.591,1526.249l14.96,1.36c-3.084,13.783-8.568,24.707-16.456,32.776-7.888,8.071-18.18,14.327-30.872,18.768-.544-1.088-1.339-2.357-2.38-3.808-1.044-1.449-2.176-2.924-3.4-4.42-1.224-1.496-2.335-2.652-3.332-3.468,11.604-3.172,20.876-8.068,27.812-14.688,6.936-6.617,11.492-15.457,13.668-26.52ZM1826.103,1600.234h42.432v11.832h-42.432v-11.832ZM1845.279,1527.745c1.993,5.168,4.896,10.336,8.704,15.504,3.809,5.168,8.657,9.815,14.552,13.94,5.893,4.127,12.921,7.231,21.08,9.316-1.451,1.451-3.06,3.447-4.828,5.984-1.768,2.539-3.151,4.807-4.147,6.8-8.343-2.809-15.527-6.708-21.556-11.696-6.031-4.985-11.063-10.449-15.097-16.388-4.035-5.937-7.095-11.809-9.18-17.612l10.472-5.848ZM1842.695,1520.402h44.608v12.648h-50.864l6.256-12.648Z"/>
    <path class="cls-7" d="M1896.822,1605.13c3.989-1.088,8.453-2.333,13.396-3.74,4.94-1.405,10.177-2.992,15.708-4.76,5.529-1.768,10.969-3.513,16.32-5.236l2.855,15.504c-7.616,2.54-15.323,5.124-23.12,7.752-7.799,2.631-14.96,4.988-21.488,7.072l-3.672-16.592ZM1898.455,1514.281h45.151v15.096h-45.151v-15.096ZM1899.679,1553.449h41.616v14.96h-41.616v-14.96ZM1913.415,1520.265h15.64v83.504l-15.64,2.584v-86.088ZM1938.303,1615.057h87.855v14.824h-87.855v-14.824ZM1947.822,1587.449h73.712v14.688h-73.712v-14.688ZM1948.639,1512.241h71.536v63.512h-71.536v-63.512ZM1963.463,1525.977v11.424h41.071v-11.424h-41.071ZM1963.463,1550.321v11.56h41.071v-11.56h-41.071ZM1977.471,1518.09h13.736v51.136h1.495v52.768h-16.728v-52.768h1.496v-51.136Z"/>
    <path class="cls-7" d="M2081.511,1506.665h17.408v28.152c0,6.167-.296,12.739-.885,19.72-.591,6.983-1.791,14.076-3.604,21.284-1.814,7.208-4.579,14.348-8.296,21.42-3.719,7.072-8.636,13.827-14.756,20.264-6.12,6.437-13.805,12.24-23.053,17.408-.907-1.36-2.107-2.903-3.604-4.624-1.496-1.723-3.083-3.355-4.76-4.896-1.679-1.542-3.196-2.811-4.557-3.808,8.521-4.532,15.572-9.609,21.148-15.232,5.576-5.621,10.041-11.492,13.396-17.612,3.354-6.12,5.87-12.329,7.549-18.632,1.676-6.301,2.765-12.465,3.264-18.496.497-6.029.748-11.628.748-16.796v-28.152ZM2039.759,1534.818h104.312v16.728h-104.312v-16.728ZM2137.271,1534.818h17c0,1.995-.023,3.604-.068,4.828-.046,1.224-.114,2.2-.203,2.924-.728,13.6-1.452,25.228-2.177,34.884-.727,9.656-1.52,17.659-2.38,24.004-.862,6.348-1.859,11.379-2.992,15.096-1.135,3.719-2.471,6.481-4.012,8.296-2.087,2.629-4.194,4.441-6.324,5.44-2.131.997-4.691,1.677-7.684,2.04-2.448.361-5.667.544-9.656.544s-8.07-.047-12.24-.136c-.091-2.448-.658-5.304-1.699-8.568-1.044-3.264-2.336-6.028-3.876-8.296,4.352.363,8.363.567,12.035.612,3.673.046,6.414.068,8.229.068,1.36,0,2.537-.136,3.536-.408.996-.272,1.903-.86,2.72-1.768,1.178-1.177,2.266-3.468,3.264-6.868.997-3.4,1.881-8.137,2.652-14.212.77-6.073,1.473-13.668,2.108-22.78.633-9.112,1.224-19.924,1.768-32.436v-3.264Z"/>
  </g>
  <g>
    <path class="cls-7" d="M1767.87,673.689c4.441-1.088,9.497-2.333,15.164-3.74,5.666-1.405,11.628-2.969,17.885-4.692,6.256-1.721,12.512-3.445,18.768-5.168l2.04,14.416c-8.523,2.539-17.183,5.1-25.976,7.684-8.796,2.584-16.684,4.875-23.664,6.868l-4.217-15.368ZM1771.135,587.601h47.872v15.096h-47.872v-15.096ZM1772.359,626.497h45.288v14.96h-45.288v-14.96ZM1787.727,593.585h15.64v79.832l-15.64,2.448v-82.28ZM1834.511,660.225h16.048c-.544,5.895-1.428,11.312-2.652,16.252-1.224,4.943-3.195,9.452-5.916,13.532-2.72,4.08-6.46,7.705-11.22,10.88-4.76,3.173-10.858,5.893-18.292,8.16-.544-1.36-1.315-2.879-2.312-4.556-.999-1.679-2.087-3.311-3.265-4.896-1.179-1.587-2.312-2.924-3.399-4.012,6.345-1.541,11.513-3.468,15.504-5.78,3.988-2.312,7.025-4.94,9.111-7.888,2.085-2.945,3.581-6.209,4.488-9.792.905-3.581,1.541-7.548,1.904-11.9ZM1824.311,585.697h66.912v76.704h-66.912v-76.704ZM1839.543,598.889v8.432h35.632v-8.432h-35.632ZM1839.543,619.697v8.432h35.632v-8.432h-35.632ZM1839.543,640.506v8.432h35.632v-8.432h-35.632ZM1858.719,656.281h15.504v32.776c0,1.996.157,3.243.476,3.74.317.499,1.065.748,2.244.748h5.576c.816,0,1.428-.361,1.836-1.088.408-.725.725-2.244.952-4.556.226-2.312.385-5.689.476-10.132,1.088.816,2.425,1.611,4.013,2.38,1.585.771,3.264,1.452,5.031,2.04,1.769.591,3.332,1.112,4.692,1.564-.455,6.167-1.247,10.972-2.38,14.416-1.135,3.445-2.72,5.87-4.76,7.276-2.04,1.404-4.692,2.108-7.956,2.108h-10.473c-4.171,0-7.344-.591-9.52-1.768-2.176-1.179-3.672-3.107-4.488-5.78-.815-2.676-1.224-6.277-1.224-10.812v-32.912Z"/>
    <path class="cls-7" d="M1904.551,669.473c3.536-1.269,7.637-2.856,12.308-4.76,4.669-1.904,9.633-3.965,14.893-6.188,5.257-2.221,10.472-4.465,15.64-6.732l3.536,14.008c-6.8,3.536-13.736,7.072-20.809,10.608-7.071,3.536-13.555,6.755-19.447,9.656l-6.12-16.592ZM1907.679,609.09h41.479v15.368h-41.479v-15.368ZM1921.415,582.161h15.231v84.592h-15.231v-84.592ZM1967.383,640.369l14.008,3.536c-3.355,7.799-7.911,14.983-13.668,21.556-5.759,6.575-11.855,11.992-18.292,16.252-.816-.905-1.883-2.017-3.196-3.332-1.315-1.313-2.675-2.561-4.08-3.74-1.406-1.177-2.651-2.129-3.739-2.856,6.345-3.445,12.08-7.909,17.203-13.396,5.122-5.485,9.044-11.492,11.765-18.02ZM1979.487,658.321l10.608,6.256c-2.268,4.715-5.236,9.476-8.908,14.28-3.672,4.807-7.684,9.295-12.036,13.464-4.352,4.169-8.704,7.616-13.056,10.336-1.271-1.632-2.88-3.355-4.828-5.168-1.951-1.812-3.876-3.309-5.78-4.488,4.441-2.265,8.861-5.257,13.261-8.976,4.396-3.717,8.408-7.82,12.035-12.308,3.626-4.488,6.528-8.953,8.704-13.396ZM1947.391,635.338h86.224v13.736h-86.224v-13.736ZM1959.359,583.929h64.736v46.24h-64.736v-46.24ZM1962.215,655.466h55.896v12.92h-55.896v-12.92ZM2000.023,658.185l11.017,5.984c-1.633,5.44-3.944,10.995-6.937,16.66-2.992,5.667-6.348,10.948-10.063,15.844-3.719,4.896-7.616,8.929-11.696,12.104-1.36-1.543-3.128-3.175-5.304-4.896-2.177-1.724-4.308-3.128-6.393-4.216,4.441-2.811,8.568-6.437,12.376-10.88,3.809-4.441,7.185-9.337,10.132-14.688,2.945-5.349,5.236-10.653,6.868-15.912ZM1973.91,595.217v6.392h35.089v-6.392h-35.089ZM1973.91,612.353v6.528h35.089v-6.528h-35.089ZM2015.662,655.466h15.097c-.092,2.811-.228,4.715-.408,5.712-.544,8.795-1.203,16.027-1.972,21.692-.771,5.667-1.611,10.064-2.517,13.192-.907,3.128-1.995,5.372-3.264,6.732-1.271,1.541-2.652,2.629-4.148,3.264-1.495.633-3.151,1.088-4.964,1.36-1.543.181-3.515.317-5.916.408-2.403.089-5.011.044-7.819-.136-.092-1.904-.455-4.103-1.089-6.596-.635-2.495-1.495-4.556-2.584-6.188,2.177.183,4.125.295,5.849.34,1.721.047,3.036.068,3.943.068s1.653-.089,2.244-.272c.589-.181,1.156-.588,1.7-1.224.816-.905,1.564-2.652,2.244-5.236s1.313-6.369,1.904-11.356c.588-4.985,1.155-11.469,1.699-19.448v-2.312Z"/>
    <path class="cls-7" d="M2089.511,580.665h17.408v28.152c0,6.167-.296,12.739-.885,19.72-.591,6.983-1.791,14.076-3.604,21.284-1.814,7.208-4.579,14.348-8.296,21.42-3.719,7.072-8.636,13.827-14.756,20.264-6.12,6.437-13.805,12.24-23.053,17.408-.907-1.36-2.107-2.903-3.604-4.624-1.496-1.723-3.083-3.355-4.76-4.896-1.679-1.542-3.196-2.811-4.557-3.808,8.521-4.532,15.572-9.609,21.148-15.232,5.576-5.621,10.041-11.492,13.396-17.612,3.354-6.12,5.87-12.329,7.549-18.632,1.676-6.301,2.765-12.465,3.264-18.496.497-6.029.748-11.628.748-16.796v-28.152ZM2047.759,608.818h104.312v16.728h-104.312v-16.728ZM2145.271,608.818h17c0,1.995-.023,3.604-.068,4.828-.046,1.224-.114,2.2-.203,2.924-.728,13.6-1.452,25.228-2.177,34.884-.727,9.656-1.52,17.659-2.38,24.004-.862,6.348-1.859,11.379-2.992,15.096-1.135,3.719-2.471,6.481-4.012,8.296-2.087,2.629-4.194,4.441-6.324,5.44-2.131.997-4.691,1.677-7.684,2.04-2.448.361-5.667.544-9.656.544s-8.07-.047-12.24-.136c-.091-2.448-.658-5.304-1.699-8.568-1.044-3.264-2.336-6.028-3.876-8.296,4.352.363,8.363.567,12.035.612,3.673.046,6.414.068,8.229.068,1.36,0,2.537-.136,3.536-.408.996-.272,1.903-.86,2.72-1.768,1.178-1.177,2.266-3.468,3.264-6.868.997-3.4,1.881-8.137,2.652-14.212.77-6.073,1.473-13.668,2.108-22.78.633-9.112,1.224-19.924,1.768-32.436v-3.264Z"/>
  </g>
</svg>