<svg width="64" height="75" viewBox="0 0 64 75" fill="none" xmlns="http://www.w3.org/2000/svg">
<path d="M8.4141 0H34.3834C37.1317 0.137 39.1162 2.36175 39.1492 4.80613V16.4377C41.7025 19.7625 45.2462 22.1188 47.8123 25.3231C48.7143 26.4539 49.7173 27.329 50.8212 27.9482C54.7763 29.9616 59.3808 28.7417 62.5336 31.6033C65.0012 37.3538 61.5492 44.2428 56.1322 46.1833C51.7084 47.7085 47.2968 46.6864 43.3898 44.7899C43.4012 51.6559 43.3455 58.5218 43.309 65.3876C42.8917 70.9772 39.1283 74.9627 33.7775 74.9999C28.3853 74.9846 24.464 70.3359 24.3672 65.3876V57.3101C22.7787 57.0408 21.3382 56.5158 20.0457 55.7349C16.7242 56.1874 13.4678 55.152 11.12 53.1502C-8.0519 52.0517 3.32247 26.935 3.60791 17.5282V4.80613C3.73897 2.03856 5.95735 0.033 8.4141 0ZM8.4141 17.3263C8.25216 24.8529 -3.12703 50.5706 13.1798 48.1017C14.6467 50.8234 18.5727 51.8706 21.0554 50.2019C23.5557 52.7373 26.697 53.4593 29.1734 51.0098C29.1734 53.433 29.1869 55.8293 29.2138 58.1987C29.2407 60.5682 29.2542 62.9645 29.2542 65.3877C29.3125 68.1609 31.3471 70.0828 33.7776 70.1131C36.6511 70.0497 38.4736 67.8684 38.5029 65.3877C38.5034 55.9886 38.5827 46.7232 38.5837 38.0048C44.8813 38.7895 53.4327 46.3029 58.3938 38.6309C58.9971 37.4026 59.2532 36.4204 59.0199 35.1374C58.9122 34.922 58.8045 34.8008 58.6968 34.7739C58.5891 34.747 58.4141 34.7066 58.1718 34.6527C53.1799 33.8375 48.1887 33.0764 44.8842 29.2004C41.6128 24.934 36.4624 22.4183 34.3834 17.5284V17.3265L8.4141 17.3263Z" fill="#F29A98"/>
</svg>
